<svg width="28" height="35" viewBox="0 0 28 35" fill="none" xmlns="http://www.w3.org/2000/svg">
<path fill-rule="evenodd" clip-rule="evenodd" d="M12.5039 0.0189474C10.0752 0.303271 8.2392 0.910103 6.40895 2.03358C4.21176 3.38225 2.31838 5.50596 1.25584 7.81367C0.275031 9.94394 -0.0664027 11.6773 0.0104165 14.1367C0.11842 17.594 1.1271 20.9513 3.06735 24.312C5.04142 27.7312 8.19176 31.2377 11.6741 33.8918C13.528 35.3046 13.6329 35.3145 15.1111 34.2171C19.3171 31.0943 22.7911 27.0961 24.8768 22.9776C25.9284 20.9011 26.6618 18.641 27.0296 16.3427C27.2137 15.1921 27.2807 13.0541 27.1649 12.0171C26.8268 8.98662 25.4336 6.13441 23.2225 3.94618C21.1722 1.91711 18.6242 0.625505 15.7234 0.144857C15.1166 0.0442663 12.9958 -0.0386701 12.5039 0.0189474ZM15.0968 2.51812C18.269 2.88559 21.2575 4.78984 23.0962 7.6155C23.6839 8.5187 24.3322 10.107 24.561 11.2043C24.9551 13.0945 24.8321 15.5276 24.224 17.8728C23.1459 22.0304 20.2516 26.4879 16.2879 30.0952C15.3698 30.9308 13.7175 32.2772 13.6102 32.2772C13.5029 32.2772 11.8505 30.9308 10.9325 30.0952C6.96881 26.4879 4.07451 22.0304 2.99641 17.8728C2.38822 15.5276 2.26528 13.0945 2.65933 11.2043C2.88813 10.107 3.53642 8.5187 4.12415 7.6155C5.50531 5.49302 7.5517 3.86119 9.82938 3.0659C11.5834 2.45353 13.1408 2.29156 15.0968 2.51812ZM12.8496 8.16457C10.4441 8.62627 8.77216 10.2071 8.31194 12.4548C8.15166 13.2379 8.21002 14.3322 8.45133 15.0672C8.74485 15.9612 9.12507 16.5635 9.84037 17.2675C10.3935 17.812 10.5716 17.9398 11.1997 18.2435C12.0775 18.6677 12.7067 18.8106 13.6793 18.8066C16.0086 18.7967 18.0329 17.3095 18.769 15.0672C19.011 14.3301 19.0688 13.2381 18.9075 12.4502C18.4967 10.4443 17.043 8.88904 15.0498 8.32319C14.5542 8.1825 13.2471 8.08828 12.8496 8.16457ZM14.4399 10.6687C15.5254 10.991 16.335 11.922 16.5271 13.0692C16.8121 14.7716 15.3861 16.3999 13.6102 16.3999C11.8342 16.3999 10.4083 14.7716 10.6933 13.0692C10.9909 11.2919 12.7474 10.1664 14.4399 10.6687Z" fill="#D7B76F"/>
</svg>
