<svg width="31" height="32" viewBox="0 0 31 32" fill="none" xmlns="http://www.w3.org/2000/svg">
<path fill-rule="evenodd" clip-rule="evenodd" d="M16.28 0.102379C15.6108 0.419891 15.4195 1.29524 15.8996 1.8435C16.1743 2.15745 16.3853 2.2287 17.168 2.27198C20.3805 2.44963 23.0539 3.62166 25.2338 5.80796C26.8169 7.39583 27.8641 9.26018 28.4115 11.4658C28.5979 12.2167 28.6657 12.6891 28.7266 13.661C28.7863 14.6133 28.8589 14.8706 29.1426 15.1367C29.6449 15.6077 30.4496 15.5092 30.8301 14.9302C31.0014 14.6694 31.0055 14.6429 30.9979 13.8462C30.9702 10.9733 29.9235 8.04574 28.0222 5.52341C27.5712 4.92523 26.2518 3.584 25.6422 3.10417C23.2248 1.20129 20.3838 0.140473 17.3695 0.0151821C16.6294 -0.0155307 16.5081 -0.00583522 16.28 0.102379ZM4.65762 4.89771C3.2081 5.22754 1.67955 6.24107 0.900784 7.38883C-0.221252 9.04244 -0.293784 10.9338 0.676015 13.2485C3.22051 19.3214 7.12739 24.2407 12.2022 27.7616C14.8016 29.5651 18.63 31.5073 20.2787 31.8591C22.9104 32.4208 25.222 31.2821 26.457 28.8159C27.2288 27.2745 27.3009 26.0698 26.6851 25.0044C26.2588 24.2671 24.5676 22.7093 23.1787 21.775C21.4325 20.6003 20.3758 20.1292 19.4868 20.1292C18.6325 20.1292 17.9444 20.4404 17.3059 21.1155C16.3602 22.1152 16.2293 22.7621 16.8512 23.3619C17.0563 23.5597 17.1904 23.6337 17.4017 23.6654C17.9133 23.7424 18.2482 23.5583 18.7231 22.9393C19.2201 22.2916 19.4692 22.2469 20.2879 22.6589C21.8168 23.4282 24.4023 25.4702 24.7441 26.1783C24.8713 26.442 24.8775 26.499 24.812 26.812C24.6603 27.5374 24.1047 28.4935 23.5321 29.0148C23.0052 29.4943 22.0466 29.8069 21.3389 29.7299C20.5221 29.641 19.9014 29.4149 18.041 28.5286C13.0285 26.1404 9.02446 22.7551 5.99762 18.3465C4.9122 16.7656 3.6532 14.4545 2.85055 12.5697C2.3571 11.4108 2.26755 11.0231 2.29966 10.1835C2.32174 9.60684 2.34906 9.47411 2.52375 9.09561C2.81687 8.46052 3.44565 7.8609 4.2203 7.47784C5.32257 6.93276 5.64999 6.94784 6.31813 7.57448C7.56383 8.74282 9.58282 11.748 9.58282 12.4338C9.58282 12.7249 9.48067 12.8625 8.94874 13.2881C8.305 13.8033 8.14291 14.2373 8.39038 14.7836C8.60361 15.2544 9.14308 15.5618 9.60397 15.4751C10.1645 15.3697 11.1985 14.438 11.5526 13.7194C11.8306 13.1552 11.9226 12.4339 11.7895 11.8616C11.4694 10.4854 9.81302 7.93033 8.13312 6.22143C7.42513 5.50114 6.8773 5.11076 6.36484 4.96139C5.86865 4.8167 5.13397 4.78931 4.65762 4.89771ZM16.5257 6.62232C15.5696 6.81842 15.3121 8.11467 16.1223 8.65249C16.3193 8.78316 16.4791 8.82094 17.048 8.87099C18.6929 9.01579 20.0055 9.69685 20.9797 10.9112C21.6978 11.8061 22.0761 12.7918 22.1713 14.0157C22.233 14.8086 22.3882 15.1177 22.8242 15.3163C23.3225 15.5432 23.8074 15.4435 24.1589 15.0419C24.4055 14.7603 24.4523 14.5198 24.4096 13.7558C24.2408 10.7392 22.1341 7.99852 19.2184 7.0027C18.3665 6.7117 17.0183 6.52124 16.5257 6.62232Z" fill="#D7B76F"/>
</svg>
