<svg width="32" height="22" viewBox="0 0 32 22" fill="none" xmlns="http://www.w3.org/2000/svg">
<path fill-rule="evenodd" clip-rule="evenodd" d="M2.2672 0.104812C1.12808 0.414866 0.242515 1.37756 0.0616406 2.50244C-0.0205469 3.01373 -0.0205469 18.9813 0.0616406 19.4926C0.244765 20.6312 1.13458 21.5882 2.29395 21.8934C2.83408 22.0355 29.1659 22.0355 29.706 21.8934C30.8654 21.5882 31.7552 20.6312 31.9384 19.4926C32.0205 18.9813 32.0205 3.01373 31.9384 2.50244C31.7552 1.36385 30.8654 0.406845 29.706 0.101654C29.1834 -0.0359095 2.77308 -0.0328776 2.2672 0.104812ZM29.4997 2.16251C29.6293 2.2361 29.7948 2.40334 29.8676 2.53428L30 2.77226V10.9975V19.2228L29.8676 19.4607C29.7948 19.5917 29.6293 19.7589 29.4997 19.8325L29.2642 19.9663H16H2.73576L2.50026 19.8325C2.3707 19.7589 2.2052 19.5917 2.13239 19.4607L2.00001 19.2228V10.9975V2.77226L2.13183 2.53535C2.20426 2.40499 2.36601 2.23837 2.4912 2.16504L2.71876 2.03165L15.9915 2.03019L29.2642 2.02874L29.4997 2.16251ZM4.43745 4.19198C4.03764 4.4678 3.88826 5.02437 4.09551 5.46574C4.21164 5.71314 15.2707 15.5855 15.6144 15.7487C15.7405 15.8086 15.9141 15.8576 16 15.8576C16.0859 15.8576 16.2599 15.8086 16.3866 15.7487C16.7298 15.5864 27.788 5.71389 27.9046 5.46567C28.1117 5.02437 27.9623 4.46774 27.5626 4.19198C27.2984 4.00976 26.8019 3.99821 26.5312 4.16792C26.4281 4.23259 24.0268 6.34992 21.1949 8.87311C18.3631 11.3963 16.0262 13.4608 16.0018 13.4608C15.9774 13.4608 13.6397 11.3962 10.8069 8.87286C7.97401 6.34948 5.57189 4.23215 5.46876 4.1676C5.19795 3.99821 4.70139 4.00995 4.43745 4.19198Z" fill="#D7B76F"/>
</svg>
