<svg width="33" height="32" viewBox="0 0 33 32" fill="none" xmlns="http://www.w3.org/2000/svg">
<path fill-rule="evenodd" clip-rule="evenodd" d="M7.50393 0.0854584C6.97359 0.335801 6.82739 0.625804 6.82707 1.42796L6.82681 2.05683L3.84424 2.07601C0.476749 2.09772 0.532918 2.08962 0.194937 2.60288L0.0233348 2.86346L0.00443982 16.8985C-0.00852225 26.5031 0.00669689 31.0075 0.0527413 31.1678C0.147023 31.4961 0.35577 31.7397 0.663119 31.88C0.916879 31.9958 1.47741 32 16.5 32C31.5226 32 32.0831 31.9958 32.3369 31.88C32.6442 31.7397 32.853 31.4961 32.9473 31.1678C32.9933 31.0075 33.0085 26.5031 32.9956 16.8985L32.9767 2.86346L32.8051 2.60288C32.4671 2.08962 32.5233 2.09772 29.1558 2.07601L26.1732 2.05683V1.43684C26.1732 0.93149 26.1487 0.772976 26.0408 0.580051C25.6298 -0.15471 24.5927 -0.188668 24.1276 0.51745C23.984 0.735584 23.9565 0.860658 23.9298 1.41682L23.8989 2.06286H20.7886H17.6784L17.6466 1.45259C17.6202 0.946071 17.586 0.792872 17.4453 0.551537C17.0168 -0.183094 15.9832 -0.183094 15.5547 0.551537C15.414 0.792872 15.3798 0.946071 15.3534 1.45259L15.3216 2.06286H12.2114H9.10111L9.07015 1.41682C9.04352 0.860658 9.01605 0.735584 8.87237 0.51745C8.57804 0.0704883 7.95341 -0.126649 7.50393 0.0854584ZM6.82681 5.39611C6.82681 5.94735 6.8577 6.47823 6.89562 6.57881C7.21612 7.42899 8.44204 7.50617 8.89894 6.70498C9.03849 6.46028 9.05351 6.34927 9.07344 5.41653L9.09524 4.39585H12.2095H15.3238L15.3515 5.41653C15.3818 6.53578 15.4282 6.70408 15.7913 7.01106C16.2113 7.36619 16.7887 7.36619 17.2087 7.01106C17.5718 6.70408 17.6182 6.53578 17.6485 5.41653L17.6762 4.39585H20.7905H23.9048L23.9266 5.41653C23.9465 6.34927 23.9615 6.46028 24.1011 6.70498C24.558 7.50617 25.7839 7.42899 26.1044 6.57881C26.1423 6.47823 26.1732 5.94735 26.1732 5.39611V4.39585H28.4625H30.7518V17.0653V29.7347H16.5H2.24817V17.0653V4.39585H4.53749H6.82681V5.39611ZM8.37671 10.1474C7.73525 10.4726 7.75879 11.4833 8.41431 11.7586C8.7334 11.8926 24.2666 11.8926 24.5857 11.7586C25.2412 11.4833 25.2647 10.4726 24.6233 10.1474C24.4141 10.0413 23.8927 10.0341 16.5 10.0341C9.1073 10.0341 8.58591 10.0413 8.37671 10.1474ZM10.3671 14.0693C9.9577 14.3442 9.92243 14.5007 9.92236 16.0446L9.92223 17.4217H8.59817C7.1695 17.4217 6.99242 17.454 6.70467 17.7676C6.50024 17.9905 6.44749 18.4841 6.59704 18.7748C6.65592 18.8891 6.79702 19.0397 6.91058 19.1092C7.09856 19.2244 7.24224 19.2358 8.51962 19.236L9.92223 19.2362V20.6619V22.0877H8.56063C7.29809 22.0877 7.18156 22.0975 6.95875 22.2234C6.65134 22.397 6.50431 22.65 6.50463 23.0049C6.50489 23.3604 6.67926 23.6534 6.97404 23.794C7.16376 23.8844 7.42423 23.9022 8.5616 23.9022H9.92223V25.3019C9.92223 26.4531 9.94061 26.7406 10.0258 26.921C10.3154 27.5342 11.2475 27.5771 11.6015 26.9935C11.7164 26.8042 11.7274 26.6599 11.7276 25.3441L11.7279 23.9022H13.6625H15.5972L15.5973 25.3117C15.5974 26.5247 15.6131 26.7525 15.7102 26.9458C16.0227 27.5685 16.9773 27.5685 17.2898 26.9458C17.3869 26.7525 17.4026 26.5247 17.4027 25.3117L17.4028 23.9022H19.3375H21.2721L21.2724 25.3441C21.2726 26.6599 21.2836 26.8042 21.3985 26.9935C21.7527 27.5773 22.6438 27.5435 22.9549 26.9344C23.0645 26.7199 23.0778 26.5434 23.0778 25.2981V23.9022H24.4384C25.5758 23.9022 25.8362 23.8844 26.026 23.794C26.3207 23.6534 26.4951 23.3604 26.4954 23.0049C26.4957 22.65 26.3487 22.397 26.0412 22.2234C25.8184 22.0975 25.7019 22.0877 24.4394 22.0877H23.0778V20.6619V19.2362L24.4804 19.236C25.7578 19.2358 25.9014 19.2244 26.0894 19.1092C26.6981 18.7363 26.6065 17.7987 25.9334 17.5105C25.7802 17.445 25.3796 17.4217 24.4018 17.4217H23.0778L23.0776 16.0446C23.0776 14.5007 23.0423 14.3442 22.6329 14.0693C22.2207 13.7925 21.6238 13.9416 21.3899 14.3799C21.2862 14.5743 21.2721 14.7688 21.2721 16.0111V17.4217H19.3375H17.4028V16.0251C17.4028 14.5215 17.3865 14.4335 17.0491 14.1166C16.9058 13.9821 16.8126 13.9546 16.5 13.9546C16.1874 13.9546 16.0942 13.9821 15.9509 14.1166C15.6135 14.4335 15.5972 14.5215 15.5972 16.0251V17.4217H13.6625H11.7279V16.0111C11.7279 14.7688 11.7138 14.5743 11.6101 14.3799C11.3762 13.9416 10.7793 13.7925 10.3671 14.0693ZM15.5972 20.6619V22.0877H13.6625H11.7279V20.6619V19.2362H13.6625H15.5972V20.6619ZM21.2721 20.6619V22.0877H19.3375H17.4028V20.6619V19.2362H19.3375H21.2721V20.6619Z" fill="#D7B76F"/>
</svg>
