<svg width="103" height="65" viewBox="0 0 103 65" fill="none" xmlns="http://www.w3.org/2000/svg">
<path fill-rule="evenodd" clip-rule="evenodd" d="M8.93087 0.272709C8.0998 0.643124 7.25182 1.59045 7.01564 2.41244C6.71628 3.45458 6.75129 32.6312 7.05245 33.196C7.61133 34.2436 8.73975 34.4465 9.54346 33.6438L10.0374 33.1508V18.1764V3.20208H41.1196H72.2018V17.9797C72.2018 28.8292 72.264 32.8738 72.4358 33.196C72.9947 34.2436 74.1231 34.4465 74.9268 33.6438C75.3422 33.2292 75.4207 32.958 75.4207 31.9363V30.722L85.3288 30.7232C91.3457 30.7238 95.5228 30.8036 95.9648 30.9261C96.9865 31.2096 97.9256 31.8873 98.6988 32.8993C99.7783 34.3127 99.7421 34.3378 96.6361 34.3378C94.0109 34.3378 93.8928 34.3559 93.4172 34.8309C92.9469 35.3004 92.9233 35.4408 92.9233 37.7706C92.9233 40.8647 93.1384 41.5968 94.4253 42.8818C95.597 44.0517 96.4776 44.3816 98.4288 44.3816H99.7634V47.9973V51.6131H97.6943H95.625L95.0019 50.3576C91.2829 42.864 80.4794 42.8674 76.7591 50.3635C76.3483 51.1915 76.0281 51.6047 75.8273 51.5661C75.5635 51.5155 75.5074 50.6156 75.4207 45.0386C75.3102 37.9409 75.3378 38.0877 74.0682 37.834C73.5282 37.7264 73.3268 37.8037 72.8134 38.3163L72.2018 38.927V45.2701V51.6131H55.5134H38.8249L38.4063 50.6682C36.6242 46.6459 32.1168 44.1681 27.7061 44.7861C24.5243 45.2319 21.3205 47.5446 19.9873 50.358L19.3922 51.6139L14.7651 51.5633L10.1379 51.5127V49.7048V47.8969L13.9994 47.8425L17.861 47.7878L18.2745 47.2629C18.8196 46.5709 18.7969 45.9366 18.2026 45.2466L17.717 44.6829H9.33323H0.949473L0.463825 45.2466C-0.131666 45.9378 -0.152991 46.5711 0.395424 47.2672L0.812268 47.7965H3.81548H6.81848L6.82291 49.8554C6.82633 51.4209 6.91585 52.1071 7.1969 52.7179C8.06137 54.5979 8.77576 54.8072 14.3677 54.8183L18.7985 54.8271L19.0438 56.3664C20.3943 64.8412 30.9218 67.9901 36.6765 61.6406C37.8249 60.3735 38.9654 58.0674 39.1237 56.692C39.1846 56.1635 39.2756 55.5278 39.3259 55.2791L39.4172 54.8271H57.4777H75.5382L75.8518 56.4843C76.2608 58.6454 77.0134 60.1937 78.3621 61.6483C80.562 64.0208 82.6489 64.9322 85.882 64.9322C89.1148 64.9322 91.2022 64.0208 93.4013 61.6491C94.7828 60.1592 95.4906 58.7163 95.8986 56.5581L96.2204 54.8554L99.1164 54.7912L102.012 54.7267L102.506 54.1528L103 53.5789L102.941 43.8077C102.883 34.3004 102.87 34.0076 102.444 32.969C101.452 30.5535 99.1794 28.4616 96.9183 27.8831C96.2396 27.7093 95.8332 27.4823 95.7185 27.2127C95.6229 26.9884 94.9985 24.6086 94.3308 21.9241L93.1166 17.0432L93.7451 16.5151L94.3736 15.987L94.2919 13.8632C94.2217 12.0368 94.1334 11.5906 93.6606 10.6779C93.0112 9.4242 91.8325 8.19163 90.7689 7.65449C89.3461 6.93555 88.0646 6.81784 81.6643 6.81784H75.4543L75.3873 4.45755C75.3271 2.34735 75.269 2.02555 74.8371 1.42091C74.5713 1.04909 73.9829 0.576433 73.5294 0.370736C72.7364 0.0111687 71.4961 -0.00289293 41.1196 0.000321081C15.1713 0.00313334 9.42677 0.0517458 8.93087 0.272709ZM89.2413 10.4836C90.1004 10.9527 90.9039 12.0388 91.0481 12.9259L91.1654 13.6476H83.2931H75.4207V11.8295V10.0116L82.0093 10.0718C87.8305 10.1253 88.673 10.1733 89.2413 10.4836ZM46.8124 22.8337L39.4053 30.2118L35.5346 26.3602C33.0704 23.9081 31.4626 22.4602 31.1095 22.3749C29.9773 22.1015 28.8999 23.4086 29.3544 24.5039C29.4771 24.7998 31.6394 27.0882 34.1596 29.5895C38.3296 33.7279 38.8032 34.1369 39.4251 34.1369C40.0566 34.1369 40.7285 33.5176 48.3089 25.9484C55.7775 18.4913 56.5098 17.7013 56.5098 17.1009C56.5098 16.2204 55.748 15.4555 54.8708 15.4555C54.2826 15.4555 53.5004 16.1716 46.8124 22.8337ZM91.0715 22.1346C91.7635 24.9242 92.3274 27.2746 92.3248 27.3574C92.322 27.4401 88.5175 27.508 83.8702 27.508H75.4207V22.2853V17.0625H82.6169H89.8131L91.0715 22.1346ZM99.7634 39.3597V41.1676H98.4831C97.3682 41.1676 97.1344 41.0993 96.6725 40.6381C96.2106 40.1769 96.1422 39.9434 96.1422 38.8302V37.5518H97.9528H99.7634V39.3597ZM3.98648 38.3398C3.26082 39.0644 3.22783 39.8103 3.89233 40.4736L4.38602 40.9667H15.2425C21.2135 40.9667 26.2454 40.9105 26.4244 40.842C26.7912 40.7013 27.3388 39.7502 27.3388 39.2538C27.3388 39.074 27.0742 38.6629 26.7507 38.3398L26.1627 37.7527H15.3686H4.57453L3.98648 38.3398ZM42.288 44.7829C41.5986 45.064 41.1628 45.8731 41.319 46.5828C41.5964 47.8441 41.0574 47.7965 55.0312 47.7965H67.7467L68.1636 47.2672C68.712 46.5711 68.6906 45.9378 68.0951 45.2466L67.6097 44.6829L55.1694 44.6431C48.2114 44.6208 42.5347 44.6825 42.288 44.7829ZM30.6583 48.1012C32.4033 48.3848 34.4489 49.9798 35.3634 51.7698C36.2621 53.5287 36.2665 56.1123 35.3743 57.8678C32.7135 63.1018 25.4477 63.1126 22.871 57.8863C22.2759 56.679 22.2095 56.3696 22.2168 54.8313C22.2234 53.3856 22.3103 52.9429 22.7764 51.9817C23.7646 49.9436 25.8137 48.3591 27.9287 47.9971C28.8428 47.8409 29.1227 47.8515 30.6583 48.1012ZM86.9938 48.0152C90.0865 48.5861 92.4481 51.0603 92.8326 54.1327C93.0923 56.2083 91.9629 58.9421 90.3034 60.2544C86.2452 63.4638 80.4134 61.4801 79.1302 56.454C78.1598 52.653 80.7984 48.6721 84.7204 48.0198C85.304 47.9228 85.7875 47.8328 85.7947 47.82C85.8022 47.8071 86.3417 47.8949 86.9938 48.0152ZM27.3873 52.0022C24.918 53.5492 25.4765 57.2069 28.3115 58.055C29.9219 58.5367 31.982 57.3222 32.2844 55.7126C32.7181 53.4043 31.508 51.7851 29.2548 51.6591C28.3006 51.6057 27.9035 51.6786 27.3873 52.0022ZM84.3026 51.9538C82.3065 52.9359 82.0182 56.0269 83.7928 57.4208C85.1761 58.5072 86.9716 58.3995 88.2177 57.1553C89.3719 56.0028 89.4994 54.2235 88.5259 52.8585C87.6862 51.6808 85.7157 51.2588 84.3026 51.9538Z" fill="#D7B76F"/>
</svg>
