<svg width="91" height="75" viewBox="0 0 91 75" fill="none" xmlns="http://www.w3.org/2000/svg">
<path fill-rule="evenodd" clip-rule="evenodd" d="M47.0848 0.158234C45.8597 0.389511 44.1955 0.99805 43.1059 1.61314C41.7885 2.35704 39.7977 4.24955 39.0075 5.50874C36.3164 9.79771 36.9174 15.2836 40.4829 18.9755C41.5916 20.1236 41.6198 20.1754 41.1925 20.2816C40.9478 20.3423 40.0758 20.708 39.2548 21.0942C36.4296 22.4232 33.7504 25.5022 32.1456 29.264C31.772 30.14 31.4449 30.8805 31.419 30.9095C31.3929 30.9387 31.0579 30.7607 30.6749 30.514C30.2916 30.2672 29.6734 29.9851 29.301 29.8869C28.2029 29.5974 11.6387 29.6634 10.7606 29.9607C8.51261 30.7216 7.38095 32.4823 8.47363 33.5189C9.08254 34.0968 9.89436 34.0904 10.4673 33.5031C11.2226 32.7288 11.8063 32.5377 13.4148 32.5377H14.9161V34.9345C14.9161 37.2435 14.9329 37.3474 15.374 37.7657L15.8316 38.2001H20.138H24.4444L24.9021 37.7657C25.3435 37.347 25.3599 37.2446 25.3599 34.9175V32.5035L27.1268 32.5647C28.6682 32.6184 28.9477 32.6776 29.3181 33.0292L29.7426 33.4323V39.6157V45.7992L29.3179 46.2023L28.8933 46.6054L20.2173 46.6547L11.5413 46.7041L10.9908 46.1817C10.6879 45.8944 10.4402 45.5736 10.4402 45.4688C10.4402 45.346 11.0732 45.2782 12.2203 45.2782C13.8619 45.2782 14.0363 45.2444 14.4583 44.8438C14.747 44.5701 14.9161 44.2073 14.9161 43.8626C14.9161 43.5179 14.747 43.1551 14.4583 42.8814C14.0363 42.4808 13.8619 42.447 12.2203 42.447H10.4402V41.0314V39.6157H11.4744C12.7188 39.6157 13.4242 39.1036 13.4242 38.2001C13.4242 37.8554 13.255 37.4927 12.9663 37.2189L12.5087 36.7845H8.20228H3.8959L3.43824 37.2189C2.8325 37.7935 2.8325 38.6068 3.43824 39.1813C3.86028 39.582 4.03466 39.6157 5.67619 39.6157H7.4563V41.0314V42.447H4.18423C0.95859 42.447 0.905438 42.4532 0.454304 42.8814C-0.151435 43.456 -0.151435 44.2692 0.454304 44.8438C0.905065 45.2717 0.961014 45.2782 4.14543 45.2782H7.3789L7.60475 46.0791C8.04115 47.6273 9.19015 48.7941 10.7944 49.318C11.2032 49.4515 12.8805 49.5251 15.518 49.5251H19.6076L18.9277 50.2771C17.0112 52.397 15.2522 57.685 14.9846 62.1311C14.8621 64.1673 14.8635 64.1783 15.3466 64.6366C15.822 65.0877 15.8829 65.0969 18.4045 65.0981L20.9773 65.0993L21.2848 66.3101C22.3031 70.3184 25.6512 73.517 29.9291 74.5681C31.3739 74.923 34.2657 74.923 35.7104 74.5681C39.9635 73.523 43.3378 70.3104 44.3452 66.3467L44.6623 65.0993L55.9546 65.0981L67.2469 65.0969L67.4856 66.1938C68.5686 71.169 73.6087 75 79.0708 75C85.5802 75 91 69.8576 91 63.6813C91 59.4859 88.3799 55.4468 84.4728 53.6194C82.8264 52.8493 80.8865 52.3646 79.4288 52.3593L78.5747 52.3563L75.9279 46.4912C74.4723 43.2654 73.3043 40.6044 73.3323 40.5778C73.3603 40.5513 73.842 40.6424 74.4026 40.7804C75.9067 41.1506 76.5859 41.1048 77.121 40.597L77.5788 40.1627V33.9533V27.7438L77.0956 27.2854C76.6443 26.8573 76.5318 26.8341 75.389 26.9354C72.9748 27.1493 70.4517 28.7849 69.4866 30.7614L69.0572 31.6405L68.5158 31.0994C68.218 30.8018 67.5546 30.3466 67.0418 30.0881C66.1319 29.6293 66.0381 29.619 63.163 29.6634C59.6879 29.717 58.9201 29.5075 57.5769 28.139C56.7718 27.3186 55.0128 25.0706 55.0128 24.862C55.0128 24.8013 55.2075 24.7518 55.4456 24.7518C55.6836 24.7518 56.3334 24.5327 56.8897 24.2651C58.0426 23.7104 58.9883 22.6453 59.3315 21.5151C59.4682 21.0648 59.8042 20.5711 60.1813 20.2666C61.6604 19.0719 61.8824 17.5857 60.8188 15.9988C60.495 15.5156 60.1476 14.8387 60.0469 14.4947C59.8061 13.6723 59.8113 12.719 60.0566 12.719C60.1638 12.719 60.4575 12.5235 60.7093 12.2846C61.2582 11.764 61.308 10.8214 60.8876 8.91454C59.7545 3.77585 54.6872 -0.0684414 49.1382 0.000923899C48.4202 0.00994846 47.4961 0.0807293 47.0848 0.158234ZM51.3683 3.0806C53.0037 3.48476 54.5003 4.31997 55.6648 5.4783C56.6888 6.49702 57.6847 8.1839 57.919 9.2964L58.0364 9.85522L55.1726 9.91839C52.7288 9.97218 52.1807 10.0371 51.4365 10.3611C50.204 10.8982 48.9532 12.0583 48.3493 13.2247C47.865 14.1608 47.8288 14.3926 47.7689 16.9406L47.7051 19.6578L47.1162 19.5464C45.9437 19.3241 44.1658 18.3792 43.0921 17.4075C41.8713 16.3026 40.9911 14.8826 40.5651 13.3309C38.9202 7.33913 45.0533 1.51988 51.3683 3.0806ZM56.8494 14.0228C56.9796 14.758 57.3677 15.8957 57.7394 16.6316L58.3986 17.9364L57.9645 18.2033C57.1556 18.7003 56.6912 19.2485 56.6912 19.7063C56.6912 20.4078 56.2151 21.3297 55.6817 21.6613C55.1208 22.0101 53.3185 21.9435 51.7491 21.5162L50.8166 21.2623L50.7659 18.1762C50.7176 15.2386 50.7359 15.0525 51.1486 14.3119C51.8116 13.1226 52.7653 12.719 54.9125 12.719H56.6185L56.8494 14.0228ZM46.8144 22.8067C49.2674 23.248 50.792 24.3671 53.2914 27.5611C55.1868 29.983 56.3764 31.0937 57.7824 31.7538C58.3619 32.0259 58.8628 32.266 58.8956 32.2874C58.9285 32.3089 58.7808 32.6511 58.5674 33.0478C58.354 33.4447 58.0801 34.375 57.9589 35.1153C57.7436 36.429 57.7269 36.4591 57.2565 36.3697C54.4658 35.8401 51.2629 33.6155 49.3457 30.875C48.3508 29.4527 47.6736 29.1986 46.7389 29.8963C45.8413 30.5662 46.0854 31.4802 47.7033 33.5059L48.2646 34.2088L47.7473 34.8331C46.9487 35.7964 46.049 37.4053 45.6859 38.5186L45.3571 39.5273L39.0607 39.5738L32.764 39.6205L32.8806 38.1582C33.0374 36.1891 33.7444 33.3582 34.6465 31.0865C37.1588 24.761 41.4497 21.8412 46.8144 22.8067ZM74.5949 33.9533C74.5949 38.4555 74.613 38.4208 73.0378 36.9172C72.0371 35.962 71.6109 35.0767 71.6109 33.9533C71.6109 32.8298 72.0371 31.9445 73.0378 30.9893C74.613 29.4858 74.5949 29.4511 74.5949 33.9533ZM66.1319 32.8438C66.4687 33.0713 66.8851 33.6502 67.1828 34.3049L67.6759 35.3891L66.837 35.7302C65.4331 36.3013 63.7574 36.6483 62.2861 36.6727L60.8874 36.696L60.8253 36.1795C60.6729 34.9115 61.6576 33.2531 62.9389 32.6194C63.7203 32.2329 65.4027 32.3512 66.1319 32.8438ZM22.376 33.9533V35.3689H20.138H17.9001V33.9533V32.5377H20.138H22.376V33.9533ZM51.9119 37.2019C53.4052 38.1331 54.7944 38.6954 56.7845 39.1744L58.463 39.5784L60.55 48.1351C61.8223 53.3513 62.6414 57.0802 62.6481 57.6868C62.6614 58.8913 62.2559 60.0566 61.5959 60.7102L61.1065 61.1947L60.7977 60.3292C60.26 58.822 58.9452 57.5175 57.4842 57.0415L56.7845 56.8136L56.6817 51.8865C56.5717 46.619 56.5711 46.6153 55.4729 44.5589C54.4 42.5498 51.5244 40.4303 49.3564 40.0502C48.9636 39.9813 48.5992 39.8187 48.5468 39.689C48.3165 39.1194 50.1807 36.1284 50.604 36.3885C50.721 36.4603 51.3095 36.8264 51.9119 37.2019ZM72.4101 45.94L75.8612 53.5913L72.6135 57.9285L69.3661 62.2656H66.7926H64.2192L64.8346 61.0712C65.5813 59.622 65.889 57.9411 65.6537 56.5982C65.5097 55.7761 61.8758 40.7796 61.62 39.9512C61.5467 39.7138 61.7759 39.648 63.02 39.5496C64.5127 39.4314 67.3113 38.7584 68.2294 38.2966C68.4993 38.1608 68.774 38.1035 68.8398 38.1692C68.9054 38.2348 70.5121 41.7317 72.4101 45.94ZM47.7469 42.6254C49.9347 43.0189 52.0145 44.3827 52.8616 45.979C53.5643 47.3029 53.7073 48.4282 53.7073 52.6304V56.6032H50.7234H47.7394V54.5719C47.7394 51.4031 46.8635 49.4538 44.801 48.0327C43.0899 46.8536 42.1621 46.6938 37.0251 46.6938H32.4729L32.6463 46.12C32.7416 45.8043 32.8198 44.8488 32.8198 43.9966V42.447H39.788C43.6887 42.447 47.1923 42.5256 47.7469 42.6254ZM41.7981 49.7305C42.7259 49.9942 43.865 50.9214 44.3102 51.7754C44.6054 52.3416 44.6738 53.0052 44.754 56.0836L44.8488 59.7225L45.514 60.9941L46.1794 62.2656H32.0214H17.8635L17.9881 61.1597C18.3156 58.2534 19.7673 54.0651 21.0694 52.2694C21.947 51.0591 23.4854 50.0712 25.0802 49.6937C26.0447 49.4654 40.9814 49.4984 41.7981 49.7305ZM81.2076 55.4585C85.9978 56.6423 88.9526 61.2809 87.7371 65.7088C86.8396 68.9781 83.9734 71.4804 80.4747 72.049C76.7888 72.6479 72.7918 70.6992 71.1376 67.4965C70.7825 66.8092 70.4397 65.9884 70.3756 65.672L70.2588 65.0969H71.7605H73.262L73.7178 66.0411C74.3008 67.2495 75.3133 68.2056 76.6303 68.7916C78.0641 69.4297 80.2119 69.4357 81.5885 68.8058C82.7709 68.2647 83.9035 67.1946 84.4889 66.0655C85.1142 64.8599 85.1382 62.5826 84.5388 61.3462C84.0275 60.2914 82.7682 59.0915 81.6183 58.5633C79.8587 57.7551 77.3489 57.925 75.8239 58.9552C75.4964 59.1764 75.3375 59.2233 75.4313 59.0711C75.6726 58.6793 77.7912 55.8478 78.1053 55.4972C78.4576 55.1037 79.7092 55.0881 81.2076 55.4585ZM56.6942 59.7589C57.4275 60.1254 58.3182 61.4994 58.1276 61.9707C58.0228 62.2301 57.6232 62.2656 54.8071 62.2656C51.2001 62.2656 50.5052 62.1343 49.4116 61.2462C48.7693 60.7246 48.1124 59.8577 48.1124 59.5317C48.1124 59.4781 49.8972 59.4344 52.0785 59.4344C55.5644 59.4344 56.123 59.4737 56.6942 59.7589ZM80.705 61.3228C81.6554 61.9961 81.9615 62.5707 81.9615 63.6813C81.9615 64.8003 81.656 65.3658 80.6774 66.0591C79.8643 66.6353 78.219 66.5709 77.3311 65.9284C76.9544 65.6559 76.6463 65.3572 76.6463 65.2648C76.6463 65.1724 77.3214 65.0969 78.1467 65.0969C79.4911 65.0969 79.6948 65.0518 80.1049 64.6625C80.7106 64.0879 80.7106 63.2746 80.1049 62.7001C79.6948 62.3108 79.4911 62.2656 78.1467 62.2656C77.3214 62.2656 76.6463 62.1984 76.6463 62.1161C76.6463 61.9094 77.1915 61.461 77.8589 61.1186C78.5788 60.7495 80.0439 60.8546 80.705 61.3228ZM73.3125 62.1359C73.1283 62.3093 73.107 62.289 73.2081 62.0368C73.2782 61.8624 73.3825 61.7642 73.4399 61.8187C73.4973 61.873 73.4401 62.0158 73.3125 62.1359ZM27.4308 65.9852C28.2763 67.8501 30.5755 69.2375 32.8198 69.2375C35.0641 69.2375 37.3632 67.8501 38.2087 65.9852L38.6116 65.0969H40.1216H41.6317L41.5107 65.672C41.2705 66.813 40.283 68.482 39.2252 69.5343C35.7459 72.9951 29.8936 72.9951 26.4144 69.5343C25.3566 68.482 24.3691 66.813 24.1289 65.672L24.0078 65.0969H25.5179H27.0279L27.4308 65.9852ZM35.2442 65.2609C35.2442 65.5373 34.3017 66.1473 33.5406 66.3637C32.9945 66.5189 32.645 66.5189 32.099 66.3637C31.3379 66.1473 30.3953 65.5373 30.3953 65.2609C30.3953 65.1685 31.4542 65.0969 32.8198 65.0969C34.1853 65.0969 35.2442 65.1685 35.2442 65.2609Z" fill="#D7B76F"/>
</svg>
