<svg width="71" height="90" viewBox="0 0 71 90" fill="none" xmlns="http://www.w3.org/2000/svg">
<path fill-rule="evenodd" clip-rule="evenodd" d="M5.60682 0.24347C2.84366 1.00125 0.662758 3.36965 0.14007 6.18055C0.0285322 6.78034 -0.0216685 10.419 0.00873474 15.7113L0.0578749 24.2717L0.475213 24.6076C1.01381 25.0411 1.57415 25.0335 2.14774 24.5851L2.60592 24.2267L2.65771 15.2271L2.70932 6.22747L3.12825 5.38921C3.68099 4.28277 4.91957 3.21763 6.03742 2.8876C6.8028 2.6616 9.5292 2.62505 25.4997 2.62593C37.5949 2.62646 44.2985 2.68937 44.7218 2.80641C45.7637 3.09391 47.0203 4.04377 47.602 4.98326L48.1374 5.84806L48.1862 14.7586L48.2352 23.6691L46.8974 23.867C46.1619 23.9758 45.4837 24.0647 45.3904 24.0647C45.2857 24.0647 45.2209 21.9476 45.2209 18.5359C45.2209 13.0745 45.2161 13.0026 44.8339 12.6487C44.4496 12.2927 44.3234 12.2904 25.498 12.2904C7.10436 12.2904 6.5366 12.3002 6.13163 12.6264L5.71429 12.9622L5.66851 42.9293L5.62291 72.8964L6.05103 73.3911L6.47915 73.886H25.4778C43.9128 73.886 44.4878 73.876 44.8488 73.5512C45.2044 73.2312 45.2209 73.0542 45.2209 69.5532C45.2209 67.3322 45.2877 65.89 45.3904 65.89C45.4837 65.89 46.1619 65.9789 46.8974 66.0877L48.2352 66.2856L48.1862 75.1961L48.1374 84.1066L47.602 84.9714C47.0203 85.9109 45.7637 86.8608 44.7218 87.1483C44.2985 87.2653 37.5949 87.3282 25.4997 87.3288C9.5292 87.3296 6.8028 87.2931 6.03742 87.0671C4.91957 86.7371 3.68099 85.6719 3.12825 84.5655L2.70932 83.7272L2.66248 56.0155L2.61564 28.3037L2.15252 27.9416C1.5745 27.4895 1.01505 27.4807 0.475213 27.9155L0.0578749 28.2513L0.0120934 55.5453C-0.0176028 73.2275 0.0285325 83.1747 0.143252 83.7919C0.678667 86.6715 2.82864 88.9477 5.72048 89.6965C7.26698 90.097 43.733 90.1031 45.2774 89.7031C47.5195 89.1225 49.1001 87.8454 50.1232 85.7877L50.7889 84.449L50.8391 75.3694L50.8893 66.2898L52.7009 66.0112C57.4781 65.2765 61.7392 63.0685 65.0397 59.6174C68.5953 55.8997 70.5077 51.5539 70.9408 46.2075C71.0516 44.8403 71.0293 44.6728 70.6786 44.2305C70.4018 43.8813 70.1368 43.7472 69.7236 43.7472C68.66 43.7472 68.52 44.0006 68.2586 46.4001C68.1283 47.5969 67.858 49.1701 67.6581 49.896C67.2142 51.5084 66.0241 54.0492 65.0321 55.5011C62.5804 59.0906 58.6043 61.88 54.3116 63.0223C52.7624 63.4344 52.2143 63.4908 49.6399 63.5019C47.1198 63.5128 46.5095 63.4585 45.15 63.1026C38.7729 61.433 33.6932 56.7805 31.7884 50.8645C31.5707 50.1879 31.2468 49.4829 31.0692 49.2975C30.6335 48.8435 29.7442 48.8632 29.2673 49.3374C28.7393 49.8623 28.8034 50.5659 29.5557 52.5029C31.5696 57.687 35.3158 61.7273 40.3599 64.1553C41.3321 64.6233 42.227 65.0074 42.3484 65.0088C42.5169 65.0108 42.5694 65.7626 42.5694 68.1754V71.3396L25.4676 71.2948L8.36574 71.2499L8.32102 43.0882L8.2763 14.9264H25.4228H42.5694V19.9349C42.5694 23.5521 42.5137 24.9434 42.369 24.9434C41.9486 24.9434 38.8563 26.515 37.543 27.3962C34.9398 29.1424 32.394 31.9008 30.8472 34.6505C29.3399 37.3302 28.3186 40.9384 28.2154 43.9481C28.1531 45.7631 28.4036 46.2075 29.4889 46.2075C30.5133 46.2075 30.6929 45.8678 30.8979 43.5425C31.4204 37.6156 34.4081 32.6175 39.3663 29.3749C42.2645 27.4796 45.1537 26.5663 48.7561 26.4068C54.3173 26.1602 59.3509 28.1787 63.1858 32.1927C65.1313 34.2291 66.335 36.2201 67.3926 39.1501C67.8347 40.375 68.0376 40.7159 68.4374 40.9064C69.0984 41.2215 69.8602 40.9148 70.1512 40.2165C70.338 39.768 70.2933 39.4988 69.7964 38.0788C68.6213 34.721 66.8991 32.066 64.2952 29.5972C61.0371 26.5087 56.8874 24.5139 52.4285 23.893L50.8865 23.6783L50.8377 14.592L50.7889 5.50572L50.1232 4.16696C49.4161 2.7449 48.2202 1.49225 46.959 0.852572C45.2246 -0.0271641 45.6028 -0.0122265 25.3421 0.00446848C10.6269 0.01677 6.24034 0.0698424 5.60682 0.24347ZM18.1038 6.64906C17.6665 7.12953 17.6891 8.01822 18.1505 8.47672C18.4573 8.7818 18.7911 8.86984 19.8421 8.92256C21.416 9.00165 22.2917 8.75263 22.5692 8.14721C22.852 7.53003 22.8257 7.3093 22.4055 6.7784C22.0523 6.33186 21.9746 6.31534 20.2234 6.31534C18.6641 6.31534 18.3647 6.36244 18.1038 6.64906ZM24.3628 6.66681C23.9161 7.1109 23.9091 7.91085 24.3472 8.4486C24.684 8.86211 24.6987 8.86352 28.6051 8.86352C32.5116 8.86352 32.5263 8.86211 32.863 8.4486C33.3012 7.91085 33.2941 7.1109 32.8474 6.66681C32.5153 6.3366 32.2583 6.31534 28.6051 6.31534C24.952 6.31534 24.6949 6.3366 24.3628 6.66681ZM23.8168 23.3391C23.5228 23.5756 23.4083 23.8508 23.4083 24.3197C23.4083 24.9218 23.5831 25.1437 25.7106 27.2419C27.6909 29.1948 28.0916 29.5125 28.5742 29.5125C29.3085 29.5125 29.8425 28.975 29.8425 28.236C29.8425 27.7341 29.5494 27.3715 27.498 25.3363C24.9901 22.8483 24.6534 22.6655 23.8168 23.3391ZM46.7233 29.5976C41.9085 30.4888 37.6699 33.6627 35.4549 38.0358C35.21 38.519 34.7849 39.5866 34.5099 40.4082C34.0376 41.8197 34.0102 42.0712 34.0102 44.9773C34.0102 47.8835 34.0376 48.135 34.5099 49.5465C35.5987 52.8001 37.3111 55.2766 39.8234 57.2309C44.9944 61.2533 52.0881 61.7198 57.6114 58.4001C64.5976 54.2012 67.2443 45.5664 63.7688 38.3106C60.6882 31.879 53.6991 28.3065 46.7233 29.5976ZM53.2636 32.5006C59.4148 34.4179 63.3718 40.359 62.5562 46.4521C61.8398 51.8045 58.3968 55.85 53.169 57.482C51.2817 58.0713 47.8516 58.0711 45.9279 57.4819C41.4883 56.122 38.0284 52.5644 36.9073 48.2069C36.435 46.3708 36.435 43.5839 36.9073 41.7478C38.1577 36.8875 42.3152 33.0452 47.3001 32.143C48.7444 31.8816 51.8813 32.0697 53.2636 32.5006ZM17.5495 32.58C17.0086 33.1176 16.9953 33.7576 17.5132 34.3121C18.0126 34.8467 22.8425 36.8963 23.5987 36.8947C23.9941 36.8938 24.2689 36.7564 24.5267 36.4304C25.4055 35.3198 24.8263 34.7447 21.3674 33.2939C19.8658 32.664 18.49 32.1486 18.3103 32.1486C18.1303 32.1486 17.7881 32.3428 17.5495 32.58ZM49.0213 33.929C48.3976 34.2755 48.2258 34.6537 48.2258 35.6802V36.6842L47.2785 37.2156C44.1156 38.9904 44.1848 44.1182 47.3927 45.6622C47.8088 45.8625 48.8086 46.1407 49.6143 46.2806C51.3402 46.5802 51.8348 46.8583 52.1088 47.6835C52.325 48.335 52.1402 49.3751 51.7141 49.906C50.564 51.3385 48.3648 50.9594 46.9752 49.0894C46.1483 47.9765 45.5889 47.755 44.8961 48.267C44.3171 48.6947 44.2041 49.4843 44.6103 50.2649C45.0496 51.1095 46.4361 52.408 47.3862 52.8647L48.2258 53.2682V54.2047C48.2258 54.7198 48.2753 55.2693 48.3356 55.4258C48.4991 55.8493 49.3932 56.2487 49.8962 56.1231C50.5584 55.9579 50.7804 55.5704 50.8773 54.4104C50.96 53.4211 51.0001 53.3413 51.4959 53.1807C52.3322 52.9101 53.4165 52.0987 53.9335 51.3571C54.1944 50.983 54.5402 50.1431 54.7021 49.4908C55.4443 46.5008 53.7463 44.3037 50.2262 43.6997C48.4526 43.3954 47.9453 43.088 47.6957 42.1661C47.2784 40.6256 48.1067 39.3642 49.6313 39.2186C50.7892 39.1079 51.3082 39.4471 51.8795 40.6876C52.3389 41.6855 52.6939 41.9898 53.3979 41.9898C53.9706 41.9898 54.5902 41.2962 54.5854 40.6606C54.5755 39.3557 53.1955 37.5237 51.7597 36.9096L50.8773 36.5322V35.59C50.8773 34.5356 50.5441 33.9819 49.8167 33.8267C49.5736 33.7749 49.2157 33.8209 49.0213 33.929ZM15.1101 44.0686C14.6907 44.5294 14.7333 45.5497 15.1892 45.9606C15.5146 46.2537 15.9033 46.3024 18.3182 46.3521C21.4784 46.4173 22.105 46.3386 22.5959 45.8147C23.0484 45.332 23.0438 44.7933 22.5823 44.2103L22.216 43.7472H18.8093C15.7336 43.7472 15.3742 43.7785 15.1101 44.0686ZM20.3856 54.2128C17.669 55.3787 17.1155 55.7683 17.1155 56.5155C17.1155 57.0429 17.851 57.8061 18.3592 57.8061C18.8248 57.8061 24.1185 55.5635 24.4643 55.22C25.2403 54.4483 24.7434 53.1802 23.6383 53.112C23.2292 53.0869 22.1895 53.4387 20.3856 54.2128ZM25.9217 62.5071C23.1744 65.1784 22.8999 65.6817 23.7362 66.513C24.019 66.7941 24.3702 66.9444 24.745 66.9444C25.2461 66.9444 25.6109 66.6551 27.5813 64.6964C29.6565 62.6331 29.8425 62.3951 29.8425 61.8036C29.8425 61.0193 29.2975 60.4422 28.5569 60.4422C28.1418 60.4422 27.6437 60.8325 25.9217 62.5071ZM24.5868 75.5745C20.6151 76.3039 19.0132 80.9966 21.6979 84.0367C23.5407 86.1232 27.0784 86.2 29.0928 84.1971C30.5483 82.7501 30.9944 80.2867 30.1327 78.4551C29.1656 76.3999 26.7956 75.1687 24.5868 75.5745ZM27.252 78.8739C27.7008 79.3201 27.7982 79.5742 27.8632 80.4673C27.9389 81.5073 27.9262 81.5439 27.2564 82.2067C26.3494 83.1044 25.5096 83.2701 24.4503 82.7601C23.871 82.4814 23.581 82.1908 23.2943 81.602C22.8078 80.603 22.9351 79.7988 23.7134 78.9544C24.6829 77.9026 26.2393 77.8671 27.252 78.8739Z" fill="#D7B76F"/>
</svg>
