<svg width="83" height="69" viewBox="0 0 83 69" fill="none" xmlns="http://www.w3.org/2000/svg">
<path fill-rule="evenodd" clip-rule="evenodd" d="M12.811 0.574221L12.1877 1.14821V23.9641V46.7797H6.97036C2.8881 46.7797 1.59683 46.854 1.03497 47.1219C-0.131134 47.6774 -0.328405 48.6696 0.527451 49.6718L1.05351 50.2881H11.6985H22.3433V57.8898V65.4915H12.0481C3.50936 65.4915 1.63059 65.55 1.03497 65.8337C-0.131134 66.3892 -0.328405 67.3814 0.527451 68.3837L1.05351 69H13.0505H25.0474L25.5996 68.4588C26.0327 68.034 26.1516 67.631 26.1516 66.5876V65.2576H27.9384C28.9888 65.2576 34.7403 66.0288 41.8926 67.1288C48.5846 68.158 54.3544 69 54.7147 69C55.0747 69 58.5718 68.1545 62.4862 67.1213L69.6029 65.2424L76.1525 62.2237C79.7549 60.5635 82.7741 59.0322 82.8622 58.8208C83.3428 57.6672 82.4958 54.8859 81.4125 54.0604C81.0273 53.7669 80.9913 52.3219 80.9913 37.202V20.6647L80.4038 20.156C79.6784 19.5284 78.7007 19.5043 77.9093 20.0944L77.3099 20.5417L77.2414 36.4577L77.1726 52.3738L76.2258 52.5146C73.7933 52.8762 72.628 53.2481 69.5704 54.6396L66.2831 56.1356H61.8159H57.349L54.7619 54.2059L52.175 52.2763L56.8618 52.2124C62.9495 52.1294 62.7114 52.2884 62.7114 48.3051C62.7114 45.7334 62.651 45.3564 62.0642 44.2718C61.3132 42.8832 60.0918 41.9403 58.456 41.487C56.7328 41.0092 38.6093 41.0213 37.6273 41.501C37.2503 41.6851 35.2867 43.3692 33.2637 45.2434L29.5856 48.6509H27.9242C26.3125 48.6509 26.2544 48.6298 25.9764 47.9515C25.8129 47.5525 25.4001 47.1506 25.0154 47.0159C24.6447 46.8859 22.4636 46.7797 20.1687 46.7797H15.9961V25.1441V3.50847H27.2941H38.5921L38.5959 10.2331C38.5999 17.5094 38.6703 17.9356 39.9344 18.3451C40.4947 18.5266 41.2264 18.3921 43.6792 17.6565L46.7274 16.7422L49.5897 17.6102C51.1638 18.0874 52.6519 18.478 52.8963 18.478C53.1406 18.478 53.6209 18.2195 53.9637 17.9037L54.587 17.3298V10.419V3.50847H65.871H77.155L77.2325 8.53121C77.3066 13.3423 77.3335 13.5757 77.867 14.0669C78.6197 14.7597 79.9052 14.7501 80.5231 14.047C80.9522 13.5589 80.9913 12.9891 80.9913 7.24196V0.969509L80.3223 0.484872L79.6533 0H46.5438H13.4341L12.811 0.574221ZM50.7787 8.91316C50.7787 13.1402 50.7096 14.2938 50.4613 14.207C50.2869 14.1459 49.3358 13.8568 48.3479 13.5645L46.5519 13.0328L44.7935 13.5675C43.8265 13.8617 42.8924 14.1508 42.7177 14.21C42.4697 14.2942 42.4004 13.1385 42.4004 8.91316V3.50847H46.5895H50.7787V8.91316ZM21.4077 24.561C20.4333 24.9226 20.3122 25.5167 20.3122 29.9343C20.3122 34.1202 20.3195 34.1772 20.9354 34.7444L21.5585 35.3186H34.474H47.3895L47.9417 34.7774C48.4678 34.2612 48.4937 34.031 48.4937 29.8548C48.4937 25.515 48.4878 25.4683 47.8704 24.8996L47.2473 24.3254L34.6048 24.3402C27.6515 24.3483 21.7128 24.4478 21.4077 24.561ZM44.6854 29.822V31.8102H34.4029H24.1205V29.822V27.8339H34.4029H44.6854V29.822ZM58.2483 45.3585C58.8068 45.8422 58.9031 46.1261 58.9031 47.2882V48.6509H52.6948C48.6214 48.6509 46.2699 48.7416 45.8571 48.9152C45.1088 49.229 44.5711 50.2898 44.8095 50.9816C44.9486 51.3858 53.3229 57.8017 55.5957 59.2453C56.141 59.5919 56.9649 59.6441 61.8898 59.6441H67.5563L69.5135 58.5873C71.8107 57.3467 74.8104 56.2378 76.4213 56.0339C77.5922 55.8856 78.6956 56.2137 78.8944 56.7695C78.9559 56.9411 76.9139 58.0079 73.7098 59.4782C68.5858 61.8294 68.2129 61.9587 61.5397 63.7043L54.6555 65.5051L42.4443 63.6271C34.2564 62.3678 29.5608 61.7492 28.1923 61.7492H26.1516V56.9542V52.1593H28.63H31.1082L35.1676 48.4106L39.2268 44.6619L48.4101 44.7267L57.5933 44.7915L58.2483 45.3585Z" fill="#D7B76F"/>
</svg>
