<svg width="88" height="81" viewBox="0 0 88 81" fill="none" xmlns="http://www.w3.org/2000/svg">
<path fill-rule="evenodd" clip-rule="evenodd" d="M17.6539 0.307153C15.838 0.873346 14.332 2.3196 13.4462 4.34762C12.9073 5.5813 12.9081 5.5761 12.1532 13.7721L11.5369 20.4649L8.35137 20.582C4.83725 20.7113 4.2542 20.8655 2.75509 22.0622C1.71281 22.8945 1.07328 23.802 0.461133 25.3171L0 26.4585V50.8427V75.227L0.650546 76.7542C1.40699 78.53 2.23627 79.4616 3.87435 80.3755L4.9936 81H37.5381C63.3407 81 70.2316 80.9474 70.8019 80.7465C72.5322 80.1367 74.3124 78.1792 75.023 76.1052C75.3607 75.1199 75.4066 74.5501 75.4693 70.587L75.5392 66.1675L77.6324 66.1917C79.4525 66.2127 79.8544 66.1553 80.715 65.7522C82.5373 64.8985 84.1634 62.7218 84.6222 60.522C84.9303 59.0449 88.1131 14.0117 87.9969 12.7732C87.777 10.4291 86.3097 7.96654 84.4981 6.90148C84.0285 6.62538 83.15 6.30052 82.5458 6.17945C81.4682 5.96349 19.9195 -0.0256894 19.0435 8.29367e-05C18.7978 0.00727522 18.1726 0.145527 17.6539 0.307153ZM50.3665 6.9802C67.5557 8.63122 81.9291 10.0811 82.3075 10.2017C83.2094 10.4894 84.3938 11.856 84.5434 12.7818C84.6052 13.1642 83.9099 23.8513 82.9983 36.5313C81.2435 60.9389 81.3001 60.4015 80.3832 61.3635C79.6367 62.1466 78.7909 62.3686 77.111 62.2225L75.5174 62.0839L75.469 44.3711L75.4206 26.6583L75.0058 25.4596C74.4327 23.8032 72.7156 21.8109 71.288 21.146L70.2548 20.6647L42.6609 20.6112L15.0669 20.5576V20.1061C15.0669 19.2524 16.2566 6.85952 16.3759 6.47014C16.7134 5.36912 18.1087 4.01717 18.9412 3.98461C19.0359 3.98101 33.1773 5.32897 50.3665 6.9802ZM69.7343 24.7833C70.6121 25.0662 71.627 26.2437 71.8708 27.2622C71.9754 27.6992 72.0613 29.0233 72.0618 30.2045L72.0628 32.3522H37.7103H3.35777L3.3588 30.1046C3.35983 27.3909 3.51997 26.6419 4.28158 25.7854C5.42736 24.4968 3.17869 24.5787 37.6242 24.5703C60.0424 24.5649 69.2457 24.6261 69.7343 24.7833ZM72.0232 40.5933L72.0699 44.7389H37.7137H3.35777V40.543V36.3469L37.6672 36.3974L71.9767 36.4478L72.0232 40.5933ZM72.0618 61.1713C72.0613 69.2332 71.9974 73.8734 71.8803 74.3625C71.781 74.7777 71.4677 75.4236 71.1845 75.798C70.11 77.2179 72.7356 77.12 37.3533 77.059L5.48487 77.0043L4.87926 76.5228C4.54624 76.2581 4.087 75.7253 3.85885 75.3389L3.44386 74.6364L3.3972 61.6855L3.35036 48.7346H37.7067H72.0628L72.0618 61.1713ZM47.0409 55.2886L46.5782 55.8488V62.8958V69.9427L47.0816 70.5266L47.5849 71.1106H56.4775C62.2471 71.1106 65.4863 71.0383 65.7011 70.9048C66.5041 70.4064 66.5527 69.9512 66.5527 62.9194C66.5527 55.8875 66.5041 55.4324 65.7011 54.934C65.4863 54.8003 62.2344 54.7282 56.4368 54.7282H47.5036L47.0409 55.2886ZM63.1088 62.9194V67.1149H56.5654H50.0221V62.9194V58.7239H56.5654H63.1088V62.9194Z" fill="#D7B76F"/>
</svg>
