<svg width="101" height="86" viewBox="0 0 101 86" fill="none" xmlns="http://www.w3.org/2000/svg">
<path fill-rule="evenodd" clip-rule="evenodd" d="M1.00317 0.250707C-0.0232532 0.734802 0.00949445 0.228712 0.001998 15.6826C-0.00549844 31.3298 -0.0433751 30.7819 1.07458 31.2155C1.80529 31.4989 14.756 31.4989 15.4867 31.2155C16.2969 30.9013 16.5662 30.2622 16.5662 28.654V27.2183H17.5526H18.5389V39.3165C18.5389 52.4492 18.5113 52.1112 19.6184 52.5405C20.3683 52.8313 88.5177 52.8313 89.2675 52.5405C90.3898 52.1053 90.347 52.7761 90.347 35.614C90.347 18.4519 90.3898 19.1227 89.2675 18.6875C88.983 18.5771 88.2352 18.4868 87.6059 18.4868C86.3672 18.4868 87.3851 18.9289 64.4054 8.41249C56.8065 4.93499 55.6063 4.48347 52.0757 3.77521C50.734 3.50588 49.011 3.4728 33.5812 3.41941L16.5662 3.36064V2.36793C16.5662 1.1739 16.279 0.575788 15.5512 0.255577C14.784 -0.0820975 1.7179 -0.0866312 1.00317 0.250707ZM12.6207 15.7162V28.0579H8.28064H3.94059V15.7162V3.37457H8.28064H12.6207V15.7162ZM51.977 7.19981C54.6596 7.83604 55.4049 8.1445 66.8279 13.3466L77.9305 18.4028L62.5865 18.4868L47.2424 18.5708L46.3624 18.9905C44.2324 20.0064 43.6049 22.2486 44.9469 24.0481C45.4222 24.6855 46.1075 25.0945 50.0879 27.1166C53.3516 28.7745 54.7919 29.6005 55.0654 29.9711C55.5966 30.6913 55.443 31.6499 54.6945 32.2871C53.5436 33.2667 53.7111 33.3067 42.7888 29.4427C37.3177 27.5073 32.1312 25.7254 31.2632 25.4831C27.3962 24.4037 23.4623 23.8676 19.3774 23.8631L16.5662 23.86V15.2894V6.71874L33.4825 6.77214C50.2803 6.82503 50.4099 6.82805 51.977 7.19981ZM22.0731 10.5588C21.518 10.9809 21.4083 11.1805 21.4083 11.7703C21.4083 12.36 21.518 12.5596 22.0731 12.9818C22.6496 13.4202 22.8451 13.4749 23.5477 13.3947C25.8442 13.1325 25.8442 10.408 23.5477 10.1459C22.8451 10.0656 22.6496 10.1203 22.0731 10.5588ZM29.4595 10.2577C28.3599 10.6353 28.0442 12.0683 28.8787 12.8943L29.3545 13.3654L37.4499 13.4128L45.5453 13.4601L46.1921 12.9682C46.7287 12.56 46.839 12.3561 46.839 11.7703C46.839 11.1859 46.7285 10.9804 46.199 10.5777L45.5593 10.0911L37.7208 10.1017C33.4095 10.1076 29.6921 10.1778 29.4595 10.2577ZM77.9966 22.3977C78.2667 23.6236 79.4819 25.3933 80.8575 26.5639C82.2329 27.7348 84.312 28.7692 85.7523 28.999L86.4015 29.1028V35.614V42.1252L85.7523 42.2289C84.312 42.4588 82.2329 43.4932 80.8575 44.664C79.4819 45.8347 78.2667 47.6044 77.9966 48.8303L77.8747 49.3829H54.443H31.0112L30.8893 48.8303C30.6193 47.6044 29.404 45.8347 28.0285 44.664C26.653 43.4932 24.574 42.4588 23.1337 42.2289L22.4844 42.1252V34.7558V27.3862H23.0662C24.2086 27.3862 27.9474 28.096 30.1782 28.7364C32.1762 29.31 40.7257 32.2779 40.9638 32.4807C41.0135 32.523 40.9539 32.875 40.8312 33.2629C40.5499 34.152 40.5422 36.9563 40.8182 38.0019C42.3374 43.7583 48.3499 47.6739 55.1265 47.3199C58.6201 47.1374 61.5646 45.9974 64.1286 43.8345C65.3385 42.8138 65.8076 42.2597 66.5454 40.98C67.7421 38.9041 68.0549 37.7927 68.0549 35.6173C68.0549 30.4211 64.3211 26.0488 58.4871 24.4131C57.1145 24.0283 56.5617 23.9687 54.2441 23.9552C51.6762 23.9401 51.5436 23.9218 50.5945 23.452C48.6287 22.4784 48.1177 22.1658 48.2332 22.0069C48.3069 21.9054 53.8498 21.8451 63.1128 21.8451H77.8747L77.9966 22.3977ZM86.4015 23.7794V25.714L85.5631 25.3555C83.8959 24.6428 82.6231 23.5222 82.0672 22.2776L81.874 21.8451H84.1378H86.4015V23.7794ZM6.88453 22.6717C6.09878 23.3405 6.097 24.1576 6.87959 24.9029C7.35266 25.3536 7.59412 25.4477 8.28064 25.4477C8.96716 25.4477 9.20862 25.3536 9.68169 24.9029C10.4643 24.1576 10.4625 23.3405 9.67675 22.6717C9.2244 22.2869 8.92336 22.1809 8.28064 22.1809C7.63792 22.1809 7.33688 22.2869 6.88453 22.6717ZM59.6023 28.5418C61.4362 29.5318 62.894 31.1082 63.6411 32.9094C64.2075 34.275 64.2773 36.577 63.7952 37.9762C62.8404 40.7461 60.0639 43.0076 56.7033 43.7526C51.7261 44.856 46.3681 42.2315 44.8874 37.9648C44.5526 36.9996 44.4319 34.1528 44.7163 33.9293C44.8037 33.8606 46.3399 34.3331 48.1302 34.9793C51.2025 36.0882 51.4941 36.1602 53.3268 36.2628C55.1338 36.3641 55.3011 36.404 55.7434 36.8416C56.3607 37.4525 56.3423 37.7173 55.6418 38.3135C54.8914 38.9523 53.9259 38.9776 53.092 38.3802C52.7661 38.147 52.2284 37.8756 51.8969 37.7772C51.0141 37.5153 49.9049 38.0115 49.5452 38.8289C49.1452 39.7381 49.6383 40.5117 51.1469 41.3417C51.833 41.719 52.4513 42.2125 52.6405 42.5335C53.2627 43.5892 54.6969 43.8194 55.6418 43.0151C55.959 42.7451 56.2184 42.4071 56.2184 42.2639C56.2184 42.1205 56.5069 41.8777 56.8596 41.7242C58.0298 41.2146 58.8951 40.5184 59.4822 39.6144C59.9692 38.8641 60.0625 38.5313 60.0625 37.545C60.0625 36.5634 59.9686 36.2249 59.4924 35.4917C59.179 35.009 58.7657 34.4933 58.5743 34.3459C58.2433 34.0908 58.252 34.0316 58.7513 33.1248C59.438 31.8777 59.4725 30.0658 58.8325 28.8555C58.6005 28.4167 58.477 28.0579 58.5581 28.0579C58.6394 28.0579 59.1091 28.2757 59.6023 28.5418ZM31.0377 34.1014C29.8686 34.5029 29.6041 35.9908 30.5575 36.8023L31.1341 37.2931H33.908C36.6622 37.2931 36.6865 37.2898 37.2952 36.8268C37.7535 36.4782 37.9135 36.2077 37.9285 35.7557C37.9526 35.035 37.4489 34.317 36.7638 34.0952C36.1518 33.8972 31.6179 33.9021 31.0377 34.1014ZM71.8639 34.1044C71.2474 34.3157 70.7379 35.0563 70.7379 35.7409C70.7379 36.1903 70.887 36.4416 71.3723 36.8107L72.0068 37.2931H74.7806H77.5545L78.1311 36.8023C79.0885 35.9874 78.8887 34.7005 77.7253 34.1884C77.0771 33.9031 72.6368 33.8395 71.8639 34.1044ZM24.5335 46.4792C25.3996 46.9987 26.4585 48.144 26.8188 48.9504L27.0119 49.3829H24.7482H22.4844V47.46V45.5372L23.0778 45.7494C23.4041 45.8663 24.0593 46.1946 24.5335 46.4792ZM86.3358 49.327C86.2922 49.3639 85.2684 49.3728 84.0602 49.3466L81.864 49.299L82.3017 48.5433C82.5424 48.1278 83.1417 47.4454 83.6333 47.0267C84.1251 46.6083 84.9269 46.0982 85.4151 45.8933L86.3029 45.5207L86.3589 47.3901C86.3897 48.4184 86.3792 49.2899 86.3358 49.327ZM85.4368 54.8226C84.6148 55.2104 84.4432 55.7099 84.4357 57.7366C84.4319 58.7757 84.3968 59.6256 84.3575 59.6256C84.3185 59.6256 81.9597 58.9459 79.1158 58.1151C72.5082 56.1849 70.8499 55.8797 66.9699 55.8797C64.6792 55.8797 63.5515 55.9626 61.9769 56.2467C59.2695 56.7352 58.5346 56.9827 49.8273 60.3394C43.3287 62.8449 42.2313 63.3214 41.4339 63.9843C39.718 65.4108 38.9383 67.5866 39.4907 69.4066C39.7699 70.3261 39.7663 70.3721 39.4158 70.3721C38.9735 70.3721 37.5531 69.7708 28.2908 65.663C24.3775 63.9274 20.6535 62.3783 20.0155 62.2204C16.6836 61.396 12.9995 62.8598 11.3859 65.6494C10.7939 66.6731 10.7466 66.8793 10.7466 68.4376C10.7466 69.9468 10.8046 70.2207 11.3078 71.0936C12.3542 72.9088 12.931 73.2517 23.9819 78.6316C35.6001 84.2875 36.068 84.4973 38.195 85.0075C40.8817 85.6516 43.2833 85.5438 51.0893 84.4288C58.5522 83.3629 84.1788 79.7753 84.3301 79.7753C84.3844 79.7753 84.4288 80.8746 84.4288 82.2184C84.4288 84.8938 84.5915 85.4319 85.5082 85.7874C86.2389 86.0709 99.1897 86.0709 99.9204 85.7874C101.038 85.3542 101 85.8952 101 70.3044C101 59.5309 100.941 55.8375 100.764 55.507C100.288 54.6183 100.017 54.5877 92.6749 54.5941C87.4376 54.5988 85.8018 54.6504 85.4368 54.8226ZM97.0544 70.2882V82.6298H92.7143H88.3743V70.2882V57.9465H92.7143H97.0544V70.2882ZM69.3573 59.2913C71.5948 59.5301 72.5656 59.7657 78.8557 61.5954L84.4288 63.2166V69.7794V76.3419L64.1588 79.1919C41.4609 82.3835 41.2263 82.4055 38.5539 81.5968C36.9058 81.0981 16.5662 71.2424 15.6329 70.4902C14.8373 69.8492 14.5208 69.0587 14.6394 68.0089C14.816 66.4456 16.6139 65.201 18.4425 65.3763C19.0246 65.4323 21.8938 66.615 28.0365 69.3317C32.8564 71.4632 37.0634 73.2995 37.3852 73.4122C37.7072 73.5249 39.6128 73.6887 41.6201 73.7762C47.9268 74.0516 46.9479 74.1905 54.7389 71.9156C58.5364 70.8068 61.7936 69.8484 61.9769 69.7859C62.5018 69.6069 62.9258 68.9281 62.9258 68.2661C62.9258 67.4974 62.0446 66.6787 61.2148 66.6765C60.9081 66.6757 57.4421 67.5913 53.5128 68.7113C45.6197 70.961 45.5617 70.969 44.2819 70.0126C43.0188 69.0688 42.9525 67.4309 44.1383 66.4641C44.7295 65.9818 57.557 60.9505 60.2523 60.1437C63.1712 59.2698 66.359 58.9714 69.3573 59.2913ZM92.0017 60.6234C90.7133 61.0861 90.3537 62.5117 91.3182 63.3327C92.5058 64.3435 94.3992 63.7963 94.6227 62.3777C94.7164 61.7843 94.6527 61.6147 94.1668 61.1602C93.5644 60.597 92.6833 60.3786 92.0017 60.6234Z" fill="#D7B76F"/>
</svg>
