<svg width="34" height="28" viewBox="0 0 34 28" fill="none" xmlns="http://www.w3.org/2000/svg">
<path fill-rule="evenodd" clip-rule="evenodd" d="M5.2479 0.233017L4.99257 0.465939V9.72454V18.9831H2.85533C1.18308 18.9831 0.654121 19.0132 0.423964 19.1219C-0.0537175 19.3473 -0.134527 19.75 0.216064 20.1567L0.431557 20.4068H4.79216H9.15266V23.4915V26.5763H4.93537C1.43757 26.5763 0.667954 26.6 0.423964 26.7151C-0.0537175 26.9406 -0.134527 27.3432 0.216064 27.7499L0.431557 28H5.34597H10.2604L10.4866 27.7804C10.664 27.608 10.7127 27.4445 10.7127 27.021V26.4814H11.4447C11.8749 26.4814 14.231 26.7943 17.1608 27.2407C19.9021 27.6583 22.2657 28 22.4132 28C22.5607 28 23.9932 27.6569 25.5968 27.2376L28.512 26.4752L31.195 25.2502C32.6707 24.5765 33.9075 23.9551 33.9435 23.8693C34.1404 23.4012 33.7935 22.2725 33.3497 21.9376C33.1919 21.8185 33.1772 21.2321 33.1772 15.0965V8.38567L32.9365 8.17923C32.6394 7.92457 32.2388 7.91479 31.9147 8.15426L31.6691 8.33574L31.641 14.7944L31.6129 21.2531L31.225 21.3103C30.2286 21.457 29.7512 21.6079 28.4987 22.1726L27.1521 22.7797H25.3222H23.4924L22.4326 21.9966L21.3729 21.2136L23.2928 21.1876C25.7866 21.154 25.689 21.2185 25.689 19.6021C25.689 18.5585 25.6642 18.4055 25.4239 17.9654C25.1163 17.4019 24.6159 17.0193 23.9458 16.8353C23.24 16.6414 15.8159 16.6463 15.4136 16.841C15.2591 16.9157 14.4548 17.5991 13.6261 18.3596L12.1194 19.7424H11.4388C10.7786 19.7424 10.7548 19.7338 10.6409 19.4586C10.574 19.2967 10.4048 19.1336 10.2473 19.0789C10.0954 19.0261 9.20195 18.9831 8.26188 18.9831H6.5526V10.2034V1.42373H11.1807H15.8088L15.8104 4.15254C15.812 7.10526 15.8408 7.2782 16.3587 7.44439C16.5882 7.51805 16.8879 7.46347 17.8927 7.16496L19.1413 6.79394L20.3139 7.14617C20.9587 7.3398 21.5682 7.49831 21.6684 7.49831C21.7684 7.49831 21.9652 7.39342 22.1056 7.26529L22.3609 7.03237V4.228V1.42373H26.9833H31.6057L31.6374 3.46194C31.6678 5.41425 31.6788 5.50898 31.8973 5.7083C32.2057 5.98944 32.7322 5.98555 32.9854 5.70023C33.1611 5.50214 33.1772 5.27093 33.1772 2.93877V0.393424L32.9031 0.196759L32.6291 0H19.0661H5.50312L5.2479 0.233017ZM20.8009 3.61694C20.8009 5.33224 20.7726 5.80037 20.6709 5.76515C20.5994 5.74038 20.2099 5.62306 19.8052 5.50442L19.0695 5.28868L18.3492 5.50565C17.953 5.62506 17.5704 5.74237 17.4988 5.76639C17.3972 5.80056 17.3688 5.33158 17.3688 3.61694V1.42373H19.0849H20.8009V3.61694ZM8.76941 9.96677C8.37025 10.1135 8.32064 10.3546 8.32064 12.1473C8.32064 13.8459 8.32366 13.869 8.57597 14.0992L8.83119 14.3322H14.1219H19.4126L19.6388 14.1126C19.8543 13.9031 19.8649 13.8097 19.8649 12.115C19.8649 10.3539 19.8625 10.3349 19.6096 10.1042L19.3543 9.87119L14.1754 9.87717C11.3271 9.88049 8.89442 9.92083 8.76941 9.96677ZM18.3048 12.1017V12.9085H14.0928H9.88067V12.1017V11.2949H14.0928H18.3048V12.1017ZM23.8607 18.4063C24.0896 18.6026 24.129 18.7179 24.129 19.1894V19.7424H21.5858C19.9172 19.7424 18.9539 19.7792 18.7848 19.8496C18.4783 19.977 18.258 20.4074 18.3557 20.6882C18.4127 20.8522 21.8431 23.4557 22.7741 24.0416C22.9975 24.1822 23.335 24.2034 25.3525 24.2034H27.6737L28.4754 23.7746C29.4164 23.2711 30.6452 22.8211 31.3051 22.7384C31.7848 22.6782 32.2368 22.8114 32.3182 23.0369C32.3434 23.1065 31.5069 23.5395 30.1944 24.1361C28.0954 25.0902 27.9426 25.1427 25.209 25.851L22.389 26.5818L17.3868 25.8197C14.0328 25.3087 12.1092 25.0576 11.5487 25.0576H10.7127V23.1119V21.1661H11.728H12.7431L14.406 19.6449L16.0688 18.1237L19.8307 18.15L23.5924 18.1763L23.8607 18.4063Z" fill="#D7B76F"/>
</svg>
