<svg width="42" height="22" viewBox="0 0 42 22" fill="none" xmlns="http://www.w3.org/2000/svg">
<path fill-rule="evenodd" clip-rule="evenodd" d="M3.64171 0.0923015C3.30283 0.217673 2.95705 0.538307 2.86075 0.816517C2.73868 1.16924 2.75295 11.0444 2.87576 11.2356C3.10365 11.5901 3.56378 11.6588 3.89151 11.3871L4.0929 11.2203V6.152V1.08378H16.7672H29.4415V6.08544C29.4415 9.75757 29.4669 11.1265 29.5369 11.2356C29.7648 11.5901 30.225 11.6588 30.5527 11.3871C30.7221 11.2468 30.7541 11.155 30.7541 10.8092V10.3982L34.7943 10.3986C37.2477 10.3988 38.951 10.4258 39.1313 10.4673C39.5479 10.5632 39.9308 10.7926 40.2461 11.1352C40.6863 11.6135 40.6715 11.622 39.405 11.622C38.3345 11.622 38.2864 11.6281 38.0925 11.7889C37.9007 11.9478 37.8911 11.9954 37.8911 12.7839C37.8911 13.8311 37.9788 14.0789 38.5035 14.5139C38.9813 14.9098 39.3404 15.0215 40.136 15.0215H40.6802V16.2453V17.4691H39.8365H38.9927L38.7386 17.0441C37.2222 14.5078 32.8168 14.509 31.2998 17.0461C31.1323 17.3263 31.0017 17.4662 30.9199 17.4531C30.8123 17.436 30.7894 17.1314 30.7541 15.2439C30.709 12.8415 30.7203 12.8912 30.2026 12.8054C29.9824 12.7689 29.9003 12.7951 29.6909 12.9686L29.4415 13.1753V15.3222V17.4691H22.6365H15.8315L15.6608 17.1492C14.9342 15.7878 13.0962 14.9492 11.2977 15.1584C10.0002 15.3093 8.6938 16.092 8.15016 17.0443L7.9075 17.4693L6.02071 17.4522L4.13392 17.4351V16.8232V16.2113L5.70849 16.1928L7.28314 16.1743L7.45172 15.9967C7.67403 15.7625 7.66476 15.5478 7.42243 15.3142L7.2244 15.1234H3.80578H0.387164L0.189133 15.3142C-0.053689 15.5482 -0.0623847 15.7625 0.161241 15.9981L0.331216 16.1773H1.55583H2.78035L2.78216 16.8742C2.78355 17.404 2.82006 17.6362 2.93466 17.843C3.28716 18.4793 3.57847 18.5501 5.85869 18.5539L7.66542 18.5569L7.76542 19.0779C8.31611 21.9462 12.6089 23.012 14.9555 20.863C15.4237 20.4341 15.8888 19.6536 15.9533 19.1881C15.9782 19.0092 16.0153 18.794 16.0358 18.7098L16.073 18.5569H23.4375H30.802L30.9299 19.1178C31.0966 19.8492 31.4035 20.3733 31.9535 20.8656C32.8505 21.6686 33.7015 21.977 35.0199 21.977C36.3381 21.977 37.1893 21.6686 38.086 20.8658C38.6493 20.3616 38.9379 19.8732 39.1043 19.1427L39.2355 18.5665L40.4164 18.5447L41.5972 18.5229L41.7986 18.3286L42 18.1344L41.9759 14.8272C41.9524 11.6094 41.9469 11.5103 41.7731 11.1588C41.3687 10.3412 40.4421 9.63315 39.5201 9.43735C39.2433 9.37854 39.0776 9.30171 39.0308 9.21047C38.9919 9.13452 38.7372 8.32906 38.465 7.42046L37.9699 5.76847L38.2262 5.58973L38.4824 5.41099L38.4491 4.69214C38.4205 4.07399 38.3845 3.92299 38.1917 3.61405C37.9269 3.18973 37.4463 2.77255 37.0126 2.59075C36.4324 2.34742 35.9099 2.30758 33.3 2.30758H30.7678L30.7405 1.50871C30.7159 0.794489 30.6922 0.685571 30.5161 0.480925C30.4077 0.355078 30.1678 0.1951 29.9829 0.12548C29.6595 0.00378018 29.1537 -0.000979145 16.7672 0.000108673C6.18634 0.00106051 3.84393 0.017514 3.64171 0.0923015ZM36.3897 3.5483C36.74 3.70706 37.0676 4.07467 37.1264 4.37491L37.1742 4.61919H33.9642H30.7541V4.00383V3.38853L33.4407 3.40893C35.8144 3.42701 36.1579 3.44326 36.3897 3.5483ZM19.0885 7.72831L16.0682 10.2255L14.4899 8.92192C13.485 8.09198 12.8294 7.60192 12.6854 7.57303C12.2237 7.4805 11.7844 7.9229 11.9698 8.29364C12.0198 8.39379 12.9015 9.16831 13.9292 10.0149C15.6296 11.4156 15.8227 11.554 16.0762 11.554C16.3337 11.554 16.6077 11.3444 19.6988 8.78255C22.7442 6.2586 23.0428 5.9912 23.0428 5.78798C23.0428 5.48999 22.7322 5.23109 22.3745 5.23109C22.1346 5.23109 21.8157 5.47347 19.0885 7.72831ZM37.1359 7.49171C37.4181 8.43587 37.6481 9.23141 37.647 9.25942C37.6459 9.28743 36.0945 9.31041 34.1995 9.31041H30.7541V7.54271V5.775H33.6884H36.6228L37.1359 7.49171ZM40.6802 13.3217V13.9336H40.1582C39.7035 13.9336 39.6082 13.9105 39.4199 13.7544C39.2315 13.5983 39.2036 13.5193 39.2036 13.1425V12.7098H39.9419H40.6802V13.3217ZM1.62555 12.9766C1.32966 13.2218 1.3162 13.4742 1.58716 13.6987L1.78847 13.8657H6.21538C8.65016 13.8657 10.702 13.8466 10.775 13.8234C10.9246 13.7758 11.1479 13.4539 11.1479 13.2859C11.1479 13.2251 11.04 13.0859 10.9081 12.9766L10.6683 12.7778H6.26681H1.86534L1.62555 12.9766ZM17.2437 15.1573C16.9625 15.2524 16.7849 15.5263 16.8485 15.7665C16.9616 16.1934 16.7419 16.1773 22.4399 16.1773H27.6249L27.7948 15.9981C28.0185 15.7625 28.0098 15.5482 27.767 15.3142L27.569 15.1234L22.4962 15.11C19.659 15.1024 17.3442 15.1233 17.2437 15.1573ZM12.5014 16.2804C13.213 16.3764 14.0471 16.9162 14.42 17.5221C14.7865 18.1174 14.7883 18.9919 14.4245 19.586C13.3395 21.3575 10.3767 21.3612 9.32604 19.5923C9.08338 19.1837 9.05631 19.079 9.05926 18.5583C9.06197 18.069 9.09741 17.9191 9.28748 17.5938C9.69044 16.904 10.526 16.3677 11.3884 16.2452C11.7611 16.1923 11.8753 16.1959 12.5014 16.2804ZM35.4732 16.2513C36.7343 16.4445 37.6973 17.2819 37.8541 18.3218C37.96 19.0244 37.4994 19.9496 36.8227 20.3938C35.1679 21.48 32.7899 20.8087 32.2667 19.1075C31.871 17.821 32.9469 16.4736 34.5462 16.2529C34.7842 16.22 34.9813 16.1896 34.9843 16.1852C34.9873 16.1809 35.2073 16.2106 35.4732 16.2513ZM11.1676 17.6007C10.1607 18.1243 10.3885 19.3623 11.5445 19.6494C12.2012 19.8124 13.0412 19.4014 13.1645 18.8566C13.3414 18.0753 12.8479 17.5273 11.9292 17.4846C11.5401 17.4665 11.3781 17.4912 11.1676 17.6007ZM34.3758 17.5844C33.5619 17.9168 33.4443 18.963 34.1679 19.4347C34.732 19.8024 35.4642 19.766 35.9723 19.3449C36.4429 18.9548 36.4949 18.3526 36.098 17.8906C35.7555 17.492 34.952 17.3491 34.3758 17.5844Z" fill="#D7B76F"/>
</svg>
