<svg width="46" height="35" viewBox="0 0 46 35" fill="none" xmlns="http://www.w3.org/2000/svg">
<path fill-rule="evenodd" clip-rule="evenodd" d="M23.8011 0.0738427C23.1819 0.181772 22.3406 0.465757 21.7898 0.752797C21.1239 1.09995 20.1175 1.98312 19.7181 2.57074C18.3577 4.57226 18.6616 7.13234 20.4639 8.85524C21.0243 9.391 21.0386 9.4152 20.8226 9.46474C20.6989 9.49307 20.2581 9.66376 19.8431 9.84394C18.415 10.4642 17.0606 11.901 16.2494 13.6566C16.0606 14.0653 15.8952 14.4109 15.8821 14.4244C15.8689 14.4381 15.6996 14.355 15.506 14.2399C15.3122 14.1247 14.9997 13.9931 14.8115 13.9472C14.2564 13.8121 5.88328 13.8429 5.43944 13.9817C4.30308 14.3367 3.73103 15.1584 4.28338 15.6421C4.59118 15.9118 5.00154 15.9089 5.29115 15.6348C5.67296 15.2734 5.96803 15.1842 6.78113 15.1842H7.54003V16.3028C7.54003 17.3803 7.54851 17.4288 7.77147 17.624L8.00281 17.8267H10.1797H12.3565L12.5879 17.624C12.811 17.4286 12.8193 17.3808 12.8193 16.2948V15.1683L13.7124 15.1969C14.4916 15.2219 14.6329 15.2496 14.8201 15.4136L15.0347 15.6018V18.4873V21.3729L14.8201 21.5611L14.6054 21.7492L10.2197 21.7722L5.83407 21.7952L5.55577 21.5515C5.40268 21.4174 5.27748 21.2677 5.27748 21.2188C5.27748 21.1615 5.59744 21.1298 6.17731 21.1298C7.0071 21.1298 7.09525 21.1141 7.30859 20.9271C7.45452 20.7994 7.54003 20.6301 7.54003 20.4692C7.54003 20.3084 7.45452 20.1391 7.30859 20.0113C7.09525 19.8244 7.0071 19.8086 6.17731 19.8086H5.27748V19.148V18.4873H5.80022C6.42931 18.4873 6.78585 18.2484 6.78585 17.8267C6.78585 17.6659 6.70034 17.4966 6.55441 17.3688L6.32306 17.1661H4.14621H1.96936L1.73801 17.3688C1.43181 17.637 1.43181 18.0165 1.73801 18.2846C1.95135 18.4716 2.0395 18.4873 2.86929 18.4873H3.76912V19.148V19.8086H2.1151C0.484562 19.8086 0.457694 19.8115 0.229648 20.0113C-0.0765494 20.2794 -0.0765494 20.659 0.229648 20.9271C0.457506 21.1268 0.485787 21.1298 2.09549 21.1298H3.72999L3.84416 21.5036C4.06476 22.2261 4.64557 22.7706 5.45651 23.0151C5.66315 23.0773 6.51104 23.1117 7.84424 23.1117H9.91155L9.56783 23.4627C8.59909 24.4519 7.70991 26.9197 7.57462 28.9945C7.51269 29.9448 7.51344 29.9499 7.75761 30.1638C7.99791 30.3742 8.02874 30.3785 9.3034 30.3791L10.6039 30.3797L10.7593 30.9447C11.2741 32.8152 12.9666 34.3079 15.129 34.7984C15.8593 34.9641 17.3211 34.9641 18.0514 34.7984C20.2013 34.3107 21.907 32.8115 22.4163 30.9618L22.5765 30.3797L28.2847 30.3791L33.993 30.3785L34.1136 30.8904C34.6611 33.2122 37.2088 35 39.9698 35C43.2603 35 46 32.6002 46 29.7179C46 27.7601 44.6756 25.8752 42.7005 25.0224C41.8683 24.663 40.8877 24.4368 40.1508 24.4343L39.7191 24.4329L38.3812 21.6959C37.6454 20.1905 37.0549 18.9487 37.0691 18.9363C37.0832 18.9239 37.3267 18.9665 37.6101 19.0309C38.3704 19.2036 38.7138 19.1822 38.9842 18.9452L39.2157 18.7426V15.8449V12.9471L38.9714 12.7332C38.7433 12.5334 38.6864 12.5226 38.1087 12.5698C36.8884 12.6697 35.6129 13.4329 35.1251 14.3553L34.9081 14.7656L34.6344 14.513C34.4838 14.3742 34.1485 14.1618 33.8893 14.0411C33.4293 13.827 33.3819 13.8222 31.9286 13.8429C30.1719 13.868 29.7838 13.7702 29.1048 13.1315C28.6978 12.7487 27.8087 11.6996 27.8087 11.6023C27.8087 11.5739 27.9071 11.5508 28.0275 11.5508C28.1478 11.5508 28.4762 11.4486 28.7574 11.3237C29.3402 11.0649 29.8183 10.5678 29.9917 10.0404C30.0608 9.83023 30.2307 9.59984 30.4213 9.45773C31.169 8.90024 31.2812 8.20667 30.7436 7.46612C30.5799 7.2406 30.4043 6.92474 30.3534 6.76421C30.2317 6.38038 30.2343 5.93554 30.3583 5.93554C30.4125 5.93554 30.561 5.84429 30.6882 5.73281C30.9657 5.48987 30.9908 5.04998 30.7783 4.16012C30.2055 1.76206 27.6441 -0.0319393 24.8391 0.000431153C24.4761 0.00464262 24.009 0.0376737 23.8011 0.0738427ZM25.9664 1.43761C26.7931 1.62622 27.5496 2.01599 28.1382 2.55654C28.6559 3.03194 29.1593 3.81915 29.2777 4.33832L29.3371 4.5991L27.8895 4.62858C26.6541 4.65368 26.377 4.68399 26.0009 4.83519C25.3778 5.08581 24.7456 5.62719 24.4403 6.17155C24.1955 6.60838 24.1772 6.71656 24.1469 7.90559L24.1147 9.17366L23.817 9.12163C23.2243 9.01791 22.3256 8.57695 21.7828 8.12352C21.1657 7.6079 20.7208 6.94522 20.5054 6.22109C19.674 3.42493 22.7742 0.709278 25.9664 1.43761ZM28.7371 6.54397C28.8029 6.88708 28.999 7.41797 29.1869 7.76141L29.5202 8.37034L29.3007 8.49487C28.8919 8.72683 28.6571 8.98266 28.6571 9.19628C28.6571 9.52362 28.4164 9.95385 28.1468 10.1086C27.8632 10.2714 26.9522 10.2403 26.1589 10.0409L25.6875 9.92239L25.6619 8.48223C25.6375 7.11136 25.6467 7.02449 25.8553 6.6789C26.1905 6.1239 26.6726 5.93554 27.7579 5.93554H28.6203L28.7371 6.54397ZM23.6644 10.6431C24.9044 10.8491 25.6751 11.3713 26.9385 12.8618C27.8966 13.9921 28.498 14.5104 29.2087 14.8184C29.5016 14.9454 29.7548 15.0575 29.7714 15.0675C29.788 15.0775 29.7133 15.2372 29.6055 15.4223C29.4977 15.6075 29.3592 16.0416 29.2979 16.3872C29.1891 17.0002 29.1806 17.0142 28.9429 16.9725C27.5322 16.7254 25.9131 15.6872 24.944 14.4083C24.4411 13.7446 24.0988 13.626 23.6263 13.9516C23.1725 14.2642 23.2959 14.6908 24.1137 15.6361L24.3975 15.9641L24.136 16.2554C23.7323 16.705 23.2775 17.4558 23.094 17.9754L22.9278 18.4461L19.745 18.4678L16.562 18.4896L16.6209 17.8072C16.7002 16.8882 17.0576 15.5672 17.5136 14.507C18.7836 11.5551 20.9526 10.1926 23.6644 10.6431ZM37.7073 15.8449C37.7073 17.9459 37.7164 17.9297 36.9202 17.228C36.4143 16.7823 36.1989 16.3691 36.1989 15.8449C36.1989 15.3206 36.4143 14.9074 36.9202 14.4617C37.7164 13.76 37.7073 13.7438 37.7073 15.8449ZM33.4293 15.3271C33.5996 15.4333 33.8101 15.7034 33.9605 16.0089L34.2098 16.5149L33.7857 16.6741C33.0761 16.9406 32.229 17.1025 31.4853 17.1139L30.7783 17.1248L30.7469 16.8838C30.6698 16.292 31.1676 15.5181 31.8153 15.2224C32.2103 15.042 33.0607 15.0972 33.4293 15.3271ZM11.3109 15.8449V16.5055H10.1797H9.04839V15.8449V15.1842H10.1797H11.3109V15.8449ZM26.2412 17.3609C26.996 17.7954 27.6983 18.0579 28.7043 18.2814L29.5527 18.4699L30.6077 22.4631C31.2508 24.8973 31.6649 26.6374 31.6683 26.9205C31.675 27.4826 31.47 28.0264 31.1364 28.3314L30.889 28.5575L30.7329 28.1536C30.4611 27.4503 29.7965 26.8415 29.058 26.6194L28.7043 26.513L28.6523 24.2137C28.5967 21.7555 28.5964 21.7538 28.0412 20.7942C27.4989 19.8566 26.0453 18.8675 24.9494 18.6901C24.7508 18.658 24.5666 18.5821 24.5401 18.5215C24.4237 18.2557 25.3661 16.8599 25.5801 16.9813C25.6392 17.0148 25.9367 17.1857 26.2412 17.3609ZM36.6029 21.4387L38.3474 25.0093L36.7057 27.0333L35.0642 29.0573H33.7633H32.4624L32.7735 28.4999C33.151 27.8236 33.3066 27.0392 33.1876 26.4125C33.1148 26.0288 31.2779 19.0305 31.1486 18.6439C31.1115 18.5331 31.2274 18.5024 31.8563 18.4565C32.6108 18.4013 34.0255 18.0873 34.4896 17.8717C34.626 17.8084 34.7649 17.7816 34.7981 17.8123C34.8313 17.8429 35.6435 19.4748 36.6029 21.4387ZM24.1358 19.8918C25.2417 20.0755 26.293 20.7119 26.7212 21.4568C27.0764 22.0747 27.1488 22.5998 27.1488 24.5609V26.4148H25.6404H24.132V25.4669C24.132 23.9881 23.6892 23.0784 22.6467 22.4152C21.7817 21.865 21.3127 21.7905 18.716 21.7905H16.4149L16.5025 21.5227C16.5507 21.3753 16.5902 20.9294 16.5902 20.5317V19.8086H20.1126C22.0844 19.8086 23.8554 19.8453 24.1358 19.8918ZM21.1287 23.2076C21.5977 23.3306 22.1735 23.7633 22.3985 24.1618C22.5478 24.4261 22.5824 24.7358 22.6229 26.1724L22.6708 27.8705L23.0071 28.4639L23.3434 29.0573H16.1866H9.02991L9.09289 28.5412C9.25843 27.1849 9.99225 25.2304 10.6505 24.3924C11.0941 23.8276 11.8718 23.3665 12.6779 23.1904C13.1655 23.0839 20.7159 23.0992 21.1287 23.2076ZM41.05 25.8806C43.4714 26.4331 44.9651 28.5978 44.3506 30.6641C43.897 32.1898 42.4481 33.3575 40.6795 33.6229C38.8163 33.9024 36.7959 32.9929 35.9597 31.4984C35.7802 31.1776 35.6069 30.7946 35.5745 30.6469L35.5155 30.3785H36.2745H37.0335L37.2639 30.8192C37.5586 31.3831 38.0704 31.8293 38.7362 32.1028C39.461 32.4005 40.5467 32.4033 41.2425 32.1094C41.8402 31.8568 42.4127 31.3575 42.7087 30.8306C43.0248 30.268 43.0369 29.2052 42.7339 28.6282C42.4754 28.136 41.8389 27.576 41.2576 27.3295C40.3681 26.9524 39.0994 27.0317 38.3286 27.5124C38.163 27.6157 38.0827 27.6375 38.1301 27.5665C38.2521 27.3837 39.323 26.0623 39.4818 25.8987C39.6599 25.715 40.2925 25.7078 41.05 25.8806ZM28.6586 27.8875C29.0293 28.0585 29.4796 28.6997 29.3832 28.9196C29.3302 29.0407 29.1282 29.0573 27.7047 29.0573C25.8813 29.0573 25.5301 28.996 24.9773 28.5816C24.6526 28.3381 24.3206 27.9336 24.3206 27.7815C24.3206 27.7564 25.2228 27.7361 26.3254 27.7361C28.0875 27.7361 28.3699 27.7544 28.6586 27.8875ZM40.796 28.6173C41.2764 28.9315 41.4311 29.1997 41.4311 29.7179C41.4311 30.2401 41.2767 30.5041 40.782 30.8276C40.371 31.0965 39.5393 31.0664 39.0905 30.7666C38.9 30.6394 38.7443 30.5 38.7443 30.4569C38.7443 30.4138 39.0856 30.3785 39.5027 30.3785C40.1823 30.3785 40.2853 30.3575 40.4926 30.1758C40.7988 29.9077 40.7988 29.5282 40.4926 29.26C40.2853 29.0784 40.1823 29.0573 39.5027 29.0573C39.0856 29.0573 38.7443 29.0259 38.7443 28.9875C38.7443 28.8911 39.0199 28.6818 39.3573 28.522C39.7212 28.3498 40.4618 28.3988 40.796 28.6173ZM37.0591 28.9968C36.9659 29.0777 36.9552 29.0682 37.0063 28.9505C37.0417 28.8691 37.0944 28.8233 37.1235 28.8487C37.1525 28.8741 37.1236 28.9407 37.0591 28.9968ZM13.8661 30.7931C14.2935 31.6634 15.4557 32.3109 16.5902 32.3109C17.7247 32.3109 18.8869 31.6634 19.3143 30.7931L19.5179 30.3785H20.2813H21.0446L20.9834 30.6469C20.862 31.1794 20.3628 31.9583 19.8281 32.4493C18.0693 34.0644 15.1111 34.0644 13.3523 32.4493C12.8176 31.9583 12.3184 31.1794 12.197 30.6469L12.1358 30.3785H12.8991H13.6625L13.8661 30.7931ZM17.8158 30.4551C17.8158 30.5841 17.3393 30.8687 16.9546 30.9697C16.6785 31.0421 16.5019 31.0421 16.2258 30.9697C15.8411 30.8687 15.3647 30.5841 15.3647 30.4551C15.3647 30.412 15.8999 30.3785 16.5902 30.3785C17.2805 30.3785 17.8158 30.412 17.8158 30.4551Z" fill="#D7B76F"/>
</svg>
