<svg width="29" height="23" viewBox="0 0 29 23" fill="none" xmlns="http://www.w3.org/2000/svg">
<path fill-rule="evenodd" clip-rule="evenodd" d="M5.81777 0.087205C5.21933 0.247955 4.72304 0.658565 4.43114 1.23435C4.25353 1.58461 4.25381 1.58313 4.00504 3.91009L3.80195 5.81027L2.75216 5.84351C1.59409 5.88021 1.40195 5.924 0.907927 6.26376C0.564447 6.50007 0.353694 6.7577 0.151964 7.18788L0 7.51193V14.435V21.358L0.214384 21.7916C0.463667 22.2958 0.736953 22.5602 1.27677 22.8197L1.64562 22.997H12.3705C20.8736 22.997 23.1445 22.9821 23.3324 22.925C23.9027 22.7519 24.4893 22.1962 24.7235 21.6073C24.8348 21.3276 24.8499 21.1658 24.8706 20.0406L24.8936 18.7859L25.5834 18.7927C26.1832 18.7987 26.3157 18.7824 26.5993 18.6679C27.1998 18.4256 27.7357 17.8076 27.8869 17.183C27.9884 16.7637 29.0373 3.9781 28.999 3.62648C28.9265 2.96096 28.443 2.26181 27.846 1.95942C27.6912 1.88103 27.4017 1.78881 27.2026 1.75443C26.8475 1.69312 6.56437 -0.00729358 6.27571 2.35469e-05C6.19473 0.00206553 5.98869 0.041317 5.81777 0.087205ZM16.598 1.98177C22.2627 2.45052 26.9994 2.86215 27.124 2.89641C27.4213 2.97809 27.8116 3.36607 27.8609 3.62892C27.8813 3.73749 27.6521 6.77171 27.3517 10.3717C26.7734 17.3014 26.7921 17.1488 26.4899 17.4219C26.2439 17.6443 25.9652 17.7073 25.4116 17.6658L24.8864 17.6265L24.8705 12.5976L24.8545 7.56865L24.7178 7.22832C24.529 6.75804 23.9631 6.19241 23.4926 6.00364L23.1521 5.867L14.0587 5.85179L4.96523 5.83659V5.7084C4.96523 5.46603 5.35728 1.94751 5.39661 1.83696C5.50783 1.52437 5.96764 1.14053 6.242 1.13128C6.27321 1.13026 10.9334 1.51297 16.598 1.98177ZM22.9806 7.03632C23.2699 7.11664 23.6044 7.45095 23.6847 7.74012C23.7192 7.86417 23.7475 8.24013 23.7476 8.57547L23.748 9.18523H12.4273H1.10654L1.10688 8.54711C1.10722 7.77665 1.15999 7.564 1.41098 7.32083C1.78856 6.95498 1.04752 6.97823 12.3989 6.97585C19.7867 6.97432 22.8196 6.99168 22.9806 7.03632ZM23.7349 11.525L23.7503 12.702H12.4284H1.10654V11.5107V10.3194L12.4131 10.3337L23.7196 10.348L23.7349 11.525ZM23.7476 17.3674C23.7475 19.6563 23.7264 20.9737 23.6878 21.1125C23.6551 21.2304 23.5519 21.4138 23.4585 21.5201C23.1044 21.9232 23.9697 21.8954 12.3096 21.8781L1.80751 21.8626L1.60794 21.7259C1.49819 21.6507 1.34685 21.4994 1.27167 21.3897L1.13491 21.1903L1.11953 17.5134L1.1041 13.8364H12.4261H23.748L23.7476 17.3674ZM15.5021 15.6972L15.3496 15.8562V17.857V19.8577L15.5155 20.0235L15.6814 20.1893H18.6119C20.5133 20.1893 21.5807 20.1687 21.6515 20.1308C21.9161 19.9893 21.9321 19.8601 21.9321 17.8637C21.9321 15.8672 21.9161 15.738 21.6515 15.5965C21.5807 15.5586 20.5091 15.5381 18.5985 15.5381H15.6546L15.5021 15.6972ZM20.7972 17.8637V19.0548H18.6409H16.4846V17.8637V16.6725H18.6409H20.7972V17.8637Z" fill="#D7B76F"/>
</svg>
