<svg width="36" height="27" viewBox="0 0 36 27" fill="none" xmlns="http://www.w3.org/2000/svg">
<path fill-rule="evenodd" clip-rule="evenodd" d="M0.357565 0.0787104C-0.00828825 0.230694 0.00338416 0.0718046 0.000712161 4.92362C-0.00195984 9.83611 -0.0154604 9.6641 0.383019 9.80021C0.643469 9.8892 5.25956 9.8892 5.52001 9.80021C5.8088 9.70158 5.90478 9.50094 5.90478 8.99601V8.54528H6.25636H6.60794V12.3435C6.60794 16.4666 6.59809 16.3605 6.99271 16.4953C7.25998 16.5866 31.5509 16.5866 31.8181 16.4953C32.2182 16.3586 32.2029 16.5692 32.2029 11.1811C32.2029 5.79303 32.2182 6.00363 31.8181 5.86699C31.7167 5.83236 31.4502 5.80399 31.2259 5.80399C30.7843 5.80399 31.1472 5.9428 22.9564 2.64113C20.2479 1.54936 19.8201 1.4076 18.5616 1.18524C18.0834 1.10068 17.4693 1.0903 11.9695 1.07353L5.90478 1.05508V0.74342C5.90478 0.368549 5.8024 0.180771 5.543 0.0802392C5.26955 -0.0257748 0.612319 -0.0271982 0.357565 0.0787104ZM4.49846 4.93416V8.80887H2.95152H1.40457V4.93416V1.05946H2.95152H4.49846V4.93416ZM18.5265 2.26041C19.4826 2.46015 19.7483 2.55699 23.8198 4.19022L27.7772 5.77764L22.3081 5.80399L16.8389 5.83035L16.5252 5.96215C15.766 6.28108 15.5423 6.98502 16.0207 7.54998C16.1901 7.7501 16.4344 7.87852 17.8531 8.51334C19.0164 9.03386 19.5298 9.29318 19.6273 9.40953C19.8166 9.63563 19.7618 9.93659 19.4951 10.1367C19.0848 10.4442 19.1445 10.4568 15.2514 9.24363C13.3014 8.63601 11.4527 8.07658 11.1433 8.0005C9.76498 7.66164 8.36281 7.49331 6.90678 7.49189L5.90478 7.49094V4.80016V2.10937L11.9344 2.12614C17.9217 2.14274 17.9679 2.14369 18.5265 2.26041ZM7.86764 3.31496C7.66978 3.44749 7.63068 3.51017 7.63068 3.69531C7.63068 3.88045 7.66978 3.94314 7.86764 4.07567C8.07311 4.21331 8.14279 4.2305 8.39326 4.2053C9.2118 4.12301 9.2118 3.26762 8.39326 3.18533C8.14279 3.16013 8.07311 3.17731 7.86764 3.31496ZM10.5004 3.22044C10.1085 3.339 9.99596 3.78889 10.2934 4.0482L10.463 4.19612L13.3485 4.21099L16.234 4.22586L16.4645 4.0714C16.6558 3.94324 16.6951 3.87924 16.6951 3.69531C16.6951 3.51186 16.6557 3.44733 16.467 3.32092L16.239 3.16814L13.445 3.17146C11.9083 3.17331 10.5833 3.19534 10.5004 3.22044ZM27.8008 7.03183C27.897 7.41672 28.3302 7.9723 28.8205 8.33984C29.3107 8.70744 30.0518 9.03218 30.5652 9.10435L30.7966 9.13693V11.1811V13.2253L30.5652 13.2579C30.0518 13.3301 29.3107 13.6548 28.8205 14.0224C28.3302 14.39 27.897 14.9456 27.8008 15.3304L27.7573 15.5039H19.4054H11.0535L11.0101 15.3304C10.9138 14.9456 10.4807 14.39 9.99034 14.0224C9.5001 13.6548 8.75904 13.3301 8.24566 13.2579L8.01425 13.2253V10.9117V8.598H8.22161C8.62881 8.598 9.96144 8.82083 10.7566 9.0219C11.4687 9.20198 14.5161 10.1338 14.6009 10.1974C14.6187 10.2107 14.5974 10.3212 14.5537 10.443C14.4534 10.7221 14.4507 11.6026 14.5491 11.9308C15.0906 13.7381 17.2336 14.9674 19.6491 14.8563C20.8943 14.7989 21.9438 14.4411 22.8577 13.762C23.289 13.4415 23.4562 13.2676 23.7191 12.8658C24.1457 12.2141 24.2572 11.8651 24.2572 11.1822C24.2572 9.55081 22.9263 8.17811 20.8469 7.66459C20.3576 7.54376 20.1606 7.52505 19.3345 7.52083C18.4192 7.51609 18.372 7.51034 18.0337 7.36284C17.333 7.05719 17.1509 6.95903 17.192 6.90916C17.2183 6.87726 19.194 6.85834 22.4957 6.85834H27.7573L27.8008 7.03183ZM30.7966 7.46564V8.07299L30.4977 7.96044C29.9035 7.73671 29.4498 7.38487 29.2517 6.99414L29.1828 6.85834H29.9897H30.7966V7.46564ZM2.45389 7.11786C2.17382 7.32783 2.17319 7.58436 2.45213 7.81837C2.62075 7.95986 2.70682 7.98938 2.95152 7.98938C3.19621 7.98938 3.28228 7.95986 3.4509 7.81837C3.72984 7.58436 3.72921 7.32783 3.44914 7.11786C3.28791 6.99704 3.1806 6.96377 2.95152 6.96377C2.72243 6.96377 2.61512 6.99704 2.45389 7.11786ZM21.2444 8.9608C21.898 9.27162 22.4177 9.76653 22.684 10.332C22.8858 10.7608 22.9107 11.4835 22.7389 11.9228C22.3985 12.7924 21.4089 13.5024 20.2111 13.7363C18.437 14.0827 16.5272 13.2587 15.9995 11.9192C15.8801 11.6162 15.8371 10.7224 15.9385 10.6522C15.9696 10.6307 16.5172 10.779 17.1553 10.9819C18.2504 11.33 18.3543 11.3526 19.0076 11.3848C19.6517 11.4166 19.7113 11.4292 19.8689 11.5666C20.089 11.7583 20.0824 11.8415 19.8327 12.0287C19.5652 12.2292 19.2211 12.2372 18.9239 12.0496C18.8077 11.9764 18.616 11.8912 18.4979 11.8603C18.1833 11.7781 17.7879 11.9338 17.6597 12.1905C17.5171 12.4759 17.6929 12.7188 18.2306 12.9794C18.4751 13.0978 18.6955 13.2528 18.7629 13.3536C18.9847 13.685 19.4959 13.7573 19.8327 13.5047C19.9458 13.42 20.0383 13.3139 20.0383 13.2689C20.0383 13.2239 20.1411 13.1476 20.2668 13.0995C20.6839 12.9395 20.9923 12.7209 21.2016 12.4371C21.3752 12.2015 21.4084 12.097 21.4084 11.7874C21.4084 11.4792 21.375 11.3729 21.2052 11.1428C21.0935 10.9912 20.9462 10.8293 20.878 10.783C20.76 10.7029 20.7631 10.6843 20.941 10.3997C21.1858 10.0081 21.1981 9.43926 20.97 9.05927C20.8873 8.92152 20.8433 8.80887 20.8722 8.80887C20.9012 8.80887 21.0686 8.87724 21.2444 8.9608ZM11.0629 10.7063C10.6462 10.8323 10.552 11.2994 10.8918 11.5542L11.0973 11.7083H12.086C13.0677 11.7083 13.0764 11.7073 13.2934 11.5619C13.4567 11.4525 13.5137 11.3675 13.5191 11.2256C13.5276 10.9994 13.3481 10.7739 13.1039 10.7043C12.8858 10.6422 11.2697 10.6437 11.0629 10.7063ZM25.6149 10.7072C25.3951 10.7735 25.2135 11.0061 25.2135 11.221C25.2135 11.3621 25.2667 11.441 25.4396 11.5569L25.6658 11.7083H26.6545H27.6432L27.8487 11.5542C28.19 11.2984 28.1187 10.8944 27.7041 10.7336C27.473 10.644 25.8904 10.624 25.6149 10.7072ZM8.74462 14.5923C9.05331 14.7554 9.43076 15.115 9.55916 15.3681L9.628 15.5039H8.82113H8.01425V14.9002V14.2966L8.22576 14.3632C8.34207 14.3999 8.57558 14.5029 8.74462 14.5923ZM30.7732 15.4864C30.7576 15.498 30.3927 15.5008 29.9621 15.4925L29.1792 15.4776L29.3353 15.2404C29.4211 15.1099 29.6347 14.8956 29.8099 14.7642C29.9852 14.6328 30.271 14.4727 30.445 14.4084L30.7614 14.2914L30.7814 14.8783C30.7924 15.2011 30.7886 15.4747 30.7732 15.4864ZM30.4527 17.2118C30.1597 17.3335 30.0986 17.4903 30.0959 18.1266C30.0945 18.4528 30.082 18.7197 30.068 18.7197C30.0541 18.7197 29.2133 18.5063 28.1997 18.2454C25.8445 17.6395 25.2534 17.5436 23.8705 17.5436C23.054 17.5436 22.652 17.5697 22.0908 17.6589C21.1258 17.8122 20.8638 17.8899 17.7602 18.9438C15.4439 19.7304 15.0527 19.88 14.7685 20.0881C14.1569 20.5359 13.879 21.219 14.0759 21.7904C14.1754 22.0791 14.1741 22.0936 14.0492 22.0936C13.8915 22.0936 13.3853 21.9048 10.0839 20.6151C8.689 20.0702 7.36165 19.5839 7.13425 19.5343C5.94662 19.2755 4.63347 19.7351 4.05836 20.6108C3.84734 20.9323 3.83046 20.997 3.83046 21.4862C3.83046 21.96 3.85114 22.046 4.03051 22.3201C4.40347 22.89 4.60907 22.9976 8.54802 24.6867C12.6891 26.4623 12.8559 26.5282 13.6141 26.6884C14.5717 26.8906 15.4277 26.8568 18.21 26.5067C20.8701 26.1721 30.0043 25.0457 30.0583 25.0457C30.0776 25.0457 30.0934 25.3909 30.0934 25.8128C30.0934 26.6527 30.1514 26.8217 30.4782 26.9333C30.7386 27.0222 35.3547 27.0222 35.6152 26.9333C36.0134 26.7972 35.9999 26.9671 35.9999 22.0723C35.9999 18.6899 35.979 17.5304 35.9159 17.4266C35.7464 17.1476 35.6497 17.138 33.0326 17.14C31.1659 17.1415 30.5828 17.1577 30.4527 17.2118ZM34.5936 22.0672V25.9419H33.0467H31.4997V22.0672V18.1925H33.0467H34.5936V22.0672ZM24.7214 18.6147C25.519 18.6897 25.865 18.7636 28.107 19.3381L30.0934 19.8471V21.9075V23.9678L22.8685 24.8626C14.7781 25.8646 14.6945 25.8715 13.742 25.6176C13.1545 25.461 5.90478 22.3668 5.57211 22.1306C5.28853 21.9294 5.17574 21.6812 5.218 21.3516C5.28094 20.8608 5.9218 20.4701 6.57355 20.5251C6.78105 20.5427 7.80373 20.914 9.99322 21.7669C11.7112 22.4361 13.2107 23.0126 13.3254 23.048C13.4402 23.0834 14.1194 23.1348 14.8349 23.1623C17.0828 23.2488 16.7339 23.2924 19.5109 22.5781C20.8645 22.2301 22.0255 21.9291 22.0908 21.9095C22.2779 21.8533 22.429 21.6402 22.429 21.4324C22.429 21.1911 22.1149 20.934 21.8191 20.9333C21.7098 20.9331 20.4744 21.2205 19.0739 21.5721C16.2605 22.2784 16.2398 22.281 15.7837 21.9807C15.3334 21.6844 15.3098 21.1702 15.7325 20.8666C15.9432 20.7152 20.5153 19.1356 21.4761 18.8823C22.5165 18.608 23.6527 18.5143 24.7214 18.6147ZM32.7927 19.0329C32.3335 19.1782 32.2053 19.6258 32.5491 19.8835C32.9724 20.2009 33.6472 20.0291 33.7269 19.5837C33.7603 19.3974 33.7376 19.3442 33.5644 19.2015C33.3497 19.0246 33.0356 18.9561 32.7927 19.0329Z" fill="#D7B76F"/>
</svg>
