<svg width="23" height="31" viewBox="0 0 23 31" fill="none" xmlns="http://www.w3.org/2000/svg">
<path fill-rule="evenodd" clip-rule="evenodd" d="M1.81629 0.0838619C0.921186 0.344873 0.214696 1.16066 0.0453747 2.12886C0.00924284 2.33545 -0.00701938 3.58875 0.00282957 5.41166L0.0187482 8.36026L0.153942 8.47594C0.328417 8.62527 0.509935 8.62267 0.695748 8.46819L0.84417 8.34477L0.860947 5.24489L0.877667 2.14502L1.01338 1.85628C1.19243 1.47518 1.59366 1.1083 1.95578 0.994618C2.20372 0.916774 3.08692 0.904184 8.26048 0.904486C12.1786 0.904668 14.3502 0.926338 14.4874 0.966652C14.8249 1.06568 15.2319 1.39285 15.4204 1.71645L15.5938 2.01433L15.6096 5.08351L15.6255 8.1527L15.1921 8.22086C14.9539 8.25833 14.7342 8.28896 14.7039 8.28896C14.67 8.28896 14.649 7.55973 14.649 6.38458C14.649 4.50344 14.6475 4.47869 14.5237 4.35678C14.3992 4.23414 14.3583 4.23335 8.25991 4.23335C2.30141 4.23335 2.11749 4.23674 1.9863 4.34909L1.85111 4.46476L1.83628 14.7868L1.82151 25.1088L1.96019 25.2792L2.09888 25.4496H8.25338C14.2253 25.4496 14.4115 25.4462 14.5285 25.3343C14.6437 25.2241 14.649 25.1631 14.649 23.9572C14.649 23.1922 14.6707 22.6954 14.7039 22.6954C14.7342 22.6954 14.9539 22.7261 15.1921 22.7635L15.6255 22.8317L15.6096 25.9009L15.5938 28.9701L15.4204 29.2679C15.2319 29.5915 14.8249 29.9187 14.4874 30.0177C14.3502 30.0581 12.1786 30.0797 8.26048 30.0799C3.08692 30.0802 2.20372 30.0676 1.95578 29.9898C1.59366 29.8761 1.19243 29.5092 1.01338 29.1281L0.877667 28.8394L0.862493 19.2942L0.847319 9.74904L0.697294 9.62434C0.51005 9.46859 0.328818 9.46557 0.153942 9.61532L0.0187482 9.731L0.00391759 19.1323C-0.00570231 25.2228 0.00924292 28.6491 0.0464055 28.8617C0.21985 29.8535 0.916319 30.6375 1.85311 30.8954C2.35409 31.0334 14.167 31.0355 14.6673 30.8977C15.3936 30.6978 15.9057 30.2579 16.2371 29.5491L16.4527 29.088L16.469 25.9606L16.4853 22.8331L17.0721 22.7372C18.6197 22.4841 20 21.7236 21.0692 20.5349C22.221 19.2543 22.8405 17.7575 22.9808 15.9159C23.0167 15.445 23.0095 15.3873 22.8959 15.2349C22.8062 15.1147 22.7204 15.0685 22.5865 15.0685C22.242 15.0685 22.1966 15.1558 22.1119 15.9823C22.0697 16.3945 21.9822 16.9364 21.9174 17.1864C21.7736 17.7418 21.3881 18.6169 21.0667 19.1171C20.2725 20.3534 18.9845 21.3142 17.5939 21.7077C17.0921 21.8496 16.9145 21.8691 16.0805 21.8729C15.2642 21.8766 15.0664 21.8579 14.626 21.7353C12.5602 21.1602 10.9147 19.5577 10.2977 17.52C10.2271 17.287 10.1222 17.0441 10.0647 16.9802C9.92352 16.8239 9.63544 16.8307 9.48095 16.994C9.30991 17.1748 9.33069 17.4172 9.5744 18.0843C10.2268 19.87 11.4403 21.2616 13.0743 22.0979C13.3893 22.2591 13.6792 22.3914 13.7185 22.3919C13.7731 22.3926 13.7901 22.6516 13.7901 23.4826V24.5725L8.25006 24.5571L2.71003 24.5416L2.69554 14.8415L2.68105 5.14132H8.23557H13.7901V6.86647C13.7901 8.11239 13.7721 8.59161 13.7252 8.59161C13.589 8.59161 12.5873 9.13295 12.1618 9.43645C11.3185 10.038 10.4938 10.9881 9.99275 11.9352C9.50448 12.8582 9.17363 14.101 9.14018 15.1377C9.12003 15.7628 9.20117 15.9159 9.55275 15.9159C9.88458 15.9159 9.94276 15.7989 10.0092 14.998C10.1784 12.9565 11.1463 11.2349 12.7525 10.118C13.6913 9.4652 14.6272 9.15062 15.7942 9.09566C17.5957 9.01073 19.2264 9.706 20.4686 11.0886C21.0989 11.79 21.4888 12.4758 21.8314 13.485C21.9746 13.9069 22.0404 14.0244 22.1699 14.09C22.384 14.1985 22.6308 14.0929 22.725 13.8523C22.7856 13.6979 22.7711 13.6051 22.6101 13.116C22.2294 11.9595 21.6715 11.045 20.828 10.1946C19.7726 9.13077 18.4283 8.44368 16.9839 8.22982L16.4843 8.15585L16.4685 5.02613L16.4527 1.89641L16.2371 1.43529C16.008 0.945466 15.6206 0.513998 15.2121 0.293664C14.6502 -0.00935653 14.7727 -0.00421134 8.2094 0.00153914C3.44251 0.00577634 2.02152 0.0240568 1.81629 0.0838619ZM5.86461 2.29023C5.72295 2.45573 5.73028 2.76183 5.87973 2.91976C5.97913 3.02484 6.08724 3.05517 6.42772 3.07333C6.93757 3.10057 7.22124 3.01479 7.31114 2.80626C7.40276 2.59368 7.39423 2.51765 7.25812 2.33478C7.14371 2.18097 7.11852 2.17528 6.55123 2.17528C6.04613 2.17528 5.94913 2.19151 5.86461 2.29023ZM7.89218 2.29635C7.74748 2.44931 7.74519 2.72485 7.88714 2.91007C7.99622 3.0525 8.00097 3.05299 9.26645 3.05299C10.5319 3.05299 10.5367 3.0525 10.6458 2.91007C10.7877 2.72485 10.7854 2.44931 10.6407 2.29635C10.5331 2.18261 10.4499 2.17528 9.26645 2.17528C8.08303 2.17528 7.99977 2.18261 7.89218 2.29635ZM7.71529 8.03902C7.62007 8.1205 7.58296 8.21529 7.58296 8.37679C7.58296 8.58417 7.6396 8.66062 8.32879 9.3833C8.97029 10.056 9.1001 10.1654 9.25643 10.1654C9.49429 10.1654 9.66727 9.98026 9.66727 9.72573C9.66727 9.55285 9.57234 9.42798 8.90782 8.72696C8.0954 7.86996 7.98631 7.80701 7.71529 8.03902ZM15.1357 10.1947C13.576 10.5017 12.2029 11.5949 11.4854 13.1012C11.4061 13.2677 11.2684 13.6354 11.1793 13.9184C11.0263 14.4046 11.0174 14.4912 11.0174 15.4922C11.0174 16.4932 11.0263 16.5798 11.1793 17.066C11.532 18.1867 12.0867 19.0397 12.9005 19.7129C14.5757 21.0984 16.8736 21.259 18.6629 20.1156C20.926 18.6693 21.7834 15.6951 20.6575 13.1959C19.6595 10.9805 17.3955 9.75 15.1357 10.1947ZM17.2544 11.1946C19.247 11.855 20.5289 13.9014 20.2647 16.0002C20.0326 17.8438 18.9173 19.2372 17.2238 19.7994C16.6124 20.0023 15.5012 20.0023 14.8781 19.7993C13.4399 19.3309 12.319 18.1055 11.9559 16.6046C11.8029 15.9722 11.8029 15.0122 11.9559 14.3798C12.361 12.7057 13.7077 11.3822 15.3226 11.0715C15.7905 10.9815 16.8066 11.0462 17.2544 11.1946ZM5.68504 11.222C5.50982 11.4072 5.50553 11.6276 5.6733 11.8186C5.83506 12.0027 7.39967 12.7087 7.64463 12.7082C7.77273 12.7079 7.86177 12.6605 7.94526 12.5483C8.22996 12.1657 8.04232 11.9676 6.92183 11.4679C6.43539 11.2509 5.98973 11.0734 5.93149 11.0734C5.8732 11.0734 5.76234 11.1403 5.68504 11.222ZM15.8801 11.6866C15.6781 11.806 15.6225 11.9363 15.6225 12.2898V12.6357L15.3156 12.8187C14.291 13.43 14.3134 15.1963 15.3526 15.7281C15.4874 15.7971 15.8112 15.8929 16.0722 15.9411C16.6313 16.0443 16.7916 16.1401 16.8803 16.4243C16.9503 16.6487 16.8905 17.007 16.7524 17.1899C16.3799 17.6833 15.6675 17.5527 15.2173 16.9086C14.9495 16.5252 14.7682 16.449 14.5438 16.6253C14.3562 16.7726 14.3196 17.0446 14.4512 17.3135C14.5935 17.6044 15.0427 18.0516 15.3505 18.209L15.6225 18.3479V18.6705C15.6225 18.8479 15.6385 19.0372 15.658 19.0911C15.711 19.237 16.0006 19.3746 16.1636 19.3313C16.3781 19.2744 16.45 19.1409 16.4814 18.7413C16.5082 18.4006 16.5212 18.3731 16.6818 18.3178C16.9527 18.2246 17.3039 17.9451 17.4714 17.6897C17.5559 17.5608 17.6679 17.2715 17.7204 17.0468C17.9608 16.0169 17.4108 15.2602 16.2705 15.0521C15.6959 14.9473 15.5316 14.8414 15.4507 14.5239C15.3155 13.9933 15.5839 13.5588 16.0777 13.5086C16.4529 13.4705 16.621 13.5873 16.806 14.0146C16.9549 14.3583 17.0698 14.4632 17.2979 14.4632C17.4834 14.4632 17.6841 14.2242 17.6826 14.0053C17.6794 13.5559 17.2324 12.9248 16.7672 12.7133L16.4814 12.5833V12.2588C16.4814 11.8956 16.3734 11.7049 16.1378 11.6514C16.0591 11.6336 15.9431 11.6494 15.8801 11.6866ZM4.89483 15.1792C4.75895 15.3379 4.77275 15.6893 4.92043 15.8309C5.02585 15.9318 5.15177 15.9486 5.93407 15.9657C6.95779 15.9882 7.16078 15.9611 7.31979 15.7806C7.46638 15.6143 7.46489 15.4288 7.31538 15.228L7.19674 15.0685H6.09314C5.09679 15.0685 4.98038 15.0793 4.89483 15.1792ZM6.6038 18.6733C5.72375 19.0749 5.54446 19.2091 5.54446 19.4664C5.54446 19.6481 5.78273 19.911 5.94735 19.911C6.09818 19.911 7.81304 19.1385 7.92504 19.0202C8.17642 18.7544 8.01546 18.3176 7.65746 18.2941C7.52496 18.2855 7.18815 18.4067 6.6038 18.6733ZM8.39716 21.5302C7.50721 22.4503 7.41828 22.6237 7.68918 22.91C7.7808 23.0069 7.89458 23.0586 8.01597 23.0586C8.17831 23.0586 8.2965 22.959 8.93479 22.2843C9.60704 21.5736 9.66727 21.4916 9.66727 21.2879C9.66727 21.0177 9.49074 20.819 9.25081 20.819C9.11636 20.819 8.955 20.9534 8.39716 21.5302ZM7.96473 26.0312C6.67812 26.2825 6.15922 27.8988 7.0289 28.946C7.62585 29.6647 8.77188 29.6911 9.42443 29.0012C9.89592 28.5028 10.0404 27.6543 9.7613 27.0234C9.44802 26.3155 8.68026 25.8914 7.96473 26.0312ZM8.82811 27.1677C8.9735 27.3214 9.00505 27.4089 9.02612 27.7165C9.05063 28.0747 9.04651 28.0873 8.82954 28.3157C8.53573 28.6249 8.26369 28.6819 7.92052 28.5063C7.73287 28.4103 7.63891 28.3101 7.54603 28.1074C7.38845 27.7632 7.42968 27.4863 7.6818 27.1954C7.99588 26.8331 8.50006 26.8209 8.82811 27.1677Z" fill="#D7B76F"/>
</svg>
