<svg width="78" height="86" viewBox="0 0 78 86" fill="none" xmlns="http://www.w3.org/2000/svg">
<path fill-rule="evenodd" clip-rule="evenodd" d="M28.2449 0.107921C28.3026 0.291055 28.1516 0.665807 27.9091 0.941099C27.5645 1.33223 27.519 1.52602 27.7004 1.82874C28.3357 2.88867 27.6465 3.81657 26.5101 3.43096C25.8481 3.20619 25.778 3.43964 26.2747 4.2154C26.7183 4.90826 26.6843 5.86734 26.202 6.2569C25.6091 6.73585 23.8575 6.695 23.2905 6.18881C22.7781 5.73138 22.3402 5.68579 21.9976 6.05423C21.6508 6.4274 22.2901 7.17552 22.9556 7.17552C23.2441 7.17552 23.6363 7.31504 23.8275 7.48555C24.3228 7.92799 24.2676 9.30662 23.7225 10.1049C23.2896 10.7385 23.2525 10.7521 22.7839 10.4457C20.9715 9.26064 19.7489 9.03231 18.4434 9.635C17.6204 10.0149 17.471 10.4252 17.891 11.1504C18.5424 12.2746 20.5999 12.6267 22.3579 11.9143L23.3042 11.5309L24.4002 12.856C26.0059 14.7971 26.8972 16.8017 26.9197 18.5227L26.9378 19.9041L26.1303 19.9643C25.1073 20.0402 24.0812 19.2838 22.9475 17.6177C22.5107 16.9757 22.0635 16.4506 21.9536 16.4506C21.7397 16.4506 21.8088 16.6464 22.6868 18.5227C23.3995 20.0462 23.6391 21.3052 23.2881 21.6829C22.8142 22.1925 22.2288 21.6484 21.2072 19.7492C19.458 16.497 18.3187 15.5239 16.8821 16.0551C15.8043 16.4537 15.2203 17.5089 15.2342 19.0326L15.2461 20.3321L14.2395 20.1612C12.5516 19.8749 10.4879 20.384 9.53868 21.321C8.33772 22.5066 8.13016 25.0208 9.03447 27.4262C9.61958 28.9818 10.6786 30.9842 11.397 31.8926L11.8261 32.4353H11.1408C9.75995 32.4353 7.8282 33.568 7.8103 34.3882C7.80654 34.5622 7.55875 35.1487 7.25967 35.6914C6.96059 36.2341 6.715 36.8248 6.71389 37.0041C6.71279 37.189 6.42123 37.4207 6.04014 37.5393C5.60026 37.6763 5.2888 37.9524 5.1376 38.3399C5.0105 38.6652 4.73176 38.9809 4.51801 39.0415C3.86857 39.2256 3.16475 40.0363 3.035 40.7493C2.94194 41.2614 3.02637 41.5408 3.38624 41.9122L3.86016 42.401L3.51754 41.7695C3.32921 41.422 3.17514 41.0141 3.17514 40.8628C3.17514 40.4016 3.90924 39.9603 4.91523 39.8167C5.8359 39.6852 5.86552 39.659 5.73775 39.0885C5.49836 38.0204 6.62702 37.5003 7.11377 38.4542C7.38986 38.9949 8.19514 39.1289 8.39364 38.6669C8.55655 38.2882 8.10054 37.5662 7.69889 37.5662C7.3041 37.5662 7.25481 36.5684 7.6328 36.231C7.82909 36.0557 8.09125 36.1627 8.73251 36.6797C9.80548 37.5453 10.565 37.729 11.1417 37.2631C12.2878 36.3369 10.9956 34.606 9.15802 34.606C8.38148 34.606 8.2672 34.2473 8.88459 33.7486C9.39012 33.3401 11.5045 33.3065 12.5215 33.6908C12.9128 33.8384 13.9718 34.4156 14.8748 34.9735C16.2619 35.83 17.3222 36.2335 17.3222 35.9049C17.3222 35.8596 17.379 35.69 17.4487 35.5284C17.5391 35.3177 17.1335 35.0274 16.0165 34.5032C12.2903 32.7552 9.53779 28.8851 9.22699 24.957C9.12332 23.6463 9.1735 23.3439 9.62311 22.5698C10.6019 20.8851 12.4004 20.3773 14.6555 21.1491C15.5697 21.4621 15.6794 21.5809 16.2824 22.9114C16.6379 23.696 17.3289 24.7439 17.8178 25.2398C18.5663 25.9988 18.8161 26.132 19.3961 26.0817C20.0688 26.0231 20.0851 25.9976 20.0785 25.0273C20.0665 23.3355 18.8881 21.943 16.4601 20.7521C15.7932 20.4249 15.7749 20.3783 15.7749 19.0101C15.7749 17.7195 15.8277 17.5571 16.421 17.0274C17.7721 15.8213 18.7767 16.5998 19.8656 19.6965C20.6819 22.0178 21.3283 22.9394 22.4826 23.4284C24.3449 24.2174 25.0337 23.5983 24.6845 21.4491L24.4866 20.2313L25.3193 20.8199C26.866 21.9136 27.9891 21.9335 28.3806 20.8744C28.6669 20.1004 28.515 18.9768 27.9405 17.6139C27.5285 16.6367 24.9681 12.7692 24.117 11.8385L23.5989 11.2717L24.1259 10.3585C24.5483 9.62612 24.6307 9.24248 24.5421 8.4243L24.4314 7.40365L25.5905 6.89727C26.9378 6.3088 27.3614 5.73355 27.2237 4.67915C27.1427 4.06107 27.2188 3.85643 27.6392 3.5614C27.9805 3.32163 28.1536 2.99365 28.1536 2.58693C28.1536 2.24987 28.271 1.68429 28.4142 1.33045C28.616 0.832561 28.6145 0.583515 28.4074 0.231063C28.2604 -0.0197588 28.1872 -0.0750146 28.2449 0.107921ZM21.9452 10.5491C22.7507 11.0807 22.5286 11.312 21.208 11.3167C19.9538 11.3211 19.1368 10.568 19.7761 9.99732C20.092 9.71531 21.0524 9.95962 21.9452 10.5491ZM27.9427 11.0128C27.2519 11.7558 28.1388 12.753 29.1311 12.3492C30.1125 11.95 29.7794 10.7277 28.689 10.7277C28.4244 10.7277 28.0884 10.8559 27.9427 11.0128ZM42.6194 10.8786C41.7001 11.4486 41.3765 12.9878 41.8621 14.4786C42.0589 15.0814 42.0275 15.2115 41.6132 15.5158C40.1594 16.5834 39.185 15.9509 38.8101 13.6963C38.5499 12.1316 38.254 11.6662 37.5751 11.7543C36.9405 11.8365 36.2364 12.8544 35.677 14.4993C35.4148 15.2699 35.1555 15.8603 35.1007 15.8116C35.0461 15.7627 34.7786 15.1097 34.5063 14.3601C33.9795 12.9095 33.4676 12.5407 33.0193 13.2886C32.8829 13.5161 32.6323 14.5295 32.4623 15.5403C32.0867 17.7738 31.7739 18.4639 31.1733 18.3838C30.4881 18.2922 29.8882 17.0284 29.8347 15.5643C29.7827 14.1435 29.4931 13.6633 28.9365 14.0756C28.4796 14.4142 28.5073 15.1667 29.0323 16.6842C29.5575 18.2026 30.4483 19.0792 31.367 18.9819C32.2965 18.8838 32.7777 18.116 33.1309 16.167C33.3051 15.2069 33.4857 14.3874 33.5321 14.3459C33.5786 14.3043 33.7304 14.7763 33.8695 15.3946C34.3085 17.3459 35.4581 17.918 35.8923 16.4013C36.4915 14.3071 36.9062 13.2211 37.1324 13.1538C37.2672 13.1135 37.6027 13.6187 37.8782 14.2763C38.702 16.2426 40.0394 16.9045 41.527 16.0818L42.1902 15.7151L42.8831 16.3788C44.0525 17.4989 45.2384 17.2179 48.6967 15.0009C51.0292 13.5059 51.8639 13.2158 53.4901 13.3361C54.9893 13.4472 55.6748 13.9753 55.9825 15.2559C56.2835 16.5088 56.1193 16.9268 55.2108 17.22C53.7768 17.6828 53.3854 19.016 54.6834 19.016C55.2745 19.016 56.4478 18.0873 56.4478 17.6194C56.4478 17.3258 57.9586 17.4103 58.6828 17.7446C59.5895 18.1631 59.5157 18.9973 58.5477 19.2732C57.7409 19.5033 57.1109 19.969 57.1109 20.3355C57.1109 20.8012 57.7986 20.8701 58.6001 20.4847C59.3526 20.1229 59.3749 20.1231 59.6764 20.4914C59.846 20.6984 59.9845 21.0725 59.9845 21.3232C59.9845 21.6916 60.1041 21.7788 60.6092 21.7788C60.9897 21.7788 61.4366 21.9716 61.7529 22.2722C62.4172 22.9033 64.0773 22.9674 64.8726 22.3926C65.2539 22.1169 65.5198 22.064 65.8918 22.1903C66.5711 22.4208 67.3483 22.1289 67.9016 21.4351C68.8084 20.2982 68.7186 19.2134 67.7179 19.2134C67.2042 19.2134 66.9973 19.7229 67.3742 20.0594C67.6193 20.2782 67.6216 20.4308 67.3866 20.9295C66.9818 21.7889 66.6677 21.8872 65.9144 21.3901C65.2084 20.9239 65.1376 20.9385 64.753 21.6273C64.4391 22.1895 63.419 22.6384 62.7866 22.4928C62.522 22.4318 62.1307 22.1044 61.917 21.7654C61.703 21.4264 61.3301 21.1027 61.088 21.0463C60.8458 20.9897 60.6477 20.786 60.6477 20.5936C60.6477 20.4012 60.4631 20.0402 60.2372 19.7914C59.9339 19.4569 59.8539 19.1248 59.9304 18.5185C60.0206 17.8044 59.956 17.6433 59.4324 17.2757C59.1017 17.0432 58.3694 16.7979 57.805 16.7304L56.7793 16.6075L56.7351 15.7488C56.6423 13.9495 55.4325 12.9004 53.4486 12.8992C51.7532 12.898 50.1755 13.3951 47.4953 14.7748C44.4159 16.3598 44.0461 16.448 43.2958 15.7782L42.7213 15.2654L43.3106 14.5756C43.9214 13.8607 44.4846 12.6666 44.5014 12.0509C44.5127 11.6437 43.566 10.7263 43.1396 10.7306C42.9822 10.7324 42.7481 10.7989 42.6194 10.8786ZM43.3208 13.3405C43.243 13.7109 43.0346 14.1847 42.8575 14.3935C42.5644 14.7394 42.5352 14.6664 42.5288 13.5728C42.5211 12.2444 42.669 11.9585 43.1446 12.3832C43.3628 12.5782 43.4181 12.8777 43.3208 13.3405ZM55.5636 18.0354C55.5636 18.2719 54.94 18.5252 54.7583 18.3628C54.5647 18.19 54.8929 17.832 55.2451 17.832C55.4203 17.832 55.5636 17.9236 55.5636 18.0354ZM40.5323 18.7583C31.9466 19.5783 23.7561 24.5548 19.9755 31.2487C18.2776 34.2548 17.4166 37.149 17.1845 40.6305C17.0366 42.8474 17.4076 46.743 17.7862 46.9519C17.8928 47.0108 17.9062 46.7678 17.8163 46.4071C17.727 46.0489 17.6587 44.2906 17.6646 42.4997C17.6737 39.75 17.7537 38.9827 18.1801 37.5662C20.9125 28.4892 28.9403 21.5923 38.5166 20.0951C40.8906 19.7239 45.039 19.7241 47.4111 20.0955C56.465 21.513 63.6546 27.0778 66.6111 34.9565C69.7025 43.1938 67.2095 51.8336 59.9644 57.9922C57.1282 60.4032 54.3354 61.9154 50.811 62.9487C49.8384 63.2336 48.948 63.5446 48.8327 63.6398C48.3996 63.9962 49.6121 63.7963 51.5118 63.1979C58.1293 61.1138 63.3595 57.2021 66.2577 52.1695C68.0276 49.0957 68.7909 46.4902 68.9748 42.8944C69.3707 35.1454 65.072 27.275 58.0895 22.9658C53.0374 19.8478 46.2234 18.2148 40.5323 18.7583ZM39.258 22.0742C30.9832 23.4134 24.7077 28.1338 21.8906 35.1375C21.0248 37.2903 20.0776 42.3154 20.5911 42.0322C20.7018 41.9712 20.855 41.1856 20.9317 40.2863C21.109 38.2085 21.5637 36.6975 22.6179 34.6812C25.4007 29.3593 30.8411 25.1993 37.3271 23.4341C39.1435 22.9396 39.6242 22.8928 42.8533 22.8944C46.6288 22.8964 48.164 23.1407 51.1364 24.2126C57.7612 26.6015 62.5279 31.7566 64.0094 38.1347C64.6343 40.8259 64.4776 44.798 63.6462 47.3346C62.9523 49.4523 61.6917 51.8843 60.403 53.5915C58.448 56.1818 54.3774 59.2578 51.6943 60.1727C51.1477 60.359 50.7005 60.5859 50.7005 60.6771C50.7005 61.1201 54.4524 59.3596 56.6299 57.8948C64.9824 52.2758 67.9533 42.0275 63.6433 33.6997C60.9941 28.5804 56.1346 24.5846 50.4545 22.8553C47.0331 21.8136 42.7255 21.5132 39.258 22.0742ZM18.2064 23.7088C18.2064 24.1424 17.6985 23.8793 17.1564 23.1651C16.4204 22.1952 16.5525 22.004 17.4328 22.7655C17.8583 23.1338 18.2064 23.5583 18.2064 23.7088ZM39.7792 24.9065C39.7155 24.9987 39.5484 25.6957 39.4078 26.4554C39.2188 27.4763 39.21 29.3581 39.3733 33.6631C39.5743 38.9547 39.7745 40.55 40.1669 39.9832C40.5223 39.4697 40.5535 36.3342 40.2264 34.014C39.7202 30.4265 39.5805 27.797 39.8092 26.1697C40.0084 24.753 40.0042 24.5815 39.7792 24.9065ZM47.7564 25.331C47.4206 26.2682 47.3536 32.8584 47.649 35.9227C47.9259 38.7978 47.954 38.9061 48.3532 38.6448C48.7487 38.3863 48.7566 38.2239 48.5175 35.3548C48.3791 33.6947 48.2557 31.1822 48.2433 29.7712C48.2148 26.5093 48.0084 24.6273 47.7564 25.331ZM30.733 28.2726C30.6623 28.5879 30.4918 30.2087 30.3541 31.874C30.0917 35.0467 30.1952 36.8692 30.6939 37.8622C30.9547 38.3814 30.9938 37.9208 31.0111 34.1127C31.0221 31.7249 31.0938 29.3048 31.1705 28.7351C31.3197 27.6257 30.9625 27.248 30.733 28.2726ZM55.0386 29.8945C54.9626 30.2337 54.9004 32.5405 54.9004 35.0207C54.9004 39.1798 54.9347 39.5802 55.3416 40.1762L55.7831 40.8223L55.7837 36.5599C55.7848 30.6122 55.4829 27.911 55.0386 29.8945ZM10.8672 35.845C11.025 35.9586 11.1245 36.2369 11.0882 36.4634C10.9826 37.1245 10.1733 37.0764 9.25198 36.3541C8.52208 35.782 8.47743 35.6956 8.84326 35.5651C9.32559 35.3932 10.4571 35.5497 10.8672 35.845ZM61.025 36.9741C60.6596 38.174 61.0816 47.6671 61.5332 48.4075C61.8586 48.9408 62.0082 45.3868 61.7689 42.8164C61.6387 41.4167 61.5219 39.6406 61.5098 38.8696C61.4976 38.0984 61.4176 37.2455 61.3316 36.9741L61.1753 36.4808L61.025 36.9741ZM48.2137 39.3649C47.4549 39.746 47.8404 47.7196 48.653 48.4474C48.8008 48.5798 48.8008 43.4477 48.6532 40.2924C48.6061 39.288 48.5601 39.1911 48.2137 39.3649ZM55.1281 42.6872C55.1228 44.0214 55.1767 44.3054 55.3978 44.1077C55.7433 43.7986 55.7398 41.9458 55.3927 41.4143C55.1816 41.0911 55.1337 41.3212 55.1281 42.6872ZM55.7017 44.4333C55.6418 44.5199 55.6841 44.7196 55.7959 44.8773C55.9544 45.1011 55.9997 45.0665 56.0024 44.7198C56.0057 44.2634 55.8934 44.1562 55.7017 44.4333ZM55.295 46.0021C55.4133 47.677 55.4586 47.782 55.7225 46.9914C55.973 46.2405 55.8211 45.2404 55.4394 45.1269C55.3198 45.0912 55.2574 45.4691 55.295 46.0021ZM55.6153 47.8698C55.3887 48.1143 55.4004 48.7259 55.6759 51.0667C55.8631 52.6587 56.1034 54.2907 56.2097 54.6935L56.4033 55.4256L56.4038 54.7349C56.404 54.355 56.2895 52.5868 56.1496 50.8058C55.9405 48.1441 55.8452 47.6213 55.6153 47.8698ZM62.5018 59.3904C62.3343 59.9858 62.6891 61.1572 63.4358 62.4741C63.726 62.986 63.9634 63.56 63.9634 63.7497C63.9634 64.5122 63.2105 63.4146 62.6219 61.794C62.1592 60.5202 61.9302 60.1484 61.5785 60.101C61.2779 60.0604 61.0783 60.1792 60.9793 60.4576C60.8977 60.6873 60.5907 60.9567 60.2971 61.0564C60.0036 61.1558 59.7635 61.3285 59.7635 61.4396C59.7635 61.5509 59.5214 61.6419 59.2255 61.6419C58.8053 61.6419 58.6724 61.7587 58.6176 62.1767C58.5676 62.5597 58.3908 62.7442 57.9951 62.8259C57.5309 62.922 57.4248 63.0813 57.332 63.8205C57.2252 64.6709 57.194 64.7027 56.4093 64.7611C55.3752 64.8378 54.9029 65.2809 55.3907 65.7164C55.6812 65.9757 56.5002 66.0173 60.8471 65.9947C63.6601 65.98 66.1089 65.9175 66.2889 65.8559C66.8141 65.6759 66.6721 65.1106 65.8182 63.9804C64.8509 62.7 63.0792 59.5943 63.0792 59.179C63.0792 58.6853 62.6566 58.84 62.5018 59.3904Z" fill="#D7B76F"/>
<path fill-rule="evenodd" clip-rule="evenodd" d="M47.7987 54.1335C46.7327 53.4656 45.6068 53.0024 44.5541 52.7986C44.0599 52.703 43.9929 52.6631 44.1928 52.5838C44.587 52.4275 44.5182 52.2371 43.9333 51.8661C43.3441 51.4924 41.8983 51.2175 41.2003 51.3464C40.852 51.4108 40.8263 51.3967 40.9488 51.2081C41.2895 50.6845 39.9676 50.6336 38.5713 51.1164C37.7306 51.4072 37.4521 51.5563 36.9805 51.969C36.3473 52.5227 35.401 53.8032 35.4288 54.0683C35.4386 54.1618 35.6319 53.9524 35.8581 53.603C36.6435 52.3907 37.8663 51.5799 39.4008 51.2542C40.3188 51.0592 40.552 51.1037 40.3379 51.4327C40.18 51.6756 40.3836 51.8583 40.6841 51.7432C41.0766 51.5929 42.0895 51.6753 42.907 51.9242C43.806 52.1977 43.9836 52.3532 43.6595 52.583C43.3591 52.796 43.4868 52.932 44.0495 52.998C45.0553 53.1161 47.8832 54.3107 47.8378 54.5984C47.828 54.6605 47.5113 54.7577 47.1341 54.8144C46.4204 54.9216 45.0452 55.4125 44.9687 55.5873C44.9446 55.6425 45.0548 55.7385 45.2139 55.8004C45.4895 55.9079 45.4808 55.9219 45.0222 56.1038C44.7578 56.2087 44.533 56.3477 44.5228 56.4128C44.5125 56.4779 44.7596 56.7308 45.0717 56.9747C45.9546 57.6648 47.0015 59.2919 46.6517 59.4306C46.6021 59.4503 46.4616 59.4228 46.3395 59.3696C45.9765 59.2112 45.9737 59.3993 46.3301 59.9789C46.741 60.647 46.9323 61.8473 46.7742 62.7654C46.6612 63.4211 46.5218 63.5887 46.2728 63.3677C46.0167 63.1405 45.8602 63.3307 45.8108 63.9297C45.7841 64.2509 45.6503 64.782 45.5131 65.1099C45.2766 65.6755 44.583 66.7073 44.387 66.7851C44.337 66.8049 44.3185 66.5525 44.3459 66.2241C44.4072 65.4926 44.1991 64.9972 43.8835 65.1223C43.6997 65.1952 43.5986 65.1024 43.2381 64.5301C42.538 63.4184 42.3567 63.228 42.1517 63.3895C41.9984 63.5101 41.8976 63.4302 41.45 62.8329C40.853 62.0364 40.3755 60.738 40.3998 59.9777C40.4185 59.3982 40.2081 59.3427 40.036 59.8816C39.567 61.3509 39.4256 61.6966 39.187 61.9604C38.9357 62.2381 38.9146 62.2432 38.8188 62.051C38.6469 61.706 38.403 61.7876 38.176 62.2662C37.8935 62.8621 37.228 63.913 37.1015 63.9631C37.047 63.9847 36.8115 63.5474 36.5782 62.9912L36.154 61.9799L35.8434 62.1031C35.5999 62.1996 35.5072 62.176 35.4147 61.9937C35.3192 61.8058 35.2897 61.7996 35.2604 61.9618C35.197 62.312 35.4408 62.6531 35.7243 62.6109C36.0548 62.5619 36.33 63.0695 36.458 63.9651C36.5645 64.7105 36.7532 64.8002 37.2443 64.3395C37.6175 63.9892 38.2362 63.119 38.3388 62.8C38.4303 62.5158 38.594 62.446 38.6948 62.6484C38.8511 62.9621 39.3937 62.4418 39.8462 61.5445L40.1278 60.9859L40.382 61.6805C40.554 62.1507 40.8502 62.6509 41.2986 63.2287C42.0107 64.1461 42.2339 64.3134 42.4687 64.1055C42.5978 63.9914 42.6729 64.0959 43.0102 64.8604C43.3911 65.7236 43.409 65.7448 43.6619 65.635C43.8048 65.5729 43.9302 65.5389 43.9405 65.5595C44.0387 65.7567 43.9193 66.4955 43.7207 66.9184C43.5851 67.2076 43.5042 67.505 43.5413 67.5793C43.7299 67.9579 45.0024 66.8938 45.5878 65.8682C45.7614 65.5639 45.9771 64.9441 46.0669 64.4908C46.1567 64.0375 46.2665 63.7392 46.3106 63.8279C46.5585 64.3254 47.0632 63.6389 47.1905 62.6313C47.2748 61.9635 47.0925 60.6013 46.855 60.1247C46.6756 59.7646 46.6786 59.7587 46.9965 59.8502C47.3091 59.9403 47.3209 59.9351 47.3111 59.7136C47.3055 59.5871 47.0672 59.0175 46.7814 58.448C46.2944 57.477 46.1256 57.2644 45.29 56.5688C45.1135 56.4219 45.1445 56.3961 45.6806 56.2445C46.2976 56.0698 46.2908 56.1021 45.7994 55.6827C45.5902 55.5041 47.2204 55.0238 48.0497 55.0197C48.7499 55.0163 48.9304 54.9805 48.869 54.8575C48.8477 54.8148 48.366 54.489 47.7987 54.1335ZM45.2855 54.2242C43.7798 54.1107 42.7052 54.091 41.7744 54.1596C41.2897 54.1954 40.8346 54.2093 40.7631 54.1904C40.5919 54.1453 41.4357 53.3424 42.1195 52.9C42.4165 52.7079 42.6465 52.5246 42.6307 52.4929C42.569 52.369 41.3948 53.0843 40.6658 53.6899L39.8981 54.3277L38.8679 54.5386C38.0345 54.7093 37.7204 54.7159 37.2242 54.5734C36.0253 54.2291 34.2861 54.0624 31.7666 54.0502C30.5729 54.0444 30.4443 53.9178 31.5676 53.854C32.5944 53.7958 33.0755 53.5914 33.3483 53.0979C33.6264 52.5944 33.7016 52.5681 34.6459 52.6453C35.906 52.7481 36.1815 52.5369 36.0362 51.5798C35.9338 50.9056 36.1731 50.7813 37.5567 50.7895C38.9627 50.798 39.2862 50.7409 39.6252 50.4248C40.2257 49.8649 39.8382 48.688 38.7715 47.8325L38.3321 47.48L38.5046 47.1215C38.9592 46.1769 38.5231 45.03 37.5133 44.5144C37.2524 44.3811 37.1084 44.224 37.0717 44.0327C37.0065 43.6947 36.3337 43.1396 35.6609 42.8688L35.1946 42.6812L35.7254 43.0333C36.3563 43.4519 36.7888 44.0633 36.4837 44.1056C35.883 44.1888 35.52 44.3448 35.4548 44.5478C35.2847 45.077 36.2684 45.297 36.7826 44.8448C36.9764 44.6743 37.0741 44.6642 37.3119 44.7905C38.003 45.1574 38.3856 46.0692 38.1494 46.7856L38.0055 47.222L37.285 47.008C36.5137 46.7789 36.06 46.86 35.8858 47.2581C35.6568 47.7817 36.2648 48.1997 37.0858 48.0831C37.3827 48.041 37.7161 47.9423 37.827 47.8637C38.1865 47.6087 39.3316 48.7182 39.5452 49.5285C39.7306 50.2318 39.4305 50.374 37.8062 50.352C37.0362 50.3416 36.2725 50.3861 36.1091 50.4509C35.7244 50.6035 35.5575 51.0591 35.6703 51.6485C35.8137 52.3979 35.6328 52.5082 34.5331 52.3413C34.0111 52.2621 33.4979 52.2315 33.3926 52.2733C33.2873 52.315 33.087 52.5598 32.9475 52.8171C32.6939 53.2854 32.2721 53.5464 31.7325 53.5689C31.3013 53.5869 31.591 53.2894 32.7409 52.5328C34.0351 51.6814 34.5781 51.081 34.9581 50.082C35.2588 49.2914 35.248 48.9029 34.9169 48.6018C34.4669 48.1926 33.9945 48.5428 33.9053 49.3517C33.8241 50.0884 33.1565 51.3242 32.604 51.7609C31.8638 52.3458 30.4021 53.2313 29.9583 53.3636L29.5595 53.4824L29.8727 53.1238C30.8701 51.9818 31.0396 50.9117 30.4201 49.6684C30.0579 48.9414 30.1483 48.4014 30.7251 47.8448C31.1724 47.4133 31.5262 46.8506 31.4483 46.6944C31.4257 46.649 31.2724 46.8034 31.1076 47.0374C30.7196 47.5885 30.594 47.6308 30.5254 47.2335C30.4181 46.6124 30.2489 46.0047 30.1129 45.752C29.9997 45.5415 29.9831 45.537 30.0193 45.727C30.0436 45.8539 30.071 46.0945 30.0803 46.2615L30.0971 46.5653L29.7241 46.4028L29.3512 46.2403L29.5682 46.4646C30.0406 46.9531 30.172 47.2004 30.147 47.5537C30.1199 47.9364 29.8719 48.5328 29.7579 48.4891C29.5353 48.4034 28.3022 47.4329 28.2287 47.2854C28.1798 47.1871 28.1886 46.8824 28.2485 46.6083C28.369 46.0562 28.2048 45.2671 27.9873 45.3534C27.9143 45.3823 27.9 45.4972 27.9554 45.6085C28.0969 45.8925 28.0729 46.4423 27.9197 46.4244C27.8496 46.4161 27.7462 46.317 27.6899 46.204C27.5823 45.9879 26.7008 45.3085 26.6572 45.408C26.6433 45.4398 26.7986 45.6211 27.0022 45.8109C27.3869 46.1693 27.8358 46.9273 27.7626 47.0947C27.6842 47.2738 26.5217 46.9228 26.2212 46.6292C26.057 46.4687 25.6886 46.2673 25.4029 46.1816L24.8832 46.0258L25.3245 46.2999C25.9359 46.6797 25.9822 46.8181 25.4909 46.798C24.9043 46.774 23.6744 46.9048 23.6348 46.9953C23.6158 47.0387 23.8757 47.0763 24.2125 47.0788C24.7624 47.0828 24.7931 47.097 24.5141 47.2171C24.3431 47.2906 24.083 47.4566 23.9359 47.5859C23.7331 47.7643 23.5403 47.8259 23.1372 47.8406C22.5563 47.862 21.6828 48.1666 21.4973 48.4125C21.4187 48.5167 21.1544 48.5391 20.6952 48.4803C19.5566 48.3347 18.467 48.9092 18.0954 49.851C17.9079 50.3259 17.9079 50.8328 18.0954 51.209C18.2066 51.4322 18.1695 51.4819 17.7747 51.6385C17.5291 51.7359 17.1217 52.0371 16.8692 52.3077C16.2306 52.9921 16.1635 53.6592 16.6408 54.5782L16.9928 55.2561L16.5496 55.6395C16.1222 56.0092 16.0907 56.0201 15.6651 55.9448C15.0798 55.8413 13.9754 56.063 13.4374 56.3922C12.7774 56.796 12.4275 57.7654 12.6339 58.6184L12.7945 59.2818L12.3308 59.3191C11.9892 59.3467 11.7573 59.2691 11.4491 59.0242C10.1551 57.9956 7.84385 58.6171 7.6171 60.0546C7.55787 60.4309 7.46256 60.5496 7.02767 60.7891C6.01455 61.3472 5.6547 62.3504 6.1274 63.2991C6.33 63.7057 6.34845 63.8824 6.2172 64.1569C5.87337 64.8757 6.4267 66.1606 7.28444 66.6351C8.27628 67.1839 10.0579 66.8834 10.5748 66.0801L10.809 65.7162L11.3872 65.9228C12.5535 66.3395 13.687 66.0284 14.3509 65.1094C14.5989 64.7661 14.7465 64.6505 14.879 64.6953C14.9801 64.7294 15.1844 64.7092 15.3328 64.6503C15.5434 64.5668 15.6316 64.601 15.7336 64.8058C16.2529 65.8481 18.4088 66.2773 19.4534 65.5463C20.0054 65.1598 20.8186 65.1445 21.0062 65.5169C21.1931 65.8882 21.8925 66.2503 22.6846 66.386C23.2485 66.4826 23.4631 66.4562 24.1092 66.2102C24.7077 65.9822 24.9483 65.9447 25.2391 66.0337C25.7781 66.1986 26.8135 66.1755 27.2865 65.9879C27.7744 65.7944 28.4028 65.1918 28.5558 64.7707C28.616 64.6052 28.6461 64.2685 28.6229 64.0225L28.5807 63.5752L29.3388 63.2997C29.9511 63.0771 30.1533 62.9476 30.3906 62.6263C30.6736 62.2432 31.7428 61.6727 31.8341 61.856C31.9201 62.0285 33.0447 62.3933 33.4608 62.3837C34.494 62.3596 35.3917 61.7065 35.7408 60.7249C35.9333 60.1836 35.8628 59.364 35.5986 59.0704C35.4981 58.9586 35.5021 58.8471 35.6098 58.7621C36.6858 57.9139 36.9789 57.2113 36.7072 56.1329L36.5885 55.6617L36.8483 56.1524C37.2177 56.8498 37.1881 57.3786 36.7437 58.0188C36.2612 58.7137 36.405 58.7944 36.9435 58.1309L37.3479 57.6325L37.3859 57.9094C37.5225 58.9056 37.4185 60.94 37.1652 62.2307C37.1253 62.4343 37.1479 62.579 37.2155 62.5522C37.3378 62.5037 37.8165 59.8334 37.8212 59.1735C37.8246 58.6998 38.0675 58.8626 38.4357 59.5851C38.6734 60.0515 38.7308 60.1086 38.7566 59.9039C38.7767 59.7445 38.6083 59.3539 38.289 58.8191C37.9456 58.244 37.7293 57.726 37.5954 57.158C37.4745 56.6449 37.2346 56.0476 36.9612 55.5787L36.5214 54.8248L37.8419 55.3067C39.2359 55.8154 40.5363 56.6266 41.395 57.5233L41.8558 58.0043L41.7318 58.8579C41.6115 59.686 41.688 61.7488 41.8408 61.8005C41.8824 61.8145 41.9376 61.2962 41.9633 60.6486C41.9891 60.001 42.0645 59.2628 42.1309 59.0083L42.2518 58.5453L42.5986 59.0091C43.2187 59.8384 44.464 62.5137 44.5981 63.3048C44.7388 64.1332 44.7603 64.1934 44.8679 64.0541C45.0101 63.87 44.7655 62.6925 44.3296 61.462L43.904 60.2608L44.5506 60.6618C44.9064 60.8823 45.297 61.1774 45.4186 61.3176C45.6413 61.5744 45.9533 61.7002 45.8492 61.4913C45.7206 61.2332 44.7145 60.3807 44.154 60.0548C43.6855 59.7826 43.4257 59.52 42.9936 58.8822C41.9159 57.2915 41.0311 56.4366 39.6202 55.6231C39.1219 55.3359 38.7275 55.0709 38.7435 55.0344C38.7594 54.9979 39.3174 54.8745 39.9834 54.7603C41.3162 54.5317 41.4923 54.5645 43.0342 55.3282C43.4776 55.5478 43.8546 55.6949 43.872 55.655C43.8894 55.6152 43.544 55.375 43.1042 55.1212C42.6645 54.8674 42.2855 54.6211 42.2619 54.5738C42.2086 54.4669 43.2549 54.4181 44.9749 54.4471C46.4624 54.4723 46.6633 54.3281 45.2855 54.2242ZM36.0047 44.8424C35.859 44.8572 35.7206 44.8309 35.6972 44.7838C35.6194 44.6277 35.9566 44.4264 36.2639 44.4453C36.538 44.4623 36.5526 44.4806 36.4181 44.6397C36.3364 44.7363 36.1503 44.8275 36.0047 44.8424ZM36.7186 47.7593C36.1774 47.708 35.9844 47.4763 36.3246 47.2865C36.4661 47.2075 36.7736 47.2277 37.1238 47.339C37.6745 47.5139 37.6848 47.5244 37.4432 47.662C37.3058 47.7404 36.9797 47.784 36.7186 47.7593ZM30.9479 44.1171C30.384 43.4774 29.8845 43.0903 29.474 42.9752C29.1278 42.8782 29.1258 42.8795 29.2481 43.1248C29.3568 43.3432 29.2772 43.3339 28.5722 43.0464C27.737 42.7056 25.9991 42.5413 25.4665 42.7525C25.2021 42.8574 25.2041 42.868 25.544 43.1524C25.7361 43.313 25.9138 43.4857 25.939 43.5362C25.9641 43.5867 25.6963 43.7155 25.3436 43.8225L24.7025 44.0169L25.0928 44.1654C25.6808 44.3891 25.703 44.5702 25.1388 44.5398C24.4587 44.5031 23.6536 44.7284 22.7713 45.2023C21.7643 45.7432 21.6498 45.8406 21.6991 46.1131C21.7278 46.272 21.6393 46.3815 21.4071 46.4744C21.0185 46.6299 20.1733 47.4553 20.0693 47.7807C20.007 47.976 20.1069 48.0073 20.847 48.024C21.523 48.0393 21.6558 48.0154 21.4984 47.907C21.3895 47.8321 21.2337 47.7631 21.152 47.7535C21.0703 47.7439 20.9716 47.6722 20.9327 47.5941C20.847 47.4221 21.8073 46.5628 22.3065 46.3648C22.5597 46.2644 22.6535 46.158 22.6255 46.0032C22.581 45.7572 22.9478 45.4893 23.779 45.1607C24.5393 44.8601 25.1949 44.7937 25.6688 44.969C26.3162 45.2087 26.4687 45.0646 26.1049 44.5568C25.8076 44.1417 25.8077 44.1236 26.1102 43.9649C26.3683 43.8297 26.3947 43.7592 26.2628 43.5588C26.1752 43.4255 26.0994 43.2447 26.0947 43.1571C26.071 42.7215 28.4893 43.2185 29.1665 43.7885C29.476 44.0489 29.5724 44.0514 29.6819 43.8012C29.7335 43.6832 29.9275 43.8054 30.3775 44.2392C31.1669 45.0001 31.7612 46.1271 31.8435 47.0195C31.9164 47.8082 31.5227 48.8743 30.9964 49.3138C30.6161 49.6314 30.6142 49.6396 30.9529 49.5086C31.7937 49.1832 32.4035 47.8742 32.2415 46.7421C32.1393 46.0265 31.5157 44.7612 30.9479 44.1171ZM36.2102 55.4272C36.0642 55.2737 35.6062 55.0095 35.1923 54.8401L34.4399 54.5321L34.9624 54.5961C35.5538 54.6685 36.1788 55.0476 36.3563 55.4414C36.4663 55.6856 36.4547 55.6845 36.2102 55.4272ZM36.258 57.0248C36.1618 57.7602 35.6189 58.3924 34.9117 58.5925C34.1629 58.8044 33.3729 58.7369 32.9144 58.422C32.536 58.1621 32.5279 58.1454 32.6378 57.8552C32.8316 57.3436 32.8146 56.6897 32.5914 56.0674L32.3769 55.4696L32.9127 55.2195C33.5288 54.932 34.0449 54.9258 34.8459 55.1965C35.9092 55.5559 36.3718 56.1548 36.258 57.0248ZM33.7076 54.613C33.4845 54.6302 33.034 54.7701 32.7067 54.924C32.1432 55.189 32.0803 55.1917 31.5255 54.975C31.1823 54.8408 30.6464 54.7618 30.232 54.7842C29.7577 54.8099 29.5738 54.7776 29.6744 54.6863C29.8453 54.5309 31.0403 54.4467 32.8319 54.4638C34.0446 54.4754 34.4964 54.5524 33.7076 54.613ZM35.4493 60.1112C35.3915 61.5246 33.6668 62.3532 32.3974 61.5774C31.4664 61.0086 31.24 59.4134 31.9875 58.6902L32.3793 58.311L32.8057 58.6243C33.2804 58.9732 34.1144 59.1409 34.7426 59.0139C35.1001 58.9417 35.1768 58.9731 35.3136 59.2476C35.4005 59.4221 35.4616 59.8107 35.4493 60.1112ZM30.0351 50.2435C29.6787 50.8384 29.4945 50.8117 29.1413 50.1142C28.8786 49.595 28.7361 49.4482 28.241 49.1872C27.7571 48.9319 27.6589 48.833 27.6859 48.6274C27.7159 48.3993 27.8114 48.3389 28.4786 48.126C28.5653 48.0985 28.7837 48.1986 28.9639 48.3488C29.3521 48.672 29.2878 48.8492 28.744 48.9542C28.5413 48.9934 28.4138 49.0673 28.4441 49.1282C28.4731 49.1863 28.7405 49.1842 29.0385 49.1234C29.5007 49.0289 29.6135 49.0536 29.8082 49.291C30.2132 49.7852 30.2407 49.9003 30.0351 50.2435ZM30.2463 51.8038C30.1055 52.1476 29.1694 53.3274 28.9771 53.4036C28.9393 53.4186 28.763 53.3278 28.5851 53.2018L28.2616 52.9726L28.6929 52.5922C28.9301 52.3829 29.1998 52.0038 29.2923 51.7496C29.3848 51.4954 29.6696 51.1146 29.925 50.9033L30.3896 50.5192L30.3991 50.9636C30.4043 51.2082 30.3355 51.5862 30.2463 51.8038ZM27.8864 48.0007C27.7247 48.0649 27.5734 48.0033 27.384 47.7965C27.0171 47.3954 27.0749 47.3312 27.5948 47.5625C28.1302 47.8005 28.1847 47.8825 27.8864 48.0007ZM32.2603 57.0418C32.2098 57.7972 31.9468 58.2134 31.3213 58.5279C30.0289 59.1775 28.5022 58.8363 27.9759 57.78C27.7745 57.3759 27.7809 57.3543 28.147 57.2066C28.7182 56.9759 29.2649 56.3643 29.4891 55.7052C29.6856 55.1272 29.698 55.1159 30.1881 55.0617C30.4625 55.0314 30.9202 55.1011 31.2052 55.2168C31.6443 55.3951 31.7666 55.5142 32.0076 55.9979C32.1855 56.3549 32.2801 56.7456 32.2603 57.0418ZM29.0161 51.3839C28.9784 51.9676 28.8623 52.1888 28.388 52.58C28.0529 52.8566 27.9619 52.8769 27.2353 52.8368C26.8015 52.8128 26.3746 52.8217 26.2867 52.8566C26.1986 52.8915 25.9061 52.7991 25.6363 52.6512C24.981 52.2919 24.5761 51.5147 24.7107 50.8742C25.0073 49.4621 27.0928 48.8162 28.2832 49.7678C28.7338 50.1279 29.0518 50.8294 29.0161 51.3839ZM27.3941 48.656C27.373 48.7788 27.2238 48.8262 26.7589 48.858C25.9958 48.9101 25.2397 49.3172 24.8328 49.8952L24.5416 50.3087L24.1985 49.954C23.7702 49.5115 23.6517 48.8662 23.9023 48.3421C24.137 47.8514 25.0814 47.3848 25.8122 47.3984C26.5891 47.413 27.4854 48.1255 27.3941 48.656ZM29.1127 55.1922C29.0975 55.7165 28.6107 56.4051 28.0309 56.7225C27.1479 57.2057 25.5544 56.8646 24.9285 56.0581C24.2604 55.1971 24.7494 53.7146 25.8448 53.2801C26.3563 53.0773 27.3638 53.0286 27.7896 53.1862C28.6442 53.5026 29.14 54.2542 29.1127 55.1922ZM31.2962 60.9739L31.5222 61.5938L31.1232 61.6691C30.1386 61.8548 29.4772 61.6457 29.0631 61.0177C28.6897 60.4511 28.6282 60.1073 28.8044 59.5726L28.9467 59.1413L29.5105 59.2294C29.8207 59.2778 30.3178 59.2825 30.6153 59.2398L31.1563 59.1622L31.1133 59.758C31.0895 60.0858 31.1719 60.6328 31.2962 60.9739ZM23.4586 49.5604C23.5916 49.8273 23.8536 50.1541 24.0407 50.2868C24.354 50.5087 24.3824 50.5713 24.3966 51.0715C24.4051 51.3704 24.3287 51.6809 24.2269 51.7615C23.6298 52.2341 22.2894 52.0103 21.6725 51.3351C20.758 50.3341 21.4155 48.4719 22.7633 48.2459C23.3266 48.1514 23.3586 48.1756 23.2855 48.6393C23.2421 48.915 23.3056 49.2533 23.4586 49.5604ZM28.9336 63.0282C28.3978 63.136 28.3545 63.1207 27.8748 62.6561C27.5196 62.312 27.1817 62.1202 26.7089 61.9945C25.9132 61.7826 25.9059 61.6169 26.6943 61.6577C27.1279 61.6803 27.4062 61.6172 27.8684 61.3918L28.4742 61.0964L28.7869 61.4196C28.9589 61.5974 29.3701 61.8295 29.7006 61.9354L30.3017 62.1281L29.897 62.5219C29.5748 62.8353 29.3784 62.9385 28.9336 63.0282ZM28.3958 59.6102C28.2799 59.9206 28.2183 60.2412 28.2587 60.3224C28.5069 60.8205 27.497 61.3963 26.6056 61.265C26.007 61.1768 25.1734 60.6187 24.9396 60.1495C24.7567 59.7823 24.8612 59.0895 25.1726 58.604C25.4553 58.1632 26.2365 57.7701 26.8581 57.7556C27.2734 57.746 27.3998 57.8047 27.63 58.1143C27.7814 58.318 28.0373 58.572 28.1989 58.6786C28.6217 58.9577 28.6281 58.9878 28.3958 59.6102ZM25.2675 53.2613C24.9328 53.3945 24.4307 54.013 24.2782 54.4799L24.1609 54.8391L23.8806 54.4561C23.7265 54.2454 23.298 53.9057 22.9284 53.701C22.2204 53.309 22.1349 53.1503 22.3372 52.6033L22.4531 52.2897L23.2236 52.2947C23.7205 52.298 24.085 52.2366 24.25 52.1219C24.4747 51.9657 24.5238 51.9788 24.6541 52.2291C24.7357 52.3858 24.9447 52.6252 25.1187 52.7611C25.5561 53.103 25.5676 53.1416 25.2675 53.2613ZM24.7895 58.3521C24.6424 58.5348 24.4257 58.6889 24.3081 58.6947C24.0702 58.7064 23.5891 58.39 23.2538 58.0014C23.0682 57.7863 23.0719 57.7322 23.2773 57.6507C23.6331 57.5096 24.0136 57.0472 24.174 56.5606L24.3147 56.1341L24.6645 56.5303C24.8789 56.773 25.2642 57.0142 25.6603 57.1535L26.3061 57.3807L25.6816 57.7004C25.3381 57.8762 24.9366 58.1695 24.7895 58.3521ZM20.8157 50.6181C20.9706 51.1211 21.22 51.5245 21.5364 51.7842C21.6745 51.8973 21.6323 51.9724 21.3249 52.1608C20.1248 52.8964 18.2121 51.5909 18.4889 50.2252C18.655 49.4052 19.556 48.7996 20.5363 48.849L21.0022 48.8726L20.8323 49.4961C20.7254 49.8882 20.7193 50.3047 20.8157 50.6181ZM28.1193 64.2581C28.0947 66.1293 24.679 66.2506 24.1905 64.3975C24.0988 64.0498 24.1201 64.021 24.6127 63.8256C25.2386 63.5774 25.7782 63.0927 26.0294 62.5531C26.2133 62.158 26.218 62.1554 26.5675 62.2532C27.0538 62.3893 27.7282 62.9374 27.9453 63.3731C28.0447 63.5726 28.123 63.9709 28.1193 64.2581ZM23.8521 55.8823C23.8445 56.1171 23.7274 56.5213 23.5918 56.7803C23.388 57.1695 23.2433 57.2917 22.7587 57.4839C22.4361 57.6118 21.9521 57.7216 21.6832 57.7279C21.2106 57.7389 21.1909 57.7249 21.093 57.3101C20.9122 56.5436 20.4787 55.8473 19.991 55.5399C19.5537 55.2644 19.541 55.2432 19.6448 54.9656C20.2233 53.42 22.8452 53.4114 23.6148 54.9528C23.7528 55.2292 23.8596 55.6475 23.8521 55.8823ZM21.8777 53.158C21.9772 53.3577 21.9669 53.3646 21.5318 53.3873C21.2624 53.4013 21.1835 53.3443 21.0995 53.0743C21.0145 52.8017 21.057 52.7104 21.3433 52.5512C21.534 52.4451 21.7732 52.279 21.8746 52.1821C22.0283 52.0351 22.0368 52.0873 21.9256 52.4961C21.8522 52.7657 21.8307 53.0636 21.8777 53.158ZM25.8388 62.1137C25.8073 62.5579 25.2231 63.2043 24.6405 63.4394C24.117 63.6508 23.2349 63.5942 22.6984 63.3151C22.351 63.1341 22.1877 62.9485 21.9414 62.4543C21.675 61.9196 21.6492 61.7445 21.7706 61.2983C21.8493 61.0091 22.0574 60.6376 22.2332 60.4727C22.6042 60.1247 23.4465 59.7652 23.9527 59.7387C24.2742 59.722 24.3297 59.7717 24.6033 60.3208C24.8033 60.7221 25.0376 61.0108 25.3104 61.1919C25.8152 61.527 25.8731 61.628 25.8388 62.1137ZM24.094 59.3272C23.9281 59.3666 23.3923 59.5511 22.9033 59.7374L22.0141 60.0761L21.8849 59.5459C21.7975 59.1873 21.6334 58.8708 21.3776 58.5677C21.1697 58.3214 21.0103 58.0951 21.0236 58.0649C21.0368 58.0347 21.3275 58.0171 21.6696 58.0258C22.0115 58.0345 22.3803 58.0064 22.4891 57.9633C22.6098 57.9154 22.7278 57.9672 22.7921 58.0964C22.9417 58.3966 23.7276 58.9352 24.0784 58.9778C24.467 59.0251 24.4765 59.2366 24.094 59.3272ZM20.4886 53.6662C19.9648 53.8739 19.2641 54.5803 19.2335 54.9312C19.2137 55.1607 19.1837 55.1786 18.9373 55.1076C18.7866 55.0642 18.365 55.0332 18.0005 55.0387L17.3379 55.0487L17.0494 54.4697C16.8907 54.1512 16.7727 53.724 16.787 53.5204C16.8259 52.9705 17.266 52.3481 17.8394 52.0323L18.3444 51.754L18.9085 52.1605C19.2188 52.3841 19.723 52.6242 20.0289 52.6939C20.4598 52.7922 20.6231 52.8968 20.7531 53.1578C20.9121 53.477 20.8982 53.5037 20.4886 53.6662ZM20.7484 57.7587L20.7174 58.0554L20.3915 57.9283C19.9413 57.7529 18.7503 57.9158 18.2267 58.2245C17.7112 58.5286 17.5705 58.4575 17.5584 57.8873C17.5464 57.3261 17.1343 56.4937 16.7735 56.3022C16.5174 56.1661 16.5139 56.1354 16.7299 55.9193C17.0843 55.5652 17.4778 55.45 18.2257 55.4814C18.973 55.5127 19.321 55.6204 19.828 55.977C20.2377 56.2653 20.7922 57.3386 20.7484 57.7587ZM21.551 59.8441C21.6391 60.384 21.1983 61.2746 20.6461 61.6722C20.1339 62.0408 19.3717 62.1773 18.885 61.9876C18.702 61.9162 18.3358 61.8479 18.0714 61.8357L17.5907 61.8135L18.0274 61.3328C18.6156 60.6856 18.7214 59.6881 18.2767 58.9821C17.991 58.5286 17.9913 58.5055 18.2852 58.3897C19.1509 58.0482 20.3023 58.1622 20.9017 58.6487C21.283 58.9581 21.4591 59.2825 21.551 59.8441ZM24.0241 64.9282C24.0951 65.0707 24.2566 65.3001 24.3828 65.4377C24.609 65.6846 24.6046 65.6912 24.0703 65.9031C23.7722 66.0214 23.3105 66.114 23.0442 66.1091C21.6094 66.0823 20.6511 64.794 21.3516 63.8337C21.6727 63.3937 21.9689 63.3356 22.4252 63.6233C22.6502 63.765 23.0367 63.9012 23.2841 63.9257C23.6778 63.9649 23.744 64.0141 23.8144 64.3198C23.8585 64.5119 23.9529 64.7857 24.0241 64.9282ZM21.5428 62.6376C21.7326 63.0223 21.7239 63.085 21.4569 63.2527C21.0382 63.516 20.7217 64.096 20.732 64.5814C20.7396 64.9396 20.7027 64.9921 20.4541 64.9768C20.0846 64.954 20.0512 64.8708 20.1733 64.2803C20.2866 63.7327 20.098 62.9752 19.741 62.5444L19.5036 62.2579L19.9276 62.2253C20.1608 62.2073 20.5514 62.0771 20.7954 61.936C21.2175 61.6917 21.2412 61.6922 21.2852 61.9443C21.3104 62.0901 21.4264 62.402 21.5428 62.6376ZM17.3223 57.9894C17.3354 58.0881 17.1497 58.1185 16.7158 58.0888C15.5657 58.0098 14.5764 58.4267 14.0505 59.2121C13.768 59.6341 13.7549 59.6354 13.417 59.2704C12.6241 58.4138 12.9663 56.9734 14.0619 56.5563C14.6615 56.328 15.6566 56.2934 16.1339 56.4845C16.7838 56.7446 17.2312 57.3111 17.3223 57.9894ZM18.1698 60.1742C18.0152 60.9156 17.7143 61.276 17.0195 61.5515C15.891 61.9991 14.8607 61.7087 14.4169 60.8179C13.936 59.8527 14.2969 59.1016 15.4637 58.6388C16.1401 58.3706 17.0133 58.3572 17.4855 58.6079C17.9362 58.8472 18.2817 59.6379 18.1698 60.1742ZM19.7497 63.5922C19.9428 64.6 19.3073 65.3865 18.1954 65.5161C16.7092 65.6894 15.5311 64.4741 15.9651 63.2156C16.3046 62.2314 18.2902 61.8212 19.1878 62.5499C19.5837 62.8714 19.6271 62.9516 19.7497 63.5922ZM15.6394 63.2688C15.5581 63.5153 15.5046 63.8239 15.5205 63.9545C15.5531 64.2228 15.2225 64.4033 14.9314 64.2763C14.7922 64.2155 14.7274 64.0592 14.6994 63.7165C14.6779 63.455 14.6212 63.1567 14.5734 63.054C14.5256 62.9512 14.5868 62.6376 14.7095 62.3572L14.9325 61.8473L15.3125 61.988C15.5215 62.0654 15.8764 62.1239 16.1014 62.1181L16.5102 62.1075L16.1487 62.4641C15.9498 62.6602 15.7206 63.0224 15.6394 63.2688ZM14.252 61.3214C14.588 61.664 14.6172 61.879 14.3893 62.3319C14.2534 62.602 14.2375 62.6023 13.8107 62.345C13.2865 62.0288 12.6702 61.9058 11.8005 61.9438C11.4476 61.9592 11.25 61.9331 11.3615 61.8857C11.7012 61.7411 12.1343 60.7164 12.0649 60.2214C12.0297 59.9698 12.0479 59.7452 12.1054 59.7224C12.3266 59.6347 13.0508 59.7288 13.3975 59.8903C13.7107 60.0362 13.7726 60.1237 13.8496 60.5307C13.9124 60.8628 14.0314 61.0966 14.252 61.3214ZM14.2433 64.1513C14.1406 65.0831 13.2224 65.7355 12.0844 65.6854C11.2945 65.6505 10.7891 65.318 10.4288 64.5961C9.75903 63.2543 10.7907 62.1537 12.5774 62.3038C13.6486 62.3938 14.3513 63.1729 14.2433 64.1513ZM11.5401 60.583C11.372 61.5662 10.5879 62.1797 9.6356 62.0731C9.00351 62.0024 8.61786 61.7681 8.23989 61.2253C7.82156 60.6244 7.91446 59.9603 8.4967 59.391C9.14597 58.7563 10.1281 58.6883 10.9948 59.2179C11.5248 59.5417 11.6602 59.8806 11.5401 60.583ZM10.1245 63.0134C9.98385 63.2821 9.85711 63.6659 9.84292 63.8662C9.81247 64.2971 9.5411 64.434 8.72367 64.4308C6.7713 64.4232 5.61867 62.4806 6.8974 61.3526C7.46584 60.851 7.7126 60.8384 7.94231 61.2995C8.29166 62.0006 9.10889 62.472 9.9379 62.4505C10.1579 62.4447 10.3475 62.4592 10.3591 62.4825C10.3707 62.5058 10.2651 62.7447 10.1245 63.0134ZM10.3406 65.9012C9.9172 66.3012 9.00392 66.6142 8.42155 66.5589C7.35425 66.4576 6.53622 65.582 6.56854 64.5754C6.58141 64.175 6.7306 63.9455 6.83794 64.1609C6.94058 64.3669 7.883 64.672 8.42321 64.6741C8.73618 64.6754 9.18817 64.5999 9.42752 64.5065L9.86257 64.3367L10.177 64.8638C10.3498 65.1537 10.5272 65.4398 10.5713 65.4994C10.6153 65.559 10.5115 65.7398 10.3406 65.9012Z" fill="#D7B76F"/>
<path d="M3.744 69.588V79.38C4.44 79.788 5.388 79.992 6.588 79.992C8.016 79.992 9.276 79.602 10.368 78.822C10.92 78.426 11.358 77.874 11.682 77.166C12.006 76.458 12.168 75.66 12.168 74.772C12.168 73.872 11.988 73.074 11.628 72.378C11.28 71.682 10.824 71.124 10.26 70.704C9.12 69.84 7.944 69.408 6.732 69.408L3.744 69.588ZM3.492 68.4L7.956 68.22C9.624 68.22 10.938 68.76 11.898 69.84C12.87 70.92 13.356 72.366 13.356 74.178C13.356 75.978 12.66 77.568 11.268 78.948C9.888 80.316 8.268 81 6.408 81H0.72V80.46H1.332C1.692 80.46 1.926 80.394 2.034 80.262C2.142 80.13 2.196 79.932 2.196 79.668V69.732C2.196 69.456 2.136 69.258 2.016 69.138C1.908 69.006 1.68 68.94 1.332 68.94H0.72V68.4H3.492ZM16.4578 68.472C16.7338 68.472 16.9438 68.562 17.0878 68.742C17.2438 68.922 17.3218 69.156 17.3218 69.444C17.3218 69.72 17.2078 69.954 16.9798 70.146C16.7518 70.326 16.4998 70.416 16.2238 70.416C15.9598 70.416 15.7498 70.326 15.5938 70.146C15.4498 69.966 15.3778 69.744 15.3778 69.48C15.3778 69.204 15.4918 68.97 15.7198 68.778C15.9478 68.574 16.1938 68.472 16.4578 68.472ZM18.4378 81H14.8018V80.496H15.0898C15.4138 80.496 15.6178 80.442 15.7018 80.334C15.7978 80.226 15.8458 80.052 15.8458 79.812V74.412C15.8458 74.184 15.7678 74.022 15.6118 73.926C15.4678 73.818 15.1978 73.764 14.8018 73.764V73.26C15.0418 73.26 15.4018 73.176 15.8818 73.008C16.3738 72.828 16.7458 72.66 16.9978 72.504L17.3218 72.432V79.704C17.3218 79.896 17.3278 80.034 17.3398 80.118C17.3638 80.202 17.4358 80.286 17.5558 80.37C17.6758 80.454 17.8618 80.496 18.1138 80.496H18.4378V81ZM23.3018 81.252C22.2458 81.252 21.3638 80.856 20.6558 80.064C19.9478 79.272 19.5938 78.348 19.5938 77.292C19.5938 75.948 20.0978 74.79 21.1058 73.818C22.1258 72.846 23.1998 72.36 24.3278 72.36C25.4558 72.36 26.3618 72.762 27.0458 73.566C27.7418 74.358 28.0898 75.276 28.0898 76.32C28.0898 77.628 27.6038 78.78 26.6318 79.776C25.6718 80.76 24.5618 81.252 23.3018 81.252ZM20.8538 76.32C20.8538 77.436 21.1898 78.366 21.8618 79.11C22.5458 79.842 23.3078 80.208 24.1478 80.208C24.9998 80.208 25.6658 79.89 26.1458 79.254C26.6258 78.618 26.8658 77.964 26.8658 77.292C26.8658 76.272 26.5478 75.384 25.9118 74.628C25.2878 73.86 24.5258 73.476 23.6258 73.476C22.7258 73.476 22.0358 73.782 21.5558 74.394C21.0878 74.994 20.8538 75.636 20.8538 76.32ZM38.4996 81H35.4036V80.496H35.4756C35.6076 80.496 35.7156 80.43 35.7996 80.298C35.8956 80.166 35.9436 80.004 35.9436 79.812V75.24C35.9436 74.7 35.8116 74.292 35.5476 74.016C35.2956 73.728 34.9356 73.584 34.4676 73.584C33.7956 73.584 33.2016 73.944 32.6856 74.664C32.1696 75.384 31.9116 75.924 31.9116 76.284V79.704C31.9116 79.896 31.9176 80.034 31.9296 80.118C31.9536 80.202 32.0256 80.286 32.1456 80.37C32.2656 80.454 32.4516 80.496 32.7036 80.496H33.0276V81H29.3916V80.496H29.6796C30.0036 80.496 30.2076 80.442 30.2916 80.334C30.3876 80.226 30.4356 80.052 30.4356 79.812V74.412C30.4356 74.184 30.3576 74.022 30.2016 73.926C30.0576 73.818 29.7876 73.764 29.3916 73.764V73.26C29.6316 73.26 29.9916 73.176 30.4716 73.008C30.9636 72.828 31.3356 72.66 31.5876 72.504L31.9116 72.432V74.736C32.1876 73.98 32.6136 73.398 33.1896 72.99C33.7656 72.57 34.4676 72.36 35.2956 72.36C35.7276 72.36 36.0936 72.456 36.3936 72.648C36.6936 72.84 36.9096 73.086 37.0416 73.386C37.2696 73.902 37.3836 74.412 37.3836 74.916V79.776C37.3836 79.944 37.3956 80.07 37.4196 80.154C37.4796 80.382 37.7316 80.496 38.1756 80.496H38.4996V81ZM38.8945 85.176L39.1825 83.772H39.4345C39.4585 83.904 39.5665 84.048 39.7585 84.204C39.9505 84.372 40.1545 84.456 40.3705 84.456C41.1145 84.456 41.6425 84.204 41.9545 83.7C42.2665 83.196 42.5905 82.284 42.9265 80.964L40.1905 73.872C40.0825 73.62 39.9685 73.44 39.8485 73.332C39.7285 73.212 39.5425 73.152 39.2905 73.152H39.0385V72.612H42.5665V73.152H42.4585C41.9545 73.152 41.7025 73.296 41.7025 73.584C41.7025 73.644 41.7625 73.836 41.8825 74.16L43.7185 79.056L45.7345 73.98C45.8785 73.692 45.9505 73.512 45.9505 73.44C45.9505 73.332 45.8785 73.26 45.7345 73.224C45.6025 73.176 45.3265 73.152 44.9065 73.152H44.7625V72.612H48.1105V73.152H47.9305C47.5225 73.152 47.2405 73.212 47.0845 73.332C46.9285 73.452 46.7905 73.68 46.6705 74.016L43.0345 83.124C42.7105 83.916 42.3205 84.504 41.8645 84.888C41.4205 85.272 40.8145 85.464 40.0465 85.464C39.7585 85.464 39.3745 85.368 38.8945 85.176ZM48.9385 80.496L49.1185 78.552L49.6225 78.588C49.6225 78.996 49.8865 79.386 50.4145 79.758C50.9425 80.13 51.5125 80.316 52.1245 80.316C53.3845 80.316 54.0145 79.932 54.0145 79.164C54.0145 78.78 53.8525 78.438 53.5285 78.138C53.2045 77.838 52.8145 77.592 52.3585 77.4C51.9025 77.196 51.4465 76.992 50.9905 76.788C50.5345 76.572 50.1445 76.296 49.8205 75.96C49.4965 75.612 49.3345 75.216 49.3345 74.772C49.3345 73.212 50.4865 72.432 52.7905 72.432C53.3065 72.432 53.8705 72.576 54.4825 72.864L54.3745 74.664H53.9425C53.9425 74.328 53.7445 74.004 53.3485 73.692C52.9645 73.38 52.5445 73.224 52.0885 73.224C51.6325 73.224 51.2425 73.314 50.9185 73.494C50.6065 73.674 50.4505 73.944 50.4505 74.304C50.4505 74.652 50.6125 74.94 50.9365 75.168C51.2605 75.396 51.6505 75.582 52.1065 75.726C52.5625 75.87 53.0185 76.032 53.4745 76.212C53.9305 76.392 54.3205 76.686 54.6445 77.094C54.9685 77.502 55.1305 78.012 55.1305 78.624C55.1305 79.236 54.9325 79.746 54.5365 80.154C53.8285 80.886 52.8025 81.252 51.4585 81.252C50.4145 81.252 49.5745 81 48.9385 80.496ZM65.5289 81H62.9369V78.876C62.6609 79.632 62.2349 80.22 61.6589 80.64C61.0829 81.048 60.3809 81.252 59.5529 81.252C59.1209 81.252 58.7549 81.156 58.4549 80.964C58.1549 80.772 57.9389 80.526 57.8069 80.226C57.5789 79.71 57.4649 79.2 57.4649 78.696V74.412C57.4649 73.86 57.1169 73.584 56.4209 73.584V73.08C56.6609 73.08 57.0209 73.014 57.5009 72.882C57.9929 72.75 58.3529 72.612 58.5809 72.468L58.9049 72.432V78.372C58.9049 78.912 59.0309 79.326 59.2829 79.614C59.5469 79.89 59.9129 80.028 60.3809 80.028C61.0529 80.028 61.6469 79.668 62.1629 78.948C62.6789 78.228 62.9369 77.688 62.9369 77.328V74.412C62.9369 73.86 62.5889 73.584 61.8929 73.584V73.08C62.1569 73.08 62.5289 73.014 63.0089 72.882C63.5009 72.75 63.8609 72.612 64.0889 72.468L64.4129 72.432V79.776C64.4129 79.944 64.4249 80.07 64.4489 80.154C64.5089 80.382 64.7609 80.496 65.2049 80.496H65.5289V81ZM66.9385 80.496L67.1185 78.552L67.6225 78.588C67.6225 78.996 67.8865 79.386 68.4145 79.758C68.9425 80.13 69.5125 80.316 70.1245 80.316C71.3845 80.316 72.0145 79.932 72.0145 79.164C72.0145 78.78 71.8525 78.438 71.5285 78.138C71.2045 77.838 70.8145 77.592 70.3585 77.4C69.9025 77.196 69.4465 76.992 68.9905 76.788C68.5345 76.572 68.1445 76.296 67.8205 75.96C67.4965 75.612 67.3345 75.216 67.3345 74.772C67.3345 73.212 68.4865 72.432 70.7905 72.432C71.3065 72.432 71.8705 72.576 72.4825 72.864L72.3745 74.664H71.9425C71.9425 74.328 71.7445 74.004 71.3485 73.692C70.9645 73.38 70.5445 73.224 70.0885 73.224C69.6325 73.224 69.2425 73.314 68.9185 73.494C68.6065 73.674 68.4505 73.944 68.4505 74.304C68.4505 74.652 68.6125 74.94 68.9365 75.168C69.2605 75.396 69.6505 75.582 70.1065 75.726C70.5625 75.87 71.0185 76.032 71.4745 76.212C71.9305 76.392 72.3205 76.686 72.6445 77.094C72.9685 77.502 73.1305 78.012 73.1305 78.624C73.1305 79.236 72.9325 79.746 72.5365 80.154C71.8285 80.886 70.8025 81.252 69.4585 81.252C68.4145 81.252 67.5745 81 66.9385 80.496Z" fill="#D7B76F"/>
</svg>
