<svg width="16" height="19" viewBox="0 0 16 19" fill="none" xmlns="http://www.w3.org/2000/svg">
<path fill-rule="evenodd" clip-rule="evenodd" d="M5.98074 0.0228539C5.99296 0.0616351 5.96099 0.140994 5.90964 0.199291C5.83666 0.282119 5.82702 0.323157 5.86545 0.387263C5.99998 0.611717 5.85403 0.808214 5.61337 0.726557C5.47318 0.678958 5.45834 0.728395 5.56352 0.892672C5.65747 1.0394 5.65026 1.2425 5.54812 1.32499C5.42258 1.42641 5.05165 1.41776 4.93158 1.31057C4.82308 1.2137 4.73035 1.20405 4.65779 1.28207C4.58435 1.3611 4.71972 1.51952 4.86067 1.51952C4.92175 1.51952 5.0048 1.54907 5.04529 1.58517C5.15019 1.67887 5.13848 1.97081 5.02305 2.13985C4.9314 2.27404 4.92353 2.27693 4.8243 2.21203C4.4405 1.96108 4.18159 1.91273 3.90513 2.04035C3.73086 2.1208 3.69921 2.20768 3.78815 2.36126C3.9261 2.59934 4.36181 2.67389 4.73409 2.52303L4.93449 2.44183L5.16657 2.72245C5.5066 3.1335 5.69534 3.558 5.70012 3.92245L5.70395 4.21498L5.53295 4.22773C5.31632 4.24382 5.09902 4.08363 4.85893 3.7308C4.76644 3.59486 4.67174 3.48365 4.64848 3.48365C4.60316 3.48365 4.61781 3.52511 4.80374 3.92245C4.95466 4.24507 5.0054 4.51169 4.93107 4.59168C4.83071 4.69958 4.70675 4.58436 4.4904 4.18218C4.11999 3.49348 3.87873 3.28741 3.57451 3.39991C3.34626 3.48432 3.22259 3.70777 3.22554 4.03044L3.22806 4.30562L3.01489 4.26943C2.65745 4.2088 2.22043 4.31661 2.01943 4.51503C1.76511 4.76611 1.72115 5.29851 1.91265 5.80789C2.03656 6.13732 2.26083 6.56137 2.41296 6.75373L2.50382 6.86865H2.35871C2.06628 6.86865 1.65721 7.10852 1.65342 7.2822C1.65262 7.31906 1.60015 7.44326 1.53681 7.55818C1.47348 7.67311 1.42147 7.79818 1.42124 7.83617C1.421 7.87533 1.35926 7.92439 1.27856 7.94951C1.18541 7.97851 1.11945 8.03697 1.08743 8.11905C1.06052 8.18792 1.00149 8.25478 0.956226 8.26761C0.818697 8.3066 0.669654 8.47828 0.642177 8.62926C0.62247 8.73771 0.640351 8.79688 0.716558 8.87553L0.816918 8.97904L0.744363 8.84532C0.70448 8.77172 0.671853 8.68534 0.671853 8.65329C0.671853 8.55563 0.82731 8.46219 1.04034 8.43176C1.23531 8.40393 1.24158 8.39837 1.21452 8.27756C1.16383 8.05139 1.40284 7.94123 1.50592 8.14324C1.56438 8.25775 1.73491 8.28612 1.77695 8.18829C1.81145 8.1081 1.71488 7.95519 1.62983 7.95519C1.54622 7.95519 1.53578 7.7439 1.61583 7.67244C1.6574 7.63533 1.71291 7.65798 1.84871 7.76747C2.07593 7.95076 2.23676 7.98967 2.35889 7.891C2.6016 7.69488 2.32795 7.32834 1.93882 7.32834C1.77437 7.32834 1.75017 7.25236 1.88091 7.14676C1.98797 7.06026 2.43571 7.05315 2.65108 7.13452C2.73394 7.16578 2.9582 7.28801 3.14942 7.40615C3.44316 7.58752 3.66771 7.67298 3.66771 7.6034C3.66771 7.59379 3.67974 7.55789 3.69448 7.52367C3.71363 7.47903 3.62773 7.41756 3.3912 7.30657C2.60212 6.93639 2.01924 6.11685 1.95342 5.28501C1.93147 5.00745 1.94209 4.94342 2.03731 4.77948C2.24458 4.42272 2.62543 4.31519 3.10299 4.47863C3.29659 4.54491 3.31981 4.57007 3.44751 4.85182C3.52278 5.01798 3.66911 5.23988 3.77266 5.3449C3.93116 5.50562 3.98405 5.53383 4.10688 5.52318C4.24933 5.51076 4.25279 5.50537 4.25138 5.29989C4.24886 4.94163 3.99931 4.64676 3.48515 4.39455C3.34392 4.32526 3.34004 4.3154 3.34004 4.02567C3.34004 3.75237 3.35122 3.71797 3.47686 3.60581C3.76297 3.35039 3.97572 3.51525 4.20631 4.17102C4.37918 4.66259 4.51605 4.85775 4.76049 4.96131C5.15487 5.12839 5.30073 4.99729 5.22677 4.54215L5.18487 4.28427L5.36121 4.40893C5.68874 4.64053 5.92658 4.64475 6.00948 4.42046C6.0701 4.25656 6.03794 4.01861 5.91628 3.73001C5.82903 3.52306 5.28683 2.70406 5.10661 2.50698L4.99689 2.38696L5.10848 2.19355C5.19793 2.03847 5.21539 1.95723 5.19662 1.78397L5.17317 1.56783L5.41865 1.4606C5.70395 1.33598 5.79364 1.21416 5.76448 0.990879C5.74735 0.859992 5.76345 0.816656 5.85248 0.75418C5.92475 0.703405 5.96141 0.63395 5.96141 0.547821C5.96141 0.476443 5.98627 0.356673 6.0166 0.281743C6.05934 0.176307 6.05901 0.123568 6.01515 0.0489309C5.98402 -0.00418422 5.96853 -0.0158855 5.98074 0.0228539ZM4.6467 2.23392C4.81727 2.34651 4.77023 2.39548 4.49058 2.39649C4.22498 2.39741 4.05197 2.23794 4.18735 2.11708C4.25424 2.05736 4.45763 2.1091 4.6467 2.23392ZM5.91675 2.33213C5.77047 2.48947 5.95827 2.70063 6.1684 2.61513C6.37624 2.53059 6.3057 2.27174 6.07478 2.27174C6.01875 2.27174 5.9476 2.29891 5.91675 2.33213ZM9.02476 2.30371C8.83008 2.4244 8.76155 2.75037 8.86439 3.06605C8.90605 3.19372 8.89941 3.22126 8.81168 3.2857C8.50381 3.51178 8.29747 3.37784 8.21808 2.90039C8.16299 2.56904 8.10031 2.4705 7.95655 2.48914C7.82216 2.50656 7.67307 2.72211 7.55459 3.07044C7.49908 3.23363 7.44417 3.35866 7.43256 3.34834C7.421 3.33797 7.36436 3.19969 7.30669 3.04097C7.19514 2.73377 7.08673 2.65567 6.9918 2.81405C6.96291 2.86224 6.90983 3.07683 6.87383 3.29088C6.7943 3.76386 6.72807 3.91 6.60088 3.89303C6.45577 3.87364 6.32873 3.60602 6.3174 3.29598C6.3064 2.99509 6.24508 2.89341 6.12721 2.98071C6.03045 3.05242 6.0363 3.21177 6.14748 3.53313C6.2587 3.85467 6.44735 4.0403 6.64189 4.0197C6.83873 3.99893 6.94063 3.83632 7.01544 3.4236C7.05232 3.22029 7.09056 3.04674 7.10039 3.03796C7.11022 3.02915 7.14238 3.12911 7.17183 3.26004C7.26479 3.67326 7.50825 3.79441 7.60019 3.47321C7.72709 3.02973 7.81491 2.79976 7.86279 2.78551C7.89135 2.77699 7.9624 2.88397 8.02073 3.02321C8.19519 3.43961 8.47839 3.57977 8.79343 3.40555L8.93386 3.3279L9.08061 3.46844C9.32823 3.70564 9.57937 3.64614 10.3117 3.17667C10.8057 2.86006 10.9824 2.79863 11.3268 2.82412C11.6443 2.84765 11.7894 2.95948 11.8546 3.23066C11.9183 3.49598 11.8836 3.58449 11.6912 3.64659C11.3875 3.74459 11.3046 4.02693 11.5795 4.02693C11.7046 4.02693 11.9531 3.83026 11.9531 3.73118C11.9531 3.66899 12.2731 3.68688 12.4264 3.75767C12.6184 3.84631 12.6028 4.02296 12.3978 4.08138C12.227 4.1301 12.0935 4.22873 12.0935 4.30633C12.0935 4.40496 12.2392 4.41954 12.4089 4.33793C12.5683 4.26133 12.573 4.26137 12.6368 4.33935C12.6727 4.38319 12.7021 4.46242 12.7021 4.51549C12.7021 4.59352 12.7274 4.61199 12.8344 4.61199C12.9149 4.61199 13.0096 4.65282 13.0766 4.71646C13.2172 4.85011 13.5688 4.86369 13.7372 4.74195C13.8179 4.68357 13.8743 4.67237 13.953 4.69912C14.0969 4.74793 14.2615 4.68612 14.3786 4.53919C14.5707 4.29844 14.5516 4.06872 14.3397 4.06872C14.2309 4.06872 14.1871 4.17662 14.2669 4.24787C14.3189 4.29421 14.3193 4.32652 14.2696 4.43212C14.1839 4.61412 14.1173 4.63493 13.9578 4.52966C13.8083 4.43095 13.7933 4.43404 13.7119 4.57989C13.6454 4.69895 13.4294 4.79402 13.2954 4.76318C13.2394 4.75027 13.1566 4.68094 13.1113 4.60914C13.066 4.53735 12.987 4.46881 12.9358 4.45686C12.8845 4.44487 12.8425 4.40174 12.8425 4.361C12.8425 4.32025 12.8034 4.24382 12.7556 4.19112C12.6914 4.12028 12.6744 4.04995 12.6906 3.92157C12.7097 3.77033 12.696 3.73623 12.5852 3.65838C12.5151 3.60915 12.36 3.55721 12.2405 3.54291L12.0233 3.51688L12.014 3.33505C11.9943 2.95401 11.7381 2.73185 11.318 2.7316C10.959 2.73135 10.6249 2.83662 10.0573 3.12877C9.40519 3.46443 9.32688 3.48311 9.168 3.34128L9.04634 3.23266L9.17114 3.08661C9.30047 2.9352 9.41975 2.68233 9.42331 2.55195C9.42569 2.46573 9.2252 2.27145 9.13491 2.27237C9.10158 2.27275 9.05201 2.28683 9.02476 2.30371ZM9.17329 2.82504C9.15681 2.90348 9.11267 3.00382 9.07518 3.04804C9.01311 3.12129 9.00693 3.10583 9.00557 2.87423C9.00393 2.59294 9.03525 2.53239 9.13598 2.62232C9.18219 2.66361 9.19389 2.72705 9.17329 2.82504ZM11.7659 3.81927C11.7659 3.86934 11.6338 3.92299 11.5953 3.8886C11.5543 3.85199 11.6239 3.77619 11.6984 3.77619C11.7355 3.77619 11.7659 3.79558 11.7659 3.81927ZM8.58278 3.97235C6.76463 4.14599 5.03017 5.19985 4.22957 6.61736C3.87002 7.25395 3.6877 7.86685 3.63855 8.60411C3.60723 9.07358 3.68578 9.89851 3.76596 9.94277C3.78852 9.95522 3.79138 9.90378 3.77233 9.82738C3.75342 9.75153 3.73895 9.37918 3.74022 8.99994C3.74214 8.41764 3.75908 8.25516 3.84938 7.95519C4.428 6.03301 6.12801 4.57249 8.15592 4.25543C8.65866 4.17683 9.53715 4.17687 10.0395 4.25552C11.9568 4.5557 13.4793 5.73413 14.1054 7.40256C14.76 9.14692 14.2321 10.9765 12.6978 12.2807C12.0972 12.7913 11.5058 13.1115 10.7595 13.3303C10.5535 13.3907 10.3649 13.4565 10.3405 13.4767C10.2488 13.5521 10.5056 13.5098 10.9078 13.3831C12.3092 12.9417 13.4168 12.1134 14.0305 11.0477C14.4053 10.3967 14.567 9.84498 14.6059 9.08352C14.6897 7.44255 13.7794 5.77588 12.3008 4.86335C11.2309 4.20307 9.78796 3.85726 8.58278 3.97235ZM8.31292 4.67455C6.56063 4.95813 5.23168 5.95775 4.63513 7.44088C4.45178 7.89677 4.2512 8.96091 4.35994 8.90094C4.38339 8.88803 4.41583 8.72166 4.43207 8.53122C4.46961 8.09122 4.5659 7.77123 4.78914 7.34426C5.37843 6.21727 6.53053 5.33633 7.90403 4.96252C8.28867 4.8578 8.39048 4.84789 9.07429 4.84823C9.87381 4.84864 10.1989 4.90038 10.8284 5.12738C12.2313 5.63325 13.2407 6.72493 13.5544 8.07559C13.6867 8.64548 13.6535 9.48663 13.4775 10.0238C13.3306 10.4722 13.0636 10.9873 12.7907 11.3488C12.3767 11.8973 11.5147 12.5487 10.9465 12.7424C10.8307 12.7819 10.7361 12.83 10.7361 12.8493C10.7361 12.9431 11.5306 12.5703 11.9917 12.2601C13.7605 11.0702 14.3896 8.89994 13.4769 7.1364C12.9159 6.05232 11.8868 5.20616 10.684 4.83995C9.95942 4.61934 9.04723 4.55574 8.31292 4.67455ZM3.85495 5.02069C3.85495 5.11251 3.74738 5.0568 3.6326 4.90556C3.47672 4.70016 3.50471 4.65967 3.69111 4.82094C3.78122 4.89892 3.85495 4.98881 3.85495 5.02069ZM8.4233 5.27432C8.40982 5.29383 8.37443 5.44143 8.34466 5.60233C8.30464 5.81851 8.30276 6.21702 8.33736 7.12867C8.37991 8.24922 8.42231 8.58705 8.5054 8.46703C8.58067 8.35829 8.58728 7.69429 8.518 7.20297C8.4108 6.44327 8.38122 5.88642 8.42967 5.54181C8.47184 5.2418 8.47095 5.20549 8.4233 5.27432ZM10.1126 5.36421C10.0415 5.56267 10.0273 6.95825 10.0898 7.60716C10.1485 8.216 10.1544 8.23894 10.239 8.18361C10.3227 8.12887 10.3244 8.09448 10.2738 7.48689C10.2445 7.13535 10.2183 6.60328 10.2157 6.30448C10.2097 5.61373 10.166 5.21518 10.1126 5.36421ZM6.50764 5.98713C6.49266 6.05391 6.45657 6.39713 6.42741 6.7498C6.37184 7.42166 6.39375 7.80759 6.49935 8.01787C6.55459 8.12782 6.56287 8.03029 6.56652 7.22386C6.56886 6.7182 6.58403 6.20573 6.60028 6.08508C6.63187 5.85014 6.55623 5.77016 6.50764 5.98713ZM11.6547 6.3306C11.6386 6.40244 11.6254 6.89092 11.6254 7.41614C11.6254 8.29691 11.6327 8.3817 11.7189 8.5079L11.8124 8.64472L11.8125 7.7421C11.8127 6.48259 11.7488 5.91057 11.6547 6.3306ZM2.30075 7.5907C2.33418 7.61477 2.35524 7.67369 2.34756 7.72167C2.32519 7.86166 2.15382 7.85147 1.95871 7.69852C1.80415 7.57737 1.79469 7.55906 1.87216 7.53144C1.9743 7.49504 2.21392 7.52818 2.30075 7.5907ZM12.9224 7.82982C12.845 8.0839 12.9344 10.0942 13.03 10.251C13.0989 10.3639 13.1306 9.61133 13.0799 9.06701C13.0524 8.7706 13.0276 8.39449 13.0251 8.23121C13.0225 8.0679 13.0056 7.88728 12.9873 7.82982L12.9542 7.72534L12.9224 7.82982ZM10.2094 8.3361C10.0487 8.4168 10.1304 10.1053 10.3024 10.2595C10.3338 10.2875 10.3338 9.2007 10.3025 8.53252C10.2925 8.31981 10.2828 8.29929 10.2094 8.3361ZM11.6737 9.03964C11.6725 9.32218 11.684 9.38232 11.7308 9.34045C11.8039 9.275 11.8032 8.88264 11.7297 8.77009C11.685 8.70164 11.6748 8.75037 11.6737 9.03964ZM11.7951 9.4094C11.7824 9.42775 11.7914 9.47004 11.8151 9.50343C11.8486 9.55082 11.8582 9.5435 11.8588 9.47008C11.8595 9.37342 11.8357 9.35073 11.7951 9.4094ZM11.709 9.74163C11.734 10.0963 11.7436 10.1185 11.7995 9.95112C11.8526 9.79211 11.8204 9.58032 11.7396 9.55629C11.7142 9.54873 11.701 9.62875 11.709 9.74163ZM11.7768 10.1371C11.7289 10.1889 11.7313 10.3184 11.7897 10.8141C11.8293 11.1513 11.8802 11.4969 11.9027 11.5821L11.9437 11.7372L11.9438 11.5909C11.9439 11.5105 11.9196 11.136 11.89 10.7589C11.8457 10.1952 11.8255 10.0845 11.7768 10.1371ZM13.2352 12.5768C13.1997 12.7029 13.2748 12.9509 13.4329 13.2298C13.4944 13.3382 13.5447 13.4598 13.5447 13.4999C13.5447 13.6614 13.3852 13.429 13.2606 13.0858C13.1626 12.816 13.1141 12.7373 13.0396 12.7273C12.976 12.7187 12.9337 12.7438 12.9127 12.8028C12.8955 12.8514 12.8304 12.9085 12.7683 12.9296C12.7061 12.9506 12.6553 12.9872 12.6553 13.0107C12.6553 13.0343 12.604 13.0536 12.5413 13.0536C12.4523 13.0536 12.4242 13.0783 12.4126 13.1668C12.402 13.2479 12.3646 13.287 12.2808 13.3043C12.1825 13.3247 12.16 13.3584 12.1404 13.5149C12.1177 13.695 12.1111 13.7017 11.945 13.7141C11.726 13.7304 11.626 13.8242 11.7293 13.9164C11.7908 13.9713 11.9642 13.9801 12.8847 13.9753C13.4804 13.9722 13.999 13.959 14.0371 13.946C14.1483 13.9078 14.1183 13.7881 13.9374 13.5488C13.7326 13.2777 13.3574 12.62 13.3574 12.532C13.3574 12.4275 13.2679 12.4602 13.2352 12.5768Z" fill="#D7B76F"/>
<path fill-rule="evenodd" clip-rule="evenodd" d="M10.1224 11.4635C9.89668 11.322 9.65826 11.2239 9.43533 11.1808C9.33067 11.1605 9.31649 11.1521 9.35882 11.1353C9.44231 11.1022 9.42773 11.0619 9.30387 10.9833C9.1791 10.9042 8.87293 10.846 8.72512 10.8733C8.65136 10.8869 8.64591 10.8839 8.67186 10.844C8.74401 10.7331 8.46407 10.7223 8.16839 10.8246C7.99035 10.8861 7.93138 10.9177 7.8315 11.0051C7.69743 11.1224 7.49702 11.3935 7.50291 11.4497C7.505 11.4695 7.54592 11.4251 7.59383 11.3511C7.76015 11.0944 8.01909 10.9227 8.34405 10.8537C8.53845 10.8124 8.58782 10.8219 8.5425 10.8915C8.50904 10.943 8.55216 10.9817 8.6158 10.9573C8.69892 10.9255 8.91341 10.9429 9.08654 10.9956C9.27692 11.0535 9.31451 11.0865 9.24589 11.1351C9.18228 11.1802 9.20931 11.209 9.32846 11.223C9.54146 11.248 10.1403 11.501 10.1307 11.5619C10.1286 11.5751 10.0616 11.5957 9.98168 11.6077C9.83056 11.6304 9.53933 11.7343 9.52312 11.7713C9.51802 11.783 9.54137 11.8034 9.57505 11.8165C9.63342 11.8392 9.63156 11.8422 9.53446 11.8807C9.47846 11.9029 9.43086 11.9324 9.42871 11.9462C9.42653 11.9599 9.47884 12.0135 9.54494 12.0652C9.73191 12.2113 9.9536 12.5558 9.87953 12.5852C9.86902 12.5894 9.83927 12.5836 9.81341 12.5723C9.73654 12.5388 9.73594 12.5786 9.81142 12.7013C9.89843 12.8428 9.93894 13.097 9.90546 13.2914C9.88154 13.4303 9.85201 13.4658 9.79929 13.419C9.74505 13.3708 9.71192 13.4111 9.70145 13.538C9.69581 13.606 9.66746 13.7184 9.63842 13.7879C9.58832 13.9077 9.44144 14.1262 9.39994 14.1426C9.38935 14.1468 9.38543 14.0934 9.39124 14.0238C9.40421 13.8689 9.36015 13.764 9.29332 13.7905C9.25439 13.806 9.23298 13.7863 9.15664 13.6651C9.00839 13.4297 8.97 13.3894 8.92658 13.4236C8.89412 13.4491 8.87278 13.4322 8.77799 13.3057C8.65156 13.137 8.55045 12.8621 8.5556 12.7011C8.55955 12.5783 8.515 12.5666 8.47855 12.6807C8.37923 12.9919 8.3493 13.0651 8.29876 13.1209C8.24555 13.1797 8.24109 13.1808 8.2208 13.1401C8.1844 13.0671 8.13273 13.0843 8.08468 13.1857C8.02486 13.3119 7.88392 13.5344 7.85713 13.545C7.84559 13.5496 7.79572 13.457 7.74632 13.3392L7.65649 13.1251L7.5907 13.1512C7.53915 13.1716 7.51951 13.1666 7.49993 13.128C7.47971 13.0882 7.47346 13.0869 7.46724 13.1212C7.45383 13.1954 7.50544 13.2676 7.5655 13.2587C7.63548 13.2483 7.69375 13.3558 7.72085 13.5455C7.74342 13.7033 7.78337 13.7223 7.88736 13.6247C7.9664 13.5506 8.09742 13.3663 8.11915 13.2987C8.13851 13.2385 8.17318 13.2238 8.19454 13.2666C8.22764 13.3331 8.34253 13.2229 8.43835 13.0329L8.498 12.9146L8.55182 13.0617C8.58824 13.1612 8.65097 13.2672 8.74592 13.3895C8.89673 13.5838 8.94399 13.6192 8.99371 13.5752C9.02104 13.551 9.03696 13.5732 9.10839 13.7351C9.18906 13.9179 9.19284 13.9223 9.24638 13.8991C9.27665 13.8859 9.30321 13.8787 9.30539 13.8831C9.3262 13.9249 9.30089 14.0813 9.25884 14.1709C9.23012 14.2321 9.21301 14.2951 9.22085 14.3108C9.2608 14.391 9.53027 14.1657 9.65423 13.9485C9.691 13.884 9.73666 13.7528 9.75569 13.6568C9.77471 13.5608 9.79795 13.4976 9.8073 13.5164C9.8598 13.6218 9.96667 13.4764 9.99362 13.263C10.0115 13.1216 9.97287 12.8331 9.92259 12.7322C9.88459 12.6559 9.88521 12.6547 9.95253 12.6741C10.0187 12.6932 10.0212 12.6921 10.0192 12.6452C10.018 12.6184 9.96751 12.4977 9.907 12.3771C9.80386 12.1715 9.76812 12.1265 9.59117 11.9792C9.5538 11.9481 9.56036 11.9426 9.67387 11.9105C9.80454 11.8735 9.8031 11.8804 9.69904 11.7915C9.65474 11.7537 9.99996 11.652 10.1756 11.6511C10.3239 11.6504 10.3621 11.6428 10.3491 11.6168C10.3446 11.6078 10.2426 11.5388 10.1224 11.4635ZM9.59021 11.4827C9.27136 11.4587 9.04379 11.4545 8.84669 11.469C8.74405 11.4766 8.64767 11.4795 8.63252 11.4755C8.59627 11.466 8.77496 11.296 8.91976 11.2023C8.98265 11.1616 9.03137 11.1228 9.02802 11.1161C9.01495 11.0898 8.76629 11.2413 8.61192 11.3695L8.44936 11.5046L8.23119 11.5493C8.05472 11.5854 7.9882 11.5868 7.88312 11.5566C7.62923 11.4837 7.26093 11.4484 6.7274 11.4458C6.47461 11.4446 6.44738 11.4178 6.68524 11.4043C6.90269 11.392 7.00457 11.3487 7.06233 11.2442C7.12122 11.1375 7.13714 11.132 7.33713 11.1483C7.60397 11.1701 7.66232 11.1254 7.63154 10.9227C7.60985 10.7799 7.66052 10.7536 7.95352 10.7553C8.25127 10.7571 8.31978 10.745 8.39156 10.6781C8.51872 10.5595 8.43667 10.3103 8.21079 10.1291L8.11772 10.0545L8.15425 9.97859C8.25053 9.77855 8.15818 9.53569 7.94434 9.42648C7.88909 9.39826 7.85858 9.365 7.85081 9.32449C7.83702 9.2529 7.69454 9.13535 7.55205 9.07801L7.45332 9.03829L7.56572 9.11284C7.69933 9.20149 7.79091 9.33097 7.72631 9.33992C7.59909 9.35754 7.52223 9.39057 7.50841 9.43357C7.47239 9.54564 7.68072 9.59222 7.7896 9.49645C7.83064 9.46035 7.85133 9.45822 7.90169 9.48497C8.04803 9.56265 8.12906 9.75574 8.07904 9.90745L8.04856 9.99987L7.89599 9.95455C7.73266 9.90603 7.63659 9.9232 7.59968 10.0075C7.5512 10.1184 7.67995 10.2069 7.85381 10.1822C7.91667 10.1733 7.98728 10.1524 8.01077 10.1357C8.08689 10.0818 8.3294 10.3167 8.37462 10.4883C8.41388 10.6372 8.35033 10.6674 8.00635 10.6627C7.8433 10.6605 7.68158 10.6699 7.64698 10.6836C7.56551 10.716 7.53017 10.8124 7.55405 10.9372C7.58443 11.0959 7.54612 11.1193 7.31324 11.0839C7.2027 11.0672 7.09401 11.0607 7.07171 11.0695C7.04942 11.0784 7.00699 11.1302 6.97747 11.1847C6.92376 11.2839 6.83444 11.3391 6.72017 11.3439C6.62886 11.3477 6.69019 11.2847 6.93372 11.1245C7.20777 10.9442 7.32277 10.8171 7.40323 10.6055C7.46692 10.4381 7.46462 10.3558 7.3945 10.292C7.29921 10.2054 7.19918 10.2796 7.18029 10.4509C7.16309 10.6069 7.02173 10.8686 6.90471 10.961C6.74798 11.0849 6.43844 11.2724 6.34446 11.3004L6.25999 11.3256L6.32633 11.2497C6.53755 11.0078 6.57344 10.7812 6.44225 10.5179C6.36555 10.364 6.38468 10.2496 6.50684 10.1318C6.60157 10.0404 6.67647 9.92122 6.65999 9.88813C6.65519 9.87852 6.62273 9.91122 6.58783 9.96076C6.50567 10.0775 6.47908 10.0864 6.46454 10.0023C6.44181 9.87078 6.406 9.74208 6.37719 9.68857C6.35322 9.64399 6.34971 9.64304 6.35738 9.68328C6.36253 9.71016 6.36832 9.7611 6.37029 9.79647L6.37385 9.86079L6.29486 9.82639L6.21589 9.79198L6.26185 9.83948C6.36188 9.94292 6.3897 9.9953 6.38441 10.0701C6.37868 10.1511 6.32615 10.2774 6.30201 10.2682C6.25487 10.25 5.99376 10.0445 5.97819 10.0133C5.96782 9.99248 5.96969 9.92795 5.98239 9.86991C6.00789 9.75299 5.97312 9.58589 5.92707 9.60416C5.91161 9.61029 5.90857 9.6346 5.92032 9.65818C5.95028 9.71831 5.9452 9.83476 5.91276 9.83095C5.8979 9.8292 5.87601 9.80822 5.86409 9.78429C5.84129 9.73853 5.65464 9.59465 5.6454 9.61572C5.64245 9.62246 5.67533 9.66085 5.71846 9.70104C5.79992 9.77695 5.89499 9.93746 5.87949 9.9729C5.86287 10.0108 5.6167 9.93651 5.55307 9.87432C5.5183 9.84034 5.44029 9.79769 5.37978 9.77954L5.26972 9.74654L5.36318 9.8046C5.49265 9.88503 5.50245 9.91433 5.39841 9.91008C5.2742 9.90499 5.01374 9.9327 5.00536 9.95185C5.00134 9.96104 5.05638 9.969 5.1277 9.96953C5.24415 9.97039 5.25065 9.97339 5.19156 9.99882C5.15535 10.0144 5.10026 10.0495 5.06911 10.0769C5.02617 10.1147 4.98534 10.1277 4.89998 10.1309C4.77698 10.1354 4.592 10.1999 4.5527 10.252C4.53607 10.274 4.48009 10.2788 4.38286 10.2663C4.14175 10.2355 3.911 10.3572 3.8323 10.5566C3.7926 10.6572 3.7926 10.7645 3.8323 10.8442C3.85585 10.8914 3.848 10.902 3.76439 10.9351C3.71239 10.9558 3.62612 11.0195 3.57264 11.0768C3.43742 11.2218 3.4232 11.363 3.52428 11.5577L3.59881 11.7012L3.50496 11.7824C3.41446 11.8607 3.40778 11.863 3.31765 11.847C3.19371 11.8251 2.95984 11.8721 2.84592 11.9418C2.70615 12.0273 2.63204 12.2326 2.67575 12.4132L2.70976 12.5537L2.61158 12.5616C2.53924 12.5674 2.49012 12.551 2.42487 12.4991C2.15084 12.2813 1.66139 12.4129 1.61338 12.7174C1.60083 12.797 1.58065 12.8222 1.48855 12.8729C1.27401 12.9911 1.19781 13.2035 1.29791 13.4044C1.34081 13.4905 1.34472 13.5279 1.31693 13.5861C1.24412 13.7383 1.36129 14.0104 1.54293 14.1109C1.75297 14.2271 2.13025 14.1635 2.23971 13.9933L2.2893 13.9163L2.41175 13.96C2.65872 14.0483 2.89876 13.9824 3.03936 13.7878C3.09187 13.7151 3.12312 13.6906 3.15119 13.7001C3.17259 13.7073 3.21585 13.703 3.2473 13.6906C3.29189 13.6729 3.31055 13.6801 3.33216 13.7235C3.44214 13.9442 3.89867 14.0351 4.11989 13.8803C4.23678 13.7985 4.409 13.7952 4.44871 13.8741C4.4883 13.9527 4.63641 14.0294 4.80414 14.0581C4.92355 14.0786 4.96901 14.073 5.10581 14.0209C5.23256 13.9726 5.28351 13.9647 5.34509 13.9835C5.45923 14.0184 5.67849 14.0135 5.77865 13.9738C5.88197 13.9328 6.01505 13.8052 6.04745 13.7161C6.06019 13.681 6.06658 13.6097 6.06167 13.5576L6.05273 13.4629L6.21326 13.4045C6.34292 13.3574 6.38575 13.33 6.436 13.2619C6.49593 13.1808 6.72234 13.06 6.74168 13.0988C6.75989 13.1354 6.99805 13.2126 7.08615 13.2106C7.30496 13.2055 7.49507 13.0672 7.56899 12.8593C7.60974 12.7447 7.59483 12.5711 7.53887 12.5089C7.51759 12.4853 7.51843 12.4616 7.54123 12.4437C7.76909 12.264 7.83118 12.1153 7.77364 11.8869L7.74849 11.7871L7.80351 11.891C7.88174 12.0387 7.87546 12.1507 7.78136 12.2862C7.67918 12.4334 7.70963 12.4505 7.82366 12.31L7.90931 12.2044L7.91736 12.2631C7.94627 12.474 7.92427 12.9049 7.87063 13.1782C7.86217 13.2213 7.86696 13.2519 7.88128 13.2463C7.90718 13.236 8.00854 12.6705 8.00955 12.5308C8.01026 12.4305 8.0617 12.4649 8.13966 12.6179C8.19 12.7167 8.20216 12.7288 8.20762 12.6854C8.21187 12.6517 8.17622 12.569 8.1086 12.4557C8.03589 12.3339 7.99008 12.2242 7.96173 12.104C7.93611 11.9953 7.88532 11.8688 7.82742 11.7695L7.73429 11.6099L8.01392 11.7119C8.30912 11.8196 8.58451 11.9914 8.76634 12.1813L8.86392 12.2832L8.83766 12.4639C8.81218 12.6393 8.82839 13.0761 8.86075 13.0871C8.86955 13.09 8.88124 12.9803 8.8867 12.8431C8.89215 12.706 8.90812 12.5497 8.92219 12.4958L8.94778 12.3977L9.02122 12.4959C9.15253 12.6716 9.41625 13.2381 9.44466 13.4056C9.47443 13.5811 9.479 13.5938 9.50178 13.5643C9.53189 13.5253 9.48009 13.276 9.38779 13.0154L9.29766 12.761L9.4346 12.8459C9.50992 12.8926 9.59265 12.9551 9.61839 12.9848C9.66555 13.0392 9.73163 13.0658 9.70959 13.0216C9.68235 12.9669 9.46929 12.7864 9.3506 12.7174C9.2514 12.6598 9.19636 12.6041 9.10487 12.4691C8.87666 12.1322 8.68927 11.9512 8.39051 11.7789C8.28499 11.7181 8.20146 11.662 8.20484 11.6543C8.20822 11.6465 8.32638 11.6204 8.46742 11.5962C8.74965 11.5478 8.78696 11.5547 9.11347 11.7165C9.20736 11.763 9.2872 11.7941 9.29088 11.7857C9.29457 11.7772 9.22142 11.7264 9.12829 11.6726C9.03517 11.6189 8.95491 11.5667 8.94992 11.5567C8.93865 11.5341 9.1602 11.5238 9.52444 11.5299C9.83943 11.5352 9.88199 11.5047 9.59021 11.4827ZM7.62486 9.49595C7.59401 9.49909 7.56471 9.49351 7.55974 9.48355C7.54327 9.45048 7.61469 9.40785 7.67976 9.41186C7.73781 9.41545 7.7409 9.41932 7.71242 9.45302C7.69511 9.47348 7.6557 9.49279 7.62486 9.49595ZM7.77604 10.1137C7.66144 10.1028 7.62056 10.0537 7.6926 10.0135C7.72258 9.99679 7.78769 10.0011 7.86186 10.0246C7.97848 10.0617 7.98066 10.0639 7.92949 10.093C7.9004 10.1096 7.83133 10.1189 7.77604 10.1137ZM6.55402 9.34236C6.43461 9.20688 6.32882 9.12492 6.2419 9.10055C6.16858 9.07999 6.16816 9.08027 6.19405 9.13223C6.21709 9.17847 6.20021 9.17651 6.05093 9.11561C5.87406 9.04346 5.50604 9.00865 5.39325 9.05339C5.33726 9.07559 5.33769 9.07784 5.40967 9.13806C5.45034 9.17207 5.48797 9.20865 5.4933 9.21934C5.49863 9.23003 5.44191 9.25731 5.36723 9.27996L5.23147 9.32113L5.31412 9.35259C5.43863 9.39996 5.44333 9.4383 5.32385 9.43186C5.17984 9.42409 5.00933 9.47181 4.82249 9.57217C4.60926 9.68671 4.585 9.70732 4.59545 9.76504C4.60153 9.79868 4.58278 9.82187 4.53362 9.84155C4.45132 9.87448 4.27233 10.0493 4.25032 10.1182C4.23711 10.1595 4.25827 10.1662 4.415 10.1697C4.55815 10.1729 4.58629 10.1679 4.55294 10.1449C4.52989 10.1291 4.49688 10.1144 4.47959 10.1124C4.4623 10.1104 4.44139 10.0952 4.43316 10.0787C4.41501 10.0422 4.61837 9.86026 4.72407 9.81834C4.77768 9.79707 4.79756 9.77454 4.79162 9.74177C4.78221 9.68966 4.85988 9.63293 5.0359 9.56336C5.19691 9.49969 5.33573 9.48563 5.43609 9.52276C5.57319 9.57353 5.60548 9.543 5.52844 9.43546C5.46548 9.34756 5.4655 9.34374 5.52957 9.31012C5.58421 9.28149 5.58982 9.26657 5.56189 9.22414C5.54332 9.1959 5.52728 9.15762 5.52628 9.13906C5.52125 9.04682 6.03337 9.15207 6.17677 9.27278C6.24232 9.32792 6.26274 9.32845 6.28592 9.27545C6.29684 9.25048 6.33793 9.27636 6.43323 9.36821C6.6004 9.52934 6.72625 9.76801 6.74367 9.95698C6.75911 10.124 6.67574 10.3498 6.5643 10.4428C6.48374 10.5101 6.48336 10.5118 6.55508 10.4841C6.73313 10.4152 6.86226 10.138 6.82796 9.89824C6.8063 9.7467 6.67425 9.47875 6.55402 9.34236ZM7.66838 11.7374C7.63747 11.7049 7.54048 11.649 7.45284 11.6131L7.2935 11.5479L7.40414 11.5614C7.52938 11.5768 7.66175 11.657 7.69932 11.7405C7.72261 11.7922 7.72017 11.7919 7.66838 11.7374ZM7.6785 12.0758C7.65814 12.2315 7.54317 12.3654 7.39341 12.4077C7.23485 12.4526 7.06755 12.4383 6.97045 12.3716C6.89031 12.3166 6.8886 12.313 6.91189 12.2516C6.95292 12.1433 6.94932 12.0048 6.90206 11.873L6.85663 11.7464L6.97009 11.6935C7.10057 11.6326 7.20985 11.6313 7.37947 11.6886C7.60465 11.7647 7.70261 11.8915 7.6785 12.0758ZM7.13841 11.565C7.09117 11.5687 6.99578 11.5983 6.92646 11.6309C6.80714 11.687 6.79382 11.6876 6.67632 11.6417C6.60365 11.6133 6.49017 11.5965 6.40241 11.6013C6.30198 11.6067 6.26303 11.5999 6.28432 11.5805C6.32053 11.5476 6.57359 11.5298 6.95297 11.5334C7.20979 11.5359 7.30547 11.5522 7.13841 11.565ZM7.50724 12.7293C7.49501 13.0286 7.12979 13.2041 6.86097 13.0398C6.66383 12.9194 6.61587 12.5816 6.77416 12.4284L6.85715 12.3481L6.94744 12.4145C7.04795 12.4883 7.22457 12.5239 7.35759 12.497C7.43331 12.4817 7.44955 12.4883 7.47851 12.5465C7.49692 12.5834 7.50986 12.6657 7.50724 12.7293ZM6.36071 10.6397C6.28525 10.7657 6.24624 10.76 6.17145 10.6123C6.11581 10.5024 6.08563 10.4713 5.9808 10.416C5.87832 10.362 5.85751 10.341 5.86324 10.2975C5.86959 10.2492 5.88983 10.2364 6.03111 10.1913C6.04946 10.1855 6.09571 10.2067 6.13388 10.2385C6.21609 10.3069 6.20246 10.3444 6.08731 10.3667C6.04438 10.375 6.01738 10.3906 6.0238 10.4035C6.02994 10.4158 6.08657 10.4154 6.14968 10.4025C6.24756 10.3825 6.27145 10.3877 6.31266 10.438C6.39844 10.5427 6.40425 10.567 6.36071 10.6397ZM6.40545 10.9701C6.37562 11.0429 6.1774 11.2928 6.13666 11.3089C6.12866 11.3121 6.09133 11.2928 6.05366 11.2662L5.98516 11.2176L6.0765 11.1371C6.12672 11.0928 6.18384 11.0125 6.20342 10.9586C6.22301 10.9048 6.28332 10.8242 6.3374 10.7794L6.43579 10.6981L6.4378 10.7922C6.43889 10.844 6.42434 10.924 6.40545 10.9701ZM5.9057 10.1648C5.87145 10.1784 5.83942 10.1653 5.79932 10.1215C5.72161 10.0366 5.73385 10.023 5.84395 10.072C5.95732 10.1224 5.96886 10.1397 5.9057 10.1648ZM6.83193 12.0794C6.82124 12.2393 6.76555 12.3275 6.63309 12.3941C6.35941 12.5316 6.0361 12.4594 5.92465 12.2357C5.88201 12.1501 5.88336 12.1455 5.96088 12.1142C6.08184 12.0654 6.19762 11.9359 6.24509 11.7963C6.2867 11.6739 6.28933 11.6715 6.39312 11.66C6.45123 11.6536 6.54816 11.6684 6.6085 11.6929C6.70148 11.7306 6.72738 11.7559 6.77842 11.8583C6.8161 11.9339 6.83613 12.0166 6.83193 12.0794ZM6.14492 10.8812C6.13695 11.0048 6.11237 11.0517 6.01193 11.1345C5.94095 11.1931 5.92169 11.1974 5.76782 11.1889C5.67596 11.1838 5.58555 11.1857 5.56693 11.1931C5.54829 11.2005 5.48633 11.1809 5.4292 11.1496C5.29044 11.0735 5.20469 10.9089 5.23319 10.7733C5.29601 10.4742 5.73764 10.3375 5.98973 10.539C6.08514 10.6152 6.15249 10.7638 6.14492 10.8812ZM5.80145 10.3035C5.79697 10.3295 5.76539 10.3396 5.66694 10.3463C5.50533 10.3573 5.34523 10.4436 5.25904 10.5659L5.1974 10.6535L5.12473 10.5784C5.03404 10.4847 5.00894 10.3481 5.06201 10.2371C5.11171 10.1332 5.31171 10.0343 5.46647 10.0372C5.63098 10.0403 5.82079 10.1912 5.80145 10.3035ZM6.16539 11.6877C6.16216 11.7987 6.05908 11.9445 5.93629 12.0117C5.74931 12.1141 5.41186 12.0418 5.27932 11.871C5.13785 11.6887 5.24139 11.3748 5.47336 11.2828C5.58168 11.2398 5.79502 11.2295 5.88521 11.2629C6.06617 11.3299 6.17116 11.489 6.16539 11.6877ZM6.62777 12.912L6.67562 13.0433L6.59114 13.0592C6.38264 13.0986 6.24258 13.0543 6.15489 12.9213C6.07582 12.8013 6.06278 12.7285 6.1001 12.6153L6.13022 12.5239L6.24963 12.5426C6.31531 12.5528 6.42058 12.5538 6.48359 12.5448L6.59816 12.5284L6.58905 12.6545C6.58401 12.724 6.60146 12.8398 6.62777 12.912ZM4.96805 10.495C4.99622 10.5516 5.05169 10.6208 5.09132 10.6489C5.15765 10.6959 5.16366 10.7091 5.16667 10.8151C5.16848 10.8784 5.15231 10.9441 5.13075 10.9612C5.00431 11.0613 4.72044 11.0138 4.58982 10.8709C4.39615 10.6589 4.53539 10.2645 4.82082 10.2167C4.94009 10.1967 4.94687 10.2018 4.93139 10.3C4.92219 10.3584 4.93565 10.43 4.96805 10.495ZM6.12746 13.347C6.014 13.3699 6.00483 13.3667 5.90323 13.2683C5.82802 13.1954 5.75647 13.1548 5.65634 13.1281C5.48784 13.0833 5.48631 13.0482 5.65326 13.0568C5.74509 13.0616 5.80401 13.0483 5.90188 13.0005L6.03017 12.938L6.09639 13.0064C6.13282 13.0441 6.21989 13.0932 6.28988 13.1157L6.41716 13.1565L6.33146 13.2398C6.26324 13.3062 6.22165 13.3281 6.12746 13.347ZM6.01357 12.6232C5.98903 12.689 5.97597 12.7569 5.98455 12.7741C6.0371 12.8795 5.82324 13.0015 5.63447 12.9737C5.5077 12.955 5.33119 12.8368 5.28168 12.7375C5.24293 12.6597 5.26506 12.513 5.33101 12.4102C5.39089 12.3168 5.55631 12.2336 5.68793 12.2305C5.77589 12.2285 5.80265 12.2409 5.8514 12.3065C5.88346 12.3496 5.93766 12.4034 5.97187 12.426C6.06141 12.4851 6.06277 12.4914 6.01357 12.6232ZM5.35111 11.2788C5.28022 11.307 5.17391 11.438 5.14161 11.5368L5.11676 11.6129L5.05742 11.5318C5.02477 11.4872 4.93404 11.4152 4.85577 11.3719C4.70585 11.2889 4.68774 11.2553 4.73056 11.1394L4.75511 11.073L4.91827 11.0741C5.02352 11.0748 5.10069 11.0618 5.13564 11.0375C5.18322 11.0044 5.19362 11.0072 5.22122 11.0602C5.2385 11.0934 5.28275 11.1441 5.31959 11.1728C5.41222 11.2453 5.41466 11.2534 5.35111 11.2788ZM5.24988 12.3568C5.21873 12.3955 5.17284 12.4281 5.14794 12.4294C5.09756 12.4319 4.99569 12.3649 4.92468 12.2826C4.88537 12.237 4.88615 12.2255 4.92964 12.2083C5.005 12.1784 5.08558 12.0805 5.11955 11.9775L5.14935 11.8871L5.22341 11.971C5.26882 12.0224 5.35041 12.0735 5.43428 12.103L5.57104 12.1511L5.43879 12.2188C5.36606 12.256 5.28103 12.3182 5.24988 12.3568ZM4.40837 10.719C4.44118 10.8256 4.49399 10.911 4.561 10.966C4.59023 10.9899 4.5813 11.0058 4.51621 11.0457C4.26207 11.2015 3.85703 10.9251 3.91563 10.6358C3.95082 10.4622 4.14161 10.334 4.3492 10.3444L4.44786 10.3494L4.41188 10.4814C4.38926 10.5645 4.38796 10.6527 4.40837 10.719ZM5.95502 13.6075C5.94982 14.0038 5.22649 14.0294 5.12303 13.637C5.10361 13.5634 5.10813 13.5573 5.21245 13.5159C5.345 13.4634 5.45927 13.3607 5.51246 13.2464C5.5514 13.1628 5.55238 13.1622 5.6264 13.1829C5.72938 13.2118 5.8722 13.3278 5.91816 13.4201C5.93922 13.4624 5.9558 13.5467 5.95502 13.6075ZM5.05137 11.8338C5.04977 11.8835 5.02496 11.9691 4.99625 12.024C4.9531 12.1064 4.92245 12.1323 4.81983 12.173C4.75153 12.2001 4.64902 12.2233 4.59208 12.2246C4.49201 12.227 4.48782 12.224 4.4671 12.1362C4.42882 11.9739 4.33701 11.8264 4.23373 11.7613C4.14113 11.703 4.13843 11.6985 4.16042 11.6397C4.28292 11.3124 4.83816 11.3106 5.00113 11.637C5.03035 11.6955 5.05297 11.7841 5.05137 11.8338ZM4.63327 11.2569C4.65435 11.2992 4.65215 11.3006 4.56001 11.3055C4.50296 11.3084 4.48626 11.2963 4.46846 11.2392C4.45047 11.1814 4.45948 11.1621 4.5201 11.1284C4.56049 11.1059 4.61113 11.0708 4.6326 11.0502C4.66516 11.0191 4.66696 11.0302 4.64341 11.1167C4.62786 11.1738 4.62331 11.2369 4.63327 11.2569ZM5.47208 13.1534C5.46543 13.2475 5.3417 13.3843 5.21834 13.4341C5.10746 13.4789 4.92067 13.4669 4.80706 13.4078C4.7335 13.3695 4.69891 13.3302 4.64676 13.2255C4.59035 13.1123 4.58488 13.0752 4.61058 12.9807C4.62725 12.9195 4.67133 12.8408 4.70855 12.8059C4.78711 12.7322 4.96549 12.6561 5.07269 12.6505C5.14075 12.6469 5.15252 12.6575 5.21045 12.7737C5.2528 12.8587 5.30243 12.9198 5.3602 12.9582C5.46709 13.0292 5.47936 13.0505 5.47208 13.1534ZM5.10261 12.5633C5.06747 12.5717 4.95401 12.6107 4.85046 12.6502L4.66215 12.7219L4.63479 12.6096C4.61629 12.5337 4.58153 12.4667 4.52737 12.4025C4.48334 12.3503 4.44958 12.3024 4.45241 12.296C4.4552 12.2896 4.51675 12.2859 4.5892 12.2877C4.66161 12.2896 4.7397 12.2836 4.76274 12.2745C4.78829 12.2644 4.81328 12.2753 4.82691 12.3027C4.85859 12.3663 5.02502 12.4803 5.09929 12.4893C5.18158 12.4993 5.1836 12.5441 5.10261 12.5633ZM4.3391 11.3645C4.22818 11.4085 4.07979 11.5581 4.07333 11.6324C4.06912 11.681 4.06278 11.6848 4.01059 11.6698C3.97868 11.6606 3.88939 11.654 3.81222 11.6552L3.67189 11.6573L3.61079 11.5347C3.57719 11.4672 3.5522 11.3768 3.55525 11.3336C3.56348 11.2172 3.65667 11.0854 3.7781 11.0185L3.88504 10.9596L4.00449 11.0457C4.07021 11.093 4.17698 11.1439 4.24176 11.1586C4.333 11.1794 4.36758 11.2016 4.39512 11.2568C4.4288 11.3244 4.42584 11.3301 4.3391 11.3645ZM4.39412 12.2312L4.38756 12.294L4.31855 12.2671C4.22321 12.2299 3.97099 12.2644 3.86012 12.3298C3.75095 12.3942 3.72116 12.3791 3.7186 12.2584C3.71606 12.1396 3.62879 11.9633 3.55238 11.9227C3.49814 11.8939 3.4974 11.8874 3.54315 11.8416C3.61819 11.7667 3.70152 11.7423 3.85991 11.7489C4.01815 11.7555 4.09184 11.7783 4.19922 11.8539C4.28598 11.9149 4.40339 12.1422 4.39412 12.2312ZM4.56409 12.6728C4.58275 12.7871 4.4894 12.9757 4.37246 13.0599C4.26398 13.138 4.10259 13.1669 3.99952 13.1267C3.96077 13.1116 3.88322 13.0971 3.82722 13.0945L3.72543 13.0898L3.81791 12.988C3.94248 12.851 3.96487 12.6397 3.8707 12.4902C3.8102 12.3942 3.81026 12.3893 3.87251 12.3648C4.05583 12.2925 4.29965 12.3166 4.42659 12.4196C4.50733 12.4852 4.54463 12.5538 4.56409 12.6728ZM5.0878 13.7494C5.10284 13.7796 5.13704 13.8282 5.16377 13.8573C5.21167 13.9096 5.21072 13.911 5.09759 13.9559C5.03445 13.9809 4.93668 14.0005 4.88029 13.9995C4.57644 13.9938 4.37351 13.721 4.52186 13.5176C4.58985 13.4245 4.65257 13.4122 4.74922 13.4731C4.79685 13.5031 4.8787 13.5319 4.93109 13.5371C5.01446 13.5454 5.02849 13.5558 5.04339 13.6206C5.05274 13.6612 5.07273 13.7192 5.0878 13.7494ZM4.56234 13.2643C4.60255 13.3458 4.60071 13.3591 4.54417 13.3946C4.4555 13.4503 4.38847 13.5732 4.39066 13.676C4.39226 13.7518 4.38443 13.7629 4.3318 13.7597C4.25355 13.7549 4.24647 13.7373 4.27233 13.6122C4.29632 13.4963 4.25639 13.3358 4.18079 13.2446L4.13052 13.1839L4.22031 13.177C4.2697 13.1732 4.35241 13.1456 4.40408 13.1158C4.49347 13.064 4.49848 13.0641 4.50779 13.1175C4.51314 13.1484 4.53769 13.2145 4.56234 13.2643ZM3.66859 12.28C3.67138 12.3009 3.63205 12.3074 3.54015 12.3011C3.2966 12.2843 3.08711 12.3726 2.97575 12.5389C2.91593 12.6283 2.91314 12.6286 2.84159 12.5513C2.67369 12.3699 2.74615 12.0649 2.97816 11.9765C3.10514 11.9282 3.31586 11.9209 3.41692 11.9613C3.55456 12.0164 3.64931 12.1364 3.66859 12.28ZM3.84806 12.7427C3.81533 12.8997 3.75161 12.976 3.60447 13.0344C3.36549 13.1291 3.14732 13.0676 3.05333 12.879C2.95149 12.6746 3.02791 12.5155 3.27502 12.4175C3.41826 12.3607 3.60315 12.3579 3.70316 12.411C3.7986 12.4617 3.87176 12.6291 3.84806 12.7427ZM4.18264 13.4665C4.22352 13.6799 4.08895 13.8465 3.85348 13.8739C3.53877 13.9106 3.28928 13.6533 3.38119 13.3867C3.45308 13.1783 3.87355 13.0915 4.06364 13.2458C4.14748 13.3138 4.15666 13.3308 4.18264 13.4665ZM3.31221 13.398C3.295 13.4502 3.28368 13.5155 3.28704 13.5432C3.29395 13.6 3.22394 13.6383 3.16229 13.6114C3.13281 13.5985 3.11908 13.5654 3.11316 13.4928C3.1086 13.4374 3.0966 13.3743 3.08648 13.3525C3.07634 13.3308 3.08931 13.2643 3.11529 13.205L3.16252 13.097L3.24299 13.1268C3.28724 13.1432 3.36241 13.1556 3.41005 13.1543L3.49662 13.1521L3.42007 13.2276C3.37795 13.2691 3.3294 13.3458 3.31221 13.398ZM3.01841 12.9856C3.08956 13.0582 3.09576 13.1037 3.04749 13.1996C3.01872 13.2568 3.01534 13.2569 2.92496 13.2024C2.81396 13.1354 2.68344 13.1094 2.49927 13.1174C2.42454 13.1207 2.3827 13.1152 2.4063 13.1051C2.47824 13.0745 2.56996 12.8575 2.55527 12.7527C2.54781 12.6994 2.55167 12.6518 2.56385 12.647C2.61067 12.6284 2.76404 12.6484 2.83747 12.6826C2.90379 12.7135 2.9169 12.732 2.9332 12.8182C2.9465 12.8885 2.97171 12.938 3.01841 12.9856ZM3.01657 13.5849C2.99482 13.7822 2.80038 13.9204 2.5594 13.9098C2.39212 13.9024 2.2851 13.832 2.2088 13.6791C2.06696 13.3949 2.28543 13.1619 2.66379 13.1937C2.89063 13.2127 3.03943 13.3777 3.01657 13.5849ZM2.44412 12.8293C2.40853 13.0375 2.24248 13.1674 2.04082 13.1448C1.90697 13.1298 1.8253 13.0802 1.74526 12.9653C1.65667 12.838 1.67635 12.6974 1.79964 12.5768C1.93714 12.4424 2.14511 12.428 2.32865 12.5402C2.4409 12.6087 2.46957 12.6805 2.44412 12.8293ZM2.14435 13.3439C2.11457 13.4008 2.08773 13.4821 2.08473 13.5245C2.07828 13.6158 2.02081 13.6448 1.84771 13.6441C1.43427 13.6425 1.19018 13.2311 1.46097 12.9922C1.58135 12.886 1.6336 12.8833 1.68224 12.981C1.75622 13.1295 1.92928 13.2293 2.10484 13.2247C2.15143 13.2235 2.19157 13.2266 2.19403 13.2315C2.19649 13.2364 2.17413 13.287 2.14435 13.3439ZM2.19012 13.9555C2.10046 14.0402 1.90706 14.1064 1.78373 14.0947C1.55771 14.0733 1.38448 13.8879 1.39133 13.6747C1.39405 13.5899 1.42565 13.5413 1.44838 13.5869C1.47011 13.6306 1.66968 13.6952 1.78408 13.6956C1.85036 13.6959 1.94607 13.6799 1.99676 13.6601L2.08889 13.6241L2.15546 13.7358C2.19206 13.7972 2.22963 13.8578 2.23896 13.8704C2.24828 13.883 2.22631 13.9213 2.19012 13.9555Z" fill="#D7B76F"/>
<path d="M2.624 15.098V16.73C2.74 16.798 2.898 16.832 3.098 16.832C3.336 16.832 3.546 16.767 3.728 16.637C3.82 16.571 3.893 16.479 3.947 16.361C4.001 16.243 4.028 16.11 4.028 15.962C4.028 15.812 3.998 15.679 3.938 15.563C3.88 15.447 3.804 15.354 3.71 15.284C3.52 15.14 3.324 15.068 3.122 15.068L2.624 15.098ZM2.582 14.9L3.326 14.87C3.604 14.87 3.823 14.96 3.983 15.14C4.145 15.32 4.226 15.561 4.226 15.863C4.226 16.163 4.11 16.428 3.878 16.658C3.648 16.886 3.378 17 3.068 17H2.12V16.91H2.222C2.282 16.91 2.321 16.899 2.339 16.877C2.357 16.855 2.366 16.822 2.366 16.778V15.122C2.366 15.076 2.356 15.043 2.336 15.023C2.318 15.001 2.28 14.99 2.222 14.99H2.12V14.9H2.582ZM4.74296 14.912C4.78896 14.912 4.82396 14.927 4.84796 14.957C4.87396 14.987 4.88696 15.026 4.88696 15.074C4.88696 15.12 4.86796 15.159 4.82996 15.191C4.79196 15.221 4.74996 15.236 4.70396 15.236C4.65996 15.236 4.62496 15.221 4.59896 15.191C4.57496 15.161 4.56296 15.124 4.56296 15.08C4.56296 15.034 4.58196 14.995 4.61996 14.963C4.65796 14.929 4.69896 14.912 4.74296 14.912ZM5.07296 17H4.46696V16.916H4.51496C4.56896 16.916 4.60296 16.907 4.61696 16.889C4.63296 16.871 4.64096 16.842 4.64096 16.802V15.902C4.64096 15.864 4.62796 15.837 4.60196 15.821C4.57796 15.803 4.53296 15.794 4.46696 15.794V15.71C4.50696 15.71 4.56696 15.696 4.64696 15.668C4.72896 15.638 4.79096 15.61 4.83296 15.584L4.88696 15.572V16.784C4.88696 16.816 4.88796 16.839 4.88996 16.853C4.89396 16.867 4.90596 16.881 4.92596 16.895C4.94596 16.909 4.97696 16.916 5.01896 16.916H5.07296V17ZM5.88364 17.042C5.70764 17.042 5.56064 16.976 5.44264 16.844C5.32464 16.712 5.26564 16.558 5.26564 16.382C5.26564 16.158 5.34964 15.965 5.51764 15.803C5.68764 15.641 5.86664 15.56 6.05464 15.56C6.24264 15.56 6.39364 15.627 6.50764 15.761C6.62364 15.893 6.68164 16.046 6.68164 16.22C6.68164 16.438 6.60064 16.63 6.43864 16.796C6.27864 16.96 6.09364 17.042 5.88364 17.042ZM5.47564 16.22C5.47564 16.406 5.53164 16.561 5.64364 16.685C5.75764 16.807 5.88464 16.868 6.02464 16.868C6.16664 16.868 6.27764 16.815 6.35764 16.709C6.43764 16.603 6.47764 16.494 6.47764 16.382C6.47764 16.212 6.42464 16.064 6.31864 15.938C6.21464 15.81 6.08764 15.746 5.93764 15.746C5.78764 15.746 5.67264 15.797 5.59264 15.899C5.51464 15.999 5.47564 16.106 5.47564 16.22ZM8.4166 17H7.9006V16.916H7.9126C7.9346 16.916 7.9526 16.905 7.9666 16.883C7.9826 16.861 7.9906 16.834 7.9906 16.802V16.04C7.9906 15.95 7.9686 15.882 7.9246 15.836C7.8826 15.788 7.8226 15.764 7.7446 15.764C7.6326 15.764 7.5336 15.824 7.4476 15.944C7.3616 16.064 7.3186 16.154 7.3186 16.214V16.784C7.3186 16.816 7.3196 16.839 7.3216 16.853C7.3256 16.867 7.3376 16.881 7.3576 16.895C7.3776 16.909 7.4086 16.916 7.4506 16.916H7.5046V17H6.8986V16.916H6.9466C7.0006 16.916 7.0346 16.907 7.0486 16.889C7.0646 16.871 7.0726 16.842 7.0726 16.802V15.902C7.0726 15.864 7.0596 15.837 7.0336 15.821C7.0096 15.803 6.9646 15.794 6.8986 15.794V15.71C6.9386 15.71 6.9986 15.696 7.0786 15.668C7.1606 15.638 7.2226 15.61 7.2646 15.584L7.3186 15.572V15.956C7.3646 15.83 7.4356 15.733 7.5316 15.665C7.6276 15.595 7.7446 15.56 7.8826 15.56C7.9546 15.56 8.0156 15.576 8.0656 15.608C8.1156 15.64 8.1516 15.681 8.1736 15.731C8.2116 15.817 8.2306 15.902 8.2306 15.986V16.796C8.2306 16.824 8.2326 16.845 8.2366 16.859C8.2466 16.897 8.2886 16.916 8.3626 16.916H8.4166V17ZM8.48241 17.696L8.53041 17.462H8.57241C8.57641 17.484 8.59441 17.508 8.62641 17.534C8.65841 17.562 8.69241 17.576 8.72841 17.576C8.85241 17.576 8.94041 17.534 8.99241 17.45C9.04441 17.366 9.09841 17.214 9.15441 16.994L8.69841 15.812C8.68041 15.77 8.66141 15.74 8.64141 15.722C8.62141 15.702 8.59041 15.692 8.54841 15.692H8.50641V15.602H9.09441V15.692H9.07641C8.99241 15.692 8.95041 15.716 8.95041 15.764C8.95041 15.774 8.96041 15.806 8.98041 15.86L9.28641 16.676L9.62241 15.83C9.64641 15.782 9.65841 15.752 9.65841 15.74C9.65841 15.722 9.64641 15.71 9.62241 15.704C9.60041 15.696 9.55441 15.692 9.48441 15.692H9.46041V15.602H10.0184V15.692H9.98841C9.92041 15.692 9.87341 15.702 9.84741 15.722C9.82141 15.742 9.79841 15.78 9.77841 15.836L9.17241 17.354C9.11841 17.486 9.05341 17.584 8.97741 17.648C8.90341 17.712 8.80241 17.744 8.67441 17.744C8.62641 17.744 8.56241 17.728 8.48241 17.696ZM10.1564 16.916L10.1864 16.592L10.2704 16.598C10.2704 16.666 10.3144 16.731 10.4024 16.793C10.4904 16.855 10.5854 16.886 10.6874 16.886C10.8974 16.886 11.0024 16.822 11.0024 16.694C11.0024 16.63 10.9754 16.573 10.9214 16.523C10.8674 16.473 10.8024 16.432 10.7264 16.4C10.6504 16.366 10.5744 16.332 10.4984 16.298C10.4224 16.262 10.3574 16.216 10.3034 16.16C10.2494 16.102 10.2224 16.036 10.2224 15.962C10.2224 15.702 10.4144 15.572 10.7984 15.572C10.8844 15.572 10.9784 15.596 11.0804 15.644L11.0624 15.944H10.9904C10.9904 15.888 10.9574 15.834 10.8914 15.782C10.8274 15.73 10.7574 15.704 10.6814 15.704C10.6054 15.704 10.5404 15.719 10.4864 15.749C10.4344 15.779 10.4084 15.824 10.4084 15.884C10.4084 15.942 10.4354 15.99 10.4894 16.028C10.5434 16.066 10.6084 16.097 10.6844 16.121C10.7604 16.145 10.8364 16.172 10.9124 16.202C10.9884 16.232 11.0534 16.281 11.1074 16.349C11.1614 16.417 11.1884 16.502 11.1884 16.604C11.1884 16.706 11.1554 16.791 11.0894 16.859C10.9714 16.981 10.8004 17.042 10.5764 17.042C10.4024 17.042 10.2624 17 10.1564 16.916ZM12.9215 17H12.4895V16.646C12.4435 16.772 12.3725 16.87 12.2765 16.94C12.1805 17.008 12.0635 17.042 11.9255 17.042C11.8535 17.042 11.7925 17.026 11.7425 16.994C11.6925 16.962 11.6565 16.921 11.6345 16.871C11.5965 16.785 11.5775 16.7 11.5775 16.616V15.902C11.5775 15.81 11.5195 15.764 11.4035 15.764V15.68C11.4435 15.68 11.5035 15.669 11.5835 15.647C11.6655 15.625 11.7255 15.602 11.7635 15.578L11.8175 15.572V16.562C11.8175 16.652 11.8385 16.721 11.8805 16.769C11.9245 16.815 11.9855 16.838 12.0635 16.838C12.1755 16.838 12.2745 16.778 12.3605 16.658C12.4465 16.538 12.4895 16.448 12.4895 16.388V15.902C12.4895 15.81 12.4315 15.764 12.3155 15.764V15.68C12.3595 15.68 12.4215 15.669 12.5015 15.647C12.5835 15.625 12.6435 15.602 12.6815 15.578L12.7355 15.572V16.796C12.7355 16.824 12.7375 16.845 12.7415 16.859C12.7515 16.897 12.7935 16.916 12.8675 16.916H12.9215V17ZM13.1564 16.916L13.1864 16.592L13.2704 16.598C13.2704 16.666 13.3144 16.731 13.4024 16.793C13.4904 16.855 13.5854 16.886 13.6874 16.886C13.8974 16.886 14.0024 16.822 14.0024 16.694C14.0024 16.63 13.9754 16.573 13.9214 16.523C13.8674 16.473 13.8024 16.432 13.7264 16.4C13.6504 16.366 13.5744 16.332 13.4984 16.298C13.4224 16.262 13.3574 16.216 13.3034 16.16C13.2494 16.102 13.2224 16.036 13.2224 15.962C13.2224 15.702 13.4144 15.572 13.7984 15.572C13.8844 15.572 13.9784 15.596 14.0804 15.644L14.0624 15.944H13.9904C13.9904 15.888 13.9574 15.834 13.8914 15.782C13.8274 15.73 13.7574 15.704 13.6814 15.704C13.6054 15.704 13.5404 15.719 13.4864 15.749C13.4344 15.779 13.4084 15.824 13.4084 15.884C13.4084 15.942 13.4354 15.99 13.4894 16.028C13.5434 16.066 13.6084 16.097 13.6844 16.121C13.7604 16.145 13.8364 16.172 13.9124 16.202C13.9884 16.232 14.0534 16.281 14.1074 16.349C14.1614 16.417 14.1884 16.502 14.1884 16.604C14.1884 16.706 14.1554 16.791 14.0894 16.859C13.9714 16.981 13.8004 17.042 13.5764 17.042C13.4024 17.042 13.2624 17 13.1564 16.916Z" fill="#D7B76F"/>
</svg>
