<svg width="257" height="603" viewBox="0 0 257 603" fill="none" xmlns="http://www.w3.org/2000/svg">
<path fill-rule="evenodd" clip-rule="evenodd" d="M256.692 564.997C256.436 565.012 256.384 565.083 256.559 565.179C256.718 565.266 256.907 565.255 256.98 565.155C257.052 565.055 256.923 564.984 256.692 564.997ZM254.188 565.371C253.404 565.371 253.083 565.426 253.475 565.493C253.867 565.56 254.509 565.56 254.901 565.493C255.293 565.426 254.972 565.371 254.188 565.371ZM254.591 558.381C254.188 557.863 253.79 557.438 253.705 557.437C253.62 557.437 253.514 558.216 253.468 559.169L253.385 560.903L253.379 558.943C253.376 557.865 253.482 556.78 253.616 556.531C253.821 556.15 253.804 556.138 253.512 556.451C252.596 557.433 251.337 561.994 251.337 564.333V565.375L252.214 564.069C252.697 563.35 253.091 562.688 253.091 562.596C253.091 562.504 253.593 561.731 254.207 560.877L255.322 559.324L254.591 558.381ZM247.773 568.308C238.783 574.349 227.639 578.799 216.48 580.803C215.1 581.051 213.62 581.252 213.19 581.25C212.433 581.245 212.461 581.206 214.053 580.014C218.866 576.413 222.326 571.54 224.612 565.142C226.426 560.065 227.212 555.277 227.212 549.296C227.212 534.068 220.99 521.73 211.531 518.199C209.048 517.272 204.38 517.265 201.93 518.184C194.355 521.026 189.699 529.518 189.713 540.464C189.718 544.279 190.153 547.026 191.25 550.173C191.959 552.204 192.493 553.198 193.937 555.174C196.664 558.905 199.272 560.444 202.868 560.444C206.221 560.444 208.402 559.178 210.59 555.963C211.949 553.966 212.859 551.733 213.068 549.88C213.181 548.876 213.176 548.881 212.887 550.049C211.945 553.863 210.229 556.733 207.94 558.321C201.977 562.459 194.971 559.002 191.907 550.408C190.695 547.008 190.307 544.672 190.32 540.854C190.348 532.324 193.454 525.199 198.744 521.528C203.189 518.443 208.523 518.196 213.352 520.852C215.671 522.127 217.298 523.596 219.257 526.182C222.025 529.834 223.721 533.652 224.973 539.045C225.911 543.082 226.191 546.184 226.058 551.051C225.914 556.334 225.254 559.953 223.603 564.521C220.905 571.986 216.487 577.384 210.398 580.656L208.088 581.898L203.668 581.891C201.238 581.887 198.114 581.737 196.727 581.558C173.129 578.517 152.691 562.03 136.171 532.707C133.016 527.107 130.427 522.019 129.039 518.694C126.507 512.628 120.419 495.509 120.671 495.164C120.712 495.107 121.677 496.566 122.816 498.405C130.224 510.367 141.579 519.715 152.535 522.868C156.709 524.07 159.233 524.356 164.119 524.184C168.1 524.044 171.909 523.52 171.64 523.15C171.584 523.073 169.721 523.176 167.5 523.379C159.721 524.089 155.626 523.499 149.684 520.813C141.728 517.215 134.657 511.237 127.878 502.375C124.224 497.6 120.073 490.409 117.718 484.776C117.129 483.368 114.483 473.038 114.483 472.148C114.483 471.734 114.87 471.577 116.622 471.283C118.625 470.945 121.392 470.053 121.21 469.803C121.165 469.741 120.546 469.895 119.834 470.146C117.033 471.131 111.404 471.892 111.418 471.284C111.421 471.16 111.774 470.401 112.202 469.599C112.92 468.253 113.454 467.77 115.251 466.842C115.495 466.717 115.577 466.558 115.436 466.485C115.296 466.413 114.827 466.557 114.394 466.806C113.961 467.055 113.606 467.179 113.606 467.081C113.606 466.827 115.874 463.055 116.552 462.18C116.867 461.775 117.28 461.412 117.469 461.374C117.658 461.336 117.875 461.219 117.951 461.115C118.027 461.011 117.771 461.003 117.383 461.097C116.994 461.191 116.676 461.146 116.676 460.998C116.676 460.849 116.035 460.153 115.251 459.45C114.467 458.748 113.826 458.088 113.826 457.983C113.827 457.878 114.036 457.317 114.292 456.737C114.745 455.71 114.746 455.696 114.311 456.232C113.878 456.765 113.861 456.765 113.76 456.232C113.666 455.733 113.654 455.731 113.631 456.209C113.61 456.654 113.382 456.737 112.18 456.737C111.188 456.737 110.754 456.852 110.752 457.114C110.749 457.369 110.674 457.345 110.518 457.039C110.331 456.672 110.31 456.7 110.406 457.189C110.614 458.251 111.136 463.068 111.043 463.068C110.993 463.068 110.703 462.695 110.398 462.239C109.766 461.296 109.925 461.855 110.684 463.247C111.208 464.208 111.413 466.765 110.995 467.121C110.886 467.213 110.479 466.516 110.091 465.57C109.351 463.767 107.303 460.736 106.368 460.06C105.832 459.673 105.829 459.677 106.206 460.262C106.577 460.838 106.566 460.908 105.922 462.131C104.964 463.948 104.765 464.778 105.23 465.017C105.434 465.122 106.331 465.778 107.223 466.475L108.845 467.742L107.881 467.922L106.917 468.103L108.088 468.149C108.978 468.183 109.464 468.393 110.112 469.023C110.985 469.872 111.232 470.606 110.645 470.606C110.209 470.606 110.2 470.568 111.104 472.763C111.538 473.815 112.486 476.982 113.211 479.801C120.248 507.153 131.062 533.495 146.355 560.538C153.79 573.685 162.393 587.26 170.627 598.835L173.589 603L174.857 602.905L176.124 602.811L172.582 597.685C160.025 579.516 147.909 559.28 140.81 544.622L139.642 542.21L143.676 547.703C148.335 554.048 150.464 556.605 154.728 560.978C167.444 574.02 181.713 581.361 197.714 583.092C201.767 583.531 210.407 583.29 214.382 582.627C223.098 581.175 231.98 578.156 239.494 574.094C244.245 571.525 250.898 567.006 250.898 566.348C250.898 566.271 249.492 567.152 247.773 568.308ZM242.585 568.04C242.19 568.379 242.052 568.31 241.408 567.452C241.007 566.918 240.585 566.482 240.47 566.484C240.355 566.486 239.873 567.334 239.398 568.368L238.535 570.249L238.382 569.345C238.238 568.49 238.228 568.507 238.204 569.653C238.185 570.54 237.989 571.181 237.474 572.04L236.77 573.214L237.494 573.015C239.097 572.574 241.55 570.413 242.544 568.564C243.006 567.706 243.008 567.677 242.585 568.04ZM239.932 569.463C238.974 569.488 239.983 568.906 241.178 568.745L242.235 568.602L241.358 569.026C240.875 569.259 240.234 569.456 239.932 569.463ZM236.274 569.439C236.21 569.657 236.218 569.917 236.291 570.017C236.364 570.117 236.415 569.939 236.406 569.621C236.395 569.27 236.343 569.199 236.274 569.439ZM236.059 567.31C235.998 567.517 235.998 567.856 236.059 568.064C236.12 568.271 236.169 568.101 236.169 567.687C236.169 567.272 236.12 567.103 236.059 567.31ZM219.943 114.089C219.005 103.929 214.059 94.7595 206.845 89.8054C202.924 87.1131 199.269 86.0503 194.753 86.2897C188.7 86.6111 183.235 89.7418 178.739 95.4644L177.139 97.5001L178.3 94.941C185.362 79.3635 195.52 62.3152 204.677 50.6754C206.546 48.2985 208.305 45.9242 208.585 45.3993C209.305 44.0459 206.105 48.0193 201.584 54.0923C198.032 58.8616 197.805 59.113 198.315 57.7102C199.277 55.0658 199.277 54.9187 198.328 54.5801C197.87 54.4164 197.297 54.2397 197.056 54.1872C196.815 54.1351 196.503 53.8915 196.364 53.6457C196.16 53.2858 196.133 53.3587 196.225 54.0226C196.288 54.4755 196.268 55.7574 196.182 56.8717C196.035 58.7543 196.001 58.8556 195.695 58.3038C195.38 57.7361 195.373 57.743 195.538 58.4639C195.753 59.404 195.754 59.8258 195.548 61.2823C195.424 62.1557 195.449 62.387 195.648 62.2178C195.794 62.0939 194.835 63.6749 193.518 65.7305C179.299 87.9238 167.779 114.465 160.527 141.737C159.879 144.175 159.314 146.122 159.272 146.063C159.229 146.005 159.304 144.146 159.438 141.932C159.572 139.719 159.74 134.109 159.81 129.466C160.303 97.1082 155.532 65.5671 145.306 33.5907C142.499 24.8106 136.649 9.30689 133.419 2.08461L132.542 0.124901L131.408 0.0338499C130.784 -0.0164995 130.274 -0.00986668 130.274 0.0483216C130.274 0.10651 131.125 2.25043 132.166 4.81252C141.108 26.8345 147.94 50.1734 151.843 72.0311C153.349 80.4699 153.349 80.6216 151.818 76.7043C148.781 68.9312 145.808 63.4989 140.924 56.7964C136.036 50.0887 132.295 46.248 127.033 42.5351C115.608 34.4735 103.425 33.1288 91.3453 38.5955C77.7174 44.7625 66.7165 58.8543 61.3121 77.0667C58.1044 87.8764 57.451 100.881 59.5277 112.582C62.9405 131.811 73.0953 146.945 85.4733 151.249C87.6452 152.004 88.1821 152.071 92.1129 152.072C96.7712 152.072 98.3126 151.764 102.066 150.079C119.132 142.421 127.601 117.659 120.491 96.2112C118.119 89.0538 113.235 82.3422 108.409 79.6065C105.568 77.9956 104.131 77.6287 100.666 77.6287C96.7826 77.6287 95.3849 78.0637 92.0033 80.3252C87.0761 83.6202 84.0237 89.0607 82.4446 97.3617C81.8248 100.62 81.7669 105.359 82.3121 108.21C83.0975 112.318 85.0937 116.618 87.4185 119.21L88.4942 120.409L87.1419 118.364C84.0532 113.693 82.5174 106.979 83.1124 100.748C84.0916 90.4925 89.6305 82.1571 97.3028 79.3933C99.4833 78.6079 103.716 78.6658 105.984 79.5124C116.143 83.3031 123.409 99.1683 122.179 114.874C121.509 123.428 119.024 130.812 114.778 136.867C109.562 144.305 103.139 148.553 95.5672 149.571C90.8738 150.203 85.7282 149.014 81.6441 146.354C69.9655 138.749 62.1451 122.324 60.9355 102.859C60.3307 93.1239 61.7845 83.023 65.0944 73.9637C69.5724 61.7077 76.3864 52.1853 85.329 45.6863C94.9158 38.7194 106.082 36.7877 116.263 40.3357C134.696 46.7587 150.208 69.6367 155.129 97.6581C156.679 106.484 157.122 130.557 156.039 147.103C154.319 173.376 149.735 200.182 141.34 233.062C138.337 244.822 130.971 271.826 130.838 271.563C130.812 271.511 130.883 269.803 130.996 267.766C131.345 261.491 130.497 251.032 128.961 242.677C124.176 216.637 111.394 195.958 94.298 186.594C83.4379 180.647 71.82 179.75 61.4744 184.061C60.0523 184.653 58.8391 185.215 58.7781 185.31C58.7171 185.404 58.9139 185.394 59.2154 185.287C60.7243 184.751 67.5025 182.951 69.5514 182.542C80.5497 180.345 94.0727 186.027 105.382 197.597C114.356 206.779 120.681 218.129 124.937 232.691C126.013 236.373 127.738 243.852 127.565 244.088C127.526 244.143 127.226 243.509 126.897 242.681C125.92 240.211 123.74 236.37 121.994 234.038C114.957 224.643 105.547 222.188 96.5545 227.401C92.6226 229.681 88.546 234.342 86.2328 239.202C82.3766 247.305 81.8566 258.086 84.8888 267.065C86.3385 271.358 89.5375 276.112 92.1811 277.901C99.5414 282.882 108.865 278.923 112.25 269.38C115.591 259.959 112.673 248.324 106.23 245.377C104.726 244.689 102.638 244.482 101.248 244.883C100.667 245.051 100.449 245.027 100.548 244.806C100.633 244.616 100.486 244.479 100.186 244.469C99.9072 244.459 99.1407 244.425 98.4823 244.393C97.2965 244.335 97.2842 244.344 97.1394 245.315C97.0022 246.235 97.0307 246.294 97.6092 246.294C98.215 246.294 98.2058 246.321 97.0541 247.904C95.1395 250.536 93.8387 254.983 94.187 257.707C94.4162 259.5 94.9436 261.468 95.4108 262.274C95.7755 262.903 95.7569 262.753 95.2983 261.369C94.6373 259.374 94.5337 255.643 95.0796 253.493C96.7758 246.813 102.76 243.464 107.395 246.6C110.919 248.985 113.374 254.817 113.383 260.827C113.388 263.683 113.041 265.659 112.019 268.605C110.382 273.322 106.832 277.166 102.942 278.434C100.97 279.076 97.6768 279.064 95.8413 278.409C90.5474 276.519 86.1354 269.734 84.6244 261.158C83.9782 257.492 83.9782 252.282 84.6244 248.616C85.5119 243.579 87.2891 239.313 90.1224 235.418C92.102 232.696 93.8756 231.001 96.5819 229.242C99.9513 227.053 101.709 226.546 105.93 226.549C110.138 226.552 111.462 226.92 114.636 228.963C117.366 230.721 118.86 232.128 121.034 234.987C123.387 238.081 125.135 241.323 126.622 245.349C128.969 251.706 129.271 253.92 129.262 264.686C129.256 271.094 129.174 273.101 128.766 276.745C128.308 280.847 128.171 281.462 126.555 286.695C113.908 327.645 106.983 365.098 105.235 402.016C104.926 408.537 104.967 408.613 103.842 399.453C100.78 374.532 96.1898 353.245 90.6178 338.123C85.8523 325.189 80.4398 317.092 74.3108 313.728C71.8761 312.391 72.1174 312.821 75.0062 314.966C78.5374 317.589 79.5961 318.609 81.5039 321.228C86.9555 328.711 91.9364 342.178 95.9405 360.259C99.9603 378.412 103.122 401.093 105.039 425.532C105.404 430.175 105.865 435.71 106.065 437.832C106.424 441.651 106.435 441.694 107.111 442.17C107.487 442.435 108.227 443.059 108.756 443.557L109.719 444.462L109.587 443.439C108.727 436.78 108.671 435.338 108.683 419.955C108.693 408.338 108.786 403.193 109.075 398.247C109.718 387.28 110.72 376.176 111.863 367.367C112.098 365.555 112.29 363.94 112.29 363.778C112.29 363.615 112.463 363.686 112.674 363.935C112.885 364.184 113.206 364.492 113.387 364.618C113.568 364.744 113.432 364.52 113.086 364.12C112.357 363.279 112.342 363.632 113.422 356.189C115.593 341.219 119.688 322.521 124.284 306.596C125.84 301.202 126.379 299.687 127.5 297.551C129.203 294.308 132.924 288.993 135.217 286.528C140.348 281.014 146.49 277.205 152.535 275.789C156.017 274.973 162.277 275.126 165.057 276.095C171.056 278.186 175.634 281.784 180.061 287.888C184.851 294.492 187.877 302.134 189.377 311.417C189.938 314.882 190.065 322.928 189.615 326.48C187.81 340.748 180.229 352.55 170.49 356.253C168.588 356.976 167.94 357.076 165.145 357.073C162.768 357.07 161.606 356.932 160.54 356.527C152.427 353.444 146.014 343.813 144.757 332.823C143.414 321.079 148.348 309.322 156.153 305.665C158.146 304.731 161.939 304.512 163.727 305.226C168.885 307.288 172.636 313.165 173.487 320.522C174.204 326.721 171.947 333.448 168.143 336.446C166.743 337.55 166.96 337.61 168.568 336.564C171.211 334.845 173.213 331.319 174.023 326.956C174.659 323.53 174.325 317.574 173.351 314.985L173.003 314.06L173.795 314.891C174.231 315.348 174.617 315.669 174.654 315.605C175.086 314.83 175.679 313.182 175.593 312.991C175.532 312.855 174.98 312.422 174.367 312.027C173.612 311.541 173.342 311.23 173.53 311.066C173.716 310.904 173.635 310.822 173.286 310.819C172.999 310.816 172.43 310.531 172.023 310.185L171.283 309.556L171.481 310.272C171.622 310.781 171.305 310.493 170.387 309.277C166.28 303.838 160.008 302.54 154.48 305.986C149.689 308.972 145.989 315.176 144.499 322.723C143.81 326.212 143.81 332.533 144.499 336.14C145.966 343.816 149.795 350.813 154.862 355.077C158.391 358.046 161.404 359.182 165.694 359.161C168.286 359.149 169.099 359.024 170.916 358.358C175.463 356.694 179.085 353.896 182.553 349.369C187.278 343.2 190.28 335.416 191.36 326.534C191.912 321.988 191.731 315.248 190.925 310.362C189.367 300.918 186.208 293.03 181.265 286.242C176.864 280.2 172.142 276.382 166.526 274.326C154.615 269.966 140.684 275.651 130.755 288.924L129.152 291.066L130.374 287.477C131.944 282.866 135.258 274.31 137.662 268.662C146.713 247.393 156.626 229.846 169.123 212.975C174.898 205.179 176.064 203.835 182.308 197.771C185.287 194.879 187.686 192.46 187.639 192.396C187.306 191.938 179.622 197.976 176.35 201.268L174.944 202.683L175.874 201.066C176.723 199.589 177.866 196.883 177.866 196.35C177.866 196.23 177.731 196.385 177.566 196.695C177.274 197.244 177.233 197.24 176.113 196.578C174.669 195.724 174.137 195.578 174.138 196.038C174.139 196.235 173.874 197.519 173.55 198.889C172.992 201.252 172.614 201.679 172.605 199.958C172.604 199.594 172.524 199.231 172.429 199.15C172.333 199.069 172.348 199.773 172.461 200.715C172.648 202.277 172.615 202.566 172.082 204.01C171.761 204.881 171.574 205.592 171.666 205.592C171.759 205.591 172.18 205.306 172.602 204.958C173.556 204.172 173.48 204.273 170.519 207.72C167.217 211.564 161.25 219.855 157.728 225.491C148.191 240.753 139.647 258.351 132.33 277.801C131.083 281.117 130.06 283.742 130.058 283.634C130.056 283.526 131.346 278.845 132.925 273.233C149.152 215.541 154.807 189.85 158.121 158.777C159.008 150.458 163.925 132.204 169.426 116.803C173.494 105.417 175.038 102.107 178.509 97.3385C183.544 90.4216 189.275 87.0386 195.959 87.0386C207.126 87.0386 217.108 97.7974 219.217 112.107C219.722 115.532 219.565 121.808 218.888 125.245C217.119 134.235 211.976 141.78 206.243 143.795C204.169 144.524 200.745 144.581 198.704 143.92C193.532 142.244 188.908 136.187 187.622 129.402C187.202 127.181 187.205 122.702 187.629 120.409C188.464 115.891 190.758 111.569 193.437 109.465C194.101 108.944 194.545 108.518 194.424 108.518C194.045 108.518 192.051 110.217 191.09 111.359C189.714 112.993 188.051 116.612 187.44 119.301C186.405 123.848 186.503 127.868 187.756 132.33C189.377 138.101 193.668 143.117 198.482 144.869C200.383 145.56 204.012 145.568 206.048 144.885C210.542 143.378 214.926 138.468 217.528 132.028C218.517 129.578 219.689 124.417 219.957 121.325C220.223 118.258 220.221 117.095 219.943 114.089ZM214.833 39.6206L214.084 38.4146L212.904 40.0053C212.256 40.8799 211.681 41.548 211.628 41.4895C211.575 41.431 211.185 41.924 210.763 42.5852L209.996 43.7875L211.295 43.6048C212.58 43.4239 215.395 41.7747 215.522 41.128C215.555 40.9622 215.244 40.2839 214.833 39.6206ZM214.15 41.2788C213.393 41.2788 212.982 41.1645 213.066 40.9773C213.282 40.4964 215.369 40.6622 215.369 41.1603C215.369 41.2254 214.82 41.2788 214.15 41.2788ZM213.236 545.904C213.188 546.443 213.188 547.325 213.236 547.863C213.285 548.402 213.325 547.961 213.325 546.884C213.325 545.806 213.285 545.365 213.236 545.904ZM210.756 559.01C209.101 559.166 207.829 559.721 208.042 560.193C208.105 560.335 208.317 560.451 208.511 560.451C208.705 560.451 209.062 560.688 209.303 560.978C209.563 561.291 209.668 561.333 209.561 561.082C209.377 560.652 209.756 560.688 211.147 561.233C211.566 561.397 211.641 561.31 211.641 560.658C211.641 560.236 211.81 559.658 212.017 559.373C212.373 558.884 212.304 558.864 210.756 559.01ZM210.434 560.434C210.314 560.432 210.448 560.164 210.733 559.838C211.017 559.512 211.363 559.248 211.5 559.251C211.638 559.255 211.503 559.523 211.202 559.848C210.9 560.172 210.555 560.436 210.434 560.434ZM210.955 536.403C210.697 535.483 210.081 534.208 209.486 533.365C208.922 532.566 208.481 531.974 208.506 532.049C208.531 532.123 208.309 532.622 208.012 533.156C207.716 533.69 207.474 534.27 207.474 534.444C207.474 534.618 207.974 535.202 208.585 535.742C209.386 536.448 209.616 536.793 209.408 536.974C209.209 537.147 209.298 537.228 209.689 537.231C210.004 537.234 210.522 537.569 210.841 537.975C211.528 538.851 211.551 538.536 210.955 536.403ZM209.956 38.2075C209.892 38.4248 209.9 38.685 209.973 38.7851C210.046 38.8852 210.097 38.7073 210.088 38.3896C210.077 38.0383 210.025 37.9669 209.956 38.2075ZM208.533 118.2C207.849 116.587 207.848 116.584 208.373 116.788C208.813 116.959 208.786 116.889 208.21 116.361C207.831 116.014 207.4 115.327 207.252 114.834C206.811 113.372 206.596 113.801 206.596 116.145C206.596 118.389 207.105 121.476 207.475 121.476C207.886 121.476 209.228 120.45 209.223 120.139C209.221 119.962 208.91 119.09 208.533 118.2ZM208.881 539.37C208.625 539.385 208.573 539.456 208.748 539.552C208.907 539.639 209.096 539.628 209.169 539.528C209.241 539.428 209.112 539.357 208.881 539.37ZM208.789 534.221C208.537 533.138 208.537 532.65 208.789 532.864C208.91 532.967 208.999 533.483 208.987 534.013C208.966 534.931 208.957 534.941 208.789 534.221ZM207.693 120.421C207.521 120.97 207.504 120.957 207.504 120.27C207.504 119.856 207.589 119.245 207.693 118.913C207.865 118.364 207.881 118.377 207.881 119.064C207.881 119.479 207.797 120.089 207.693 120.421ZM207.565 539.672C207.309 539.686 207.257 539.757 207.432 539.854C207.591 539.941 207.78 539.93 207.853 539.83C207.926 539.73 207.796 539.659 207.565 539.672ZM206.708 52.0828C206.546 51.475 206.471 50.8985 206.541 50.8015C206.825 50.4119 206.298 50.6709 205.058 51.5317C203.295 52.7551 200.263 56.9993 201.716 56.2094C202.518 55.7737 203.522 55.6896 204.177 56.0037C204.573 56.1937 204.802 56.2087 204.727 56.0399C204.655 55.8807 204.454 55.7505 204.28 55.7505C204.107 55.7505 203.964 55.6272 203.964 55.4761C203.964 55.3254 204.655 55.0417 205.5 54.846C207.213 54.4489 207.292 54.2659 206.708 52.0828ZM205.183 53.9279C204.88 54.2738 204.856 54.2508 205.002 53.7549C205.297 52.7542 206.026 51.2281 206.209 51.2281C206.453 51.2281 205.612 53.4374 205.183 53.9279ZM205.335 60.0148C204.776 59.6859 204.763 59.6934 205.158 60.1173C205.392 60.3688 205.663 60.5744 205.761 60.5744C206.094 60.5744 205.939 60.37 205.335 60.0148ZM204.184 59.0669C203.943 58.8893 203.745 58.8121 203.745 58.8951C203.745 58.978 203.943 59.1908 204.184 59.3684C204.425 59.546 204.622 59.6232 204.622 59.5403C204.622 59.4573 204.425 59.2445 204.184 59.0669ZM199.962 558.339C199.616 558.337 198.285 556.859 198.616 556.844C198.751 556.838 199.121 557.114 199.439 557.458L200.017 558.083V557.117C200.017 556.168 200.002 556.155 199.194 556.338C198.742 556.441 197.848 556.526 197.208 556.528C196.567 556.53 196.097 556.651 196.163 556.798C196.509 557.568 200.236 559.149 200.236 558.525C200.236 558.424 200.113 558.34 199.962 558.339ZM198.207 56.0254C196.805 57.2194 196.665 57.2592 197.476 56.2335C197.949 55.6362 198.417 55.1475 198.518 55.1475C198.863 55.1475 198.701 55.6055 198.207 56.0254ZM198.207 109.722C197.996 109.72 197.824 109.857 197.824 110.027C197.824 110.367 196.73 111.029 196.559 110.793C196.499 110.712 196.711 110.482 197.028 110.284C197.345 110.085 197.604 109.809 197.604 109.669C197.604 109.281 194.742 109.413 193.88 109.841L193.116 110.22L193.77 110.444C194.13 110.567 194.668 110.962 194.966 111.323C195.308 111.738 195.397 111.782 195.207 111.442C194.93 110.946 194.952 110.928 195.49 111.209C195.81 111.376 196.349 111.71 196.687 111.95C197.424 112.474 197.703 112.277 197.917 111.078C198.005 110.582 198.193 110.075 198.334 109.951C198.503 109.804 198.46 109.725 198.207 109.722ZM197.792 190.991C197.252 191.158 197.186 191.06 196.831 189.563C196.141 186.658 196.287 186.743 194.312 188.108C193.354 188.77 192.472 189.312 192.353 189.312C192.234 189.312 192.339 188.804 192.588 188.182L193.04 187.051L192.574 187.857C192.319 188.3 191.94 188.945 191.732 189.291C191.524 189.636 190.825 190.172 190.178 190.482C189.532 190.792 189.1 191.127 189.219 191.229C189.729 191.662 192.336 192.318 193.547 192.318C194.896 192.318 197.375 191.649 198.014 191.112C198.289 190.881 198.237 190.853 197.792 190.991ZM196.588 104.17C195.761 103.264 195.76 103.264 195.167 104.694C194.851 105.453 194.975 105.53 195.93 105.168C196.383 104.996 196.871 104.914 197.014 104.985C197.158 105.056 196.845 105.277 196.32 105.476C195.795 105.675 195.231 105.768 195.066 105.681C194.902 105.594 194.698 105.678 194.613 105.867C194.511 106.093 194.401 106.011 194.292 105.628C194.165 105.18 194.122 105.285 194.111 106.076C194.102 106.644 193.931 107.357 193.731 107.661C193.531 107.965 193.429 108.299 193.504 108.403C193.738 108.725 195.926 107.085 196.669 106.031L197.374 105.032L196.588 104.17ZM196.727 107.655C196.425 107.655 196.302 107.723 196.453 107.807C196.604 107.891 196.85 107.891 197.001 107.807C197.152 107.723 197.029 107.655 196.727 107.655ZM195.371 190.663C194.099 190.095 193.55 189.614 194.175 189.614C194.651 189.614 196.78 190.848 196.638 191.042C196.582 191.119 196.012 190.949 195.371 190.663ZM193.931 59.9328C193.583 59.558 193.575 59.5686 193.848 60.0468C194.134 60.549 194.315 60.7085 194.315 60.4604C194.315 60.398 194.142 60.1604 193.931 59.9328ZM193.193 58.2378C192.714 57.21 192.392 56.8775 192.756 57.7856C193.032 58.4772 193.642 59.5611 193.646 59.3684C193.648 59.2855 193.444 58.7766 193.193 58.2378ZM192.629 105.742C192.566 105.959 192.574 106.22 192.647 106.32C192.72 106.42 192.771 106.242 192.762 105.924C192.751 105.573 192.699 105.501 192.629 105.742ZM192.41 103.632C192.347 103.849 192.355 104.109 192.428 104.209C192.5 104.309 192.552 104.131 192.543 103.814C192.532 103.462 192.48 103.391 192.41 103.632ZM191.986 181.172C191.837 181.172 190.07 186.291 190.172 186.428C190.219 186.49 190.67 185.333 191.174 183.857C191.678 182.38 192.043 181.172 191.986 181.172ZM178.858 517.207C178.566 516.555 178.386 515.891 178.458 515.731C178.822 514.922 177.019 516.796 176.078 518.206C175.152 519.592 174.137 521.736 174.137 522.306C174.137 522.399 174.528 522.201 175.006 521.866C175.484 521.531 176.15 521.255 176.486 521.252C176.887 521.249 177.001 521.163 176.816 521.001C176.541 520.761 177.185 520.26 178.798 519.46C179.532 519.096 179.542 518.738 178.858 517.207ZM177.857 518.211C177.616 518.941 177.362 519.459 177.292 519.363C177.222 519.266 177.413 518.466 177.716 517.584C178.02 516.702 178.274 516.184 178.281 516.433C178.289 516.682 178.098 517.482 177.857 518.211ZM175.875 198.821C175.262 199.248 174.645 199.543 174.504 199.477C174.244 199.356 175.584 198.311 176.495 197.923C177.347 197.561 177.034 198.014 175.875 198.821ZM176.212 210.576C175.98 209.415 175.972 209.02 176.176 208.818C176.759 208.245 175.036 208.995 173.516 209.976C172.377 210.711 171.49 211.589 170.472 212.988C169.682 214.073 169.078 215.019 169.13 215.09C169.181 215.161 169.748 215.028 170.39 214.795C171.457 214.408 171.647 214.422 172.627 214.953C173.853 215.617 174.036 215.504 172.986 214.733L172.273 214.21L173.26 213.994C173.803 213.875 174.765 213.768 175.398 213.755C176.509 213.734 176.549 213.704 176.53 212.904C176.519 212.448 176.376 211.4 176.212 210.576ZM175.051 210.899C174.709 211.546 174.247 212.278 174.023 212.527C173.629 212.966 173.629 212.952 174.002 212.075C174.551 210.786 175.66 208.998 175.667 209.392C175.67 209.574 175.393 210.252 175.051 210.899ZM174.957 220.909C174.567 220.651 173.477 219.677 172.535 218.745C171.593 217.813 170.884 217.189 170.961 217.358C171.317 218.151 175.363 221.797 175.57 221.512C175.623 221.438 175.348 221.167 174.957 220.909ZM174.377 314.869C174.151 314.544 173.68 312.322 173.837 312.322C173.984 312.322 174.557 314.201 174.567 314.718C174.573 314.989 174.5 315.047 174.377 314.869ZM172.383 522.812C172.081 522.812 171.958 522.88 172.109 522.964C172.259 523.048 172.506 523.048 172.657 522.964C172.808 522.88 172.684 522.812 172.383 522.812ZM170.698 314.583C170.247 311.812 169.532 310.142 169.532 311.859C169.532 312.268 169.215 313.116 168.827 313.743C168.176 314.798 168.17 314.827 168.745 314.131C169.304 313.453 169.354 313.438 169.24 313.98C168.819 315.978 168.618 317.498 168.751 317.679C168.834 317.795 169.283 318.043 169.748 318.232C170.528 318.549 170.602 318.526 170.717 317.935C170.857 317.218 170.847 315.497 170.698 314.583ZM170.135 216.267L169.641 215.693L170.059 216.371C170.452 217.009 170.628 217.187 170.628 216.946C170.628 216.888 170.406 216.583 170.135 216.267ZM170.456 317.748C170.362 317.748 170.107 317.307 169.891 316.769L169.498 315.789L170.063 316.635C170.659 317.527 170.737 317.748 170.456 317.748ZM170.08 201.07C169.908 200.656 169.767 200.452 169.767 200.618C169.767 200.784 169.908 201.259 170.08 201.673C170.252 202.088 170.393 202.291 170.393 202.126C170.393 201.96 170.252 201.485 170.08 201.07ZM169.312 198.357C169.085 197.611 168.9 197.204 168.902 197.452C168.907 197.959 169.716 200.488 169.723 200.015C169.725 199.849 169.54 199.103 169.312 198.357ZM166.378 313.226C166.333 313.226 166.16 313.463 165.995 313.754C165.722 314.232 165.73 314.242 166.077 313.868C166.443 313.474 166.559 313.226 166.378 313.226ZM164.652 526.866C163.37 525.837 162.735 525.538 161.048 525.167C159.358 524.796 158.842 525.12 159.78 525.964C160.111 526.263 160.573 527.056 160.805 527.726C161.156 528.74 161.204 528.794 161.086 528.048L160.945 527.152L161.455 527.737C161.736 528.059 162.311 528.762 162.733 529.299C163.155 529.837 163.587 530.293 163.692 530.314C163.797 530.334 164.169 529.763 164.519 529.045C164.869 528.326 165.252 527.773 165.37 527.814C165.842 527.98 165.535 527.574 164.652 526.866ZM163.281 527.864C162.592 527.851 162.498 527.791 162.843 527.588C163.483 527.21 164.913 527.21 164.487 527.588C164.306 527.749 163.764 527.873 163.281 527.864ZM163.211 338.875C162.554 339.079 162.236 338.993 161.473 338.407C160.392 337.576 160.206 337.678 161.234 338.538C161.926 339.116 161.926 339.119 161.398 339.282C161.107 339.372 160.474 339.482 159.991 339.526L159.114 339.607V341.175C159.114 342.694 159.132 342.739 159.662 342.571C160.679 342.251 162.058 341.312 162.933 340.345C164.145 339.006 164.23 338.559 163.211 338.875ZM162.13 336.101C161.782 335.726 161.774 335.737 162.047 336.215C162.212 336.505 162.385 336.743 162.431 336.743C162.611 336.743 162.495 336.495 162.13 336.101ZM159.827 342.169C159.578 342.169 159.996 341.155 160.459 340.637C160.797 340.259 160.793 340.323 160.424 341.19C160.194 341.728 159.926 342.169 159.827 342.169ZM159.358 409.237C158.42 402.517 156.613 397.641 153.428 393.24C147.575 385.152 137.779 382.225 129.418 386.064C125.718 387.763 122.807 390.173 119.986 393.87C116.852 397.978 114.643 402.618 113.269 407.979C112.938 409.268 112.646 410.286 112.619 410.24C112.391 409.843 113.821 395.152 114.814 387.695C116.671 373.747 118.674 363.935 123.296 346.138C123.655 344.755 123.906 343.566 123.854 343.494C123.716 343.304 121.667 350.805 120.058 357.395L118.66 363.123L118.655 361.113C118.648 358.205 118.628 358.167 117.323 358.632C116.724 358.845 116.143 359.098 116.031 359.193C115.916 359.291 116.059 360.301 116.362 361.523C116.656 362.71 116.896 363.728 116.896 363.786C116.896 363.844 116.624 363.653 116.293 363.363C115.764 362.901 115.792 362.994 116.512 364.111C117.231 365.226 117.492 366.209 117.355 367.291C117.338 367.428 117.44 367.441 117.583 367.319C117.768 367.162 117.8 367.306 117.695 367.825C115.809 377.132 113.941 389.326 112.957 398.753C111.554 412.185 111.163 420.032 111.161 434.783C111.158 446.42 111.159 446.447 111.654 447.367C111.926 447.873 112.173 448.254 112.203 448.214C112.232 448.173 112.169 445.97 112.062 443.318C111.642 432.871 111.953 418.764 112.706 414.2C113.972 406.518 116.218 400.493 119.66 395.54C125.979 386.447 134.868 382.991 143.652 386.212C146.004 387.074 149.471 389.485 151.418 391.611C154.549 395.032 157.285 400.789 158.391 406.284C159.08 409.706 159.085 417.821 158.4 421.219C156.302 431.624 150.206 438.441 142.994 438.444C138.871 438.446 135.643 436.691 132.911 432.963C130.056 429.069 128.771 424.428 129.023 418.925C129.217 414.695 130.131 411.591 132.06 408.613L133.209 406.84L132.076 408.328C128.989 412.385 127.803 419.938 129.27 426.2C129.966 429.174 131.584 432.633 133.191 434.585C134.563 436.251 137.312 438.15 139.266 438.781C141.327 439.447 144.943 439.389 147.025 438.657C151.85 436.96 156.097 431.733 158.05 425.087C159.438 420.362 159.985 413.735 159.358 409.237ZM159.293 531.15C159.23 531.367 159.238 531.627 159.311 531.727C159.383 531.827 159.435 531.649 159.426 531.332C159.415 530.98 159.363 530.909 159.293 531.15ZM159.073 528.568C159.017 528.858 159.017 529.333 159.073 529.623C159.128 529.913 159.173 529.676 159.173 529.095C159.173 528.515 159.128 528.278 159.073 528.568ZM158.411 338.722C158.098 338.558 158.073 338.593 158.288 338.89C158.437 339.097 158.614 339.189 158.681 339.096C158.749 339.003 158.627 338.835 158.411 338.722ZM156.575 45.3333C154.087 48.5605 153.949 48.7513 154.509 48.1993C155.724 46.9987 157.049 45.3393 157.698 44.2039C158.196 43.3329 157.845 43.6856 156.575 45.3333ZM153.877 48.5146C153.832 48.5146 153.659 48.7519 153.494 49.0422C153.221 49.5204 153.229 49.531 153.576 49.1562C153.942 48.7622 154.058 48.5146 153.877 48.5146ZM153.101 44.8262L152.425 45.8108L152.433 44.9769C152.438 44.5183 152.575 43.1933 152.739 42.0325C152.96 40.4608 152.972 39.8654 152.785 39.7005C152.648 39.5787 151.924 39.4771 151.178 39.4743L149.821 39.4698L149.732 38.49C149.684 37.9512 149.63 38.4598 149.613 39.6206C149.596 40.7813 149.725 42.6596 149.9 43.7944C150.205 45.7777 151.66 50.0242 152.102 50.2247C152.224 50.2802 152.315 49.5783 152.315 48.5891C152.315 47.1278 152.43 46.6203 153.047 45.3489L153.778 43.8415L153.101 44.8262ZM153.276 518.48C153.08 518.376 152.857 517.946 152.781 517.526C152.704 517.105 152.551 516.435 152.441 516.037L152.241 515.314L150.743 516.298C149.192 517.316 148.873 517.382 149.355 516.583C149.51 516.327 149.595 516.059 149.544 515.99C149.493 515.92 149.26 516.255 149.025 516.736C148.782 517.233 148.176 517.83 147.618 518.123L146.638 518.638L147.613 519.038C148.149 519.258 149.327 519.43 150.232 519.42C152 519.4 153.9 518.814 153.276 518.48ZM151.668 518.277C150.531 517.684 150.071 517.163 150.935 517.448C151.944 517.781 152.644 518.214 152.644 518.507C152.644 518.661 152.205 518.557 151.668 518.277ZM151.551 43.2409C151.298 43.0265 150.013 40.5067 150.013 40.2269C150.013 39.8434 150.497 40.4666 151.124 41.6556C151.767 42.8764 151.959 43.5873 151.551 43.2409ZM149.007 409.426C148.752 409.441 148.7 409.512 148.875 409.608C149.033 409.696 149.222 409.685 149.295 409.585C149.368 409.485 149.239 409.413 149.007 409.426ZM148.368 404.336C148.006 404.342 147.884 404.409 148.098 404.486C148.311 404.563 148.607 404.557 148.756 404.475C148.904 404.392 148.73 404.33 148.368 404.336ZM148.301 409.403C148.204 409.403 147.644 408.984 147.057 408.472C146.238 407.758 146.063 407.479 146.302 407.271C146.531 407.071 146.459 406.999 146.027 406.995C145.704 406.993 145.124 406.625 144.737 406.177L144.034 405.363L144.2 406.101C144.551 407.656 145.469 409.811 146.323 411.085L147.213 412.411L147.845 411.211C148.478 410.009 148.631 409.403 148.301 409.403ZM148.039 513.116C147.922 513.365 147.826 513.704 147.826 513.87C147.826 514.036 147.922 513.968 148.039 513.719C148.156 513.471 148.251 513.131 148.251 512.966C148.251 512.8 148.156 512.868 148.039 513.116ZM146.804 410.501C146.624 409.696 146.53 408.964 146.595 408.875C146.78 408.62 147.134 410.059 147.132 411.061C147.131 411.818 147.078 411.727 146.804 410.501ZM141.766 34.0429C141.023 30.2143 139.166 26.1761 137.058 23.8075C136.168 22.8066 136.028 22.7101 136.507 23.4264C137.222 24.4955 137.293 24.2094 135.685 26.7438C135.234 27.4553 134.923 28.1677 134.995 28.3266C135.066 28.4858 135.002 28.616 134.852 28.616C134.701 28.616 135.46 29.4397 136.538 30.4467C137.616 31.4537 138.645 32.4743 138.825 32.7146C139.111 33.0984 139.064 33.1282 138.449 32.9591C138.063 32.8529 137.472 32.8759 137.136 33.0097C136.636 33.2093 136.81 33.2874 138.097 33.4396C139.574 33.6145 139.742 33.7122 140.893 35.0638C142.211 36.6111 142.255 36.5592 141.766 34.0429ZM139.595 37.0934C139.474 37.0763 138.734 37.2089 137.95 37.3877C137.166 37.5668 135.439 37.8285 134.112 37.9693L131.7 38.2253L134.551 38.0929C136.119 38.0202 137.945 37.7727 138.608 37.5427C139.271 37.3126 139.716 37.1106 139.595 37.0934ZM137.749 29.0683C137.456 28.0532 137.239 25.1118 137.481 25.4504C137.716 25.7784 137.874 26.9593 137.903 28.616C137.918 29.4262 137.882 29.5311 137.749 29.0683ZM134.66 407.969C133.651 408.337 132.271 409.451 131.6 410.438L131.062 411.23L132.149 411.048C132.746 410.948 133.745 410.793 134.369 410.702L135.504 410.538L135.466 409.113L135.428 407.689L134.66 407.969ZM134.21 409.858C133.72 410.457 133.72 410.457 133.967 409.855C134.329 408.973 134.797 408.197 134.966 408.197C135.204 408.197 134.745 409.205 134.21 409.858ZM133.985 28.5349C133.688 28.6417 133.589 28.7783 133.753 28.8536C133.911 28.926 134.145 28.8422 134.273 28.6667C134.435 28.443 134.35 28.4038 133.985 28.5349ZM132.22 403.863C130.961 403.516 130.932 403.55 130.932 405.332C130.932 406.258 130.833 406.991 130.709 406.991C130.585 406.991 130.541 407.3 130.611 407.681C130.68 408.06 130.626 408.773 130.491 409.263L130.246 410.156L131.031 409.112C131.841 408.036 132.906 405.449 132.906 404.557C132.906 404.232 132.662 403.984 132.22 403.863ZM132.193 405.198C131.473 406.025 131.209 405.909 131.809 405.031C132.296 404.318 132.687 404.062 132.687 404.455C132.687 404.553 132.464 404.887 132.193 405.198ZM128.863 334.986C128.772 335.098 128.255 334.929 127.714 334.609C127.172 334.29 126.659 334.029 126.573 334.029C126.487 334.029 126.293 334.668 126.141 335.449C125.989 336.229 125.714 337.349 125.529 337.936C125.344 338.523 125.049 339.461 124.873 340.021C124.697 340.58 124.6 341.102 124.657 341.181C124.835 341.425 126.7 339.51 127.367 338.398C127.967 337.398 129.216 334.548 128.863 334.986ZM126.39 336.93C126.21 336.683 127.706 335.537 128.191 335.552C128.474 335.56 128.253 335.834 127.566 336.325C126.981 336.743 126.452 337.016 126.39 336.93ZM125.339 358.855C124.374 358.856 124.007 358.909 124.523 358.973C125.039 359.036 125.828 359.036 126.277 358.971C126.726 358.906 126.304 358.854 125.339 358.855ZM124.555 351.375C123.659 350.038 123.616 350.012 123.201 350.529C122.542 351.349 121.713 353.455 121.257 355.473C120.647 358.165 120.709 358.386 121.721 357.128C122.237 356.488 122.848 356.021 123.202 355.997C123.719 355.962 123.735 355.938 123.31 355.825C122.733 355.672 122.808 355.541 124.423 353.857L125.48 352.755L124.555 351.375ZM125.085 336.969C125.024 337.176 125.024 337.515 125.085 337.722C125.145 337.93 125.195 337.76 125.195 337.346C125.195 336.931 125.145 336.762 125.085 336.969ZM123.475 353.626C123.307 353.983 123.265 353.919 123.272 353.325C123.277 352.91 123.363 352.028 123.463 351.365L123.644 350.159L123.666 351.666C123.678 352.496 123.592 353.377 123.475 353.626ZM122.817 336.14C122.7 335.891 122.605 335.823 122.605 335.989C122.605 336.155 122.7 336.494 122.817 336.743C122.934 336.991 123.03 337.059 123.03 336.893C123.03 336.727 122.934 336.388 122.817 336.14ZM122.598 358.498C122.296 358.498 122.173 358.566 122.324 358.65C122.474 358.733 122.721 358.733 122.872 358.65C123.023 358.566 122.9 358.498 122.598 358.498ZM117.652 360.711C117.246 361.59 117.133 361.712 117.238 361.164C117.429 360.164 118.204 358.477 118.207 359.053C118.208 359.302 117.958 360.048 117.652 360.711ZM113.914 463.894C113.842 463.796 113.752 462.586 113.713 461.206C113.668 459.646 113.712 458.925 113.828 459.3C114.037 459.979 114.116 464.172 113.914 463.894ZM112.868 458.783C112.583 459.403 112.173 460.113 111.957 460.359C111.582 460.787 111.58 460.766 111.923 459.903C112.341 458.851 113.384 457.081 113.386 457.421C113.386 457.549 113.153 458.162 112.868 458.783ZM108.342 471.561C108.161 471.566 107.767 471.679 107.465 471.812C107.024 472.006 107.003 472.055 107.355 472.062C107.597 472.067 107.991 471.954 108.233 471.812C108.501 471.653 108.544 471.556 108.342 471.561ZM107.483 464.576C107.271 464.576 106.727 461.57 106.898 461.336C106.953 461.26 107.108 461.789 107.243 462.51C107.378 463.232 107.525 463.958 107.569 464.124C107.614 464.289 107.658 464.459 107.667 464.5C107.677 464.542 107.594 464.576 107.483 464.576ZM106.478 472.166C106.237 472.156 105.645 472.26 105.162 472.397C104.425 472.607 104.39 472.647 104.943 472.646C105.711 472.645 107.153 472.194 106.478 472.166ZM103.431 456.697C102.903 455.101 102.389 454.457 99.789 452.14C96.3692 449.093 92.8457 447.067 88.8232 445.835C86.8305 445.224 85.9297 445.129 82.134 445.129C78.3387 445.129 77.4398 445.224 75.4626 445.833C64.1718 449.307 56.3788 460.068 54.0295 475.43C53.5446 478.6 53.488 486.267 53.9248 489.6C55.616 502.498 61.8161 511.896 70.5679 514.828C72.8387 515.589 77.4459 515.52 79.877 514.69C86.4438 512.448 91.0396 506.256 92.7941 497.288C93.4424 493.973 93.4494 488.333 92.8093 485.034C90.9951 475.685 85.442 469.951 78.6249 470.388C76.3811 470.532 75.8041 470.29 75.4302 469.049C75.2852 468.568 75.1225 468.235 75.0685 468.309C75.0148 468.383 75.0847 468.737 75.2244 469.095C75.4639 469.71 75.4495 469.726 74.9681 469.38C74.6876 469.178 74.1961 468.761 73.8759 468.452C73.0618 467.669 72.9164 467.732 72.4297 469.085L72.0003 470.278L72.994 470.743C73.5405 470.999 74.2417 471.215 74.5518 471.223C75.0354 471.235 74.9674 471.343 74.0741 471.982C73.5013 472.392 73.0324 472.796 73.0324 472.879C73.0324 472.962 73.4024 472.773 73.8548 472.46C74.307 472.146 74.924 471.789 75.2255 471.666C75.7118 471.469 75.6714 471.593 74.8674 472.758C74.3689 473.481 73.8489 474.373 73.7122 474.741C73.4912 475.335 73.539 475.462 74.145 475.893C75.0674 476.549 75.3389 476.332 75.9197 474.477C76.3765 473.016 76.4285 472.949 76.5728 473.632C76.6906 474.19 76.7226 474.057 76.7022 473.092C76.6596 471.087 77.0187 470.806 79.6119 470.814C85.2672 470.831 90.4483 476.625 92.1017 484.781C94.325 495.746 90.4409 507.469 83.0113 512.219C80.1249 514.065 78.6546 514.473 74.8966 514.473C71.3774 514.473 70.2427 514.193 67.3681 512.615C62.8945 510.159 58.7483 504.855 56.4909 498.699C53.5593 490.704 53.182 479.961 55.5033 470.577C57.5475 462.312 62.5971 454.293 68.2046 450.407C79.1055 442.851 92.6443 445.324 102.352 456.645C103.132 457.555 103.798 458.253 103.831 458.196C103.865 458.14 103.685 457.465 103.431 456.697ZM103.309 442.058C103.075 441.53 102.667 440.939 102.403 440.745C102.042 440.479 101.994 440.332 102.208 440.149C102.525 439.88 100.608 435.029 97.0853 427.191C80.6473 390.612 58.793 364.153 36.9337 354.365C30.8475 351.64 25.9789 350.527 20.177 350.536C14.3167 350.544 9.72244 351.81 5.14398 354.678C3.77874 355.533 -7.62343e-05 358.635 -7.62343e-05 358.901C-7.62343e-05 358.951 1.11318 358.198 2.47382 357.228C5.2701 355.233 8.46006 353.681 11.843 352.671C13.9006 352.057 14.7415 351.983 19.7384 351.98C24.6305 351.977 25.6606 352.062 27.9628 352.658C39.9695 355.767 51.6082 363.772 63.4844 377.09C67.0928 381.137 76.1572 393.545 79.27 398.7C87.6314 412.545 94.2739 426.69 100.438 443.777L102.996 450.867L103.37 447.998C103.848 444.343 103.836 443.248 103.309 442.058ZM101.478 245.993C101.112 245.993 99.4989 248.32 99.0883 249.44C98.8409 250.114 98.713 250.569 98.8041 250.451C98.8949 250.332 99.1466 250.366 99.3633 250.525C99.8686 250.897 100.447 250.593 100.448 249.955C100.449 249.683 100.597 249.071 100.777 248.597C100.958 248.121 101.105 247.504 101.105 247.225C101.105 246.945 101.223 246.554 101.368 246.355C101.513 246.156 101.562 245.993 101.478 245.993ZM99.5184 249.71C99.0389 249.876 99.0363 249.867 99.4471 249.445C99.9186 248.961 100.32 248.86 100.134 249.273C100.069 249.419 99.7916 249.616 99.5184 249.71ZM99.3633 268.083C98.974 267.749 98.9302 267.814 98.8519 268.84C98.7692 269.921 98.7648 269.913 98.726 268.605C98.681 267.089 98.5795 266.811 97.87 266.266C97.4735 265.961 97.3774 265.961 97.3813 266.266C97.3886 266.833 98.2284 269.273 98.6231 269.872C98.949 270.367 98.9911 270.356 99.3787 269.679C99.8952 268.777 99.893 268.538 99.3633 268.083ZM99.0032 265.011C98.7477 265.025 98.6957 265.097 98.8705 265.193C99.0289 265.28 99.2181 265.269 99.2909 265.169C99.3638 265.069 99.2344 264.998 99.0032 265.011ZM98.7473 243.542C98.3994 243.168 98.3918 243.178 98.6644 243.656C98.951 244.159 99.1311 244.318 99.1311 244.07C99.1311 244.008 98.9582 243.77 98.7473 243.542ZM97.5489 245.993C97.2401 245.993 97.5684 245.431 98.1016 245.046C98.5795 244.702 98.5799 244.704 98.165 245.346C97.9351 245.702 97.6579 245.993 97.5489 245.993ZM96.5541 87.1489L94.8544 84.7997L96.2663 86.9325C97.0429 88.1056 97.8077 89.2642 97.966 89.5069C98.1244 89.7499 98.2538 89.8473 98.2538 89.7234C98.2538 89.5998 97.489 88.4411 96.5541 87.1489ZM97.1572 120.943C96.735 120.943 96.5624 121.005 96.7734 121.081C96.9844 121.157 97.33 121.157 97.541 121.081C97.752 121.005 97.5794 120.943 97.1572 120.943ZM97.2487 127.831C96.9932 127.846 96.9412 127.917 97.116 128.013C97.2743 128.101 97.4636 128.09 97.5364 127.99C97.6092 127.889 97.4798 127.818 97.2487 127.831ZM94.6862 126.762L93.0998 125.566L93.8675 125.37L94.6351 125.173L93.6876 125.134C93.0233 125.106 92.45 124.82 91.7686 124.175C90.5849 123.056 90.5251 123.385 91.4219 126.08C92.166 128.317 93.4236 130.469 94.7594 131.791C95.3803 132.406 95.5871 132.523 95.3321 132.117C94.9415 131.495 94.9478 131.451 95.6062 130.202C95.9766 129.499 96.2782 128.706 96.2762 128.441C96.274 128.156 95.6231 127.469 94.6862 126.762ZM95.4027 121.222C95.1011 121.222 94.9776 121.291 95.1285 121.374C95.2792 121.458 95.5259 121.458 95.6768 121.374C95.8275 121.291 95.7042 121.222 95.4027 121.222ZM94.0232 88.057C93.4446 86.9804 93.2997 86.3904 93.2095 84.7433L93.0998 82.7396L92.357 84.3348C91.3186 86.5655 90.5977 89.1611 90.443 91.2266L90.3112 92.9849L91.578 93.0552C92.2746 93.0938 92.965 92.9883 93.1121 92.8203C93.3019 92.6039 93.3468 91.7512 93.267 89.8859L93.1545 87.2566L93.9405 88.4625C94.916 89.9591 94.9518 89.7846 94.0232 88.057ZM94.3975 121.5C94.142 121.514 94.0901 121.586 94.2649 121.682C94.4232 121.769 94.6125 121.758 94.6853 121.658C94.7581 121.558 94.6287 121.487 94.3975 121.5ZM94.6506 131.124C94.485 131.124 93.8403 127.768 93.9359 127.404C93.9863 127.211 94.1822 127.732 94.371 128.561C94.7134 130.065 94.8289 131.124 94.6506 131.124ZM93.9701 93.3042C93.7931 92.9822 93.6481 92.864 93.6481 93.041C93.6481 93.2183 93.7962 93.5321 93.9771 93.7387C94.3886 94.2081 94.3864 94.0604 93.9701 93.3042ZM93.5203 121.801C93.2648 121.816 93.2128 121.887 93.3876 121.984C93.5459 122.071 93.7352 122.06 93.808 121.96C93.8808 121.86 93.7514 121.788 93.5203 121.801ZM91.5519 91.135C91.124 91.7757 90.7097 92.2119 90.6317 92.1043C90.5536 91.9969 90.9041 91.3391 91.4109 90.6423C92.5285 89.1059 92.6424 89.5027 91.5519 91.135ZM89.6557 317.447C88.8155 318.582 86.4311 322.604 87.1487 321.676C87.5939 321.1 88.4152 319.811 88.9743 318.812C89.5331 317.812 89.8399 317.198 89.6557 317.447ZM88.5977 336.518C87.779 334.555 85.9339 332.002 84.6434 331.046C84.1077 330.65 83.7835 330.494 83.923 330.702C84.1173 330.99 84.0285 331.51 83.5438 332.918L82.9108 334.758L84.1673 335.405C84.8584 335.761 85.7198 336.227 86.0817 336.441L86.7397 336.829L86.0157 337.052C84.8682 337.406 84.9998 337.544 86.3605 337.412C87.4334 337.308 87.7371 337.403 88.4394 338.063C89.4406 339.003 89.4789 338.629 88.5977 336.518ZM88.4589 80.7928C87.4974 81.2954 86.5769 81.2047 85.5334 80.5046C84.5921 79.873 84.5704 79.8709 85.0643 80.4591C85.349 80.7983 85.7249 81.0759 85.8997 81.0759C86.0743 81.0759 86.1604 81.2026 86.0909 81.3572C86.0212 81.5119 85.1792 81.7326 84.2197 81.8478C82.2248 82.0869 82.0588 82.3292 82.4663 84.4093C82.6012 85.0979 82.6558 85.8615 82.5876 86.1061C82.3005 87.1348 85.1367 85.5893 87.0094 83.6968C87.9266 82.77 89.0425 81.094 89.0425 80.6433C89.0425 80.558 88.7797 80.6252 88.4589 80.7928ZM86.7261 77.6582C85.4806 76.3141 83.7789 74.8775 83.7789 75.1697C83.7789 75.2589 84.0691 75.5384 84.4237 75.7905C84.7783 76.0425 85.7159 76.9226 86.5072 77.7459C88.256 79.5655 88.4295 79.4961 86.7261 77.6582ZM86.1914 340.533C85.8898 340.644 85.495 340.861 85.3141 341.014C85.0856 341.209 85.1525 341.232 85.5334 341.092C85.835 340.981 86.2297 340.765 86.4107 340.611C86.6392 340.417 86.5723 340.393 86.1914 340.533ZM86.083 318.05C86.0183 318.05 85.7626 318.491 85.5146 319.03L85.0634 320.01L85.1435 317.092L85.2233 314.175L83.7984 314.228C82.4509 314.278 82.3652 314.24 82.2207 313.528C82.0871 312.868 82.0654 312.853 82.0463 313.411C82.0103 314.456 82.4024 316.9 82.8979 318.721C83.3185 320.266 84.9836 323.778 85.2961 323.779C85.3663 323.779 85.3906 323.05 85.3503 322.159C85.2957 320.957 85.3961 320.217 85.7385 319.294C85.9925 318.61 86.1475 318.05 86.083 318.05ZM85.0038 333.728C84.5647 332.598 84.3816 331.617 84.6097 331.617C84.7209 331.617 84.9149 332.058 85.0406 332.597C85.3674 333.997 85.3472 334.612 85.0038 333.728ZM83.9982 84.7418C83.6363 85.4283 83.3403 85.7952 83.3403 85.5567C83.3403 85.1135 84.6312 82.8496 84.6472 83.2645C84.6522 83.3902 84.3601 84.055 83.9982 84.7418ZM83.4545 316.549C82.9141 315.82 82.5213 315.156 82.5812 315.073C82.7251 314.876 84.4368 317.18 84.4368 317.571C84.4368 317.738 83.9947 317.278 83.4545 316.549ZM83.8703 341.59C83.6148 341.605 83.5629 341.676 83.7377 341.772C83.896 341.859 84.0853 341.849 84.1581 341.749C84.2309 341.648 84.1015 341.577 83.8703 341.59ZM81.6772 86.5266C81.4217 86.5411 81.3697 86.6126 81.5445 86.7088C81.7028 86.7959 81.8921 86.785 81.9649 86.6849C82.0377 86.5848 81.9083 86.5137 81.6772 86.5266ZM80.5536 170.243C80.5014 170.616 80.5014 171.226 80.5536 171.599C80.606 171.972 80.6488 171.667 80.6488 170.921C80.6488 170.175 80.606 169.87 80.5536 170.243ZM80.3341 174.166C80.2817 174.541 80.2836 175.083 80.3385 175.372C80.3933 175.66 80.4363 175.353 80.4339 174.69C80.4315 174.026 80.3865 173.791 80.3341 174.166ZM80.1178 176.429C80.0621 176.722 80.0659 177.129 80.126 177.334C80.186 177.538 80.2314 177.298 80.2271 176.8C80.2227 176.303 80.1735 176.136 80.1178 176.429ZM79.2726 179.653C78.4346 178.697 77.992 177.397 77.8484 175.47L77.7003 173.484L77.6692 175.084C77.6308 177.056 77.4819 176.961 76.1256 174.106C75.4497 172.682 74.9856 171.984 74.7766 172.078C74.6014 172.156 74.0314 172.734 73.5098 173.362C72.9234 174.068 72.4214 174.442 72.1939 174.344C71.9917 174.256 72.4453 175.01 73.2021 176.019C74.702 178.019 76.4215 179.366 78.3646 180.064C79.6132 180.512 79.9086 180.378 79.2726 179.653ZM78.1543 185.694C75.6718 185.694 72.8444 187.191 70.9489 189.509C70.4664 190.099 70.3157 190.364 70.614 190.098C71.3978 189.398 71.5355 189.47 72.2648 190.956C73.2263 192.916 73.5372 192.86 75.4203 190.385C76.3116 189.215 76.968 188.528 76.8792 188.86C76.7904 189.192 76.6811 190.006 76.6368 190.669C76.5925 191.332 76.6086 191.603 76.6726 191.272C77.2134 188.468 77.4957 187.752 78.4563 186.743L79.4557 185.694H78.1543ZM79.2351 190.899C79.1849 191.357 79.1862 192.036 79.2382 192.407C79.2901 192.778 79.3314 192.402 79.3298 191.573C79.3281 190.744 79.2855 190.441 79.2351 190.899ZM79.0213 193.916C78.9655 194.209 78.9693 194.616 79.0294 194.82C79.0895 195.024 79.1349 194.784 79.1305 194.287C79.1261 193.789 79.077 193.622 79.0213 193.916ZM78.8041 195.587C78.7408 195.805 78.7486 196.065 78.8215 196.165C78.8943 196.265 78.946 196.087 78.9366 195.769C78.9261 195.418 78.8741 195.347 78.8041 195.587ZM73.9096 175.481C72.9229 175.208 72.9229 175.208 73.7177 175.175C74.1551 175.157 74.8459 175.242 75.253 175.365C75.9048 175.561 75.9276 175.597 75.4449 175.671C75.1433 175.717 74.4525 175.632 73.9096 175.481ZM75.0736 170.399C75.0179 170.692 75.0216 171.1 75.0817 171.304C75.1418 171.508 75.1872 171.268 75.1828 170.77C75.1784 170.273 75.1293 170.106 75.0736 170.399ZM73.9279 474.95C73.7737 474.742 73.9912 474.582 74.6777 474.397L75.3352 474.22L74.6773 474.646C74.3154 474.881 73.9781 475.017 73.9279 474.95ZM72.4321 189.008C72.1167 188.731 72.1819 188.7 72.7856 188.84C73.1927 188.934 73.7848 189.034 74.1015 189.063C74.4182 189.092 74.259 189.168 73.748 189.231C73.2368 189.295 72.6446 189.194 72.4321 189.008ZM73.142 470.134C72.683 470.283 72.5525 470.251 72.7102 470.03C72.8346 469.855 73.2787 469.633 73.6971 469.536C74.6064 469.325 74.1616 469.804 73.142 470.134ZM73.5405 193.477C73.4772 193.694 73.485 193.954 73.5579 194.054C73.6307 194.154 73.6824 193.977 73.673 193.659C73.6625 193.308 73.6105 193.236 73.5405 193.477ZM72.2648 473.546C71.9029 473.89 71.2614 474.688 70.8392 475.319C70.226 476.236 70.3142 476.171 71.2778 474.994C72.8986 473.015 73.0372 472.811 72.2648 473.546ZM71.2778 490.888C70.735 490.888 70.5131 490.947 70.7844 491.019C71.0557 491.09 71.5 491.09 71.7713 491.019C72.0426 490.947 71.8207 490.888 71.2778 490.888ZM71.1467 495.607C70.8333 495.205 70.3892 494.515 70.1593 494.075L69.7417 493.274L70.2356 493.401C70.5074 493.471 70.3929 493.348 69.9812 493.129C69.5698 492.909 69.0022 492.267 68.7202 491.701L68.2074 490.672V491.58C68.2074 493.005 68.8347 495.956 69.4387 497.374L69.9894 498.665L70.8528 497.725C71.3278 497.208 71.7165 496.684 71.7165 496.561C71.7165 496.438 71.4601 496.009 71.1467 495.607ZM70.6065 310.513C70.2416 309.601 69.4786 308.203 68.9107 307.407C67.9019 305.994 66.0649 304.172 65.666 304.19C65.5561 304.195 65.6381 304.337 65.8484 304.506C66.2044 304.791 66.1921 304.917 65.6712 306.33C65.3635 307.165 65.142 308.052 65.1791 308.301C65.2168 308.554 66.0213 309.166 66.9977 309.683L68.7487 310.611L67.8749 310.98L67.0012 311.348L68.1352 311.192C69.0752 311.064 69.4409 311.169 70.2736 311.809C70.8258 312.233 71.2761 312.488 71.2739 312.376C71.2717 312.263 70.9712 311.425 70.6065 310.513ZM70.0242 497.363C69.974 496.907 69.974 496.161 70.0242 495.705C70.0745 495.249 70.1155 495.622 70.1155 496.534C70.1155 497.446 70.0745 497.819 70.0242 497.363ZM68.5364 314.14C68.4158 314.14 68.169 314.271 67.9881 314.432C67.8072 314.593 67.7578 314.724 67.8784 314.724C67.9991 314.724 68.2458 314.593 68.4267 314.432C68.6077 314.271 68.657 314.14 68.5364 314.14ZM67.4398 314.781C67.3192 314.78 66.8751 314.962 66.4529 315.186C66.0307 315.409 65.8333 315.596 66.0142 315.602C66.1952 315.607 66.6393 315.425 67.0012 315.197C67.363 314.969 67.5604 314.782 67.4398 314.781ZM67.1407 307.935C66.8836 307.546 66.4266 305.624 66.5505 305.454C66.6713 305.288 67.2872 307.171 67.3122 307.784C67.3231 308.049 67.2556 308.108 67.1407 307.935ZM65.2284 315.662C64.9729 315.676 64.9209 315.748 65.0957 315.844C65.2541 315.931 65.4434 315.92 65.5162 315.82C65.589 315.72 65.4596 315.649 65.2284 315.662ZM64.5705 308.727C64.315 308.742 64.263 308.813 64.4378 308.91C64.5961 308.997 64.7854 308.986 64.8582 308.886C64.931 308.786 64.8016 308.714 64.5705 308.727ZM64.1318 315.963C63.8763 315.978 63.8244 316.049 63.9992 316.145C64.1575 316.233 64.3468 316.222 64.4196 316.122C64.4924 316.021 64.363 315.95 64.1318 315.963ZM55.9917 185.593C54.1122 184.25 50.6682 183.816 48.3593 184.632C47.7561 184.845 47.4809 185.036 47.7476 185.055C48.1266 185.083 48.2853 185.372 48.4735 186.373C48.606 187.077 48.7617 187.879 48.8194 188.154C49.0488 189.247 49.4234 189.258 51.32 188.233C52.3453 187.679 53.2632 187.22 53.3599 187.213C53.4564 187.207 53.2983 187.642 53.0083 188.182C51.8014 190.426 52.1045 190.23 53.5864 187.809C53.9998 187.134 54.4806 186.789 55.4199 186.494L56.6933 186.094L55.9917 185.593ZM54.7181 191.372C54.1786 192.753 53.5305 194.313 53.2781 194.839L52.8191 195.794L53.352 194.943C53.9042 194.06 55.7092 189.593 55.7026 189.126C55.7006 188.98 55.2576 189.99 54.7181 191.372ZM52.7723 195.945C52.7269 195.945 52.5541 196.183 52.3885 196.473C52.1159 196.951 52.1236 196.961 52.4714 196.587C52.8368 196.193 52.9528 195.945 52.7723 195.945ZM50.6072 186.429C50.0241 186.18 48.8435 185.079 48.9711 184.903C49.074 184.762 51.1007 186.276 51.1007 186.494C51.1007 186.574 50.8785 186.544 50.6072 186.429ZM49.2633 189.614C49.2179 189.614 49.0451 189.851 48.8795 190.141C48.6069 190.619 48.6145 190.63 48.9624 190.255C49.3278 189.861 49.4438 189.614 49.2633 189.614ZM38.5492 357.101C36.0393 356.076 32.9487 356.29 30.7043 357.643C29.9377 358.106 29.9375 358.106 30.6088 357.95C31.265 357.798 31.2907 357.837 31.68 359.605C32.1989 361.962 32.4921 362.054 34.6772 360.543C35.6229 359.889 36.4525 359.355 36.5205 359.355C36.5885 359.355 36.3933 359.943 36.0867 360.662C35.4029 362.266 35.3542 362.936 36.0295 361.448C36.9572 359.403 37.4081 358.844 38.5494 358.322C39.1802 358.034 39.6962 357.747 39.6962 357.684C39.6962 357.621 39.1802 357.358 38.5492 357.101ZM38.5466 362.37C38.3632 362.627 36.6488 367.796 36.7469 367.796C36.8765 367.796 38.2869 363.889 38.4885 362.972C38.5797 362.558 38.6058 362.287 38.5466 362.37ZM32.9915 358.472C32.42 358.124 32.003 357.77 32.0649 357.685C32.1267 357.6 32.6494 357.809 33.2264 358.149C33.8034 358.489 34.2203 358.843 34.153 358.935C34.0857 359.028 33.5628 358.819 32.9915 358.472Z" fill="#E8B74B" fill-opacity="0.42"/>
</svg>
