<svg width="257" height="603" viewBox="0 0 257 603" fill="none" xmlns="http://www.w3.org/2000/svg">
<path fill-rule="evenodd" clip-rule="evenodd" d="M0.307976 564.997C0.56348 565.012 0.615458 565.083 0.440663 565.179C0.282316 565.266 0.0930459 565.255 0.0202327 565.155C-0.0525804 565.055 0.0768165 564.984 0.307976 564.997ZM2.81191 565.371C3.59597 565.371 3.91683 565.426 3.52469 565.493C3.13256 565.56 2.49127 565.56 2.09914 565.493C1.707 565.426 2.02786 565.371 2.81191 565.371ZM2.40925 558.381C2.8117 557.863 3.21019 557.438 3.29485 557.437C3.37973 557.437 3.48631 558.216 3.53193 559.169L3.61483 560.903L3.62097 558.943C3.62426 557.865 3.51746 556.78 3.38389 556.531C3.17905 556.15 3.1955 556.138 3.48785 556.451C4.40437 557.433 5.66303 561.994 5.66303 564.333V565.375L4.78576 564.069C4.30327 563.35 3.9085 562.688 3.9085 562.596C3.9085 562.504 3.40648 561.731 2.79305 560.877L1.67761 559.324L2.40925 558.381ZM9.22693 568.308C18.2167 574.349 29.3606 578.799 40.5204 580.803C41.8999 581.051 43.3802 581.252 43.8101 581.25C44.5667 581.245 44.5389 581.206 42.9469 580.014C38.1337 576.413 34.6742 571.54 32.3879 565.142C30.5735 560.065 29.7879 555.277 29.7879 549.296C29.7879 534.068 36.0099 521.73 45.469 518.199C47.9521 517.272 52.6196 517.265 55.0694 518.184C62.6446 521.026 67.3013 529.518 67.2873 540.464C67.2823 544.279 66.8473 547.026 65.7497 550.173C65.041 552.204 64.507 553.198 63.0626 555.174C60.3356 558.905 57.7275 560.444 54.132 560.444C50.7784 560.444 48.5976 559.178 46.4099 555.963C45.0508 553.966 44.1413 551.733 43.9318 549.88C43.8184 548.876 43.8244 548.881 44.1128 550.049C45.0552 553.863 46.7713 556.733 49.0603 558.321C55.0233 562.459 62.0292 559.002 65.0926 550.408C66.3045 547.008 66.6927 544.672 66.6802 540.854C66.6519 532.324 63.5462 525.199 58.2558 521.528C53.8105 518.443 48.4765 518.196 43.6478 520.852C41.3292 522.127 39.7016 523.596 37.7427 526.182C34.9754 529.834 33.2787 533.652 32.0267 539.045C31.0891 543.082 30.809 546.184 30.9419 551.051C31.086 556.334 31.7457 559.953 33.3969 564.521C36.095 571.986 40.5125 577.384 46.6016 580.656L48.9123 581.898L53.3315 581.891C55.762 581.887 58.8857 581.737 60.2729 581.558C83.8711 578.517 104.308 562.03 120.829 532.707C123.984 527.107 126.573 522.019 127.961 518.694C130.493 512.628 136.581 495.509 136.329 495.164C136.288 495.107 135.323 496.566 134.184 498.405C126.776 510.367 115.421 519.715 104.465 522.868C100.291 524.07 97.7668 524.356 92.8809 524.184C88.9003 524.044 85.0908 523.52 85.3596 523.15C85.416 523.073 87.2793 523.176 89.5003 523.379C97.2791 524.089 101.374 523.499 107.316 520.813C115.272 517.215 122.343 511.237 129.122 502.375C132.776 497.6 136.926 490.409 139.282 484.776C139.871 483.368 142.517 473.038 142.517 472.148C142.517 471.734 142.13 471.577 140.378 471.283C138.375 470.945 135.608 470.053 135.79 469.803C135.835 469.741 136.454 469.895 137.166 470.146C139.967 471.131 145.596 471.892 145.582 471.284C145.579 471.16 145.226 470.401 144.798 469.599C144.08 468.253 143.546 467.77 141.749 466.842C141.505 466.717 141.423 466.558 141.564 466.485C141.704 466.413 142.173 466.557 142.606 466.806C143.039 467.055 143.394 467.179 143.394 467.081C143.394 466.827 141.126 463.055 140.447 462.18C140.133 461.775 139.72 461.412 139.531 461.374C139.342 461.336 139.125 461.219 139.049 461.115C138.973 461.011 139.229 461.003 139.617 461.097C140.006 461.191 140.323 461.146 140.323 460.998C140.323 460.849 140.965 460.153 141.749 459.45C142.533 458.748 143.174 458.088 143.174 457.983C143.173 457.878 142.964 457.317 142.708 456.737C142.255 455.71 142.254 455.696 142.689 456.232C143.122 456.765 143.139 456.765 143.24 456.232C143.333 455.733 143.345 455.731 143.368 456.209C143.39 456.654 143.618 456.737 144.819 456.737C145.812 456.737 146.246 456.852 146.248 457.114C146.251 457.369 146.326 457.345 146.482 457.039C146.669 456.672 146.69 456.7 146.594 457.189C146.386 458.251 145.864 463.068 145.957 463.068C146.006 463.068 146.297 462.695 146.602 462.239C147.234 461.296 147.075 461.855 146.315 463.247C145.791 464.208 145.586 466.765 146.005 467.121C146.114 467.213 146.521 466.516 146.909 465.57C147.649 463.767 149.697 460.736 150.632 460.06C151.168 459.673 151.171 459.677 150.794 460.262C150.423 460.838 150.434 460.908 151.078 462.131C152.036 463.948 152.235 464.778 151.77 465.017C151.566 465.122 150.669 465.778 149.777 466.475L148.154 467.742L149.119 467.922L150.083 468.103L148.912 468.149C148.022 468.183 147.536 468.393 146.888 469.023C146.015 469.872 145.768 470.606 146.355 470.606C146.791 470.606 146.799 470.568 145.895 472.763C145.462 473.815 144.514 476.982 143.789 479.801C136.752 507.153 125.938 533.495 110.645 560.538C103.21 573.685 94.6065 587.26 86.3731 598.835L83.4108 603L82.1432 602.905L80.8757 602.811L84.4179 597.685C96.9749 579.516 109.091 559.28 116.19 544.622L117.358 542.21L113.324 547.703C108.665 554.048 106.536 556.605 102.272 560.978C89.5554 574.02 75.2869 581.361 59.286 583.092C55.233 583.531 46.593 583.29 42.6179 582.627C33.902 581.175 25.0197 578.156 17.5061 574.094C12.7544 571.525 6.10167 567.006 6.10167 566.348C6.10167 566.271 7.50792 567.152 9.22693 568.308ZM14.4149 568.04C14.8094 568.379 14.948 568.31 15.5915 567.452C15.9926 566.918 16.4148 566.482 16.5297 566.484C16.6444 566.486 17.1269 567.334 17.6018 568.368L18.465 570.249L18.6174 569.345C18.7617 568.49 18.7716 568.507 18.7962 569.653C18.815 570.54 19.0113 571.181 19.5263 572.04L20.2303 573.214L19.5061 573.015C17.9027 572.574 15.45 570.413 14.4557 568.564C13.9942 567.706 13.992 567.677 14.4149 568.04ZM17.0675 569.463C18.0255 569.488 17.0166 568.906 15.8222 568.745L14.7647 568.602L15.6419 569.026C16.1244 569.259 16.7659 569.456 17.0675 569.463ZM20.7264 569.439C20.7897 569.657 20.7818 569.917 20.709 570.017C20.6362 570.117 20.5845 569.939 20.5939 569.621C20.6044 569.27 20.6564 569.199 20.7264 569.439ZM20.9411 567.31C21.002 567.517 21.002 567.856 20.9411 568.064C20.8803 568.271 20.8305 568.101 20.8305 567.687C20.8305 567.272 20.8803 567.103 20.9411 567.31ZM37.0565 114.089C37.9954 103.929 42.9409 94.7595 50.1549 89.8054C54.0757 87.1131 57.7312 86.0503 62.2467 86.2897C68.3001 86.6111 73.7648 89.7418 78.261 95.4644L79.8605 97.5001L78.7003 94.941C71.6383 79.3635 61.4796 62.3152 52.3233 50.6754C50.4536 48.2985 48.6949 45.9242 48.4153 45.3993C47.6944 44.0459 50.8945 48.0193 55.4163 54.0923C58.9675 58.8616 59.1945 59.113 58.6846 57.7102C57.7231 55.0658 57.7225 54.9187 58.6717 54.5801C59.1302 54.4164 59.7027 54.2397 59.9439 54.1872C60.1852 54.1351 60.4966 53.8915 60.6359 53.6457C60.8403 53.2858 60.8672 53.3587 60.7749 54.0226C60.712 54.4755 60.7315 55.7574 60.8183 56.8717C60.9648 58.7543 60.9993 58.8556 61.3052 58.3038C61.6199 57.7361 61.6267 57.743 61.4618 58.4639C61.2469 59.404 61.2456 59.8258 61.4522 61.2823C61.5761 62.1557 61.5513 62.387 61.3519 62.2178C61.2063 62.0939 62.1649 63.6749 63.4819 65.7305C77.7009 87.9238 89.2209 114.465 96.4726 141.737C97.1207 144.175 97.6859 146.122 97.7282 146.063C97.7706 146.005 97.6956 144.146 97.5618 141.932C97.4278 139.719 97.2602 134.109 97.1896 129.466C96.6966 97.1082 101.468 65.5671 111.694 33.5907C114.501 24.8106 120.351 9.30689 123.581 2.08461L124.457 0.124901L125.592 0.0338499C126.216 -0.0164995 126.726 -0.00986668 126.726 0.0483216C126.726 0.10651 125.875 2.25043 124.834 4.81252C115.892 26.8345 109.06 50.1734 105.157 72.0311C103.65 80.4699 103.651 80.6216 105.182 76.7043C108.219 68.9312 111.191 63.4989 116.076 56.7964C120.964 50.0887 124.705 46.248 129.967 42.5351C141.392 34.4735 153.574 33.1288 165.655 38.5955C179.282 44.7625 190.283 58.8543 195.688 77.0667C198.896 87.8764 199.549 100.881 197.472 112.582C194.059 131.811 183.905 146.945 171.527 151.249C169.355 152.004 168.818 152.071 164.887 152.072C160.229 152.072 158.687 151.764 154.934 150.079C137.868 142.421 129.398 117.659 136.508 96.2112C138.881 89.0538 143.765 82.3422 148.59 79.6065C151.432 77.9956 152.868 77.6287 156.334 77.6287C160.217 77.6287 161.615 78.0637 164.997 80.3252C169.924 83.6202 172.976 89.0607 174.555 97.3617C175.175 100.62 175.233 105.359 174.688 108.21C173.902 112.318 171.906 116.618 169.581 119.21L168.506 120.409L169.858 118.364C172.947 113.693 174.482 106.979 173.887 100.748C172.908 90.4925 167.369 82.1571 159.697 79.3933C157.517 78.6079 153.284 78.6658 151.015 79.5124C140.857 83.3031 133.591 99.1683 134.821 114.874C135.491 123.428 137.976 130.812 142.222 136.867C147.438 144.305 153.861 148.553 161.433 149.571C166.126 150.203 171.272 149.014 175.356 146.354C187.034 138.749 194.855 122.324 196.064 102.859C196.669 93.1239 195.215 83.023 191.905 73.9637C187.427 61.7077 180.613 52.1853 171.671 45.6863C162.084 38.7194 150.918 36.7877 140.737 40.3357C122.304 46.7587 106.791 69.6367 101.871 97.6581C100.321 106.484 99.878 130.557 100.961 147.103C102.681 173.376 107.265 200.182 115.66 233.062C118.662 244.822 126.029 271.826 126.162 271.563C126.188 271.511 126.117 269.803 126.003 267.766C125.654 261.491 126.503 251.032 128.038 242.677C132.824 216.637 145.606 195.958 162.702 186.594C173.562 180.647 185.18 179.75 195.526 184.061C196.948 184.653 198.161 185.215 198.222 185.31C198.283 185.404 198.086 185.394 197.784 185.287C196.276 184.751 189.497 182.951 187.449 182.542C176.45 180.345 162.927 186.027 151.618 197.597C142.643 206.779 136.319 218.129 132.063 232.691C130.987 236.373 129.262 243.852 129.434 244.088C129.474 244.143 129.774 243.509 130.102 242.681C131.08 240.211 133.26 236.37 135.006 234.038C142.043 224.643 151.453 222.188 160.445 227.401C164.377 229.681 168.454 234.342 170.767 239.202C174.623 247.305 175.143 258.086 172.111 267.065C170.661 271.358 167.462 276.112 164.819 277.901C157.458 282.882 148.135 278.923 144.75 269.38C141.408 259.959 144.327 248.324 150.77 245.377C152.274 244.689 154.362 244.482 155.752 244.883C156.333 245.051 156.551 245.027 156.452 244.806C156.367 244.616 156.514 244.479 156.814 244.469C157.093 244.459 157.859 244.425 158.518 244.393C159.703 244.335 159.716 244.344 159.86 245.315C159.998 246.235 159.969 246.294 159.391 246.294C158.785 246.294 158.794 246.321 159.946 247.904C161.86 250.536 163.161 254.983 162.813 257.707C162.584 259.5 162.056 261.468 161.589 262.274C161.224 262.903 161.243 262.753 161.702 261.369C162.363 259.374 162.466 255.643 161.92 253.493C160.224 246.813 154.24 243.464 149.605 246.6C146.081 248.985 143.626 254.817 143.617 260.827C143.612 263.683 143.958 265.659 144.981 268.605C146.618 273.322 150.168 277.166 154.058 278.434C156.03 279.076 159.323 279.064 161.159 278.409C166.452 276.519 170.864 269.734 172.376 261.158C173.022 257.492 173.022 252.282 172.376 248.616C171.488 243.579 169.711 239.313 166.877 235.418C164.898 232.696 163.124 231.001 160.418 229.242C157.049 227.053 155.291 226.546 151.07 226.549C146.862 226.552 145.538 226.92 142.364 228.963C139.634 230.721 138.14 232.128 135.966 234.987C133.613 238.081 131.865 241.323 130.378 245.349C128.031 251.706 127.729 253.92 127.738 264.686C127.743 271.094 127.826 273.101 128.233 276.745C128.692 280.847 128.829 281.462 130.445 286.695C143.092 327.645 150.017 365.098 151.765 402.016C152.074 408.537 152.033 408.613 153.158 399.453C156.22 374.532 160.81 353.245 166.382 338.123C171.148 325.189 176.56 317.092 182.689 313.728C185.124 312.391 184.882 312.821 181.994 314.966C178.462 317.589 177.404 318.609 175.496 321.228C170.044 328.711 165.063 342.178 161.059 360.259C157.04 378.412 153.878 401.093 151.961 425.532C151.596 430.175 151.135 435.71 150.935 437.832C150.575 441.651 150.565 441.694 149.889 442.17C149.513 442.435 148.773 443.059 148.243 443.557L147.281 444.462L147.413 443.439C148.273 436.78 148.329 435.338 148.316 419.955C148.307 408.338 148.214 403.193 147.925 398.247C147.282 387.28 146.28 376.176 145.137 367.367C144.902 365.555 144.71 363.94 144.71 363.778C144.71 363.615 144.537 363.686 144.326 363.935C144.115 364.184 143.794 364.492 143.613 364.618C143.432 364.744 143.568 364.52 143.914 364.12C144.643 363.279 144.658 363.632 143.578 356.189C141.406 341.219 137.311 322.521 132.716 306.596C131.16 301.202 130.621 299.687 129.5 297.551C127.797 294.308 124.076 288.993 121.783 286.528C116.652 281.014 110.51 277.205 104.465 275.789C100.983 274.973 94.7229 275.126 91.9431 276.095C85.9439 278.186 81.3663 281.784 76.939 287.888C72.1489 294.492 69.123 302.134 67.6224 311.417C67.0623 314.882 66.9353 322.928 67.3847 326.48C69.1896 340.748 76.771 352.55 86.5097 356.253C88.4117 356.976 89.0602 357.076 91.8545 357.073C94.2323 357.07 95.3943 356.932 96.4601 356.527C104.573 353.444 110.986 343.813 112.243 332.823C113.586 321.079 108.652 309.322 100.846 305.665C98.8542 304.731 95.0613 304.512 93.2732 305.226C88.1147 307.288 84.364 313.165 83.513 320.522C82.7961 326.721 85.0533 333.448 88.8567 336.446C90.2566 337.55 90.0403 337.61 88.4318 336.564C85.7891 334.845 83.7871 331.319 82.977 326.956C82.3405 323.53 82.6748 317.574 83.649 314.985L83.9968 314.06L83.2044 314.891C82.7684 315.348 82.3824 315.669 82.3462 315.605C81.9135 314.83 81.3214 313.182 81.4071 312.991C81.4681 312.855 82.0197 312.422 82.6329 312.027C83.3878 311.541 83.658 311.23 83.4696 311.066C83.2838 310.904 83.365 310.822 83.7139 310.819C84.0012 310.816 84.5695 310.531 84.9767 310.185L85.7171 309.556L85.5191 310.272C85.3783 310.781 85.6952 310.493 86.613 309.277C90.72 303.838 96.9918 302.54 102.52 305.986C107.311 308.972 111.01 315.176 112.501 322.723C113.19 326.212 113.19 332.533 112.501 336.14C111.034 343.816 107.205 350.813 102.138 355.077C98.6086 358.046 95.596 359.182 91.3062 359.161C88.7139 359.149 87.9007 359.024 86.0836 358.358C81.537 356.694 77.9147 353.896 74.4473 349.369C69.7219 343.2 66.7197 335.416 65.6402 326.534C65.0878 321.988 65.2689 315.248 66.0751 310.362C67.6332 300.918 70.7922 293.03 75.7352 286.242C80.1355 280.2 84.8574 276.382 90.4739 274.326C102.385 269.966 116.316 275.651 126.245 288.924L127.848 291.066L126.626 287.477C125.056 282.866 121.742 274.31 119.338 268.662C110.287 247.393 100.373 229.846 87.8765 212.975C82.1021 205.179 80.936 203.835 74.6916 197.771C71.7131 194.879 69.3142 192.46 69.3607 192.396C69.6943 191.938 77.3781 197.976 80.6498 201.268L82.0559 202.683L81.1257 201.066C80.277 199.589 79.1341 196.883 79.1341 196.35C79.1341 196.23 79.2692 196.385 79.4342 196.695C79.7256 197.244 79.7669 197.24 80.8871 196.578C82.3309 195.724 82.8627 195.578 82.8616 196.038C82.8612 196.235 83.1257 197.519 83.4496 198.889C84.0082 201.252 84.3857 201.679 84.3944 199.958C84.3962 199.594 84.4758 199.231 84.571 199.15C84.6664 199.069 84.6519 199.773 84.539 200.715C84.3515 202.277 84.3846 202.566 84.9175 204.01C85.2388 204.881 85.4261 205.592 85.3336 205.592C85.241 205.591 84.8199 205.306 84.3977 204.958C83.4437 204.172 83.5196 204.273 86.4812 207.72C89.7824 211.564 95.7502 219.855 99.2722 225.491C108.809 240.753 117.353 258.351 124.67 277.801C125.917 281.117 126.939 283.742 126.941 283.634C126.943 283.526 125.653 278.845 124.075 273.233C107.848 215.541 102.192 189.85 98.8788 158.777C97.9916 150.458 93.075 132.204 87.5734 116.803C83.5062 105.417 81.9616 102.107 78.4906 97.3385C73.4558 90.4216 67.7244 87.0386 61.0405 87.0386C49.8735 87.0386 39.8922 97.7974 37.7831 112.107C37.2782 115.532 37.4352 121.808 38.1116 125.245C39.881 134.235 45.0238 141.78 50.7565 143.795C52.831 144.524 56.255 144.581 58.2957 143.92C63.4681 142.244 68.092 136.187 69.3774 129.402C69.7983 127.181 69.7952 122.702 69.3712 120.409C68.5359 115.891 66.242 111.569 63.5626 109.465C62.8992 108.944 62.4551 108.518 62.5757 108.518C62.9549 108.518 64.9489 110.217 65.91 111.359C67.2855 112.993 68.9488 116.612 69.5603 119.301C70.5946 123.848 70.4968 127.868 69.2434 132.33C67.6224 138.101 63.3319 143.117 58.5184 144.869C56.6173 145.56 52.9881 145.568 50.9519 144.885C46.4575 143.378 42.0738 138.468 39.4722 132.028C38.4825 129.578 37.3107 124.417 37.0426 121.325C36.7766 118.258 36.7788 117.095 37.0565 114.089ZM42.1672 39.6206L42.9157 38.4146L44.0954 40.0053C44.7442 40.8799 45.3186 41.548 45.3721 41.4895C45.4254 41.431 45.8144 41.924 46.2366 42.5852L47.0042 43.7875L45.705 43.6048C44.4198 43.4239 41.6049 41.7747 41.4779 41.128C41.4452 40.9622 41.7555 40.2839 42.1672 39.6206ZM42.8502 41.2788C43.607 41.2788 44.018 41.1645 43.9338 40.9773C43.7175 40.4964 41.631 40.6622 41.631 41.1603C41.631 41.2254 42.1797 41.2788 42.8502 41.2788ZM43.7634 545.904C43.8121 546.443 43.8121 547.325 43.7634 547.863C43.7149 548.402 43.675 547.961 43.675 546.884C43.675 545.806 43.7149 545.365 43.7634 545.904ZM46.2439 559.01C47.899 559.166 49.1709 559.721 48.9583 560.193C48.8945 560.335 48.6833 560.451 48.489 560.451C48.2945 560.451 47.9379 560.688 47.6966 560.978C47.4367 561.291 47.3317 561.333 47.4394 561.082C47.6234 560.652 47.2435 560.688 45.8528 561.233C45.4335 561.397 45.3594 561.31 45.3594 560.658C45.3594 560.236 45.1898 559.658 44.9828 559.373C44.6271 558.884 44.6964 558.864 46.2439 559.01ZM46.5656 560.434C46.6862 560.432 46.552 560.164 46.2671 559.838C45.9824 559.512 45.637 559.248 45.4995 559.251C45.3622 559.255 45.4964 559.523 45.798 559.848C46.0995 560.172 46.445 560.436 46.5656 560.434ZM46.0449 536.403C46.3024 535.483 46.9185 534.208 47.5139 533.365C48.078 532.566 48.519 531.974 48.494 532.049C48.4693 532.123 48.6912 532.622 48.9875 533.156C49.2838 533.69 49.5264 534.27 49.5264 534.444C49.5264 534.618 49.0261 535.202 48.4147 535.742C47.6137 536.448 47.3839 536.793 47.5922 536.974C47.7905 537.147 47.7017 537.228 47.3104 537.231C46.9963 537.234 46.4781 537.569 46.159 537.975C45.4716 538.851 45.4486 538.536 46.0449 536.403ZM47.0444 38.2075C47.1077 38.4248 47.0999 38.685 47.027 38.7851C46.9542 38.8852 46.9025 38.7073 46.9119 38.3896C46.9224 38.0383 46.9744 37.9669 47.0444 38.2075ZM48.4673 118.2C49.1511 116.587 49.1516 116.584 48.627 116.788C48.1872 116.959 48.214 116.889 48.7897 116.361C49.1684 116.014 49.5998 115.327 49.7483 114.834C50.1891 113.372 50.4036 113.801 50.4036 116.145C50.4036 118.389 49.895 121.476 49.5253 121.476C49.1138 121.476 47.7721 120.45 47.7767 120.139C47.7793 119.962 48.0901 119.09 48.4673 118.2ZM48.119 539.37C48.3745 539.385 48.4265 539.456 48.2517 539.552C48.0934 539.639 47.9041 539.628 47.8313 539.528C47.7585 539.428 47.8879 539.357 48.119 539.37ZM48.2105 534.221C48.4627 533.138 48.4627 532.65 48.2105 532.864C48.0898 532.967 48.001 533.483 48.0131 534.013C48.0339 534.931 48.0427 534.941 48.2105 534.221ZM49.3071 120.421C49.4788 120.97 49.4954 120.957 49.4954 120.27C49.4954 119.856 49.4108 119.245 49.3071 118.913C49.1353 118.364 49.1187 118.377 49.1187 119.064C49.1187 119.479 49.2033 120.089 49.3071 120.421ZM49.4349 539.672C49.6904 539.686 49.7424 539.757 49.5676 539.854C49.4093 539.941 49.22 539.93 49.1472 539.83C49.0744 539.73 49.2038 539.659 49.4349 539.672ZM50.2916 52.0828C50.4541 51.475 50.5293 50.8985 50.4589 50.8015C50.1753 50.4119 50.7015 50.6709 51.9421 51.5317C53.7048 52.7551 56.7368 56.9993 55.2834 56.2094C54.482 55.7737 53.4778 55.6896 52.8227 56.0037C52.4264 56.1937 52.1974 56.2087 52.2733 56.0399C52.3448 55.8807 52.5455 55.7505 52.7194 55.7505C52.8933 55.7505 53.0354 55.6272 53.0354 55.4761C53.0354 55.3254 52.3446 55.0417 51.5002 54.846C49.7874 54.4489 49.7075 54.2659 50.2916 52.0828ZM51.8174 53.9279C52.1202 54.2738 52.1441 54.2508 51.9979 53.7549C51.7027 52.7542 50.9734 51.2281 50.7905 51.2281C50.5473 51.2281 51.3875 53.4374 51.8174 53.9279ZM51.6647 60.0148C52.224 59.6859 52.2369 59.6934 51.8421 60.1173C51.6079 60.3688 51.3366 60.5744 51.239 60.5744C50.9057 60.5744 51.0614 60.37 51.6647 60.0148ZM52.8161 59.0669C53.0574 58.8893 53.2548 58.8121 53.2548 58.8951C53.2548 58.978 53.0574 59.1908 52.8161 59.3684C52.5749 59.546 52.3775 59.6232 52.3775 59.5403C52.3775 59.4573 52.5749 59.2445 52.8161 59.0669ZM57.038 558.339C57.3843 558.337 58.7149 556.859 58.3835 556.844C58.249 556.838 57.8788 557.114 57.561 557.458L56.9831 558.083V557.117C56.9831 556.168 56.9981 556.155 57.8056 556.338C58.258 556.441 59.152 556.526 59.7924 556.528C60.4328 556.53 60.9028 556.651 60.837 556.798C60.4907 557.568 56.7638 559.149 56.7638 558.525C56.7638 558.424 56.8873 558.34 57.038 558.339ZM58.7925 56.0254C60.1946 57.2194 60.3347 57.2592 59.5235 56.2335C59.0511 55.6362 58.5824 55.1475 58.4817 55.1475C58.1372 55.1475 58.2993 55.6055 58.7925 56.0254ZM58.7925 109.722C59.0035 109.72 59.1763 109.857 59.1763 110.027C59.1763 110.367 60.2694 111.029 60.4413 110.793C60.5005 110.712 60.2893 110.482 59.9722 110.284C59.6551 110.085 59.3956 109.809 59.3956 109.669C59.3956 109.281 62.2579 109.413 63.1201 109.841L63.8839 110.22L63.2297 110.444C62.87 110.567 62.3321 110.962 62.034 111.323C61.6914 111.738 61.6026 111.782 61.7925 111.442C62.0697 110.946 62.0483 110.928 61.5103 111.209C61.1899 111.376 60.6512 111.71 60.3132 111.95C59.5759 112.474 59.2969 112.277 59.0831 111.078C58.9945 110.582 58.8068 110.075 58.6655 109.951C58.4966 109.804 58.5401 109.725 58.7925 109.722ZM59.2077 190.991C59.7474 191.158 59.8134 191.06 60.1689 189.563C60.8587 186.658 60.7128 186.743 62.6876 188.108C63.646 188.77 64.5276 189.312 64.6469 189.312C64.7662 189.312 64.6605 188.804 64.4121 188.182L63.9603 187.051L64.4254 187.857C64.6811 188.3 65.0604 188.945 65.2683 189.291C65.4762 189.636 66.1751 190.172 66.8215 190.482C67.4678 190.792 67.8994 191.127 67.7805 191.229C67.2704 191.662 64.6643 192.318 63.453 192.318C62.1035 192.318 59.6252 191.649 58.9862 191.112C58.7111 190.881 58.7625 190.853 59.2077 190.991ZM60.4124 104.17C61.2388 103.264 61.2399 103.264 61.8333 104.694C62.1485 105.453 62.0246 105.53 61.0699 105.168C60.6172 104.996 60.1292 104.914 59.9856 104.985C59.8422 105.056 60.1545 105.277 60.6797 105.476C61.205 105.675 61.7693 105.768 61.9338 105.681C62.0983 105.594 62.3022 105.678 62.3871 105.867C62.4889 106.093 62.5985 106.011 62.7077 105.628C62.8352 105.18 62.8775 105.285 62.8893 106.076C62.8977 106.644 63.0685 107.357 63.269 107.661C63.4692 107.965 63.5712 108.299 63.4955 108.403C63.2615 108.725 61.0736 107.085 60.3308 106.031L59.6263 105.032L60.4124 104.17ZM60.2729 107.655C60.5744 107.655 60.6979 107.723 60.547 107.807C60.3964 107.891 60.1496 107.891 59.9987 107.807C59.8481 107.723 59.9713 107.655 60.2729 107.655ZM61.6294 190.663C62.9007 190.095 63.4497 189.614 62.8246 189.614C62.3485 189.614 60.2203 190.848 60.3617 191.042C60.4179 191.119 60.9883 190.949 61.6294 190.663ZM63.0692 59.9328C63.417 59.558 63.4247 59.5686 63.1521 60.0468C62.8654 60.549 62.6854 60.7085 62.6854 60.4604C62.6854 60.398 62.8582 60.1604 63.0692 59.9328ZM63.8072 58.2378C64.2859 57.21 64.6075 56.8775 64.2443 57.7856C63.9677 58.4772 63.3582 59.5611 63.3541 59.3684C63.3521 59.2855 63.5561 58.7766 63.8072 58.2378ZM64.3704 105.742C64.4338 105.959 64.4259 106.22 64.3531 106.32C64.2802 106.42 64.2285 106.242 64.2379 105.924C64.2484 105.573 64.3004 105.501 64.3704 105.742ZM64.5897 103.632C64.6531 103.849 64.6452 104.109 64.5724 104.209C64.4996 104.309 64.4478 104.131 64.4572 103.814C64.4678 103.462 64.5197 103.391 64.5897 103.632ZM65.0139 181.172C65.1632 181.172 66.9302 186.291 66.8278 186.428C66.7811 186.49 66.3302 185.333 65.8262 183.857C65.322 182.38 64.9564 181.172 65.0139 181.172ZM78.1424 517.207C78.4336 516.555 78.6135 515.891 78.5418 515.731C78.1779 514.922 79.9805 516.796 80.9222 518.206C81.8479 519.592 82.8625 521.736 82.8625 522.306C82.8625 522.399 82.4717 522.201 81.994 521.866C81.5163 521.531 80.8501 521.255 80.5136 521.252C80.1125 521.249 79.9989 521.163 80.184 521.001C80.459 520.761 79.8144 520.26 78.202 519.46C77.468 519.096 77.4583 518.738 78.1424 517.207ZM79.1429 518.211C79.3835 518.941 79.6377 519.459 79.7076 519.363C79.7776 519.266 79.5868 518.466 79.2835 517.584C78.9802 516.702 78.726 516.184 78.7185 516.433C78.7113 516.682 78.9021 517.482 79.1429 518.211ZM81.1253 198.821C81.7381 199.248 82.3548 199.543 82.496 199.477C82.7555 199.356 81.4163 198.311 80.5049 197.923C79.6532 197.561 79.9658 198.014 81.1253 198.821ZM80.7882 210.576C81.0198 209.415 81.0277 209.02 80.8235 208.818C80.2406 208.245 81.9638 208.995 83.4836 209.976C84.6232 210.711 85.5103 211.589 86.5277 212.988C87.3175 214.073 87.9215 215.019 87.8702 215.09C87.8188 215.161 87.2517 215.028 86.6102 214.795C85.5428 214.408 85.3526 214.422 84.3725 214.953C83.1472 215.617 82.9634 215.504 84.0139 214.733L84.7267 214.21L83.7398 213.994C83.197 213.875 82.2346 213.768 81.6014 213.755C80.4906 213.734 80.4507 213.704 80.4695 212.904C80.4805 212.448 80.6237 211.4 80.7882 210.576ZM81.9486 210.899C82.2905 211.546 82.7528 212.278 82.9765 212.527C83.3704 212.966 83.3711 212.952 82.9978 212.075C82.4489 210.786 81.3402 208.998 81.3332 209.392C81.3299 209.574 81.6069 210.252 81.9486 210.899ZM82.0429 220.909C82.4333 220.651 83.5233 219.677 84.4653 218.745C85.407 217.813 86.1154 217.189 86.0393 217.358C85.6829 218.151 81.637 221.797 81.4297 221.512C81.3764 221.438 81.6523 221.167 82.0429 220.909ZM82.6228 314.869C82.8487 314.544 83.3202 312.322 83.1632 312.322C83.0156 312.322 82.4427 314.201 82.4324 314.718C82.4272 314.989 82.4995 315.047 82.6228 314.869ZM84.617 522.812C84.9186 522.812 85.0421 522.88 84.8912 522.964C84.7405 523.048 84.4938 523.048 84.3429 522.964C84.1922 522.88 84.3155 522.812 84.617 522.812ZM86.3014 314.583C86.753 311.812 87.4682 310.142 87.4682 311.859C87.4682 312.268 87.7853 313.116 88.1728 313.743C88.8242 314.798 88.8303 314.827 88.2553 314.131C87.6962 313.453 87.6458 313.438 87.7601 313.98C88.1807 315.978 88.3818 317.498 88.2494 317.679C88.1656 317.795 87.7169 318.043 87.2524 318.232C86.4716 318.549 86.3983 318.526 86.283 317.935C86.1431 317.218 86.1525 315.497 86.3014 314.583ZM86.865 216.267L87.3585 215.693L86.9407 216.371C86.5481 217.009 86.3716 217.187 86.3716 216.946C86.3716 216.888 86.5935 216.583 86.865 216.267ZM86.5435 317.748C86.6383 317.748 86.8927 317.307 87.1089 316.769L87.5019 315.789L86.9368 316.635C86.3409 317.527 86.2626 317.748 86.5435 317.748ZM86.9199 201.07C87.0922 200.656 87.2333 200.452 87.2333 200.618C87.2333 200.784 87.0922 201.259 86.9199 201.673C86.7475 202.088 86.6065 202.291 86.6065 202.126C86.6065 201.96 86.7475 201.485 86.9199 201.07ZM87.6875 198.357C87.9153 197.611 88.0998 197.204 88.0976 197.452C88.093 197.959 87.2837 200.488 87.2774 200.015C87.2752 199.849 87.4596 199.103 87.6875 198.357ZM90.6215 313.226C90.6669 313.226 90.8397 313.463 91.0053 313.754C91.2779 314.232 91.2702 314.242 90.9224 313.868C90.557 313.474 90.441 313.226 90.6215 313.226ZM92.348 526.866C93.6303 525.837 94.2646 525.538 95.9515 525.167C97.6423 524.796 98.1577 525.12 97.2201 525.964C96.8885 526.263 96.427 527.056 96.1948 527.726C95.8434 528.74 95.7961 528.794 95.9134 528.048L96.0544 527.152L95.5445 527.737C95.264 528.059 94.6892 528.762 94.267 529.299C93.8448 529.837 93.4132 530.293 93.3081 530.314C93.2029 530.334 92.8305 529.763 92.4806 529.045C92.1308 528.326 91.7481 527.773 91.6304 527.814C91.1577 527.98 91.4652 527.574 92.348 526.866ZM93.7187 527.864C94.408 527.851 94.5019 527.791 94.1573 527.588C93.5171 527.21 92.0868 527.21 92.5124 527.588C92.6934 527.749 93.2362 527.873 93.7187 527.864ZM93.7893 338.875C94.4462 339.079 94.7637 338.993 95.5265 338.407C96.608 337.576 96.7944 337.678 95.766 338.538C95.0743 339.116 95.0736 339.119 95.6015 339.282C95.8928 339.372 96.5259 339.482 97.0084 339.526L97.8857 339.607V341.175C97.8857 342.694 97.8682 342.739 97.3374 342.571C96.3209 342.251 94.9414 341.312 94.0667 340.345C92.8548 339.006 92.7704 338.559 93.7893 338.875ZM94.8701 336.101C95.2179 335.726 95.2256 335.737 94.953 336.215C94.7874 336.505 94.6146 336.743 94.5692 336.743C94.3887 336.743 94.5047 336.495 94.8701 336.101ZM97.1731 342.169C97.4223 342.169 97.0038 341.155 96.5409 340.637C96.2031 340.259 96.2073 340.323 96.5762 341.19C96.8056 341.728 97.0742 342.169 97.1731 342.169ZM97.6423 409.237C98.5794 402.517 100.387 397.641 103.572 393.24C109.425 385.152 119.22 382.225 127.581 386.064C131.282 387.763 134.193 390.173 137.014 393.87C140.148 397.978 142.357 402.618 143.731 407.979C144.062 409.268 144.354 410.286 144.38 410.24C144.609 409.843 143.179 395.152 142.186 387.695C140.329 373.747 138.326 363.935 133.704 346.138C133.345 344.755 133.094 343.566 133.146 343.494C133.284 343.304 135.332 350.805 136.941 357.395L138.34 363.123L138.345 361.113C138.352 358.205 138.372 358.167 139.677 358.632C140.276 358.845 140.857 359.098 140.968 359.193C141.084 359.291 140.94 360.301 140.638 361.523C140.344 362.71 140.104 363.728 140.104 363.786C140.104 363.844 140.375 363.653 140.707 363.363C141.235 362.901 141.208 362.994 140.488 364.111C139.769 365.226 139.508 366.209 139.645 367.291C139.662 367.428 139.56 367.441 139.417 367.319C139.232 367.162 139.2 367.306 139.305 367.825C141.191 377.132 143.059 389.326 144.043 398.753C145.445 412.185 145.837 420.032 145.839 434.783C145.841 446.42 145.841 446.447 145.346 447.367C145.074 447.873 144.826 448.254 144.797 448.214C144.768 448.173 144.831 445.97 144.938 443.318C145.358 432.871 145.046 418.764 144.294 414.2C143.027 406.518 140.782 400.493 137.34 395.54C131.021 386.447 122.131 382.991 113.348 386.212C110.996 387.074 107.529 389.485 105.582 391.611C102.451 395.032 99.7146 400.789 98.6086 406.284C97.9195 409.706 97.9149 417.821 98.6 421.219C100.698 431.624 106.794 438.441 114.005 438.444C118.129 438.446 121.357 436.691 124.089 432.963C126.943 429.069 128.228 424.428 127.976 418.925C127.783 414.695 126.869 411.591 124.94 408.613L123.791 406.84L124.924 408.328C128.011 412.385 129.197 419.938 127.73 426.2C127.034 429.174 125.416 432.633 123.809 434.585C122.437 436.251 119.688 438.15 117.734 438.781C115.673 439.447 112.057 439.389 109.975 438.657C105.15 436.96 100.903 431.733 98.9498 425.087C97.5615 420.362 97.015 413.735 97.6423 409.237ZM97.7065 531.15C97.7699 531.367 97.762 531.627 97.6892 531.727C97.6164 531.827 97.5646 531.649 97.5741 531.332C97.5846 530.98 97.6366 530.909 97.7065 531.15ZM97.9271 528.568C97.9824 528.858 97.9824 529.333 97.9271 529.623C97.8721 529.913 97.8269 529.676 97.8269 529.095C97.8269 528.515 97.8721 528.278 97.9271 528.568ZM98.5891 338.722C98.9016 338.558 98.9268 338.593 98.7119 338.89C98.563 339.097 98.386 339.189 98.3186 339.096C98.2511 339.003 98.3728 338.835 98.5891 338.722ZM100.425 45.3333C102.913 48.5605 103.05 48.7513 102.491 48.1993C101.275 46.9987 99.9506 45.3393 99.3016 44.2039C98.8038 43.3329 99.1547 43.6856 100.425 45.3333ZM103.123 48.5146C103.168 48.5146 103.341 48.7519 103.506 49.0422C103.779 49.5204 103.771 49.531 103.423 49.1562C103.058 48.7622 102.942 48.5146 103.123 48.5146ZM103.898 44.8262L104.575 45.8108L104.567 44.9769C104.562 44.5183 104.425 43.1933 104.261 42.0325C104.04 40.4608 104.028 39.8654 104.215 39.7005C104.352 39.5787 105.076 39.4771 105.822 39.4743L107.179 39.4698L107.267 38.49C107.316 37.9512 107.37 38.4598 107.387 39.6206C107.404 40.7813 107.275 42.6596 107.1 43.7944C106.795 45.7777 105.34 50.0242 104.898 50.2247C104.776 50.2802 104.685 49.5783 104.685 48.5891C104.685 47.1278 104.57 46.6203 103.953 45.3489L103.222 43.8415L103.898 44.8262ZM103.724 518.48C103.92 518.376 104.143 517.946 104.219 517.526C104.296 517.105 104.449 516.435 104.559 516.037L104.759 515.314L106.257 516.298C107.808 517.316 108.127 517.382 107.645 516.583C107.49 516.327 107.405 516.059 107.456 515.99C107.507 515.92 107.74 516.255 107.975 516.736C108.218 517.233 108.823 517.83 109.382 518.123L110.362 518.638L109.387 519.038C108.851 519.258 107.673 519.43 106.768 519.42C104.999 519.4 103.1 518.814 103.724 518.48ZM105.332 518.277C106.469 517.684 106.929 517.163 106.065 517.448C105.056 517.781 104.356 518.214 104.356 518.507C104.356 518.661 104.795 518.557 105.332 518.277ZM105.449 43.2409C105.701 43.0265 106.987 40.5067 106.987 40.2269C106.987 39.8434 106.503 40.4666 105.876 41.6556C105.233 42.8764 105.041 43.5873 105.449 43.2409ZM107.992 409.426C108.248 409.441 108.3 409.512 108.125 409.608C107.967 409.696 107.778 409.685 107.705 409.585C107.632 409.485 107.761 409.413 107.992 409.426ZM108.632 404.336C108.994 404.342 109.116 404.409 108.902 404.486C108.689 404.563 108.393 404.557 108.244 404.475C108.096 404.392 108.27 404.33 108.632 404.336ZM108.699 409.403C108.796 409.403 109.356 408.984 109.942 408.472C110.762 407.758 110.937 407.479 110.698 407.271C110.469 407.071 110.541 406.999 110.973 406.995C111.296 406.993 111.876 406.625 112.263 406.177L112.966 405.363L112.799 406.101C112.449 407.656 111.53 409.811 110.676 411.085L109.787 412.411L109.155 411.211C108.521 410.009 108.369 409.403 108.699 409.403ZM108.961 513.116C109.078 513.365 109.174 513.704 109.174 513.87C109.174 514.036 109.078 513.968 108.961 513.719C108.844 513.471 108.749 513.131 108.749 512.966C108.749 512.8 108.844 512.868 108.961 513.116ZM110.196 410.501C110.376 409.696 110.47 408.964 110.405 408.875C110.22 408.62 109.866 410.059 109.868 411.061C109.869 411.818 109.922 411.727 110.196 410.501ZM115.234 34.0429C115.977 30.2143 117.834 26.1761 119.941 23.8075C120.832 22.8066 120.971 22.7101 120.493 23.4264C119.778 24.4955 119.707 24.2094 121.315 26.7438C121.766 27.4553 122.077 28.1677 122.005 28.3266C121.934 28.4858 121.998 28.616 122.148 28.616C122.299 28.616 121.54 29.4397 120.462 30.4467C119.384 31.4537 118.355 32.4743 118.175 32.7146C117.889 33.0984 117.935 33.1282 118.551 32.9591C118.937 32.8529 119.528 32.8759 119.864 33.0097C120.364 33.2093 120.19 33.2874 118.903 33.4396C117.426 33.6145 117.258 33.7122 116.107 35.0638C114.789 36.6111 114.745 36.5592 115.234 34.0429ZM117.405 37.0934C117.526 37.0763 118.266 37.2089 119.05 37.3877C119.834 37.5668 121.561 37.8285 122.888 37.9693L125.3 38.2253L122.449 38.0929C120.881 38.0202 119.055 37.7727 118.392 37.5427C117.728 37.3126 117.284 37.1106 117.405 37.0934ZM119.251 29.0683C119.544 28.0532 119.761 25.1118 119.519 25.4504C119.284 25.7784 119.126 26.9593 119.096 28.616C119.082 29.4262 119.118 29.5311 119.251 29.0683ZM122.34 407.969C123.349 408.337 124.729 409.451 125.4 410.438L125.937 411.23L124.851 411.048C124.254 410.948 123.255 410.793 122.631 410.702L121.496 410.538L121.534 409.113L121.572 407.689L122.34 407.969ZM122.79 409.858C123.28 410.457 123.28 410.457 123.033 409.855C122.671 408.973 122.203 408.197 122.034 408.197C121.796 408.197 122.255 409.205 122.79 409.858ZM123.015 28.5349C123.312 28.6417 123.411 28.7783 123.247 28.8536C123.088 28.926 122.855 28.8422 122.727 28.6667C122.565 28.443 122.65 28.4038 123.015 28.5349ZM124.779 403.863C126.039 403.516 126.068 403.55 126.068 405.332C126.068 406.258 126.167 406.991 126.291 406.991C126.415 406.991 126.459 407.3 126.389 407.681C126.32 408.06 126.373 408.773 126.509 409.263L126.754 410.156L125.969 409.112C125.159 408.036 124.094 405.449 124.094 404.557C124.094 404.232 124.338 403.984 124.779 403.863ZM124.807 405.198C125.527 406.025 125.791 405.909 125.191 405.031C124.704 404.318 124.313 404.062 124.313 404.455C124.313 404.553 124.536 404.887 124.807 405.198ZM128.137 334.986C128.228 335.098 128.745 334.929 129.286 334.609C129.828 334.29 130.341 334.029 130.427 334.029C130.513 334.029 130.707 334.668 130.859 335.449C131.011 336.229 131.286 337.349 131.471 337.936C131.656 338.523 131.951 339.461 132.127 340.021C132.303 340.58 132.4 341.102 132.343 341.181C132.165 341.425 130.299 339.51 129.632 338.398C129.033 337.398 127.784 334.548 128.137 334.986ZM130.61 336.93C130.79 336.683 129.293 335.537 128.809 335.552C128.526 335.56 128.747 335.834 129.434 336.325C130.019 336.743 130.548 337.016 130.61 336.93ZM131.66 358.855C132.625 358.856 132.993 358.909 132.477 358.973C131.961 359.036 131.172 359.036 130.723 358.971C130.274 358.906 130.695 358.854 131.66 358.855ZM132.445 351.375C133.341 350.038 133.383 350.012 133.799 350.529C134.458 351.349 135.286 353.455 135.743 355.473C136.353 358.165 136.291 358.386 135.279 357.128C134.763 356.488 134.152 356.021 133.798 355.997C133.281 355.962 133.265 355.938 133.69 355.825C134.267 355.672 134.192 355.541 132.577 353.857L131.519 352.755L132.445 351.375ZM131.915 336.969C131.976 337.176 131.976 337.515 131.915 337.722C131.855 337.93 131.805 337.76 131.805 337.346C131.805 336.931 131.855 336.762 131.915 336.969ZM133.525 353.626C133.692 353.983 133.735 353.919 133.728 353.325C133.723 352.91 133.637 352.028 133.537 351.365L133.356 350.159L133.334 351.666C133.322 352.496 133.408 353.377 133.525 353.626ZM134.183 336.14C134.3 335.891 134.395 335.823 134.395 335.989C134.395 336.155 134.3 336.494 134.183 336.743C134.066 336.991 133.97 337.059 133.97 336.893C133.97 336.727 134.066 336.388 134.183 336.14ZM134.402 358.498C134.703 358.498 134.827 358.566 134.676 358.65C134.525 358.733 134.279 358.733 134.128 358.65C133.977 358.566 134.1 358.498 134.402 358.498ZM139.348 360.711C139.754 361.59 139.867 361.712 139.762 361.164C139.571 360.164 138.796 358.477 138.793 359.053C138.792 359.302 139.042 360.048 139.348 360.711ZM143.086 463.894C143.157 463.796 143.248 462.586 143.287 461.206C143.331 459.646 143.288 458.925 143.172 459.3C142.963 459.979 142.884 464.172 143.086 463.894ZM144.132 458.783C144.417 459.403 144.827 460.113 145.043 460.359C145.418 460.787 145.42 460.766 145.077 459.903C144.659 458.851 143.616 457.081 143.614 457.421C143.614 457.549 143.847 458.162 144.132 458.783ZM148.658 471.561C148.838 471.566 149.233 471.679 149.535 471.812C149.976 472.006 149.997 472.055 149.644 472.062C149.403 472.067 149.008 471.954 148.767 471.812C148.499 471.653 148.456 471.556 148.658 471.561ZM149.517 464.576C149.729 464.576 150.273 461.57 150.102 461.336C150.047 461.26 149.892 461.789 149.757 462.51C149.622 463.232 149.475 463.958 149.431 464.124C149.386 464.289 149.342 464.459 149.333 464.5C149.323 464.542 149.406 464.576 149.517 464.576ZM150.522 472.166C150.763 472.156 151.355 472.26 151.838 472.397C152.575 472.607 152.61 472.647 152.057 472.646C151.289 472.645 149.847 472.194 150.522 472.166ZM153.569 456.697C154.097 455.101 154.611 454.457 157.211 452.14C160.631 449.093 164.154 447.067 168.177 445.835C170.169 445.224 171.07 445.129 174.866 445.129C178.661 445.129 179.56 445.224 181.537 445.833C192.828 449.307 200.621 460.068 202.97 475.43C203.455 478.6 203.512 486.267 203.075 489.6C201.384 502.498 195.184 511.896 186.432 514.828C184.161 515.589 179.554 515.52 177.123 514.69C170.556 512.448 165.96 506.256 164.206 497.288C163.557 493.973 163.55 488.333 164.191 485.034C166.005 475.685 171.558 469.951 178.375 470.388C180.619 470.532 181.196 470.29 181.57 469.049C181.715 468.568 181.877 468.235 181.931 468.309C181.985 468.383 181.915 468.737 181.775 469.095C181.536 469.71 181.55 469.726 182.032 469.38C182.312 469.178 182.804 468.761 183.124 468.452C183.938 467.669 184.084 467.732 184.57 469.085L185 470.278L184.006 470.743C183.459 470.999 182.758 471.215 182.448 471.223C181.964 471.235 182.032 471.343 182.926 471.982C183.499 472.392 183.968 472.796 183.968 472.879C183.968 472.962 183.598 472.773 183.145 472.46C182.693 472.146 182.076 471.789 181.774 471.666C181.288 471.469 181.328 471.593 182.132 472.758C182.631 473.481 183.151 474.373 183.288 474.741C183.509 475.335 183.461 475.462 182.855 475.893C181.932 476.549 181.661 476.332 181.08 474.477C180.623 473.016 180.571 472.949 180.427 473.632C180.309 474.19 180.277 474.057 180.298 473.092C180.34 471.087 179.981 470.806 177.388 470.814C171.733 470.831 166.552 476.625 164.898 484.781C162.675 495.746 166.559 507.469 173.989 512.219C176.875 514.065 178.345 514.473 182.103 514.473C185.622 514.473 186.757 514.193 189.632 512.615C194.105 510.159 198.252 504.855 200.509 498.699C203.441 490.704 203.818 479.961 201.497 470.577C199.452 462.312 194.403 454.293 188.795 450.407C177.894 442.851 164.356 445.324 154.648 456.645C153.868 457.555 153.202 458.253 153.169 458.196C153.135 458.14 153.315 457.465 153.569 456.697ZM153.691 442.058C153.925 441.53 154.333 440.939 154.597 440.745C154.958 440.479 155.006 440.332 154.792 440.149C154.474 439.88 156.392 435.029 159.915 427.191C176.353 390.612 198.207 364.153 220.066 354.365C226.152 351.64 231.021 350.527 236.823 350.536C242.683 350.544 247.277 351.81 251.856 354.678C253.221 355.533 257 358.635 257 358.901C257 358.951 255.887 358.198 254.526 357.228C251.73 355.233 248.54 353.681 245.157 352.671C243.099 352.057 242.258 351.983 237.261 351.98C232.369 351.977 231.339 352.062 229.037 352.658C217.03 355.767 205.392 363.772 193.515 377.09C189.907 381.137 180.843 393.545 177.73 398.7C169.368 412.545 162.726 426.69 156.562 443.777L154.004 450.867L153.629 447.998C153.152 444.343 153.164 443.248 153.691 442.058ZM155.521 245.993C155.888 245.993 157.501 248.32 157.912 249.44C158.159 250.114 158.287 250.569 158.196 250.451C158.105 250.332 157.853 250.366 157.637 250.525C157.131 250.897 156.553 250.593 156.552 249.955C156.551 249.683 156.403 249.071 156.223 248.597C156.042 248.121 155.895 247.504 155.895 247.225C155.895 246.945 155.777 246.554 155.632 246.355C155.487 246.156 155.437 245.993 155.521 245.993ZM157.482 249.71C157.961 249.876 157.964 249.867 157.553 249.445C157.081 248.961 156.68 248.86 156.865 249.273C156.931 249.419 157.208 249.616 157.482 249.71ZM157.637 268.083C158.026 267.749 158.07 267.814 158.148 268.84C158.231 269.921 158.235 269.913 158.274 268.605C158.319 267.089 158.42 266.811 159.13 266.266C159.526 265.961 159.622 265.961 159.619 266.266C159.611 266.833 158.772 269.273 158.377 269.872C158.051 270.367 158.009 270.356 157.621 269.679C157.105 268.777 157.107 268.538 157.637 268.083ZM157.997 265.011C158.252 265.025 158.304 265.097 158.129 265.193C157.971 265.28 157.782 265.269 157.709 265.169C157.636 265.069 157.766 264.998 157.997 265.011ZM158.253 243.542C158.6 243.168 158.608 243.178 158.336 243.656C158.049 244.159 157.869 244.318 157.869 244.07C157.869 244.008 158.042 243.77 158.253 243.542ZM159.451 245.993C159.76 245.993 159.431 245.431 158.898 245.046C158.42 244.702 158.42 244.704 158.835 245.346C159.065 245.702 159.342 245.993 159.451 245.993ZM160.446 87.1489L162.145 84.7997L160.734 86.9325C159.957 88.1056 159.192 89.2642 159.034 89.5069C158.875 89.7499 158.746 89.8473 158.746 89.7234C158.746 89.5998 159.511 88.4411 160.446 87.1489ZM159.843 120.943C160.265 120.943 160.437 121.005 160.226 121.081C160.015 121.157 159.67 121.157 159.459 121.081C159.248 121.005 159.42 120.943 159.843 120.943ZM159.751 127.831C160.007 127.846 160.059 127.917 159.884 128.013C159.726 128.101 159.536 128.09 159.463 127.99C159.391 127.889 159.52 127.818 159.751 127.831ZM162.314 126.762L163.9 125.566L163.132 125.37L162.365 125.173L163.312 125.134C163.977 125.106 164.55 124.82 165.231 124.175C166.415 123.056 166.475 123.385 165.578 126.08C164.834 128.317 163.576 130.469 162.24 131.791C161.62 132.406 161.413 132.523 161.668 132.117C162.058 131.495 162.052 131.451 161.394 130.202C161.023 129.499 160.722 128.706 160.724 128.441C160.726 128.156 161.377 127.469 162.314 126.762ZM161.597 121.222C161.899 121.222 162.022 121.291 161.871 121.374C161.721 121.458 161.474 121.458 161.323 121.374C161.172 121.291 161.296 121.222 161.597 121.222ZM162.977 88.057C163.555 86.9804 163.7 86.3904 163.79 84.7433L163.9 82.7396L164.643 84.3348C165.681 86.5655 166.402 89.1611 166.557 91.2266L166.689 92.9849L165.422 93.0552C164.725 93.0938 164.035 92.9883 163.888 92.8203C163.698 92.6039 163.653 91.7512 163.733 89.8859L163.845 87.2566L163.059 88.4625C162.084 89.9591 162.048 89.7846 162.977 88.057ZM162.602 121.5C162.858 121.514 162.91 121.586 162.735 121.682C162.577 121.769 162.387 121.758 162.315 121.658C162.242 121.558 162.371 121.487 162.602 121.5ZM162.349 131.124C162.515 131.124 163.16 127.768 163.064 127.404C163.014 127.211 162.818 127.732 162.629 128.561C162.287 130.065 162.171 131.124 162.349 131.124ZM163.03 93.3042C163.207 92.9822 163.352 92.864 163.352 93.041C163.352 93.2183 163.204 93.5321 163.023 93.7387C162.611 94.2081 162.614 94.0604 163.03 93.3042ZM163.48 121.801C163.735 121.816 163.787 121.887 163.612 121.984C163.454 122.071 163.265 122.06 163.192 121.96C163.119 121.86 163.248 121.788 163.48 121.801ZM165.448 91.135C165.876 91.7757 166.29 92.2119 166.368 92.1043C166.446 91.9969 166.096 91.3391 165.589 90.6423C164.471 89.1059 164.358 89.5027 165.448 91.135ZM167.344 317.447C168.184 318.582 170.569 322.604 169.851 321.676C169.406 321.1 168.585 319.811 168.026 318.812C167.467 317.812 167.16 317.198 167.344 317.447ZM168.402 336.518C169.221 334.555 171.066 332.002 172.356 331.046C172.892 330.65 173.216 330.494 173.077 330.702C172.883 330.99 172.971 331.51 173.456 332.918L174.089 334.758L172.833 335.405C172.142 335.761 171.28 336.227 170.918 336.441L170.26 336.829L170.984 337.052C172.132 337.406 172 337.544 170.639 337.412C169.567 337.308 169.263 337.403 168.561 338.063C167.559 339.003 167.521 338.629 168.402 336.518ZM168.541 80.7928C169.502 81.2954 170.423 81.2047 171.466 80.5046C172.408 79.873 172.429 79.8709 171.936 80.4591C171.651 80.7983 171.275 81.0759 171.1 81.0759C170.926 81.0759 170.839 81.2026 170.909 81.3572C170.979 81.5119 171.821 81.7326 172.78 81.8478C174.775 82.0869 174.941 82.3292 174.534 84.4093C174.399 85.0979 174.344 85.8615 174.412 86.1061C174.699 87.1348 171.863 85.5893 169.99 83.6968C169.073 82.77 167.957 81.094 167.957 80.6433C167.957 80.558 168.22 80.6252 168.541 80.7928ZM170.274 77.6582C171.519 76.3141 173.221 74.8775 173.221 75.1697C173.221 75.2589 172.931 75.5384 172.576 75.7905C172.222 76.0425 171.284 76.9226 170.493 77.7459C168.744 79.5655 168.57 79.4961 170.274 77.6582ZM170.809 340.533C171.11 340.644 171.505 340.861 171.686 341.014C171.914 341.209 171.847 341.232 171.466 341.092C171.165 340.981 170.77 340.765 170.589 340.611C170.361 340.417 170.428 340.393 170.809 340.533ZM170.917 318.05C170.982 318.05 171.237 318.491 171.485 319.03L171.936 320.01L171.856 317.092L171.777 314.175L173.201 314.228C174.549 314.278 174.635 314.24 174.779 313.528C174.913 312.868 174.935 312.853 174.954 313.411C174.99 314.456 174.597 316.9 174.102 318.721C173.681 320.266 172.016 323.778 171.704 323.779C171.634 323.779 171.609 323.05 171.65 322.159C171.704 320.957 171.604 320.217 171.261 319.294C171.007 318.61 170.852 318.05 170.917 318.05ZM171.996 333.728C172.435 332.598 172.618 331.617 172.39 331.617C172.279 331.617 172.085 332.058 171.959 332.597C171.632 333.997 171.653 334.612 171.996 333.728ZM173.002 84.7418C173.364 85.4283 173.66 85.7952 173.66 85.5567C173.66 85.1135 172.369 82.8496 172.353 83.2645C172.348 83.3902 172.64 84.055 173.002 84.7418ZM173.545 316.549C174.086 315.82 174.479 315.156 174.419 315.073C174.275 314.876 172.563 317.18 172.563 317.571C172.563 317.738 173.005 317.278 173.545 316.549ZM173.13 341.59C173.385 341.605 173.437 341.676 173.262 341.772C173.104 341.859 172.915 341.849 172.842 341.749C172.769 341.648 172.898 341.577 173.13 341.59ZM175.323 86.5266C175.578 86.5411 175.63 86.6126 175.455 86.7088C175.297 86.7959 175.108 86.785 175.035 86.6849C174.962 86.5848 175.092 86.5137 175.323 86.5266ZM176.446 170.243C176.498 170.616 176.498 171.226 176.446 171.599C176.394 171.972 176.351 171.667 176.351 170.921C176.351 170.175 176.394 169.87 176.446 170.243ZM176.666 174.166C176.718 174.541 176.716 175.083 176.661 175.372C176.607 175.66 176.564 175.353 176.566 174.69C176.568 174.026 176.613 173.791 176.666 174.166ZM176.882 176.429C176.938 176.722 176.934 177.129 176.874 177.334C176.814 177.538 176.768 177.298 176.773 176.8C176.777 176.303 176.826 176.136 176.882 176.429ZM177.727 179.653C178.565 178.697 179.008 177.397 179.152 175.47L179.3 173.484L179.331 175.084C179.369 177.056 179.518 176.961 180.874 174.106C181.55 172.682 182.014 171.984 182.223 172.078C182.399 172.156 182.969 172.734 183.49 173.362C184.077 174.068 184.579 174.442 184.806 174.344C185.008 174.256 184.555 175.01 183.798 176.019C182.298 178.019 180.578 179.366 178.635 180.064C177.387 180.512 177.091 180.378 177.727 179.653ZM178.846 185.694C181.328 185.694 184.155 187.191 186.051 189.509C186.534 190.099 186.684 190.364 186.386 190.098C185.602 189.398 185.464 189.47 184.735 190.956C183.774 192.916 183.463 192.86 181.58 190.385C180.688 189.215 180.032 188.528 180.121 188.86C180.21 189.192 180.319 190.006 180.363 190.669C180.407 191.332 180.391 191.603 180.327 191.272C179.786 188.468 179.504 187.752 178.544 186.743L177.544 185.694H178.846ZM177.765 190.899C177.815 191.357 177.814 192.036 177.762 192.407C177.71 192.778 177.669 192.402 177.67 191.573C177.672 190.744 177.714 190.441 177.765 190.899ZM177.979 193.916C178.034 194.209 178.031 194.616 177.971 194.82C177.91 195.024 177.865 194.784 177.869 194.287C177.874 193.789 177.923 193.622 177.979 193.916ZM178.196 195.587C178.259 195.805 178.251 196.065 178.178 196.165C178.106 196.265 178.054 196.087 178.063 195.769C178.074 195.418 178.126 195.347 178.196 195.587ZM183.09 175.481C184.077 175.208 184.077 175.208 183.282 175.175C182.845 175.157 182.154 175.242 181.747 175.365C181.095 175.561 181.072 175.597 181.555 175.671C181.857 175.717 182.547 175.632 183.09 175.481ZM181.926 170.399C181.982 170.692 181.978 171.1 181.918 171.304C181.858 171.508 181.813 171.268 181.817 170.77C181.821 170.273 181.871 170.106 181.926 170.399ZM183.072 474.95C183.226 474.742 183.009 474.582 182.322 474.397L181.665 474.22L182.323 474.646C182.684 474.881 183.022 475.017 183.072 474.95ZM184.568 189.008C184.883 188.731 184.818 188.7 184.214 188.84C183.807 188.934 183.215 189.034 182.898 189.063C182.582 189.092 182.741 189.168 183.252 189.231C183.763 189.295 184.355 189.194 184.568 189.008ZM183.858 470.134C184.317 470.283 184.447 470.251 184.29 470.03C184.165 469.855 183.721 469.633 183.303 469.536C182.393 469.325 182.838 469.804 183.858 470.134ZM183.459 193.477C183.523 193.694 183.515 193.954 183.442 194.054C183.369 194.154 183.317 193.977 183.327 193.659C183.337 193.308 183.389 193.236 183.459 193.477ZM184.735 473.546C185.097 473.89 185.738 474.688 186.161 475.319C186.774 476.236 186.686 476.171 185.722 474.994C184.101 473.015 183.963 472.811 184.735 473.546ZM185.722 490.888C186.265 490.888 186.487 490.947 186.216 491.019C185.944 491.09 185.5 491.09 185.229 491.019C184.957 490.947 185.179 490.888 185.722 490.888ZM185.853 495.607C186.167 495.205 186.611 494.515 186.841 494.075L187.258 493.274L186.764 493.401C186.493 493.471 186.607 493.348 187.019 493.129C187.43 492.909 187.998 492.267 188.28 491.701L188.792 490.672V491.58C188.792 493.005 188.165 495.956 187.561 497.374L187.011 498.665L186.147 497.725C185.672 497.208 185.283 496.684 185.283 496.561C185.283 496.438 185.54 496.009 185.853 495.607ZM186.393 310.513C186.758 309.601 187.521 308.203 188.089 307.407C189.098 305.994 190.935 304.172 191.334 304.19C191.444 304.195 191.362 304.337 191.151 304.506C190.795 304.791 190.808 304.917 191.329 306.33C191.636 307.165 191.858 308.052 191.821 308.301C191.783 308.554 190.979 309.166 190.002 309.683L188.251 310.611L189.125 310.98L189.999 311.348L188.865 311.192C187.925 311.064 187.559 311.169 186.726 311.809C186.174 312.233 185.724 312.488 185.726 312.376C185.728 312.263 186.029 311.425 186.393 310.513ZM186.976 497.363C187.026 496.907 187.026 496.161 186.976 495.705C186.925 495.249 186.884 495.622 186.884 496.534C186.884 497.446 186.925 497.819 186.976 497.363ZM188.463 314.14C188.584 314.14 188.831 314.271 189.012 314.432C189.193 314.593 189.242 314.724 189.121 314.724C189.001 314.724 188.754 314.593 188.573 314.432C188.392 314.271 188.343 314.14 188.463 314.14ZM189.56 314.781C189.681 314.78 190.125 314.962 190.547 315.186C190.969 315.409 191.167 315.596 190.986 315.602C190.805 315.607 190.361 315.425 189.999 315.197C189.637 314.969 189.439 314.782 189.56 314.781ZM189.859 307.935C190.116 307.546 190.573 305.624 190.449 305.454C190.329 305.288 189.713 307.171 189.688 307.784C189.677 308.049 189.744 308.108 189.859 307.935ZM191.771 315.662C192.027 315.676 192.079 315.748 191.904 315.844C191.746 315.931 191.557 315.92 191.484 315.82C191.411 315.72 191.54 315.649 191.771 315.662ZM192.429 308.727C192.685 308.742 192.737 308.813 192.562 308.91C192.404 308.997 192.214 308.986 192.142 308.886C192.069 308.786 192.198 308.714 192.429 308.727ZM192.868 315.963C193.124 315.978 193.176 316.049 193.001 316.145C192.842 316.233 192.653 316.222 192.58 316.122C192.507 316.021 192.637 315.95 192.868 315.963ZM201.008 185.593C202.888 184.25 206.332 183.816 208.641 184.632C209.244 184.845 209.519 185.036 209.252 185.055C208.873 185.083 208.715 185.372 208.526 186.373C208.394 187.077 208.238 187.879 208.18 188.154C207.951 189.247 207.577 189.258 205.68 188.233C204.655 187.679 203.737 187.22 203.64 187.213C203.543 187.207 203.702 187.642 203.992 188.182C205.198 190.426 204.895 190.23 203.413 187.809C203 187.134 202.519 186.789 201.58 186.494L200.307 186.094L201.008 185.593ZM202.282 191.372C202.821 192.753 203.469 194.313 203.722 194.839L204.181 195.794L203.648 194.943C203.096 194.06 201.291 189.593 201.297 189.126C201.299 188.98 201.742 189.99 202.282 191.372ZM204.228 195.945C204.273 195.945 204.446 196.183 204.611 196.473C204.884 196.951 204.876 196.961 204.528 196.587C204.163 196.193 204.047 195.945 204.228 195.945ZM206.393 186.429C206.976 186.18 208.156 185.079 208.029 184.903C207.926 184.762 205.899 186.276 205.899 186.494C205.899 186.574 206.121 186.544 206.393 186.429ZM207.737 189.614C207.782 189.614 207.955 189.851 208.12 190.141C208.393 190.619 208.385 190.63 208.038 190.255C207.672 189.861 207.556 189.614 207.737 189.614ZM218.451 357.101C220.961 356.076 224.051 356.29 226.296 357.643C227.062 358.106 227.062 358.106 226.391 357.95C225.735 357.798 225.709 357.837 225.32 359.605C224.801 361.962 224.508 362.054 222.323 360.543C221.377 359.889 220.547 359.355 220.479 359.355C220.411 359.355 220.607 359.943 220.913 360.662C221.597 362.266 221.646 362.936 220.97 361.448C220.043 359.403 219.592 358.844 218.45 358.322C217.82 358.034 217.304 357.747 217.304 357.684C217.304 357.621 217.82 357.358 218.451 357.101ZM218.453 362.37C218.637 362.627 220.351 367.796 220.253 367.796C220.123 367.796 218.713 363.889 218.511 362.972C218.42 362.558 218.394 362.287 218.453 362.37ZM224.008 358.472C224.58 358.124 224.997 357.77 224.935 357.685C224.873 357.6 224.351 357.809 223.773 358.149C223.196 358.489 222.78 358.843 222.847 358.935C222.914 359.028 223.437 358.819 224.008 358.472Z" fill="#E8B74B" fill-opacity="0.42"/>
</svg>
