<svg width="26" height="25" viewBox="0 0 26 25" fill="none" xmlns="http://www.w3.org/2000/svg">
<path fill-rule="evenodd" clip-rule="evenodd" d="M6.40481 0.0358071C4.78581 0.256128 3.43137 0.97732 2.28116 2.2317C1.2521 3.3539 0.632283 4.54386 0.27211 6.08897C-0.353343 8.77203 0.101421 11.414 1.61572 13.8944C2.58672 15.4848 3.83889 16.9446 6.14197 19.1709C7.607 20.5871 12.072 24.7152 12.2888 24.8538C12.493 24.9844 12.5689 25 13 25C13.4308 25 13.5071 24.9843 13.7112 24.854C13.9286 24.7152 18.4037 20.5773 19.858 19.1705C22.1675 16.9365 23.4146 15.4826 24.3843 13.8944C25.8986 11.414 26.3533 8.77203 25.7279 6.08897C25.3677 4.54386 24.7479 3.3539 23.7188 2.2317C22.6934 1.11341 21.5956 0.468082 20.1564 0.1376C19.4376 -0.0275037 18.1061 -0.0419275 17.4731 0.108422C15.719 0.525172 14.3704 1.47863 13.1397 3.172L13 3.36425L12.8603 3.172C11.6511 1.50808 10.3229 0.554735 8.63118 0.136334C8.12623 0.0114738 6.96819 -0.0408264 6.40481 0.0358071ZM8.10383 1.71536C9.54335 1.98737 10.7894 2.89299 11.7738 4.38272C11.9439 4.64009 12.1503 4.95213 12.2325 5.07617C12.6107 5.64718 13.3893 5.64718 13.7675 5.07617C13.8497 4.95213 14.0561 4.64009 14.2262 4.38272C15.5719 2.34637 17.4449 1.38708 19.4861 1.68882C21.7521 2.02382 23.5217 3.74521 24.1973 6.27191C24.7314 8.26923 24.4958 10.3664 23.5253 12.2553C22.7122 13.8378 21.3564 15.4927 18.9944 17.7859C17.8506 18.8965 13.0455 23.3758 12.9979 23.3759C12.9514 23.376 8.16397 18.9097 7.00558 17.7855C3.37351 14.2607 1.93988 12.0589 1.59459 9.47511C1.37158 7.80651 1.69304 6.00964 2.46673 4.60013C3.63732 2.46749 5.91525 1.30175 8.10383 1.71536Z" fill="#D7B76F"/>
</svg>
