<svg width="20" height="24" viewBox="0 0 20 24" fill="none" xmlns="http://www.w3.org/2000/svg">
<path fill-rule="evenodd" clip-rule="evenodd" d="M8.97248 0.0600255C7.69295 0.261526 6.54976 0.868797 5.65372 1.82298C4.67077 2.86972 4.16137 4.07844 4.09133 5.5303C3.9935 7.55807 4.98685 9.49652 6.6995 10.62C7.54189 11.1726 8.35438 11.4532 9.3385 11.5313C11.1626 11.6761 12.718 11.1018 13.9736 9.81977C15.2001 8.56754 15.7487 7.02252 15.5967 5.24867C15.4665 3.72829 14.795 2.41631 13.6345 1.41491C12.7177 0.623739 11.8717 0.232988 10.7061 0.0621377C10.1461 -0.0199551 9.48553 -0.020753 8.97248 0.0600255ZM10.9705 1.53638C11.7023 1.72577 12.2566 2.0472 12.8767 2.64161C13.6792 3.41086 14.0902 4.25314 14.1961 5.34551C14.3218 6.64186 13.925 7.82411 13.0488 8.76341C12.5071 9.34411 11.7064 9.83723 11.0228 10.0111C10.0194 10.2664 8.81693 10.156 7.9557 9.72965C6.77868 9.14698 5.90982 8.06133 5.59019 6.77413C5.46813 6.2826 5.48153 5.16663 5.61549 4.66196C5.97654 3.30215 7.15989 2.03898 8.47311 1.61167C9.1829 1.38074 10.2454 1.34868 10.9705 1.53638ZM4.71711 11.6364C4.00118 11.7122 3.25995 11.9822 2.67437 12.3806C1.21224 13.3752 0.266404 15.5995 0.0487201 18.5553C-0.0735688 20.2158 0.0250587 21.0365 0.450633 21.8996C0.6857 22.3762 1.13077 22.9008 1.58581 23.2376C1.92869 23.4913 2.51249 23.7564 3.02203 23.8897L3.44371 24H10.0033H16.5628L16.9845 23.89C18.4649 23.5038 19.4983 22.5011 19.8704 21.0899C20.0627 20.3604 20.0381 18.6245 19.8159 17.2529C19.322 14.2036 18.0759 12.373 16.1048 11.8007C15.6541 11.6699 14.8479 11.5704 14.6089 11.6162C14.3802 11.6599 14.0606 11.831 13.3391 12.2957C12.5618 12.7964 12.4376 12.8616 11.8585 13.0724C11.1723 13.3222 10.6634 13.4188 10.0332 13.4189C9.37332 13.4189 8.8687 13.3284 8.20314 13.0905C7.57464 12.8659 7.54742 12.8516 6.56587 12.2271C6.04828 11.8978 5.66534 11.6868 5.51316 11.6473C5.25307 11.5797 5.25312 11.5797 4.71711 11.6364ZM5.93545 13.4923C6.81917 14.0591 7.18819 14.2418 7.96029 14.495C9.97342 15.1552 12.0307 14.8366 13.9702 13.5644C14.8479 12.9886 14.8276 12.9972 15.2016 13.0445C16.9023 13.2599 17.9621 14.6918 18.4116 17.3819C18.5966 18.4891 18.6534 20.0344 18.5305 20.6205C18.3325 21.5652 17.6953 22.2301 16.7231 22.5064C16.4387 22.5872 16.0712 22.5919 10.0033 22.5919C3.91961 22.5919 3.56834 22.5874 3.27972 22.5058C2.58052 22.3082 1.97653 21.8312 1.69456 21.2542C1.45083 20.7553 1.39277 20.3382 1.42674 19.3298C1.46104 18.3118 1.5107 17.8384 1.67071 17.0064C1.79544 16.3578 2.08087 15.4379 2.28075 15.0406C2.8847 13.8401 3.7045 13.1833 4.77123 13.0455C4.94304 13.0233 5.10023 13.0025 5.12057 12.9992C5.14086 12.996 5.50758 13.2178 5.93545 13.4923Z" fill="#D7B76F"/>
</svg>
