<svg width="26" height="25" viewBox="0 0 26 25" fill="none" xmlns="http://www.w3.org/2000/svg">
<path fill-rule="evenodd" clip-rule="evenodd" d="M0.442889 0.0675037C-0.0488419 0.258629 -0.154115 0.847441 0.243614 1.18207C0.332637 1.257 1.14336 1.58884 2.25316 2.00465C3.27635 2.38802 4.1443 2.7225 4.18189 2.7479C4.23612 2.78458 4.25029 4.41269 4.25029 10.6008V18.4075L4.40946 18.8304C4.49706 19.0629 4.66033 19.372 4.77233 19.5172C5.21772 20.0945 5.9659 20.5567 6.69882 20.7074C6.85678 20.7398 6.98608 20.776 6.98608 20.7876C6.98608 20.7992 6.92261 20.9206 6.84508 21.0572C6.54775 21.581 6.47799 22.2539 6.65641 22.8767C6.80656 23.4006 7.06153 23.8035 7.47852 24.1758C7.89551 24.548 8.34691 24.7756 8.93374 24.9096C9.99019 25.1508 11.0185 24.905 11.8294 24.2175C12.401 23.7327 12.7236 23.1426 12.8133 22.4174C12.8559 22.0727 12.7281 21.4278 12.5474 21.0755L12.409 20.8055H15.8804C17.7897 20.8055 19.3518 20.8174 19.3518 20.8319C19.3518 20.8464 19.3025 20.9446 19.2422 21.0501C19.0805 21.3331 18.9706 21.8064 18.9697 22.224C18.968 22.9699 19.2662 23.6069 19.8776 24.1634C21.1036 25.2796 23.0726 25.2787 24.2998 24.1616C24.9161 23.6006 25.2064 22.9716 25.2064 22.1976C25.2064 20.9804 24.3709 19.9611 23.0178 19.5274L22.6622 19.4135L14.8104 19.3891C7.62187 19.3667 6.94165 19.3578 6.75682 19.2829C6.44724 19.1575 6.08239 18.8285 5.93898 18.5454C5.81735 18.3052 5.80865 18.2245 5.79234 17.1801L5.77494 16.0701L6.06592 16.1887C6.76207 16.4725 6.29146 16.4585 15.1092 16.4577C24.0353 16.4569 23.5373 16.4735 24.2734 16.1518C24.7465 15.945 25.406 15.3698 25.6297 14.9687C26.0203 14.2682 25.9998 14.4956 25.9998 10.8572C25.9998 7.61899 25.9983 7.5743 25.8868 7.43817C25.8247 7.36232 25.6893 7.26414 25.5859 7.21999C25.4603 7.16636 22.2773 6.75646 15.9868 5.98385C10.8107 5.3481 6.39723 4.80457 6.17902 4.77599L5.78233 4.72407V3.43084C5.78233 2.03322 5.75836 1.89851 5.48052 1.73606C5.21914 1.58317 0.914867 -0.00185443 0.766095 1.62878e-06C0.681176 0.00107619 0.535742 0.031457 0.442889 0.0675037ZM15.1798 7.2851L24.4404 8.42174V11.1614C24.4404 14.2541 24.4499 14.1752 24.0266 14.5954C23.8842 14.7369 23.67 14.8806 23.4982 14.9499L23.2093 15.0664H15.1387H7.06815L6.76355 14.9389C6.39925 14.7864 6.0831 14.5121 5.92519 14.2116C5.81106 13.9945 5.80952 13.9445 5.79475 10.0721C5.78277 6.92492 5.79355 6.15202 5.84947 6.15046C5.88777 6.14938 10.0864 6.65999 15.1798 7.2851ZM10.2255 20.8814C10.5429 20.978 10.8842 21.2382 11.0765 21.5301C11.2102 21.7331 11.2265 21.8059 11.2262 22.1976C11.2257 22.701 11.1376 22.9006 10.7798 23.2084C10.3243 23.6002 9.60297 23.7104 9.03792 23.4745C8.7001 23.3334 8.34817 22.999 8.2185 22.6958C8.09035 22.3964 8.12335 21.8427 8.28596 21.5626C8.64052 20.952 9.4838 20.6558 10.2255 20.8814ZM22.7716 20.9284C23.2816 21.1496 23.6744 21.7017 23.6744 22.1976C23.6744 22.7369 23.2072 23.343 22.6642 23.5082C21.5925 23.8342 20.5318 23.1823 20.5318 22.1976C20.5318 21.635 20.8687 21.1681 21.454 20.9195C21.6873 20.8204 21.7979 20.804 22.1424 20.8175C22.4055 20.8277 22.6312 20.8675 22.7716 20.9284Z" fill="#D7B76F"/>
</svg>
