<svg width="70" height="91" viewBox="0 0 70 91" fill="none" xmlns="http://www.w3.org/2000/svg">
<path fill-rule="evenodd" clip-rule="evenodd" d="M28.5155 0.10948C28.5738 0.295258 28.4212 0.675422 28.1761 0.954689C27.8278 1.35147 27.7818 1.54806 27.9652 1.85515C28.6073 2.93038 27.9107 3.87168 26.7621 3.48051C26.0929 3.25249 26.0221 3.48932 26.5241 4.27627C26.9725 4.97914 26.9381 5.95207 26.4506 6.34725C25.8514 6.83312 24.0811 6.79168 23.508 6.27819C22.9901 5.81414 22.5475 5.7679 22.2012 6.14166C21.8507 6.52022 22.4968 7.27914 23.1695 7.27914C23.4611 7.27914 23.8574 7.42068 24.0507 7.59365C24.5514 8.04248 24.4955 9.44101 23.9446 10.2508C23.5071 10.8936 23.4696 10.9074 22.9959 10.5965C21.1641 9.39437 19.9284 9.16275 18.6089 9.77413C17.7771 10.1595 17.6261 10.5757 18.0506 11.3114C18.709 12.4519 20.7886 12.809 22.5654 12.0863L23.5219 11.6974L24.6296 13.0417C26.2525 15.0107 27.1533 17.0443 27.1761 18.7902L27.1944 20.1915L26.3782 20.2526C25.3443 20.3296 24.3072 19.5623 23.1613 17.8721C22.7198 17.2209 22.2678 16.6882 22.1568 16.6882C21.9405 16.6882 22.0104 16.8867 22.8978 18.7902C23.6181 20.3356 23.8603 21.6129 23.5055 21.996C23.0265 22.5129 22.4349 21.961 21.4023 20.0344C19.6344 16.7352 18.4829 15.7481 17.0309 16.287C15.9415 16.6914 15.3513 17.7618 15.3653 19.3075L15.3774 20.6257L14.36 20.4524C12.6539 20.1619 10.5681 20.6784 9.60876 21.6289C8.39493 22.8316 8.18514 25.3821 9.09914 27.8222C9.69053 29.4003 10.7609 31.4317 11.487 32.3531L11.9207 32.9037H11.2281C9.8324 32.9037 7.87995 34.0528 7.86185 34.8848C7.85805 35.0613 7.60761 35.6563 7.30533 36.2068C7.00304 36.7574 6.75481 37.3565 6.7537 37.5385C6.75258 37.7261 6.4579 37.9611 6.07273 38.0814C5.62812 38.2204 5.31333 38.5004 5.16051 38.8936C5.03205 39.2235 4.75032 39.5438 4.53428 39.6053C3.87788 39.7921 3.16652 40.6145 3.03537 41.3377C2.94131 41.8572 3.02666 42.1407 3.39038 42.5175L3.86938 43.0134L3.52309 42.3727C3.33274 42.0202 3.17701 41.6064 3.17701 41.4529C3.17701 40.985 3.91898 40.5374 4.93576 40.3916C5.86629 40.2583 5.89623 40.2317 5.7671 39.6529C5.52513 38.5695 6.6659 38.0418 7.15786 39.0095C7.43691 39.558 8.25082 39.694 8.45145 39.2253C8.6161 38.8412 8.15521 38.1087 7.74926 38.1087C7.35023 38.1087 7.30041 37.0965 7.68245 36.7542C7.88085 36.5764 8.14581 36.6849 8.79395 37.2094C9.87842 38.0874 10.6461 38.2738 11.229 37.8012C12.3874 36.8617 11.0813 35.1058 9.22402 35.1058C8.43916 35.1058 8.32365 34.7418 8.94766 34.236C9.45861 33.8216 11.5956 33.7875 12.6235 34.1773C13.019 34.327 14.0894 34.9126 15.002 35.4785C16.404 36.3474 17.4757 36.7568 17.4757 36.4234C17.4757 36.3774 17.5332 36.2054 17.6035 36.0415C17.6949 35.8277 17.2849 35.5332 16.156 35.0015C12.3899 33.2282 9.60786 29.3022 9.29373 25.3174C9.18895 23.9877 9.23966 23.681 9.6941 22.8957C10.6834 21.1867 12.5011 20.6716 14.7804 21.4545C15.7045 21.772 15.8153 21.8925 16.4248 23.2422C16.784 24.0382 17.4824 25.1012 17.9766 25.6043C18.7331 26.3742 18.9856 26.5094 19.5718 26.4583C20.2517 26.3988 20.2682 26.373 20.2615 25.3887C20.2495 23.6724 19.0584 22.2599 16.6044 21.0517C15.9303 20.7198 15.9118 20.6726 15.9118 19.2846C15.9118 17.9754 15.9652 17.8106 16.5649 17.2733C17.9304 16.0497 18.9458 16.8395 20.0464 19.9809C20.8714 22.3358 21.5247 23.2707 22.6914 23.7667C24.5737 24.5671 25.2699 23.9391 24.9169 21.7588L24.7169 20.5234L25.5585 21.1206C27.1218 22.2301 28.257 22.2503 28.6526 21.1758C28.942 20.3907 28.7885 19.2508 28.2078 17.8683C27.7914 16.8769 25.2035 12.9536 24.3434 12.0095L23.8197 11.4345L24.3523 10.508C24.7792 9.76512 24.8626 9.37595 24.773 8.54596L24.6611 7.51057L25.8327 6.99687C27.1944 6.3999 27.6225 5.81634 27.4833 4.74672C27.4015 4.11972 27.4783 3.91212 27.9033 3.61283C28.2482 3.3696 28.4232 3.03688 28.4232 2.62429C28.4232 2.28236 28.5418 1.70861 28.6866 1.34967C28.8906 0.844583 28.889 0.591942 28.6797 0.234399C28.5311 -0.0200441 28.4572 -0.0760979 28.5155 0.10948ZM22.1483 10.7014C22.9624 11.2407 22.7379 11.4754 21.4032 11.4802C20.1355 11.4846 19.3098 10.7206 19.9559 10.1417C20.2752 9.85561 21.2459 10.1034 22.1483 10.7014ZM28.2101 11.1719C27.5119 11.9256 28.4082 12.9372 29.4111 12.5276C30.4031 12.1226 30.0664 10.8826 28.9643 10.8826C28.6969 10.8826 28.3573 11.0127 28.2101 11.1719ZM43.0441 11.0357C42.1149 11.6139 41.7878 13.1754 42.2786 14.6876C42.4775 15.2992 42.4458 15.4311 42.0271 15.7398C40.5577 16.8229 39.5728 16.1813 39.1939 13.8941C38.931 12.3068 38.6318 11.8347 37.9457 11.924C37.3043 12.0075 36.5927 13.0401 36.0272 14.7087C35.7622 15.4904 35.5002 16.0894 35.4447 16.0399C35.3896 15.9903 35.1192 15.3279 34.844 14.5675C34.3116 13.0959 33.7941 12.7218 33.3411 13.4805C33.2032 13.7113 32.9498 14.7393 32.778 15.7647C32.3985 18.0304 32.0823 18.7305 31.4753 18.6492C30.7827 18.5563 30.1763 17.2743 30.1223 15.7891C30.0698 14.3477 29.7771 13.8606 29.2145 14.2788C28.7527 14.6224 28.7806 15.3857 29.3113 16.9252C29.8421 18.4655 30.7425 19.3547 31.671 19.256C32.6105 19.1565 33.0969 18.3776 33.4539 16.4005C33.6299 15.4265 33.8125 14.5951 33.8594 14.5531C33.9063 14.5109 34.0598 14.9897 34.2003 15.6169C34.644 17.5964 35.806 18.1768 36.2448 16.6381C36.8505 14.5137 37.2696 13.412 37.4982 13.3438C37.6345 13.3029 37.9736 13.8154 38.252 14.4824C39.0847 16.4771 40.4363 17.1486 41.9399 16.314L42.6102 15.942L43.3106 16.6153C44.4925 17.7516 45.6911 17.4665 49.1865 15.2175C51.544 13.7009 52.3876 13.4066 54.0313 13.5287C55.5465 13.6414 56.2393 14.1771 56.5503 15.4762C56.8546 16.7472 56.6886 17.1712 55.7704 17.4687C54.3211 17.9382 53.9254 19.2906 55.2373 19.2906C55.8347 19.2906 57.0206 18.3485 57.0206 17.8739C57.0206 17.576 58.5477 17.6617 59.2796 18.0008C60.1961 18.4254 60.1214 19.2716 59.1431 19.5515C58.3276 19.7849 57.6909 20.2574 57.6909 20.6291C57.6909 21.1016 58.3859 21.1714 59.196 20.7805C59.9566 20.4135 59.9791 20.4137 60.2839 20.7873C60.4552 20.9973 60.5953 21.3768 60.5953 21.6311C60.5953 22.0048 60.7162 22.0933 61.2267 22.0933C61.6112 22.0933 62.0629 22.2889 62.3826 22.5938C63.054 23.234 64.7319 23.2991 65.5357 22.7159C65.9211 22.4363 66.1899 22.3826 66.5659 22.5107C67.2525 22.7446 68.038 22.4485 68.5972 21.7446C69.5137 20.5913 69.423 19.4908 68.4116 19.4908C67.8923 19.4908 67.6832 20.0077 68.0641 20.3491C68.3119 20.5711 68.3142 20.7258 68.0767 21.2317C67.6676 22.1035 67.3501 22.2032 66.5887 21.6989C65.8751 21.2261 65.8036 21.2409 65.4149 21.9396C65.0976 22.5099 64.0665 22.9654 63.4273 22.8176C63.1599 22.7558 62.7645 22.4236 62.5484 22.0797C62.3321 21.7358 61.9552 21.4075 61.7106 21.3502C61.4657 21.2928 61.2656 21.0862 61.2656 20.891C61.2656 20.6958 61.079 20.3296 60.8507 20.0772C60.5441 19.7379 60.4633 19.401 60.5406 18.786C60.6317 18.0615 60.5665 17.8981 60.0372 17.5252C59.703 17.2893 58.9628 17.0405 58.3924 16.972L57.3557 16.8473L57.3111 15.9763C57.2172 14.1509 55.9945 13.0867 53.9893 13.0855C52.2757 13.0843 50.6812 13.5886 47.9722 14.9881C44.8598 16.5961 44.486 16.6856 43.7277 16.0061L43.1471 15.4858L43.7427 14.7861C44.36 14.0608 44.9293 12.8495 44.9462 12.2249C44.9576 11.8119 44.0007 10.8812 43.5698 10.8856C43.4107 10.8874 43.1741 10.9549 43.0441 11.0357ZM43.753 13.5331C43.6743 13.9089 43.4636 14.3896 43.2847 14.6014C42.9884 14.9523 42.9589 14.8782 42.9525 13.7688C42.9446 12.4213 43.0941 12.1312 43.5749 12.562C43.7954 12.7598 43.8513 13.0637 43.753 13.5331ZM56.127 18.2959C56.127 18.5357 55.4967 18.7928 55.313 18.628C55.1173 18.4526 55.4491 18.0895 55.805 18.0895C55.9822 18.0895 56.127 18.1824 56.127 18.2959ZM40.9346 19.0292C32.2568 19.861 23.9785 24.9094 20.1574 31.6999C18.4413 34.7494 17.5711 37.6855 17.3365 41.2172C17.1871 43.4662 17.562 47.418 17.9447 47.63C18.0524 47.6896 18.066 47.4432 17.9751 47.0772C17.8848 46.7139 17.8158 44.9302 17.8218 43.1134C17.831 40.324 17.9118 39.5456 18.3428 38.1087C21.1045 28.9006 29.2183 21.9041 38.8972 20.3853C41.2967 20.0087 45.4896 20.0089 47.8871 20.3857C57.0381 21.8237 64.3047 27.4689 67.2929 35.4613C70.4174 43.8175 67.8977 52.5821 60.575 58.8297C57.7083 61.2754 54.8856 62.8095 51.3235 63.8577C50.3404 64.1468 49.4405 64.4623 49.3239 64.5588C48.8862 64.9203 50.1117 64.7175 52.0317 64.1106C58.7202 61.9963 64.0064 58.0281 66.9357 52.9228C68.7246 49.8047 69.496 47.1615 69.6819 43.5138C70.0821 35.6529 65.7373 27.6689 58.6799 23.2975C53.5737 20.1345 46.6867 18.4779 40.9346 19.0292ZM39.6466 22.393C31.2831 23.7515 24.9403 28.5401 22.0931 35.6449C21.218 37.8288 20.2606 42.9265 20.7796 42.6392C20.8916 42.5773 21.0464 41.7804 21.1239 40.8681C21.3031 38.7603 21.7627 37.2274 22.8281 35.1821C25.6407 29.7833 31.1395 25.5632 37.695 23.7725C39.5308 23.2709 40.0168 23.2234 43.2804 23.225C47.0964 23.227 48.648 23.4748 51.6523 24.5623C58.3482 26.9856 63.1659 32.2152 64.6633 38.6854C65.2949 41.4154 65.1365 45.4449 64.2962 48.0181C63.5949 50.1664 62.3208 52.6336 61.0182 54.3654C59.0423 56.9931 54.9281 60.1135 52.2162 61.0416C51.6637 61.2306 51.2118 61.4608 51.2118 61.5533C51.2118 62.0027 55.0038 60.2168 57.2047 58.7308C65.6468 53.0307 68.6495 42.6344 64.2933 34.1863C61.6157 28.9931 56.704 24.9397 50.9631 23.1854C47.5051 22.1286 43.1513 21.8239 39.6466 22.393ZM18.3694 24.0512C18.3694 24.491 17.856 24.2242 17.3082 23.4997C16.5642 22.5157 16.6978 22.3217 17.5874 23.0943C18.0175 23.4678 18.3694 23.8985 18.3694 24.0512ZM40.1734 25.2662C40.109 25.3597 39.9401 26.0667 39.798 26.8375C39.607 27.8731 39.5981 29.7821 39.7632 34.1493C39.9663 39.5172 40.1687 41.1356 40.5653 40.5606C40.9245 40.0397 40.956 36.8589 40.6254 34.5052C40.1137 30.8659 39.9725 28.1984 40.2038 26.5476C40.4051 25.1104 40.4008 24.9364 40.1734 25.2662ZM48.2361 25.6968C47.8967 26.6475 47.829 33.3329 48.1275 36.4415C48.4074 39.3581 48.4358 39.468 48.8393 39.2029C49.239 38.9407 49.247 38.7759 49.0053 35.8653C48.8654 34.1813 48.7408 31.6325 48.7283 30.2011C48.6994 26.8921 48.4908 24.9829 48.2361 25.6968ZM31.0302 28.6808C30.9588 29.0007 30.7865 30.6449 30.6473 32.3343C30.3821 35.5528 30.4867 37.4016 30.9907 38.4089C31.2543 38.9356 31.2939 38.4684 31.3113 34.6053C31.3225 32.183 31.3949 29.728 31.4724 29.1501C31.6232 28.0246 31.2622 27.6414 31.0302 28.6808ZM55.5963 30.3262C55.5195 30.6703 55.4567 33.0104 55.4567 35.5264C55.4567 39.7456 55.4913 40.1518 55.9026 40.7564L56.3488 41.4118L56.3495 37.0879C56.3506 31.0543 56.0454 28.3141 55.5963 30.3262ZM10.9515 36.3626C11.111 36.4779 11.2115 36.7602 11.1749 36.99C11.0681 37.6606 10.2502 37.6118 9.31899 36.8791C8.58126 36.2987 8.53613 36.211 8.90589 36.0787C9.39339 35.9044 10.537 36.0631 10.9515 36.3626ZM61.6469 37.5081C61.2776 38.7253 61.7041 48.3555 62.1606 49.1066C62.4894 49.6475 62.6407 46.0423 62.3987 43.4348C62.2671 42.0148 62.1492 40.2131 62.1369 39.4309C62.1246 38.6486 62.0437 37.7833 61.9568 37.5081L61.7989 37.0076L61.6469 37.5081ZM48.6983 39.9334C47.9313 40.32 48.321 48.4087 49.1423 49.147C49.2917 49.2814 49.2917 44.0752 49.1425 40.8743C49.0949 39.8553 49.0484 39.757 48.6983 39.9334ZM55.6868 43.3036C55.6815 44.6571 55.736 44.9452 55.9594 44.7446C56.3086 44.4311 56.305 42.5515 55.9542 42.0124C55.7409 41.6845 55.6924 41.9179 55.6868 43.3036ZM56.2666 45.0749C56.206 45.1628 56.2487 45.3654 56.3618 45.5254C56.522 45.7524 56.5677 45.7173 56.5704 45.3656C56.5738 44.9026 56.4603 44.7939 56.2666 45.0749ZM55.8555 46.6664C55.975 48.3655 56.0208 48.472 56.2876 47.67C56.5407 46.9083 56.3872 45.8937 56.0014 45.7786C55.8805 45.7424 55.8175 46.1257 55.8555 46.6664ZM56.1792 48.5611C55.9502 48.8091 55.9621 49.4295 56.2404 51.8042C56.4297 53.4191 56.6725 55.0747 56.78 55.4833L56.9757 56.226L56.9762 55.5253C56.9764 55.14 56.8607 53.3462 56.7192 51.5395C56.5079 48.8393 56.4116 48.309 56.1792 48.5611ZM63.1396 60.2481C62.9702 60.852 63.3288 62.0404 64.0835 63.3763C64.3769 63.8955 64.6168 64.4779 64.6168 64.6703C64.6168 65.4438 63.8559 64.3304 63.2609 62.6864C62.7933 61.3941 62.5618 61.017 62.2064 60.9689C61.9025 60.9277 61.7008 61.0482 61.6007 61.3307C61.5182 61.5637 61.2079 61.837 60.9112 61.9381C60.6145 62.039 60.3719 62.2141 60.3719 62.3268C60.3719 62.4398 60.1272 62.532 59.8281 62.532C59.4034 62.532 59.2691 62.6506 59.2137 63.0746C59.1632 63.4631 58.9845 63.6503 58.5845 63.7332C58.1154 63.8307 58.0081 63.9922 57.9143 64.7422C57.8064 65.6048 57.7749 65.637 56.9817 65.6963C55.9366 65.7741 55.4592 66.2236 55.9522 66.6654C56.2458 66.9285 57.0736 66.9707 61.4671 66.9477C64.3103 66.9329 66.7853 66.8694 66.9672 66.8069C67.498 66.6244 67.3546 66.0508 66.4915 64.9043C65.5138 63.6055 63.7231 60.4548 63.7231 60.0336C63.7231 59.5328 63.296 59.6897 63.1396 60.2481Z" fill="white"/>
<path fill-rule="evenodd" clip-rule="evenodd" d="M49.4179 52.8764C48.3126 52.1765 47.1465 51.6897 46.0573 51.4733C45.5459 51.3718 45.4765 51.33 45.6827 51.2482C46.0895 51.0869 46.0174 50.8884 45.411 50.4997C44.8001 50.1082 43.3042 49.8162 42.5833 49.9478C42.2235 50.0135 42.1969 49.9987 42.3226 49.8028C42.6723 49.2587 41.3055 49.2005 39.8644 49.698C38.9967 49.9976 38.7096 50.1519 38.224 50.5799C37.5722 51.1541 36.6002 52.4843 36.6302 52.7605C36.6409 52.8579 36.8396 52.6405 37.0718 52.2775C37.8778 51.0178 39.1379 50.1781 40.7226 49.8447C41.6706 49.6452 41.9119 49.6924 41.6922 50.0343C41.5301 50.2867 41.7415 50.4778 42.0516 50.3591C42.4566 50.204 43.504 50.2938 44.3504 50.5562C45.281 50.8446 45.4653 51.0072 45.1315 51.2453C44.822 51.466 44.9546 51.6081 45.5366 51.6791C46.5769 51.806 49.5061 53.0612 49.4605 53.3607C49.4507 53.4254 49.1238 53.5253 48.7341 53.583C47.9969 53.6919 46.5777 54.1979 46.4994 54.3796C46.4748 54.437 46.5892 54.5374 46.7539 54.6026C47.0394 54.7156 47.0304 54.7301 46.5573 54.9178C46.2844 55.026 46.0527 55.17 46.0426 55.2378C46.0322 55.3055 46.2888 55.5698 46.6127 55.8252C47.5287 56.5473 48.6189 58.2461 48.258 58.3893C48.2067 58.4096 48.0614 58.3804 47.9349 58.3245C47.5589 58.1581 47.5569 58.354 47.9281 58.9592C48.3561 59.6566 48.5597 60.9076 48.4008 61.8632C48.2872 62.5458 48.1439 62.7198 47.8854 62.4886C47.6195 62.251 47.4587 62.4485 47.4105 63.0722C47.3846 63.4066 47.2488 63.9593 47.1086 64.3003C46.8668 64.8885 46.1548 65.9606 45.9526 66.0408C45.901 66.0612 45.8806 65.7983 45.9074 65.4564C45.9672 64.6947 45.7497 64.1778 45.424 64.307C45.2344 64.3822 45.1294 64.2851 44.754 63.6876C44.0248 62.5269 43.8365 62.328 43.6253 62.4953C43.4675 62.6204 43.3629 62.5368 42.8973 61.9129C42.2762 61.081 41.7763 59.7267 41.7978 58.9349C41.8142 58.3313 41.5965 58.2727 41.4212 58.8334C40.9435 60.362 40.7991 60.7215 40.5536 60.9953C40.2952 61.2836 40.2735 61.2889 40.1735 61.0883C39.9941 60.7283 39.7423 60.8123 39.5101 61.31C39.221 61.9295 38.5381 63.0215 38.4075 63.0733C38.3513 63.0956 38.1057 62.6391 37.8619 62.0589L37.4185 61.0039L37.0979 61.131C36.8467 61.2306 36.7507 61.2056 36.6542 61.0155C36.5546 60.8193 36.5241 60.8127 36.4945 60.9816C36.4307 61.3461 36.6844 61.7024 36.9773 61.6595C37.3187 61.6097 37.6056 62.1395 37.7423 63.0728C37.8561 63.8496 38.0515 63.9438 38.557 63.4658C38.9411 63.1024 39.5764 62.1985 39.681 61.8665C39.7741 61.5709 39.943 61.4988 40.0482 61.71C40.2113 62.0374 40.7697 61.4976 41.233 60.5647L41.5215 59.984L41.7876 60.7084C41.9677 61.1988 42.2763 61.721 42.7427 62.3245C43.4833 63.2829 43.7148 63.458 43.9565 63.2424C44.0894 63.124 44.1676 63.2332 44.52 64.0308C44.918 64.9313 44.9366 64.9535 45.1974 64.8401C45.3448 64.7759 45.4744 64.741 45.4851 64.7625C45.5876 64.9683 45.4677 65.7374 45.2645 66.1771C45.1257 66.4778 45.0436 66.7872 45.0822 66.8648C45.2791 67.2599 46.5894 66.1564 47.1895 65.0904C47.3675 64.7742 47.5874 64.1295 47.6781 63.6577C47.7687 63.1859 47.8807 62.8756 47.9268 62.9681C48.1855 63.4873 48.7038 62.7742 48.8305 61.7252C48.9144 61.0299 48.7193 59.6104 48.4715 59.113C48.2843 58.7372 48.2873 58.7311 48.6164 58.8277C48.94 58.9227 48.9521 58.9174 48.941 58.6866C48.9345 58.5548 48.6854 57.9606 48.3873 57.3663C47.8791 56.3531 47.7036 56.1309 46.8364 55.4032C46.6532 55.2495 46.6851 55.2227 47.2385 55.0669C47.8755 54.8873 47.8687 54.921 47.3587 54.4822C47.1415 54.2953 48.8244 53.8014 49.6816 53.8004C50.4055 53.7995 50.5919 53.763 50.5278 53.6346C50.5056 53.59 50.0061 53.2488 49.4179 52.8764ZM46.8203 52.961C45.2632 52.8371 44.1522 52.8123 43.1904 52.8802C42.6896 52.9156 42.2191 52.9283 42.1451 52.9083C41.9679 52.8607 42.8363 52.0277 43.541 51.5695C43.8471 51.3705 44.084 51.1806 44.0675 51.1475C44.0031 51.0182 42.7927 51.7586 42.0421 52.3866L41.2516 53.0479L40.1877 53.2636C39.327 53.4382 39.0024 53.4439 38.4887 53.2935C37.2476 52.9302 35.449 52.7499 32.8444 52.7274C31.6104 52.7167 31.4768 52.5844 32.6376 52.5223C33.6989 52.4656 34.1952 52.2546 34.4748 51.7416C34.7598 51.2183 34.8374 51.1912 35.814 51.2753C37.1171 51.3872 37.4009 51.1683 37.246 50.1708C37.1369 49.4682 37.3836 49.3397 38.8139 49.3536C40.2674 49.3678 40.6016 49.3097 40.9505 48.9818C41.5685 48.4008 41.1622 47.1736 40.0554 46.2783L39.5994 45.9094L39.776 45.5368C40.2414 44.5546 39.785 43.3584 38.7386 42.8173C38.4682 42.6775 38.3185 42.5133 38.2797 42.3139C38.2107 41.9616 37.5125 41.3808 36.8156 41.0962L36.3327 40.899L36.8831 41.2677C37.5374 41.7062 37.9874 42.3447 37.6723 42.3876C37.0516 42.4719 36.6772 42.633 36.6107 42.8442C36.4375 43.3948 37.4555 43.6277 37.9848 43.1586C38.1843 42.9818 38.2853 42.9717 38.5317 43.1042C39.2479 43.489 39.6479 44.4402 39.4072 45.1855L39.2605 45.6395L38.5147 45.4138C37.7163 45.1722 37.2477 45.2549 37.0695 45.6689C36.8353 46.2134 37.4659 46.651 38.314 46.5328C38.6207 46.4901 38.9649 46.3886 39.0792 46.3071C39.4495 46.043 40.6387 47.2031 40.8634 48.0478C41.0585 48.7811 40.749 48.9281 39.0697 48.8989C38.2737 48.8851 37.4845 48.9285 37.3159 48.9953C36.9189 49.1528 36.7486 49.6266 36.8681 50.241C37.02 51.0221 36.8335 51.1363 35.6959 50.9582C35.1559 50.8737 34.6252 50.8398 34.5165 50.8829C34.4079 50.926 34.202 51.1802 34.0591 51.4477C33.7993 51.9344 33.3645 52.2046 32.8068 52.226C32.3611 52.243 32.6591 51.9343 33.8442 51.1507C35.1778 50.2689 35.7363 49.6456 36.1242 48.6066C36.4313 47.7843 36.4181 47.3796 36.0744 47.0646C35.6072 46.6367 35.1206 46.9997 35.0324 47.8418C34.952 48.6088 34.2679 49.8935 33.6988 50.3461C32.9366 50.9525 31.4298 51.8692 30.9717 52.0053L30.56 52.1275L30.8821 51.7552C31.9076 50.5695 32.0776 49.4556 31.4311 48.1582C31.0531 47.3996 31.1439 46.8375 31.7375 46.26C32.1978 45.8122 32.5608 45.2275 32.4795 45.0645C32.4559 45.0171 32.2982 45.1773 32.1289 45.4204C31.7305 45.993 31.601 46.0365 31.5281 45.6224C31.4141 44.9751 31.2363 44.3415 31.0944 44.0777C30.9764 43.858 30.9593 43.8533 30.9976 44.0513C31.0234 44.1837 31.0528 44.4343 31.0632 44.6083L31.0821 44.9248L30.6957 44.7541L30.3094 44.5834L30.5349 44.8179C31.0256 45.3285 31.1626 45.5866 31.1385 45.9545C31.1124 46.353 30.8588 46.9732 30.7408 46.9272C30.5102 46.8372 29.2309 45.8216 29.1542 45.6676C29.1031 45.5651 29.1107 45.2477 29.1714 44.9625C29.2932 44.3879 29.1196 43.5653 28.8952 43.6543C28.8199 43.6842 28.8056 43.8037 28.8635 43.9199C29.0111 44.2162 28.989 44.7889 28.8306 44.7696C28.758 44.7607 28.6507 44.6571 28.5919 44.5391C28.4796 44.3137 27.5651 43.6026 27.5205 43.706C27.5063 43.7391 27.6676 43.9286 27.8791 44.127C28.2785 44.5019 28.7463 45.2931 28.6714 45.4672C28.5912 45.6534 27.3878 45.2833 27.0757 44.9763C26.9052 44.8085 26.5234 44.5973 26.2276 44.5069L25.6896 44.3426L26.1472 44.6299C26.781 45.0279 26.8295 45.1721 26.3216 45.1493C25.7151 45.1221 24.4443 45.2536 24.4038 45.3476C24.3844 45.3928 24.6533 45.4329 25.0014 45.4368C25.5699 45.4432 25.6017 45.458 25.3138 45.582C25.1374 45.658 24.8693 45.8298 24.7179 45.964C24.5091 46.149 24.3101 46.2124 23.8935 46.2262C23.2932 46.2462 22.3917 46.5601 22.201 46.8155C22.1203 46.9237 21.8472 46.946 21.3723 46.883C20.1946 46.7269 19.0709 47.3211 18.6914 48.3006C18.4999 48.7945 18.5023 49.3225 18.698 49.7151C18.814 49.948 18.7759 49.9997 18.3685 50.1613C18.1152 50.2617 17.6955 50.5738 17.4357 50.8547C16.779 51.5652 16.7128 52.2597 17.2107 53.2188L17.5779 53.9262L17.1216 54.3238C16.6816 54.7073 16.6491 54.7185 16.2087 54.6384C15.6032 54.5284 14.4626 54.755 13.9081 55.0958C13.2278 55.5139 12.8707 56.5222 13.0883 57.4114L13.2575 58.103L12.7784 58.1401C12.4254 58.1676 12.1853 58.0858 11.8655 57.8295C10.5228 56.7531 8.13659 57.3915 7.90919 58.888C7.84979 59.2796 7.75184 59.4029 7.30344 59.6507C6.25885 60.2281 5.89174 61.2716 6.38502 62.2616C6.59643 62.6859 6.61637 62.87 6.48202 63.1554C6.1301 63.9028 6.70835 65.2432 7.59735 65.7408C8.62533 66.3162 10.4656 66.0102 10.996 65.1755L11.2363 64.7973L11.8351 65.0148C13.0427 65.4534 14.213 65.1337 14.8948 64.1791C15.1495 63.8225 15.3015 63.7026 15.4387 63.7497C15.5434 63.7857 15.7545 63.7655 15.9077 63.7047C16.1249 63.6185 16.2162 63.6545 16.3227 63.8682C16.8646 64.9558 19.0953 65.4112 20.1716 64.6538C20.7404 64.2535 21.581 64.2406 21.7767 64.6293C21.9717 65.0167 22.6965 65.3966 23.516 65.541C24.0993 65.6438 24.3211 65.6171 24.9877 65.3634C25.6053 65.1283 25.8539 65.0901 26.1549 65.184C26.7129 65.3578 27.7831 65.3378 28.2712 65.1442C28.7746 64.9445 29.4213 64.3193 29.5774 63.8813C29.6388 63.7091 29.6684 63.3586 29.6432 63.1022L29.5973 62.6362L30.3796 62.3521C31.0115 62.1227 31.22 61.9885 31.4637 61.6548C31.7544 61.2569 32.8568 60.6668 32.9521 60.8581C33.0418 61.0381 34.2063 61.4225 34.6363 61.414C35.7043 61.393 36.6291 60.7162 36.9852 59.6951C37.1815 59.132 37.1047 58.2781 36.8301 57.9712C36.7257 57.8545 36.7293 57.7382 36.8401 57.6502C37.9483 56.7708 38.248 56.0402 37.9619 54.9159L37.8368 54.4247L38.1077 54.9368C38.493 55.6646 38.465 56.2152 38.0087 56.8804C37.5133 57.6023 37.6623 57.6869 38.2158 56.9979L38.6315 56.4804L38.6721 56.7688C38.8181 57.807 38.7206 59.9257 38.465 61.269C38.4247 61.4809 38.4488 61.6317 38.5186 61.6041C38.6447 61.554 39.1266 58.7746 39.1283 58.0872C39.1294 57.5939 39.3813 57.7644 39.7654 58.5183C40.0134 59.0051 40.0731 59.0647 40.0987 58.8517C40.1187 58.6857 39.9428 58.2782 39.6101 57.7199C39.2523 57.1195 39.0262 56.5792 38.885 55.9871C38.7575 55.4522 38.5066 54.8291 38.2217 54.3397L37.7634 53.5527L39.1308 54.0597C40.5743 54.595 41.9226 55.445 42.8146 56.3823L43.2932 56.8851L43.1692 57.7737C43.0489 58.6357 43.138 60.7847 43.2962 60.839C43.3393 60.8538 43.3938 60.3142 43.4173 59.6397C43.4408 58.9653 43.5151 58.1968 43.5826 57.9319L43.7053 57.4501L44.066 57.9345C44.7111 58.8007 46.0114 61.5921 46.154 62.4166C46.3033 63.28 46.3259 63.3428 46.4365 63.1982C46.5825 63.0069 46.324 61.7795 45.8674 60.4962L45.4216 59.2434L46.092 59.6635C46.4608 59.8946 46.866 60.2035 46.9924 60.3499C47.2239 60.6183 47.547 60.7506 47.4384 60.5326C47.3042 60.2632 46.26 59.3714 45.679 59.0297C45.1934 58.7444 44.9235 58.4699 44.4737 57.8039C43.352 56.1429 42.4331 55.249 40.9707 54.3962C40.4542 54.0951 40.0451 53.8176 40.0614 53.7796C40.0778 53.7417 40.6539 53.6152 41.3419 53.4989C42.7185 53.266 42.9008 53.3008 44.4984 54.1023C44.9578 54.3327 45.3483 54.4874 45.366 54.4459C45.3839 54.4045 45.0256 54.1529 44.5697 53.8869C44.1139 53.6209 43.721 53.3628 43.6964 53.3135C43.6408 53.2019 44.7221 53.1552 46.5003 53.1921C48.0381 53.2241 48.2451 53.0746 46.8203 52.961ZM37.1806 43.1532C37.0301 43.168 36.8869 43.1401 36.8624 43.091C36.7813 42.928 37.1289 42.7197 37.4467 42.7406C37.7301 42.7593 37.7453 42.7784 37.607 42.9436C37.523 43.0439 37.3311 43.1382 37.1806 43.1532ZM37.9328 46.1942C37.3731 46.1386 37.1724 45.8965 37.5232 45.7001C37.6691 45.6184 37.9871 45.6406 38.3497 45.7579C38.9198 45.9422 38.9305 45.9532 38.6814 46.0956C38.5398 46.1767 38.2028 46.2209 37.9328 46.1942ZM31.9497 42.3781C31.3637 41.7096 30.8454 41.3045 30.4205 41.183C30.0621 41.0806 30.06 41.0819 30.1876 41.338C30.3012 41.5658 30.2187 41.5559 29.4886 41.2536C28.6236 40.8955 26.8263 40.7176 26.2767 40.9355C26.0038 41.0437 26.006 41.0548 26.3588 41.3523C26.5581 41.5203 26.7426 41.7009 26.7689 41.7536C26.7951 41.8063 26.5189 41.9394 26.1549 42.0495L25.4931 42.2495L25.8973 42.4057C26.5062 42.641 26.53 42.8297 25.9466 42.7958C25.2434 42.7549 24.4122 42.9865 23.5024 43.4768C22.4641 44.0363 22.3462 44.1372 22.3985 44.4213C22.4289 44.5868 22.3379 44.7005 22.0984 44.7964C21.6974 44.9569 20.8277 45.8133 20.7218 46.1519C20.6583 46.3551 20.7618 46.3881 21.527 46.4084C22.2258 46.4269 22.363 46.4025 22.1997 46.289C22.0868 46.2105 21.9254 46.138 21.8409 46.1277C21.7565 46.1174 21.6541 46.0423 21.6135 45.9609C21.5241 45.7814 22.5126 44.89 23.0276 44.6858C23.2888 44.5822 23.3854 44.4717 23.3556 44.3104C23.3085 44.0539 23.6863 43.7763 24.544 43.4374C25.3285 43.1271 26.0058 43.0605 26.4966 43.245C27.167 43.4972 27.3239 43.3476 26.9454 42.8173C26.636 42.3838 26.6361 42.365 26.948 42.2008C27.2141 42.061 27.2411 41.9877 27.1038 41.7785C27.0125 41.6392 26.9334 41.4506 26.928 41.3593C26.9014 40.9056 29.4037 41.4326 30.1065 42.029C30.4278 42.3014 30.5274 42.3044 30.6394 42.0441C30.6922 41.9215 30.8933 42.0495 31.3606 42.5031C32.1804 43.2987 32.8002 44.4749 32.8896 45.4047C32.9688 46.2264 32.567 47.3353 32.0252 47.7911C31.6335 48.1204 31.6316 48.1289 31.9811 47.9938C32.8487 47.6582 33.4727 46.2971 33.2997 45.1173C33.1905 44.3715 32.5398 43.0512 31.9497 42.3781ZM37.4446 54.179C37.293 54.0185 36.8182 53.7415 36.3895 53.5635L35.6102 53.2398L36.1506 53.3084C36.7624 53.3861 37.4103 53.7834 37.5957 54.1943C37.7106 54.4491 37.6986 54.4478 37.4446 54.179ZM37.5018 55.8432C37.406 56.6088 36.8478 57.2651 36.1177 57.4708C35.3447 57.6886 34.5277 57.6153 34.0522 57.2855C33.6597 57.0134 33.6513 56.9958 33.7635 56.694C33.9614 56.162 33.9406 55.4808 33.7068 54.8318L33.4822 54.2083L34.0348 53.9498C34.6704 53.6527 35.2038 53.6483 36.0332 53.9334C37.1341 54.3118 37.6152 54.9374 37.5018 55.8432ZM34.8536 53.3212C34.623 53.3382 34.158 53.4822 33.8204 53.6413C33.2392 53.915 33.1742 53.9176 32.5996 53.6897C32.2442 53.5486 31.6899 53.4643 31.2615 53.486C30.7714 53.5109 30.5811 53.4766 30.6846 53.3819C30.8606 53.2207 32.0955 53.1377 33.9476 53.1624C35.2013 53.1791 35.6688 53.2611 34.8536 53.3212ZM36.6808 59.0548C36.628 60.5267 34.8491 61.3831 33.5331 60.5701C32.568 59.9741 32.3261 58.3116 33.0953 57.5612L33.4985 57.1678L33.9408 57.4958C34.4332 57.861 35.2962 58.0389 35.9449 57.9091C36.3142 57.8352 36.3936 57.8683 36.5363 58.1547C36.6271 58.3368 36.6921 58.7418 36.6808 59.0548ZM31.0359 48.7557C30.6704 49.374 30.4798 49.3455 30.1114 48.6176C29.8372 48.0758 29.6892 47.9223 29.1762 47.6486C28.6746 47.3808 28.5726 47.2773 28.5996 47.0633C28.6294 46.8258 28.7279 46.7633 29.4166 46.5442C29.506 46.5158 29.7323 46.621 29.9194 46.778C30.3222 47.1162 30.2566 47.3005 29.6949 47.4078C29.4856 47.4479 29.3541 47.5243 29.3858 47.5878C29.416 47.6485 29.6924 47.6474 30.0002 47.5851C30.4776 47.4886 30.5943 47.5147 30.7967 47.7628C31.2178 48.2791 31.2467 48.3991 31.0359 48.7557ZM31.2619 50.3817C31.1179 50.7393 30.156 51.9645 29.9576 52.0432C29.9186 52.0586 29.7359 51.9633 29.5514 51.8314L29.2159 51.5914L29.6599 51.1969C29.904 50.9798 30.181 50.586 30.2754 50.3216C30.3697 50.0572 30.6623 49.6617 30.9253 49.4426L31.4037 49.0442L31.4157 49.5072C31.4222 49.7619 31.353 50.1554 31.2619 50.3817ZM28.8038 46.4114C28.6369 46.4775 28.4802 46.4128 28.2835 46.1966C27.9022 45.7775 27.9616 45.7108 28.5002 45.9538C29.0548 46.2038 29.1115 46.2893 28.8038 46.4114ZM33.3692 55.8454C33.3207 56.632 33.0509 57.0645 32.4058 57.3896C31.073 58.0613 29.4931 57.6999 28.9439 56.5976C28.7338 56.1759 28.7403 56.1535 29.118 56.001C29.7073 55.763 30.2695 55.128 30.4981 54.4425C30.6984 53.8411 30.7111 53.8295 31.2175 53.7749C31.5011 53.7444 31.9746 53.8188 32.2697 53.9404C32.7244 54.1277 32.8515 54.2523 33.103 54.7571C33.2886 55.1296 33.3883 55.537 33.3692 55.8454ZM29.988 49.9396C29.9519 50.5474 29.833 50.7774 29.3446 51.183C28.9995 51.4698 28.9056 51.4906 28.1543 51.446C27.7057 51.4193 27.2644 51.427 27.1737 51.4629C27.0829 51.499 26.78 51.4016 26.5004 51.2465C25.8212 50.8697 25.3988 50.0586 25.5349 49.392C25.8347 47.9224 27.9873 47.2577 29.2226 48.2535C29.6901 48.6302 30.0223 49.3621 29.988 49.9396ZM28.2981 47.092C28.2768 47.2198 28.1229 47.2686 27.6424 47.2999C26.8538 47.3512 26.0742 47.7723 25.6563 48.3727L25.3574 48.8024L25.0009 48.4316C24.5561 47.969 24.4304 47.2964 24.6869 46.7515C24.9272 46.2413 25.9012 45.7589 26.6567 45.7759C27.4598 45.7941 28.3899 46.5398 28.2981 47.092ZM30.1065 53.9067C30.0933 54.4527 29.5934 55.168 28.9956 55.4963C28.0852 55.9963 26.4362 55.6348 25.7853 54.7923C25.0905 53.893 25.5887 52.3507 26.719 51.9024C27.2468 51.6931 28.288 51.6463 28.729 51.8121C29.6139 52.145 30.1301 52.9297 30.1065 53.9067ZM32.3918 59.9372L32.6284 60.5838L32.2164 60.6607C31.1995 60.8503 30.5147 60.6299 30.0836 59.9742C29.6948 59.3826 29.6295 59.0242 29.8091 58.4681L29.9541 58.0193L30.5374 58.1133C30.8582 58.1648 31.3721 58.1717 31.6795 58.1284L32.2384 58.0497L32.1968 58.6701C32.1738 59.0114 32.2617 59.5815 32.3918 59.9372ZM24.2342 48.0187C24.373 48.2973 24.6454 48.6387 24.8394 48.7776C25.1644 49.0099 25.194 49.0753 25.2111 49.5963C25.2214 49.9077 25.144 50.2308 25.0391 50.3144C24.4242 50.8043 23.0374 50.5659 22.3965 49.8603C21.4462 48.8141 22.1168 46.877 23.509 46.6469C24.0908 46.5506 24.124 46.5759 24.0507 47.0587C24.0072 47.3456 24.0745 47.6982 24.2342 48.0187ZM29.9595 62.0678C29.4061 62.178 29.3613 62.162 28.8631 61.6761C28.4943 61.3163 28.144 61.1152 27.6547 60.9824C26.8311 60.7587 26.8228 60.586 27.638 60.6316C28.0863 60.6568 28.3737 60.5922 28.8503 60.3593L29.4751 60.0539L29.8 60.3918C29.9787 60.5776 30.4048 60.821 30.747 60.9326L31.3693 61.1356L30.9529 61.5442C30.6214 61.8694 30.4189 61.9761 29.9595 62.0678ZM29.3869 58.5056C29.2686 58.8284 29.2064 59.1621 29.2487 59.2469C29.5076 59.7666 28.4665 60.3625 27.5444 60.2223C26.9251 60.128 26.0607 59.5436 25.8167 59.0539C25.6258 58.6707 25.7304 57.9496 26.05 57.445C26.3402 56.987 27.1458 56.5806 27.7882 56.5679C28.2175 56.5595 28.3485 56.6212 28.5879 56.9446C28.7454 57.1573 29.0113 57.4228 29.1788 57.5345C29.6172 57.8268 29.624 57.8582 29.3869 58.5056ZM26.1221 51.8805C25.7767 52.018 25.2608 52.6603 25.1054 53.146L24.9858 53.5196L24.6943 53.1196C24.5339 52.8996 24.0893 52.5441 23.7062 52.3295C22.9725 51.9184 22.8833 51.7528 23.0897 51.1838L23.208 50.8577L24.0045 50.8658C24.5183 50.8712 24.8947 50.8087 25.0647 50.6898C25.2963 50.528 25.3471 50.5418 25.483 50.803C25.5681 50.9666 25.7853 51.2168 25.9658 51.359C26.4197 51.7168 26.4318 51.7571 26.1221 51.8805ZM25.6528 57.1812C25.5016 57.3709 25.2783 57.5306 25.1568 57.5361C24.9109 57.5475 24.4121 57.2161 24.0636 56.81C23.8706 56.5852 23.8741 56.5288 24.0861 56.4448C24.4533 56.2991 24.8443 55.819 25.0078 55.3129L25.1512 54.8691L25.5147 55.2831C25.7375 55.5368 26.137 55.7895 26.5471 55.9361L27.2158 56.1753L26.5718 56.5058C26.2175 56.6876 25.8039 56.9916 25.6528 57.1812ZM21.5072 49.1102C21.6698 49.6347 21.9296 50.0559 22.258 50.3275C22.4012 50.4459 22.358 50.5239 22.0411 50.719C20.8041 51.4805 18.8205 50.1134 19.1 48.6919C19.2677 47.8384 20.1961 47.2112 21.2098 47.2664L21.6915 47.2928L21.5189 47.9416C21.4103 48.3496 21.406 48.7834 21.5072 49.1102ZM29.1237 63.3457C29.1074 65.2947 25.577 65.4077 25.063 63.4756C24.9665 63.1132 24.9884 63.0832 25.4967 62.8817C26.1425 62.6255 26.698 62.1228 26.955 61.5617C27.1432 61.1508 27.148 61.1482 27.5098 61.2514C28.0131 61.3951 28.713 61.9686 28.9395 62.4232C29.0432 62.6314 29.1261 63.0466 29.1237 63.3457ZM24.6717 54.6051C24.665 54.8496 24.5459 55.2701 24.407 55.5394C24.1983 55.944 24.0492 56.0707 23.5492 56.269C23.2164 56.401 22.7165 56.5135 22.4386 56.519C21.9502 56.5286 21.9297 56.5139 21.8265 56.0816C21.6359 55.2825 21.1843 54.5556 20.6786 54.2335C20.2253 53.9448 20.212 53.9227 20.318 53.634C20.9084 52.0263 23.6189 52.0275 24.4219 53.636C24.5659 53.9244 24.6783 54.3605 24.6717 54.6051ZM22.6174 51.7598C22.7213 51.9682 22.7106 51.9753 22.2609 51.9973C21.9825 52.0108 21.9007 51.9511 21.8125 51.6696C21.7234 51.3853 21.7669 51.2904 22.062 51.1257C22.2587 51.016 22.5051 50.8439 22.6094 50.7433C22.7677 50.5908 22.7767 50.6452 22.6637 51.0705C22.5891 51.3511 22.5684 51.6613 22.6174 51.7598ZM26.7558 61.1033C26.7254 61.5658 26.1246 62.2368 25.5235 62.4795C24.9833 62.6976 24.0712 62.6353 23.5153 62.3424C23.1553 62.1526 22.9855 61.9586 22.7286 61.4429C22.4506 60.885 22.423 60.7025 22.5463 60.2382C22.6263 59.9373 22.8397 59.5512 23.0205 59.3801C23.4024 59.019 24.2714 58.6478 24.7945 58.6222C25.1267 58.6061 25.1844 58.6581 25.4699 59.231C25.6785 59.6498 25.9222 59.9514 26.2051 60.1411C26.7285 60.4921 26.7889 60.5975 26.7558 61.1033ZM24.9386 58.1942C24.7673 58.2345 24.2143 58.4247 23.7097 58.6168L22.7921 58.9662L22.6559 58.4134C22.5639 58.0395 22.3927 57.7092 22.1268 57.3926C21.9107 57.1352 21.7448 56.8989 21.7584 56.8674C21.7719 56.836 22.0723 56.8189 22.426 56.8293C22.7795 56.8396 23.1606 56.8118 23.2729 56.7673C23.3974 56.7179 23.5196 56.7723 23.5868 56.9071C23.7429 57.2204 24.5579 57.7844 24.9207 57.8302C25.3226 57.8809 25.3335 58.1013 24.9386 58.1942ZM21.1839 52.2837C20.6434 52.4981 19.9225 53.2311 19.8927 53.5965C19.8732 53.8355 19.8424 53.8539 19.5873 53.7791C19.4313 53.7333 18.9953 53.6994 18.6186 53.7037L17.9336 53.7116L17.6325 53.1074C17.4669 52.775 17.3429 52.3295 17.3567 52.1175C17.3943 51.5449 17.8462 50.8983 18.4374 50.5716L18.9581 50.2837L19.5432 50.7094C19.865 50.9434 20.3874 51.1954 20.704 51.2693C21.1499 51.3733 21.3192 51.4829 21.4549 51.7552C21.6208 52.0883 21.6066 52.1161 21.1839 52.2837ZM21.4724 56.5475L21.4418 56.8564L21.1043 56.7227C20.6381 56.5383 19.4076 56.7034 18.8679 57.0229C18.3365 57.3376 18.1907 57.263 18.1754 56.669C18.1603 56.0845 17.7302 55.2158 17.3563 55.015C17.0909 54.8722 17.0871 54.8402 17.3094 54.616C17.674 54.2486 18.0802 54.1301 18.8536 54.1657C19.6261 54.2012 19.9864 54.3147 20.5123 54.6881C20.9373 54.99 21.5156 56.11 21.4724 56.5475ZM22.3123 58.7227C22.406 59.2854 21.9546 60.2113 21.3857 60.6233C20.858 61.0053 20.0708 61.1445 19.5667 60.945C19.3772 60.87 18.9983 60.7974 18.7249 60.7836L18.2279 60.7587L18.677 60.2596C19.2819 59.5878 19.3864 58.5492 18.9232 57.8121C18.6257 57.3387 18.6259 57.3146 18.9292 57.1951C19.8224 56.8428 21.0132 56.966 21.6352 57.4751C22.0309 57.7988 22.2145 58.1374 22.3123 58.7227ZM24.8935 64.0278C24.9677 64.1765 25.1357 64.416 25.2669 64.5599C25.5019 64.818 25.4973 64.8248 24.9461 65.0434C24.6385 65.1654 24.1616 65.2601 23.8864 65.254C22.403 65.2205 21.406 63.875 22.1255 62.8774C22.4553 62.4204 22.7612 62.361 23.2344 62.6624C23.4676 62.8109 23.8678 62.9542 24.1237 62.9807C24.5309 63.0231 24.5996 63.0746 24.6738 63.3933C24.7204 63.5935 24.8193 63.8791 24.8935 64.0278ZM22.3173 61.6323C22.5155 62.0338 22.5068 62.099 22.2316 62.2727C21.8001 62.5453 21.4757 63.1482 21.4887 63.6538C21.4983 64.0269 21.4603 64.0815 21.2033 64.0646C20.8212 64.0394 20.7863 63.9526 20.9096 63.338C21.0241 62.7681 20.8255 61.9783 20.4543 61.5283L20.2075 61.2289L20.6457 61.1966C20.8867 61.1788 21.2898 61.0447 21.5413 60.8987C21.9765 60.6459 22.001 60.6464 22.0477 60.9092C22.0745 61.0611 22.1959 61.3865 22.3173 61.6323ZM17.9318 56.7745C17.9459 56.8773 17.7541 56.9083 17.3053 56.8756C16.116 56.7889 15.0954 57.2193 14.5556 58.0353C14.2656 58.4738 14.252 58.4751 13.901 58.0936C13.0772 57.1983 13.4239 55.6994 14.5544 55.2691C15.1732 55.0337 16.2017 55.0015 16.696 55.2024C17.3691 55.4758 17.8344 56.0676 17.9318 56.7745ZM18.8186 59.0534C18.6624 59.8251 18.3531 60.1992 17.6361 60.4835C16.4717 60.9453 15.4053 60.6389 14.9422 59.7093C14.4403 58.7022 14.8097 57.9212 16.0137 57.4437C16.7116 57.1669 17.6141 57.1563 18.1036 57.4193C18.5706 57.6703 18.9316 58.4952 18.8186 59.0534ZM20.4685 62.6196C20.6729 63.6701 20.0198 64.4869 18.871 64.6176C17.3356 64.7923 16.1117 63.5219 16.5543 62.2128C16.9004 61.1889 18.951 60.7694 19.8825 61.5318C20.2933 61.8682 20.3385 61.952 20.4685 62.6196ZM16.2178 62.2669C16.135 62.5234 16.0812 62.8445 16.0983 62.9806C16.1333 63.2602 15.7924 63.447 15.4909 63.3135C15.3467 63.2497 15.2789 63.0867 15.2483 62.7295C15.2248 62.4571 15.1648 62.1462 15.1148 62.039C15.0649 61.9318 15.1266 61.6054 15.2521 61.3137L15.4802 60.7836L15.8737 60.9316C16.0901 61.013 16.4573 61.0753 16.6898 61.0702L17.1124 61.0607L16.7404 61.4308C16.5358 61.6342 16.3005 62.0106 16.2178 62.2669ZM14.7741 60.2331C15.1231 60.5913 15.1544 60.8153 14.921 61.2862C14.7819 61.567 14.7654 61.5673 14.3229 61.2976C13.7796 60.9662 13.1418 60.8357 12.2429 60.872C11.8782 60.8865 11.6739 60.8586 11.7888 60.8096C12.1393 60.6604 12.5821 59.5947 12.5079 59.0789C12.4703 58.8167 12.488 58.5828 12.5474 58.5593C12.7755 58.4688 13.5247 58.5696 13.8839 58.7392C14.2083 58.8924 14.2727 58.9838 14.3543 59.408C14.4209 59.7541 14.545 59.9981 14.7741 60.2331ZM14.7789 63.1806C14.6773 64.1508 13.7313 64.8268 12.5547 64.7702C11.7379 64.7308 11.2139 64.3826 10.8379 63.6291C10.139 62.229 11.2001 61.0867 13.0478 61.2499C14.1556 61.3477 14.8858 62.162 14.7789 63.1806ZM11.9671 59.4536C11.7981 60.477 10.9905 61.1129 10.0056 60.9982C9.35186 60.9221 8.95207 60.6765 8.55869 60.1097C8.12333 59.4822 8.21613 58.7909 8.81524 58.2002C9.48333 57.5416 10.4982 57.4746 11.3968 58.0295C11.9463 58.3688 12.0879 58.7223 11.9671 59.4536ZM10.5156 61.9795C10.3715 62.2589 10.2424 62.6581 10.2287 62.8667C10.1993 63.3153 9.91943 63.4569 9.07441 63.4504C7.05612 63.435 5.85513 61.4071 7.17153 60.2371C7.75671 59.7169 8.01173 59.7047 8.25144 60.1858C8.61599 60.9175 9.46308 61.4116 10.32 61.3925C10.5474 61.3872 10.7434 61.4031 10.7555 61.4274C10.7676 61.4517 10.6597 61.7002 10.5156 61.9795ZM10.7531 64.9882C10.3173 65.4032 9.37475 65.7257 8.77245 65.6658C7.66864 65.5562 6.81875 64.641 6.84725 63.5927C6.85861 63.1757 7.01172 62.9372 7.12373 63.162C7.23084 63.377 8.20655 63.6984 8.765 63.7026C9.08853 63.7052 9.5554 63.6283 9.80237 63.532L10.2513 63.3568L10.5788 63.9071C10.7589 64.2097 10.9437 64.5084 10.9895 64.5707C11.0353 64.6328 10.929 64.8208 10.7531 64.9882Z" fill="white"/>
<path d="M10.12 69.49V77.65C10.7 77.99 11.49 78.16 12.49 78.16C13.68 78.16 14.73 77.835 15.64 77.185C16.1 76.855 16.465 76.395 16.735 75.805C17.005 75.215 17.14 74.55 17.14 73.81C17.14 73.06 16.99 72.395 16.69 71.815C16.4 71.235 16.02 70.77 15.55 70.42C14.6 69.7 13.62 69.34 12.61 69.34L10.12 69.49ZM9.91 68.5L13.63 68.35C15.02 68.35 16.115 68.8 16.915 69.7C17.725 70.6 18.13 71.805 18.13 73.315C18.13 74.815 17.55 76.14 16.39 77.29C15.24 78.43 13.89 79 12.34 79H7.6V78.55H8.11C8.41 78.55 8.605 78.495 8.695 78.385C8.785 78.275 8.83 78.11 8.83 77.89V69.61C8.83 69.38 8.78 69.215 8.68 69.115C8.59 69.005 8.4 68.95 8.11 68.95H7.6V68.5H9.91ZM20.7148 68.56C20.9448 68.56 21.1198 68.635 21.2398 68.785C21.3698 68.935 21.4348 69.13 21.4348 69.37C21.4348 69.6 21.3398 69.795 21.1498 69.955C20.9598 70.105 20.7498 70.18 20.5198 70.18C20.2998 70.18 20.1248 70.105 19.9948 69.955C19.8748 69.805 19.8148 69.62 19.8148 69.4C19.8148 69.17 19.9098 68.975 20.0998 68.815C20.2898 68.645 20.4948 68.56 20.7148 68.56ZM22.3648 79H19.3348V78.58H19.5748C19.8448 78.58 20.0148 78.535 20.0848 78.445C20.1648 78.355 20.2048 78.21 20.2048 78.01V73.51C20.2048 73.32 20.1398 73.185 20.0098 73.105C19.8898 73.015 19.6648 72.97 19.3348 72.97V72.55C19.5348 72.55 19.8348 72.48 20.2348 72.34C20.6448 72.19 20.9548 72.05 21.1648 71.92L21.4348 71.86V77.92C21.4348 78.08 21.4398 78.195 21.4498 78.265C21.4698 78.335 21.5298 78.405 21.6298 78.475C21.7298 78.545 21.8848 78.58 22.0948 78.58H22.3648V79ZM26.4182 79.21C25.5382 79.21 24.8032 78.88 24.2132 78.22C23.6232 77.56 23.3282 76.79 23.3282 75.91C23.3282 74.79 23.7482 73.825 24.5882 73.015C25.4382 72.205 26.3332 71.8 27.2732 71.8C28.2132 71.8 28.9682 72.135 29.5382 72.805C30.1182 73.465 30.4082 74.23 30.4082 75.1C30.4082 76.19 30.0032 77.15 29.1932 77.98C28.3932 78.8 27.4682 79.21 26.4182 79.21ZM24.3782 75.1C24.3782 76.03 24.6582 76.805 25.2182 77.425C25.7882 78.035 26.4232 78.34 27.1232 78.34C27.8332 78.34 28.3882 78.075 28.7882 77.545C29.1882 77.015 29.3882 76.47 29.3882 75.91C29.3882 75.06 29.1232 74.32 28.5932 73.69C28.0732 73.05 27.4382 72.73 26.6882 72.73C25.9382 72.73 25.3632 72.985 24.9632 73.495C24.5732 73.995 24.3782 74.53 24.3782 75.1ZM39.083 79H36.503V78.58H36.563C36.673 78.58 36.763 78.525 36.833 78.415C36.913 78.305 36.953 78.17 36.953 78.01V74.2C36.953 73.75 36.843 73.41 36.623 73.18C36.413 72.94 36.113 72.82 35.723 72.82C35.163 72.82 34.668 73.12 34.238 73.72C33.808 74.32 33.593 74.77 33.593 75.07V77.92C33.593 78.08 33.598 78.195 33.608 78.265C33.628 78.335 33.688 78.405 33.788 78.475C33.888 78.545 34.043 78.58 34.253 78.58H34.523V79H31.493V78.58H31.733C32.003 78.58 32.173 78.535 32.243 78.445C32.323 78.355 32.363 78.21 32.363 78.01V73.51C32.363 73.32 32.298 73.185 32.168 73.105C32.048 73.015 31.823 72.97 31.493 72.97V72.55C31.693 72.55 31.993 72.48 32.393 72.34C32.803 72.19 33.113 72.05 33.323 71.92L33.593 71.86V73.78C33.823 73.15 34.178 72.665 34.658 72.325C35.138 71.975 35.723 71.8 36.413 71.8C36.773 71.8 37.078 71.88 37.328 72.04C37.578 72.2 37.758 72.405 37.868 72.655C38.058 73.085 38.153 73.51 38.153 73.93V77.98C38.153 78.12 38.163 78.225 38.183 78.295C38.233 78.485 38.443 78.58 38.813 78.58H39.083V79ZM39.4121 82.48L39.6521 81.31H39.8621C39.8821 81.42 39.9721 81.54 40.1321 81.67C40.2921 81.81 40.4621 81.88 40.6421 81.88C41.2621 81.88 41.7021 81.67 41.9621 81.25C42.2221 80.83 42.4921 80.07 42.7721 78.97L40.4921 73.06C40.4021 72.85 40.3071 72.7 40.2071 72.61C40.1071 72.51 39.9521 72.46 39.7421 72.46H39.5321V72.01H42.4721V72.46H42.3821C41.9621 72.46 41.7521 72.58 41.7521 72.82C41.7521 72.87 41.8021 73.03 41.9021 73.3L43.4321 77.38L45.1121 73.15C45.2321 72.91 45.2921 72.76 45.2921 72.7C45.2921 72.61 45.2321 72.55 45.1121 72.52C45.0021 72.48 44.7721 72.46 44.4221 72.46H44.3021V72.01H47.0921V72.46H46.9421C46.6021 72.46 46.3671 72.51 46.2371 72.61C46.1071 72.71 45.9921 72.9 45.8921 73.18L42.8621 80.77C42.5921 81.43 42.2671 81.92 41.8871 82.24C41.5171 82.56 41.0121 82.72 40.3721 82.72C40.1321 82.72 39.8121 82.64 39.4121 82.48ZM47.7821 78.58L47.9321 76.96L48.3521 76.99C48.3521 77.33 48.5721 77.655 49.0121 77.965C49.4521 78.275 49.9271 78.43 50.4371 78.43C51.4871 78.43 52.0121 78.11 52.0121 77.47C52.0121 77.15 51.8771 76.865 51.6071 76.615C51.3371 76.365 51.0121 76.16 50.6321 76C50.2521 75.83 49.8721 75.66 49.4921 75.49C49.1121 75.31 48.7871 75.08 48.5171 74.8C48.2471 74.51 48.1121 74.18 48.1121 73.81C48.1121 72.51 49.0721 71.86 50.9921 71.86C51.4221 71.86 51.8921 71.98 52.4021 72.22L52.3121 73.72H51.9521C51.9521 73.44 51.7871 73.17 51.4571 72.91C51.1371 72.65 50.7871 72.52 50.4071 72.52C50.0271 72.52 49.7021 72.595 49.4321 72.745C49.1721 72.895 49.0421 73.12 49.0421 73.42C49.0421 73.71 49.1771 73.95 49.4471 74.14C49.7171 74.33 50.0421 74.485 50.4221 74.605C50.8021 74.725 51.1821 74.86 51.5621 75.01C51.9421 75.16 52.2671 75.405 52.5371 75.745C52.8071 76.085 52.9421 76.51 52.9421 77.02C52.9421 77.53 52.7771 77.955 52.4471 78.295C51.8571 78.905 51.0021 79.21 49.8821 79.21C49.0121 79.21 48.3121 79 47.7821 78.58ZM61.6074 79H59.4474V77.23C59.2174 77.86 58.8624 78.35 58.3824 78.7C57.9024 79.04 57.3174 79.21 56.6274 79.21C56.2674 79.21 55.9624 79.13 55.7124 78.97C55.4624 78.81 55.2824 78.605 55.1724 78.355C54.9824 77.925 54.8874 77.5 54.8874 77.08V73.51C54.8874 73.05 54.5974 72.82 54.0174 72.82V72.4C54.2174 72.4 54.5174 72.345 54.9174 72.235C55.3274 72.125 55.6274 72.01 55.8174 71.89L56.0874 71.86V76.81C56.0874 77.26 56.1924 77.605 56.4024 77.845C56.6224 78.075 56.9274 78.19 57.3174 78.19C57.8774 78.19 58.3724 77.89 58.8024 77.29C59.2324 76.69 59.4474 76.24 59.4474 75.94V73.51C59.4474 73.05 59.1574 72.82 58.5774 72.82V72.4C58.7974 72.4 59.1074 72.345 59.5074 72.235C59.9174 72.125 60.2174 72.01 60.4074 71.89L60.6774 71.86V77.98C60.6774 78.12 60.6874 78.225 60.7074 78.295C60.7574 78.485 60.9674 78.58 61.3374 78.58H61.6074V79ZM62.7821 78.58L62.9321 76.96L63.3521 76.99C63.3521 77.33 63.5721 77.655 64.0121 77.965C64.4521 78.275 64.9271 78.43 65.4371 78.43C66.4871 78.43 67.0121 78.11 67.0121 77.47C67.0121 77.15 66.8771 76.865 66.6071 76.615C66.3371 76.365 66.0121 76.16 65.6321 76C65.2521 75.83 64.8721 75.66 64.4921 75.49C64.1121 75.31 63.7871 75.08 63.5171 74.8C63.2471 74.51 63.1121 74.18 63.1121 73.81C63.1121 72.51 64.0721 71.86 65.9921 71.86C66.4221 71.86 66.8921 71.98 67.4021 72.22L67.3121 73.72H66.9521C66.9521 73.44 66.7871 73.17 66.4571 72.91C66.1371 72.65 65.7871 72.52 65.4071 72.52C65.0271 72.52 64.7021 72.595 64.4321 72.745C64.1721 72.895 64.0421 73.12 64.0421 73.42C64.0421 73.71 64.1771 73.95 64.4471 74.14C64.7171 74.33 65.0421 74.485 65.4221 74.605C65.8021 74.725 66.1821 74.86 66.5621 75.01C66.9421 75.16 67.2671 75.405 67.5371 75.745C67.8071 76.085 67.9421 76.51 67.9421 77.02C67.9421 77.53 67.7771 77.955 67.4471 78.295C66.8571 78.905 66.0021 79.21 64.8821 79.21C64.0121 79.21 63.3121 79 62.7821 78.58Z" fill="white"/>
</svg>
